<?xml version="1.0" encoding="UTF-8" standalone="no"?>
<svg
   version="1.0"
   width="813.65051pt"
   height="785pt"
   viewBox="0 0 813.65051 785"
   preserveAspectRatio="xMidYMid"
   id="svg8"
   sodipodi:docname="2ndcaries.svg"
   inkscape:version="1.4 (e7c3feb1, 2024-10-09)"
   xmlns:inkscape="http://www.inkscape.org/namespaces/inkscape"
   xmlns:sodipodi="http://sodipodi.sourceforge.net/DTD/sodipodi-0.dtd"
   xmlns="http://www.w3.org/2000/svg"
   xmlns:svg="http://www.w3.org/2000/svg">
  <defs
     id="defs8" />
  <sodipodi:namedview
     id="namedview8"
     pagecolor="#ffffff"
     bordercolor="#000000"
     borderopacity="0.25"
     inkscape:showpageshadow="2"
     inkscape:pageopacity="0.0"
     inkscape:pagecheckerboard="0"
     inkscape:deskcolor="#d1d1d1"
     inkscape:document-units="pt"
     showgrid="false"
     inkscape:zoom="0.39697266"
     inkscape:cx="544.11808"
     inkscape:cy="641.10208"
     inkscape:window-width="1200"
     inkscape:window-height="990"
     inkscape:window-x="0"
     inkscape:window-y="25"
     inkscape:window-maximized="0"
     inkscape:current-layer="svg8" />
  <path
     fill="#1e1e19"
     stroke="none"
     d="M 166,784 C 147,779 130,769 113,753 83,723 63,678 53,617 49,592 46,563 42,495 38,407 35,389 18,315 12,290 9,274 6,258 -7,181 3,118 35,73 43,61 64,41 76,32 94,19 118,9 141,4 c 18,-4 28,-4 55,-4 41,1 58,4 103,17 58,16 79,20 116,19 29,-1 50,-5 96,-17 31,-9 49,-13 69,-16 20,-3 66,-4 84,-1 66,12 117,54 138,117 17,52 16,109 -7,196 -16,63 -18,83 -25,192 -3,66 -6,95 -13,126 -16,80 -52,132 -101,148 -11,3 -18,4 -33,4 -17,-1 -26,-3 -41,-10 -29,-14 -50,-36 -68,-73 -10,-18 -16,-34 -29,-74 -13,-37 -19,-51 -28,-65 -9,-12 -18,-20 -31,-24 -9,-3 -26,-3 -34,-1 -24,7 -40,26 -53,62 -2,5 -7,20 -11,34 -10,30 -17,48 -27,67 -11,22 -19,34 -33,48 -17,17 -32,27 -52,33 -8,2 -12,2 -26,3 -13,0 -19,0 -24,-1 z"
     id="path1" />
  <path
     fill="#474667"
     stroke="none"
     d="M 171,755 C 161,753 149,747 140,740 126,728 114,713 104,690 84,649 75,599 70,506 69,495 69,476 68,465 65,405 61,376 47,319 31,254 27,224 28,190 c 2,-34 7,-58 20,-82 7,-15 16,-26 28,-38 24,-23 50,-36 87,-40 12,-2 44,-1 62,1 24,2 40,6 75,16 42,14 69,18 105,18 31,0 60,-4 93,-13 7,-2 20,-6 28,-8 42,-11 70,-16 106,-15 24,1 35,3 52,8 51,17 87,59 98,116 8,45 4,85 -16,167 -15,57 -17,75 -23,189 -5,97 -13,142 -34,184 -21,42 -49,64 -82,64 -30,0 -56,-16 -78,-49 -12,-18 -21,-39 -37,-87 -14,-42 -19,-55 -30,-70 -15,-23 -34,-37 -57,-42 -12,-2 -33,-1 -42,2 -15,5 -27,12 -39,24 -17,18 -27,39 -41,85 -17,52 -30,81 -49,104 -12,14 -32,27 -48,31 -10,2 -26,3 -35,0 z M 386,417 c 4,-4 10,-13 21,-36 5,-9 10,-18 12,-21 9,-12 18,-12 32,0 11,9 16,13 18,13 1,0 3,-1 4,-3 1,-2 2,-6 2,-23 1,-20 1,-20 4,-27 5,-11 12,-17 26,-23 18,-9 22,-12 25,-27 4,-15 11,-26 21,-31 3,-1 10,-3 19,-4 7,-1 16,-3 18,-4 7,-2 14,-8 17,-14 4,-6 4,-6 4,-60 0,-53 0,-53 -3,-58 -3,-5 -9,-9 -14,-11 -3,-1 -59,-1 -185,-1 -180,0 -182,0 -186,2 -6,3 -10,6 -12,12 -2,3 -3,4 -3,57 0,36 0,55 1,58 3,10 12,19 22,23 3,0 19,3 35,4 34,4 37,5 46,14 8,7 11,13 11,22 0,10 -4,17 -12,25 -3,4 -7,8 -8,10 -1,3 -1,3 1,6 2,3 7,5 20,7 14,2 18,4 24,11 7,7 10,15 13,28 1,6 3,16 4,22 3,14 7,26 10,29 3,4 8,4 13,0 z M 0,196 v -5 l 1,2 c 0,2 0,4 0,6 l -1,3 z m 404,67 c -2,-1 -7,-5 -10,-9 -4,-4 -7,-7 -8,-7 -1,0 -5,1 -8,3 -6,3 -7,3 -14,3 -12,1 -19,-3 -31,-15 -6,-5 -12,-10 -14,-11 -4,-2 -14,-3 -44,-7 -32,-3 -40,-4 -42,-6 -2,-2 -2,-2 -3,-51 0,-36 0,-51 1,-52 1,-1 30,-1 177,-1 175,0 175,0 177,2 1,2 1,8 1,47 -1,49 0,48 -7,50 -1,1 -15,4 -30,5 -15,2 -38,5 -50,7 -23,3 -48,7 -55,9 -5,1 -9,5 -14,16 -5,11 -8,16 -13,18 -4,2 -8,1 -13,-1 z"
     id="path2" />
  <path
     fill="#8e8c85"
     stroke="none"
     d="M 178,756 C 136,750 103,707 86,639 78,602 74,565 70,479 66,407 62,376 49,326 33,258 28,228 29,190 c 1,-27 5,-47 13,-67 18,-48 58,-82 109,-90 17,-3 36,-4 55,-3 34,2 54,6 90,17 40,13 65,18 95,19 40,1 69,-3 117,-16 48,-14 73,-18 108,-21 12,0 36,1 49,4 55,11 96,48 112,102 6,20 7,33 7,62 0,38 -3,61 -19,123 -14,56 -17,78 -22,183 -6,101 -14,148 -35,189 -8,17 -17,30 -27,40 -17,17 -33,24 -54,24 -13,0 -23,-2 -35,-8 -20,-10 -38,-30 -52,-58 -10,-19 -16,-35 -29,-75 -15,-46 -26,-66 -43,-83 -10,-10 -25,-19 -38,-23 -9,-2 -31,-3 -40,-1 -17,4 -31,11 -44,25 -18,18 -27,35 -45,90 -7,21 -15,44 -18,51 -23,53 -53,80 -91,82 -5,1 -11,0 -14,0 z M 387,416 c 4,-4 9,-12 18,-30 10,-18 14,-25 18,-29 4,-5 5,-5 10,-5 6,0 9,1 21,11 14,12 16,13 20,7 1,-2 2,-5 2,-23 1,-19 1,-21 3,-26 5,-11 14,-19 27,-24 10,-4 18,-9 20,-14 2,-3 4,-8 5,-12 3,-15 10,-25 19,-30 4,-2 8,-4 19,-5 16,-2 17,-3 23,-5 7,-4 11,-8 14,-15 4,-6 4,-6 4,-59 0,-52 0,-52 -3,-57 -1,-3 -4,-6 -6,-8 -9,-6 3,-6 -196,-6 -181,1 -181,1 -186,3 -6,3 -11,9 -12,15 -2,5 -2,13 -2,59 1,53 1,53 3,58 3,7 9,13 17,17 4,2 9,3 37,6 37,4 39,5 48,14 8,7 10,13 10,23 -1,11 -2,13 -12,24 -7,7 -8,8 -8,11 0,7 4,9 22,12 14,2 18,4 24,10 6,7 10,16 12,28 8,39 10,47 14,52 2,2 4,3 7,3 3,0 4,-1 8,-5 z m 17,-154 c -2,-1 -7,-5 -10,-9 -3,-3 -6,-6 -8,-7 -1,0 -4,1 -8,3 -6,3 -7,3 -15,3 -11,1 -18,-3 -30,-15 -13,-13 -7,-12 -79,-20 -18,-2 -22,-3 -23,-6 0,-2 0,-24 0,-51 l 1,-48 175,-1 c 176,0 176,0 177,2 2,3 1,89 -1,92 -2,5 -1,4 -84,15 -13,2 -28,4 -33,5 -5,1 -13,2 -17,3 -10,2 -12,4 -19,17 -4,7 -8,13 -10,15 -4,4 -10,5 -16,2 z"
     id="path3" />
  <path
     fill="#ff00ff"
     stroke="none"
     d="M 178,755 C 160,752 146,744 131,729 100,696 82,641 75,556 74,539 72,515 70,479 67,402 63,378 47,312 34,260 30,231 30,198 30,146 44,105 73,75 93,53 121,39 151,33 c 37,-6 87,-2 129,10 6,2 20,6 31,9 35,11 61,15 94,15 38,0 60,-4 110,-18 50,-15 92,-21 125,-18 26,2 43,6 63,15 14,7 26,16 38,29 21,22 34,47 40,83 2,11 2,15 2,39 0,38 -3,59 -19,121 -14,56 -17,76 -21,158 -3,60 -4,71 -6,89 -6,69 -18,113 -41,147 -7,11 -24,29 -33,34 -14,8 -28,11 -43,9 -33,-3 -60,-26 -81,-68 -9,-18 -12,-27 -25,-66 -13,-37 -17,-48 -24,-61 -15,-27 -35,-44 -59,-51 -10,-3 -29,-4 -38,-2 -17,3 -33,11 -45,23 -11,10 -18,20 -26,35 -8,15 -11,25 -20,54 -10,30 -18,50 -25,66 -19,38 -44,62 -72,68 -9,2 -20,3 -27,2 z M 388,416 c 4,-4 8,-10 18,-29 9,-18 14,-26 17,-29 4,-5 5,-5 10,-5 7,0 9,1 21,11 5,4 10,9 12,9 3,2 3,2 6,1 1,-1 3,-3 3,-5 1,-1 2,-11 2,-22 1,-19 1,-21 3,-26 5,-10 13,-18 27,-23 9,-4 17,-9 20,-14 1,-2 3,-8 5,-13 2,-12 5,-17 10,-23 7,-7 11,-9 27,-11 16,-2 17,-3 23,-6 10,-5 16,-12 18,-23 1,-4 1,-24 1,-55 0,-49 0,-49 -3,-54 -1,-2 -5,-6 -7,-8 -9,-6 4,-6 -194,-6 -119,0 -181,0 -183,1 -7,2 -13,7 -16,13 -3,6 -3,6 -3,61 0,56 0,56 3,62 2,4 5,8 7,11 8,6 13,8 36,11 43,5 44,5 49,8 12,6 19,16 19,28 0,10 -3,16 -11,23 -7,6 -9,9 -9,14 0,6 7,9 26,12 5,1 10,3 13,4 9,5 16,16 19,33 8,40 10,48 15,53 2,2 4,3 7,3 3,0 4,-1 9,-6 z"
     id="path4" />
  <path
     fill="#00ffff"
     stroke="none"
     d="M 178,755 C 160,752 146,744 131,729 100,696 82,641 75,556 74,539 72,515 70,479 67,402 63,378 47,312 34,260 30,231 30,198 30,146 44,105 73,75 93,53 121,39 151,33 c 37,-6 87,-2 129,10 6,2 20,6 31,9 35,11 61,15 94,15 38,0 60,-4 110,-18 50,-15 92,-21 125,-18 26,2 43,6 63,15 14,7 26,16 38,29 21,22 34,47 40,83 2,11 2,15 2,39 0,38 -3,59 -19,121 -14,56 -17,76 -21,158 -3,60 -4,71 -6,89 -6,69 -18,113 -41,147 -7,11 -24,29 -33,34 -14,8 -28,11 -43,9 -33,-3 -60,-26 -81,-68 -9,-18 -12,-27 -25,-66 -13,-37 -17,-48 -24,-61 -15,-27 -35,-44 -59,-51 -10,-3 -29,-4 -38,-2 -17,3 -33,11 -45,23 -11,10 -18,20 -26,35 -8,15 -11,25 -20,54 -10,30 -18,50 -25,66 -19,38 -44,62 -72,68 -9,2 -20,3 -27,2 z M 388,416 c 4,-4 8,-10 18,-29 9,-18 14,-26 17,-29 4,-5 5,-5 10,-5 7,0 9,1 21,11 5,4 10,9 12,9 3,2 3,2 6,1 1,-1 3,-3 3,-5 1,-1 2,-11 2,-22 1,-19 1,-21 3,-26 5,-10 13,-18 27,-23 9,-4 17,-9 20,-14 1,-2 3,-8 5,-13 2,-12 5,-17 10,-23 7,-7 11,-9 27,-11 16,-2 17,-3 23,-6 10,-5 16,-12 18,-23 1,-4 1,-24 1,-55 0,-49 0,-49 -3,-54 -1,-2 -5,-6 -7,-8 -9,-6 4,-6 -194,-6 -119,0 -181,0 -183,1 -7,2 -13,7 -16,13 -3,6 -3,6 -3,61 0,56 0,56 3,62 2,4 5,8 7,11 8,6 13,8 36,11 43,5 44,5 49,8 12,6 19,16 19,28 0,10 -3,16 -11,23 -7,6 -9,9 -9,14 0,6 7,9 26,12 5,1 10,3 13,4 9,5 16,16 19,33 8,40 10,48 15,53 2,2 4,3 7,3 3,0 4,-1 9,-6 z"
     id="path5" />
  <path
     fill="#f8eed9"
     stroke="none"
     d="M 178,755 C 160,752 146,744 131,729 100,696 82,641 75,556 74,539 72,515 70,479 67,402 63,378 47,312 34,260 30,231 30,198 30,146 44,105 73,75 93,53 121,39 151,33 c 37,-6 87,-2 129,10 6,2 20,6 31,9 35,11 61,15 94,15 38,0 60,-4 110,-18 50,-15 92,-21 125,-18 26,2 43,6 63,15 14,7 26,16 38,29 21,22 34,47 40,83 2,11 2,15 2,39 0,38 -3,59 -19,121 -14,56 -17,76 -21,158 -3,60 -4,71 -6,89 -6,69 -18,113 -41,147 -7,11 -24,29 -33,34 -14,8 -28,11 -43,9 -33,-3 -60,-26 -81,-68 -9,-18 -12,-27 -25,-66 -13,-37 -17,-48 -24,-61 -15,-27 -35,-44 -59,-51 -10,-3 -29,-4 -38,-2 -17,3 -33,11 -45,23 -11,10 -18,20 -26,35 -8,15 -11,25 -20,54 -10,30 -18,50 -25,66 -19,38 -44,62 -72,68 -9,2 -20,3 -27,2 z M 388,416 c 4,-4 8,-10 18,-29 9,-18 14,-26 17,-29 4,-5 5,-5 10,-5 7,0 9,1 21,11 5,4 10,9 12,9 3,2 3,2 6,1 1,-1 3,-3 3,-5 1,-1 2,-11 2,-22 1,-19 1,-21 3,-26 5,-10 13,-18 27,-23 9,-4 17,-9 20,-14 1,-2 3,-8 5,-13 2,-12 5,-17 10,-23 7,-7 11,-9 27,-11 16,-2 17,-3 23,-6 10,-5 16,-12 18,-23 1,-4 1,-24 1,-55 0,-49 0,-49 -3,-54 -1,-2 -5,-6 -7,-8 -9,-6 4,-6 -194,-6 -119,0 -181,0 -183,1 -7,2 -13,7 -16,13 -3,6 -3,6 -3,61 0,56 0,56 3,62 2,4 5,8 7,11 8,6 13,8 36,11 43,5 44,5 49,8 12,6 19,16 19,28 0,10 -3,16 -11,23 -7,6 -9,9 -9,14 0,6 7,9 26,12 5,1 10,3 13,4 9,5 16,16 19,33 8,40 10,48 15,53 2,2 4,3 7,3 3,0 4,-1 9,-6 z"
     id="path6" />
  <path
     fill="#fdfdfd"
     stroke="none"
     d=""
     id="path7" />
  <path
     fill="#ffffff"
     stroke="none"
     d=""
     id="path8" />
  <path
     style="fill:#fff6d5;fill-opacity:1;stroke-width:1.8893"
     d="m 168.11439,751.35075 c -30.50167,-9.80123 -54.40965,-37.884 -70.573435,-82.8969 C 84.433047,631.95097 78.742925,595.97753 73.708955,517.78597 65.443272,389.39708 64.845305,384.24663 51.77432,328.85608 39.311202,276.04149 34.2443,248.81879 32.08736,223.08505 25.49414,144.4234 50.160312,84.502673 102.12996,52.932773 129.32486,36.412755 159.0655,30.084645 201.08721,31.87701 c 32.73276,1.396163 57.29497,5.801318 96.44415,17.29695 50.89554,14.9448 58.51032,16.29612 98.30752,17.445653 44.25189,1.278217 58.6448,-0.717563 118.0172,-16.364745 52.63779,-13.872315 68.73395,-16.936898 96.51348,-18.375405 36.31119,-1.880296 69.94004,4.008885 94.30574,16.515067 33.414,17.150468 60.77025,52.72667 72.2739,93.99065 3.5226,12.63557 4.06717,19.62848 4.14877,53.27534 0.10763,44.38626 -0.42607,48.16272 -16.02112,113.35793 -16.86285,70.49541 -18.54068,83.12556 -23.5923,177.59407 -7.86518,147.08378 -21.4029,200.44133 -61.58918,242.74695 -19.93912,20.9907 -40.14124,28.4316 -64.76187,23.8533 -16.62488,-3.0915 -30.1547,-10.11862 -42.99522,-22.3308 -22.70103,-21.59025 -35.16571,-45.30067 -56.40563,-107.29522 -7.47622,-21.8214 -16.77898,-46.47675 -20.67278,-54.78968 -13.30701,-28.40917 -29.92582,-45.92715 -54.04536,-56.9694 -8.43704,-3.86265 -14.84607,-5.1978 -28.33741,-5.90347 -29.53257,-1.54478 -50.48271,7.16797 -71.11955,29.57722 -15.62148,16.96313 -24.47341,34.80225 -39.96557,80.54205 -23.22899,68.58233 -34.66058,91.04288 -57.30731,112.59615 -14.45104,13.75335 -25.66388,20.09033 -41.47602,23.44035 -16.5088,3.4977 -21.89202,3.3846 -34.69426,-0.72922 z M 388.62546,416.23616 c 3.22972,-3.37712 11.15057,-15.91734 17.60186,-27.86716 16.25194,-30.10363 19.39218,-34.00738 27.3562,-34.00738 4.8029,0 9.02617,2.10412 16.59173,8.26637 16.16514,13.16667 22.39087,15.46393 24.95881,9.20965 0.74663,-1.81845 2.02157,-13.16159 2.83317,-25.20699 2.0569,-30.52688 5.44951,-36.04484 29.35693,-47.74795 7.22945,-3.53894 14.98707,-8.4449 17.23913,-10.90213 2.25204,-2.4572 6.33964,-11.43681 9.08351,-19.95465 7.48402,-23.23275 12.57112,-26.76925 45.71515,-31.78069 10.32621,-1.56134 24.09927,-10.4309 28.38255,-18.27776 3.01632,-5.52581 3.47292,-12.36192 3.95067,-59.14828 0.59598,-58.36148 0.12471,-61.210395 -11.54109,-69.769762 -5.29606,-3.885795 -6.61817,-3.916703 -190.897,-4.462785 l -185.56403,-0.549885 -6.53473,4.36614 c -12.67201,8.466765 -13.14103,11.042377 -13.14431,72.181412 -0.005,79.38043 -0.8919,78.12825 60.94178,85.97216 16.37422,2.07715 31.67753,4.75941 34.00738,5.96057 11.77313,6.06968 18.41203,16.37104 18.39338,28.54043 -0.0134,8.75056 -2.99375,14.37605 -12.74032,24.04785 -7.07812,7.02379 -8.31661,15.8405 -2.65106,18.87262 1.91904,1.02704 9.78325,3.28602 17.47602,5.01994 7.69276,1.73394 16.2918,4.32903 19.10895,5.76686 7.73149,3.94602 14.34543,17.0803 18.53752,36.81258 2.07243,9.75497 5.1069,23.39093 6.74326,30.30212 4.92086,20.78304 13.75612,25.8989 24.79454,14.35672 z"
     id="path9" />
</svg>
