<?xml version="1.0" encoding="UTF-8" standalone="no"?>
<svg
   version="1.0"
   width="821.49969pt"
   height="876.79797pt"
   viewBox="0 0 821.49969 876.79797"
   preserveAspectRatio="xMidYMid"
   id="svg8"
   sodipodi:docname="calcus.svg"
   inkscape:version="1.4 (e7c3feb1, 2024-10-09)"
   xmlns:inkscape="http://www.inkscape.org/namespaces/inkscape"
   xmlns:sodipodi="http://sodipodi.sourceforge.net/DTD/sodipodi-0.dtd"
   xmlns="http://www.w3.org/2000/svg"
   xmlns:svg="http://www.w3.org/2000/svg">
  <defs
     id="defs8" />
  <sodipodi:namedview
     id="namedview8"
     pagecolor="#ffffff"
     bordercolor="#000000"
     borderopacity="0.25"
     inkscape:showpageshadow="2"
     inkscape:pageopacity="0.0"
     inkscape:pagecheckerboard="0"
     inkscape:deskcolor="#d1d1d1"
     inkscape:document-units="pt"
     showgrid="false"
     inkscape:zoom="0.39697266"
     inkscape:cx="556.7134"
     inkscape:cy="628.50676"
     inkscape:window-width="1200"
     inkscape:window-height="990"
     inkscape:window-x="0"
     inkscape:window-y="25"
     inkscape:window-maximized="0"
     inkscape:current-layer="svg8" />
  <path
     fill="#2b2b28"
     stroke="none"
     d="m 575.40954,876.14113 c -33,-5 -64,-28 -86,-65 -3,-5 -6,-10 -6,-10 h -1 l 1,-1 v -1 l -2,-1 -1,-2 v 0 h 1 l -4,-8 c -2,-5 -4,-9 -4,-9 l -1,-1 v 0 h 1 l -2,-6 c -1,-3 -3,-6 -3,-6 0,0 -1,-1 -1,-1 0,-1 -4,-15 -9,-31 -10,-29 -21,-56 -24,-56 h -1 v -1 h 1 l -3,-5 c -8,-10 -18,-16 -25,-14 -11,3 -21,15 -29,36 -6,13 -13,32 -12,33 v 1 h -1 c 0,0 -3,8 -7,18 -7,22 -15,42 -21,53 -2,5 -4,9 -4,9 v 0 l -2,2 c 0,1 -4,5 -7,9 l -5,8 h 1 v 0 l -13,13 c -8,8 -16,15 -21,19 -5,3 -10,6 -10,6 0,0 -1,1 -1,1 -3,0 -14,4 -14,5 0,0 -1,1 -1,1 -3,0 -11,1 -11,2 -3,2 -35,1 -44,-1 -4,-1 -8,-1 -9,-1 h -2 v -1 -1 l -4,-1 c -7,-2 -23,-11 -32,-17 -4,-3 -12,-10 -18,-15 l -10,-10 h 1 v 0 l -6,-7 c -3,-4 -9,-12 -13,-18 -4,-6 -8,-11 -8,-11 l -1,-1 v 0 h 1 l -3,-5 c -2,-3 -6,-12 -10,-19 -4,-8 -7,-15 -8,-16 0,0 -1,-1 -1,-2 0,-1 -3,-8 -5,-15 -6,-15 -12,-35 -16,-50 -1,-5 -2,-9 -3,-10 0,-1 0,-3 -1,-5 0,-2 0,-4 -1,-4 l -1,-2 v 0 c 1,0 0,-4 -1,-9 -4,-23 -4,-31 -4,-103 -1,-67 -1,-71 -3,-84 -3,-22 -7,-39 -9,-44 0,-1 0,-2 -1,-2 0,-1 0,-2 0,-2 0,0 0,-1 0,-2 -1,-2 -1,-5 -2,-8 l -1,-6 h -1 -1 v -1 c 1,0 -3,-14 -7,-30 -5,-16 -10,-36 -12,-43 -2,-8 -3,-15 -4,-16 0,-1 0,-3 0,-4 -1,-4 -4,-24 -5,-26 0,-1 0,-4 -1,-6 0,-2 0,-9 -1,-15 -3,-27 -1.00000004,-66 4,-88 1,-5 2,-10 2,-10 h -1 l 1,-1 c 0,-1 2,-6 3,-11 18,-60.999995 61,-110.999995 117,-133.999995 4,-2 8,-4 8,-4 0,0 1,-1 2,-1 0,0 4,-1 9,-2 5,-2.0000003 12,-4.0000003 17,-5.0000003 4,0 8,-1 9,-2 1,0 2,0 2,0 1,0 6,-1 13,-2 29,-3 69,0 103,8 6,2.0000003 12,3.0000003 12,2.0000003 h 1 v 1 c 1,1 23,8 26,8 h 2 v 1 1 h 3 c 2,1 3,1 4,1 v 0 l 1,1 c 0,0 2,1 5,2 l 4,2 v -1 0 l 1,1 c 0,0 5,3 10,5 5,2 16,8 25,12 l 15,8 v -1 0 l 1,1 c 0,0 3,2 6,4 6,3 6,3 13,-2 5,-3 9,-5 9,-6 l 1,-1 v 0 c 1,1 20,-10 21,-11 l 1,-1 v 0 c 1,0 27,-11 28,-12 0,0 1,-1 2,-1 1,0 7,-2 12,-4 6,-2 14,-5 17,-6 l 7,-1 v -1 -1 h 1 c 0,1 20,-4.0000003 24,-5.0000003 0,0 1,0 1,0 0,0 5,-1 11,-2 5,0 18,-1 28,-2 29,-2.00000003 53,1 78,7 6,2.0000003 12,3.0000003 13,3.0000003 h 2 v 1 1 h 1 c 1,0 6,2 12,4 l 11,5 v -1 0 l 1,1 c 0,0 3,2 6,4 43,21 81,64 99,113.999995 7,18 13,42 15,60 2,17 1,49 -1,74 -1,7 -1,9 -1,10 -1,2 -5,26 -6,30 0,1 0,2 0,3 -1,3 -8,31 -8,33 v 2 h -1 -1 v 1 c 0,1 -4,14 -8,29 -9,29 -15,56 -15,57 h 1 l -1,1 c -2,3 -7,42 -8,58 0,6 0,43 0,83 0,34 -1,50 -5,72 -1,6 -2,13 -2,14 -1,1 -1,3 -1,4 -1,2 -7,27 -7,29 0,1 -1,2 -1,2 -1,1 -5,14 -4,15 v 1 h -1 -1 l -1,4 c -4,13 -16,41 -25,57 -4,6 -6,12 -6,12 v 1 h -1 c 0,0 -2,2 -3,4 -2,3 -6,8 -9,13 l -7,9 h 1 v 0 l -3,3 -3,2 v 1 h 1 l -13,12 c -7,7 -17,15 -22,19 -5,3 -10,7 -10,7 l -1,2 v -1 -1 l -7,3 c -3,2 -9,5 -12,6 -3,0 -6,2 -6,2 0,0 -1,1 -2,1 -1,0 -5,1 -10,1 -10,2 -26,2 -35,1 z"
     id="path1" />
  <path
     fill="#0000ff"
     stroke="none"
     d="m 579.40954,839.14113 c -20,-4 -37,-16 -52,-37 -12,-16 -19,-33 -32,-76 -6,-17 -12,-35 -14,-40 -8,-19 -21,-38 -32,-50 -25,-25 -60,-23 -83,5 -18,21 -25,36 -39,79 -7,18 -13,37 -15,42 -12,29 -25,47 -41,60 -8,7 -16,11 -26,14 -6,2 -10,2 -20,2 -11,0 -14,0 -20,-2 -29,-10 -58,-40 -81,-86 -18,-35 -27,-65 -33,-104 -3,-18 -5,-40 -5,-48 l 1,-5 4,-1 c 2,-1 10,-1 19,-1 15,1 19,2 50,8 14,2 42,2 62,-1 23,-4 44,-3 70,1 17,3 22,3 38,3 15,0 21,0 34,-2 13,-2 19,-2 35,-2 18,0 19,0 35,3 31,7 44,7 79,1 24,-5 40,-5 65,0 33,6 53,5 85,-2 23,-6 31,-7 45,-7 12,0 23,1 25,3 0,1 -2,27 -4,42 -5,39 -16,77 -34,113 -21,43 -49,73 -76,84 -15,6 -27,7 -40,4 z m 23,-263 c -4,-1 -15,-2 -23,-4 -28,-6 -46,-6 -74,0 -11,2 -16,2 -30,2 -17,0 -18,0 -30,-3 -32,-8 -45,-8 -93,-1 -18,2 -37,2 -54,-1 -28,-4 -53,-4 -81,1 -15,3 -32,3 -41,2 -5,-1 -16,-3 -24,-4 -21,-5 -31,-6 -50,-7 h -16 v -29 c 0,-18 0,-36 -1,-47 -1,-10 -1,-21 -1,-25 v -6 l 8,-3 c 4,-1 12,-3 17,-3 11,-2 20,0 33,6 14,6 20,8 39,7 18,0 19,0 41,-9 22,-8 33,-8 54,2 24,10 43,13 66,10 12,-2 21,-5 34,-12 25,-11 34,-11 59,2 18,9 25,10 43,10 15,-1 22,-2 39,-9 28,-12 39,-13 59,-4 23,9 34,12 51,12 13,0 23,-2 34,-7 28,-13 42,-14 66,-6 l 10,4 -1,3 c 0,2 -1,10 -2,19 -1,11 -1,23 -1,50 l -1,36 h -22 c -23,1 -30,2 -51,8 -20,6 -39,8 -57,6 z m 16,-12 c 3,-2 4,-3 4,-8 0,-5 -1,-6 -4,-8 -4,-4 -10,-4 -14,0 -3,2 -3,4 -3,8 0,7 3,11 11,11 2,0 4,-1 6,-3 z m 53,-4 c 5,-2 7,-6 7,-11 0,-6 -3,-10 -8,-11 -5,0 -9,1 -12,5 -4,6 -2,13 4,16 4,2 5,2 9,1 z m -169,-1 c 10,-4 8,-18 -2,-21 -8,-2 -16,5 -13,14 2,7 8,10 15,7 z m -53,-7 c 4,-4 5,-9 2,-14 -3,-7 -13,-9 -19,-3 -2,3 -3,4 -3,8 0,8 4,12 12,12 4,0 5,-1 8,-3 z m -229,-1 c 3,-2 3,-4 4,-8 0,-5 0,-5 -3,-8 -3,-3 -5,-4 -7,-4 -10,0 -16,9 -11,17 1,4 4,6 10,6 3,0 5,-1 7,-3 z m 62,0 c 4,-2 7,-6 7,-12 0,-4 -1,-7 -5,-8 -9,-5 -17,0 -17,10 0,4 2,8 6,10 4,1 5,1 9,0 z m 87,-5 c 8,-6 5,-18 -4,-20 -11,-2 -18,8 -13,17 2,6 12,8 17,3 z m -198,-4 c 5,-2 8,-6 8,-12 0,-3 -1,-5 -3,-8 -3,-2 -5,-3 -8,-3 -6,0 -10,2 -12,7 -2,6 0,13 7,16 3,1 5,1 8,0 z m 411,-1 c 8,-4 11,-13 5,-19 -3,-4 -8,-5 -13,-3 -9,4 -9,19 0,22 5,1 4,1 8,0 z m -455,-7 c 4,-4 5,-9 2,-14 -2,-4 -5,-6 -11,-6 -3,0 -5,1 -8,3 -2,3 -3,5 -3,8 0,8 5,13 13,13 3,-1 5,-2 7,-4 z m 579,3 c 5,-3 7,-12 3,-18 -1,-2 -7,-5 -10,-5 -6,0 -11,6 -11,12 0,9 10,15 18,11 z m -66,-3 c 6,-4 6,-15 -1,-20 -8,-5 -18,0 -18,11 0,5 2,8 6,10 4,2 9,2 13,-1 z m -99,-3 c 3,-4 4,-11 1,-16 -3,-4 -9,-6 -14,-4 -7,4 -9,13 -4,19 1,1 3,3 5,3 3,2 9,0 12,-2 z m -218,-2 c 8,-7 2,-20 -8,-20 -7,0 -13,8 -11,15 2,8 13,11 19,5 z m 89,-3 c 2,-3 3,-5 3,-8 0,-6 -3,-11 -8,-12 -10,-3 -19,8 -14,17 1,4 5,6 11,6 3,0 5,-1 8,-3 z m 67,-3 c 5,-5 3,-15 -3,-18 -12,-7 -24,10 -14,19 5,5 12,4 17,-1 z m -228,-1 c 9,-6 5,-22 -6,-22 -7,0 -12,5 -12,13 0,9 10,14 18,9 z m -41,-19 c 9,-6 6,-21 -5,-23 -8,-1 -14,5 -14,12 0,11 10,16 19,11 z m 143,-1 c 6,-2 7,-9 4,-16 -2,-4 -5,-6 -11,-6 -2,0 -4,1 -7,3 -3,3 -3,4 -3,9 0,5 0,6 3,9 4,3 9,4 14,1 z m -62,-2 c 8,-4 9,-17 1,-22 -8,-5 -18,0 -18,11 0,9 9,15 17,11 z m 219,-1 c 7,-4 8,-14 2,-19 -2,-2 -4,-3 -8,-3 -4,0 -5,1 -8,3 -3,3 -3,4 -3,9 0,5 0,6 3,9 4,4 9,4 14,1 z m 100,-1 c 4,-4 5,-9 3,-14 -4,-8 -15,-9 -20,-3 -4,4 -5,7 -3,12 1,5 6,8 12,8 3,0 5,-1 8,-3 z m -173,1 c 3,0 8,-5 8,-9 2,-11 -7,-18 -16,-14 -6,3 -9,12 -6,18 2,3 8,6 11,5 1,0 2,0 3,0 z m -273,-2 c 7,-5 7,-16 1,-20 -9,-5 -19,0 -19,11 0,9 10,14 18,9 z m 501,-3 c 5,-5 4,-14 -2,-18 -5,-2 -11,-1 -14,2 -3,2 -3,4 -3,8 0,4 0,6 3,8 2,3 4,3 8,3 4,0 6,0 8,-3 z m -108,-2 c 7,-3 9,-13 4,-19 -7,-9 -20,-4 -20,8 0,4 3,9 7,11 4,1 5,1 9,0 z m 151,-1 c 9,-4 8,-19 -2,-22 -9,-3 -15,3 -15,12 1,6 3,9 8,11 3,1 5,1 9,-1 z m -585,-3 c 4,-4 5,-7 3,-12 -2,-7 -11,-10 -18,-6 -5,3 -7,10 -4,16 3,4 5,5 11,5 4,0 6,0 8,-3 z m 275,-5 c 3,-3 3,-4 3,-9 0,-4 0,-6 -3,-8 -8,-8 -21,-2 -21,9 0,3 1,5 3,8 3,3 4,3 9,3 5,0 6,0 9,-3 z m -149,-1 c 8,-4 8,-17 0,-22 -7,-3 -16,1 -18,10 -1,9 9,17 18,12 z m 67,-46 c -8,-1 -16,-4 -25,-8 -20,-9 -32,-12 -47,-11 -10,1 -24,5 -32,9 -8,4 -22,9 -29,9 -9,1 -19,0 -29,-5 -22,-9 -24,-9 -39,-9 -12,0 -16,0 -26,2 -6,2 -12,3 -12,2 0,0 -2,-7 -4,-15 -2,-8 -7,-24 -10,-36 -18,-55 -25,-93 -26,-133 -1,-45 6,-78 22,-110 9,-19 18,-31 33,-45.999995 33,-33 71,-48 123,-48 41,0 80,9 124,28 14,6 37,19 38,20 l 1,2 -2,1 c -3,2 -20,7 -35,10 -20,2.999995 -23,4.999995 -24,13.999995 0,5 0,6 2,9 4,5 8,6 23,6 27,-2 44,-8 79,-28.999995 56,-35 90,-49 132,-57 47,-8 92,-4 128,14 34,16 65,46.999995 82,82.999995 21,44 25,103 12,170 -3,16 -8,34 -18,66 -3,12 -8,28 -10,36 -2,8 -4,15 -5,15 0,1 -3,0 -6,-1 -13,-4 -27,-6 -41,-6 -16,1 -21,2 -38,9 -16,8 -21,9 -30,9 -10,0 -18,-2 -30,-8 -20,-9 -30,-12 -48,-11 -13,1 -21,3 -39,10 -17,7 -24,9 -34,9 -11,0 -19,-2 -34,-10 -15,-8 -23,-10 -35,-10 -14,0 -25,3 -43,11 -15,7 -23,9 -34,10 -5,0 -12,0 -14,-1 z"
     id="path2" />
  <path
     fill="#575754"
     stroke="none"
     d="m 579.40954,839.14113 c -20,-4 -37,-16 -52,-37 -12,-16 -19,-33 -32,-76 -6,-17 -12,-35 -14,-40 -8,-19 -21,-38 -32,-50 -25,-25 -60,-23 -83,5 -18,21 -25,36 -39,79 -7,18 -13,37 -15,42 -12,29 -25,47 -41,60 -8,7 -16,11 -26,14 -6,2 -10,2 -20,2 -11,0 -14,0 -20,-2 -29,-10 -58,-40 -81,-86 -18,-35 -27,-65 -33,-104 -3,-18 -5,-40 -5,-48 l 1,-5 4,-1 c 2,-1 10,-1 19,-1 15,1 19,2 50,8 14,2 42,2 62,-1 23,-4 44,-3 70,1 17,3 22,3 38,3 15,0 21,0 34,-2 13,-2 19,-2 35,-2 18,0 19,0 35,3 31,7 44,7 79,1 24,-5 40,-5 65,0 33,6 53,5 85,-2 23,-6 31,-7 45,-7 12,0 23,1 25,3 0,1 -2,27 -4,42 -5,39 -16,77 -34,113 -21,43 -49,73 -76,84 -15,6 -27,7 -40,4 z m 23,-263 c -4,-1 -15,-2 -23,-4 -28,-6 -46,-6 -74,0 -11,2 -16,2 -30,2 -17,0 -18,0 -30,-3 -32,-8 -45,-8 -93,-1 -18,2 -37,2 -54,-1 -28,-4 -53,-4 -81,1 -15,3 -32,3 -41,2 -5,-1 -16,-3 -24,-4 -21,-5 -31,-6 -50,-7 h -16 v -29 c 0,-18 0,-36 -1,-47 -1,-10 -1,-21 -1,-25 v -6 l 8,-3 c 4,-1 12,-3 17,-3 11,-2 20,0 33,6 14,6 20,8 39,7 18,0 19,0 41,-9 22,-8 33,-8 54,2 24,10 43,13 66,10 12,-2 21,-5 34,-12 25,-11 34,-11 59,2 18,9 25,10 43,10 15,-1 22,-2 39,-9 28,-12 39,-13 59,-4 23,9 34,12 51,12 13,0 23,-2 34,-7 28,-13 42,-14 66,-6 l 10,4 -1,3 c 0,2 -1,10 -2,19 -1,11 -1,23 -1,50 l -1,36 h -22 c -23,1 -30,2 -51,8 -20,6 -39,8 -57,6 z m 16,-12 c 3,-2 4,-3 4,-8 0,-5 -1,-6 -4,-8 -4,-4 -10,-4 -14,0 -3,2 -3,4 -3,8 0,7 3,11 11,11 2,0 4,-1 6,-3 z m 53,-4 c 5,-2 7,-6 7,-11 0,-6 -3,-10 -8,-11 -5,0 -9,1 -12,5 -4,6 -2,13 4,16 4,2 5,2 9,1 z m -169,-1 c 10,-4 8,-18 -2,-21 -8,-2 -16,5 -13,14 2,7 8,10 15,7 z m -53,-7 c 4,-4 5,-9 2,-14 -3,-7 -13,-9 -19,-3 -2,3 -3,4 -3,8 0,8 4,12 12,12 4,0 5,-1 8,-3 z m -229,-1 c 3,-2 3,-4 4,-8 0,-5 0,-5 -3,-8 -3,-3 -5,-4 -7,-4 -10,0 -16,9 -11,17 1,4 4,6 10,6 3,0 5,-1 7,-3 z m 62,0 c 4,-2 7,-6 7,-12 0,-4 -1,-7 -5,-8 -9,-5 -17,0 -17,10 0,4 2,8 6,10 4,1 5,1 9,0 z m 87,-5 c 8,-6 5,-18 -4,-20 -11,-2 -18,8 -13,17 2,6 12,8 17,3 z m -198,-4 c 5,-2 8,-6 8,-12 0,-3 -1,-5 -3,-8 -3,-2 -5,-3 -8,-3 -6,0 -10,2 -12,7 -2,6 0,13 7,16 3,1 5,1 8,0 z m 411,-1 c 8,-4 11,-13 5,-19 -3,-4 -8,-5 -13,-3 -9,4 -9,19 0,22 5,1 4,1 8,0 z m -455,-7 c 4,-4 5,-9 2,-14 -2,-4 -5,-6 -11,-6 -3,0 -5,1 -8,3 -2,3 -3,5 -3,8 0,8 5,13 13,13 3,-1 5,-2 7,-4 z m 579,3 c 5,-3 7,-12 3,-18 -1,-2 -7,-5 -10,-5 -6,0 -11,6 -11,12 0,9 10,15 18,11 z m -66,-3 c 6,-4 6,-15 -1,-20 -8,-5 -18,0 -18,11 0,5 2,8 6,10 4,2 9,2 13,-1 z m -99,-3 c 3,-4 4,-11 1,-16 -3,-4 -9,-6 -14,-4 -7,4 -9,13 -4,19 1,1 3,3 5,3 3,2 9,0 12,-2 z m -218,-2 c 8,-7 2,-20 -8,-20 -7,0 -13,8 -11,15 2,8 13,11 19,5 z m 89,-3 c 2,-3 3,-5 3,-8 0,-6 -3,-11 -8,-12 -10,-3 -19,8 -14,17 1,4 5,6 11,6 3,0 5,-1 8,-3 z m 67,-3 c 5,-5 3,-15 -3,-18 -12,-7 -24,10 -14,19 5,5 12,4 17,-1 z m -228,-1 c 9,-6 5,-22 -6,-22 -7,0 -12,5 -12,13 0,9 10,14 18,9 z m -41,-19 c 9,-6 6,-21 -5,-23 -8,-1 -14,5 -14,12 0,11 10,16 19,11 z m 143,-1 c 6,-2 7,-9 4,-16 -2,-4 -5,-6 -11,-6 -2,0 -4,1 -7,3 -3,3 -3,4 -3,9 0,5 0,6 3,9 4,3 9,4 14,1 z m -62,-2 c 8,-4 9,-17 1,-22 -8,-5 -18,0 -18,11 0,9 9,15 17,11 z m 219,-1 c 7,-4 8,-14 2,-19 -2,-2 -4,-3 -8,-3 -4,0 -5,1 -8,3 -3,3 -3,4 -3,9 0,5 0,6 3,9 4,4 9,4 14,1 z m 100,-1 c 4,-4 5,-9 3,-14 -4,-8 -15,-9 -20,-3 -4,4 -5,7 -3,12 1,5 6,8 12,8 3,0 5,-1 8,-3 z m -173,1 c 3,0 8,-5 8,-9 2,-11 -7,-18 -16,-14 -6,3 -9,12 -6,18 2,3 8,6 11,5 1,0 2,0 3,0 z m -273,-2 c 7,-5 7,-16 1,-20 -9,-5 -19,0 -19,11 0,9 10,14 18,9 z m 501,-3 c 5,-5 4,-14 -2,-18 -5,-2 -11,-1 -14,2 -3,2 -3,4 -3,8 0,4 0,6 3,8 2,3 4,3 8,3 4,0 6,0 8,-3 z m -108,-2 c 7,-3 9,-13 4,-19 -7,-9 -20,-4 -20,8 0,4 3,9 7,11 4,1 5,1 9,0 z m 151,-1 c 9,-4 8,-19 -2,-22 -9,-3 -15,3 -15,12 1,6 3,9 8,11 3,1 5,1 9,-1 z m -585,-3 c 4,-4 5,-7 3,-12 -2,-7 -11,-10 -18,-6 -5,3 -7,10 -4,16 3,4 5,5 11,5 4,0 6,0 8,-3 z m 275,-5 c 3,-3 3,-4 3,-9 0,-4 0,-6 -3,-8 -8,-8 -21,-2 -21,9 0,3 1,5 3,8 3,3 4,3 9,3 5,0 6,0 9,-3 z m -149,-1 c 8,-4 8,-17 0,-22 -7,-3 -16,1 -18,10 -1,9 9,17 18,12 z m 67,-46 c -8,-1 -16,-4 -25,-8 -20,-9 -32,-12 -47,-11 -10,1 -24,5 -32,9 -8,4 -22,9 -29,9 -9,1 -19,0 -29,-5 -22,-9 -24,-9 -39,-9 -12,0 -16,0 -26,2 -6,2 -12,3 -12,2 0,0 -2,-7 -4,-15 -2,-8 -7,-24 -10,-36 -18,-55 -25,-93 -26,-133 -1,-45 6,-78 22,-110 9,-19 18,-31 33,-45.999995 33,-33 71,-48 123,-48 41,0 80,9 124,28 14,6 37,19 38,20 l 1,2 -2,1 c -3,2 -20,7 -35,10 -20,2.999995 -23,4.999995 -24,13.999995 0,5 0,6 2,9 4,5 8,6 23,6 27,-2 44,-8 79,-28.999995 56,-35 90,-49 132,-57 47,-8 92,-4 128,14 34,16 65,46.999995 82,82.999995 21,44 25,103 12,170 -3,16 -8,34 -18,66 -3,12 -8,28 -10,36 -2,8 -4,15 -5,15 0,1 -3,0 -6,-1 -13,-4 -27,-6 -41,-6 -16,1 -21,2 -38,9 -16,8 -21,9 -30,9 -10,0 -18,-2 -30,-8 -20,-9 -30,-12 -48,-11 -13,1 -21,3 -39,10 -17,7 -24,9 -34,9 -11,0 -19,-2 -34,-10 -15,-8 -23,-10 -35,-10 -14,0 -25,3 -43,11 -15,7 -23,9 -34,10 -5,0 -12,0 -14,-1 z"
     id="path3" />
  <path
     fill="#878683"
     stroke="none"
     d="m 579.40954,839.14113 c -27,-7 -47,-24 -63,-57 -6,-13 -13,-31 -26,-71 -10,-33 -23,-58 -40,-75 -8,-8 -11,-10 -18,-13 -15,-7 -29,-7 -43,-1 -13,6 -23,15 -36,35 -10,16 -16,29 -28,65 -12,35 -18,52 -26,66 -14,24 -32,40 -51,46 -11,4 -26,5 -37,3 -39,-9 -80,-59 -105,-130 -10,-30 -17,-66 -19,-106 l -1,-7 3,-1 c 3,-1 24,-1 35,0 5,1 15,2 23,4 30,6 46,6 74,2 11,-2 19,-2 34,-2 17,0 20,0 38,3 26,5 44,5 74,1 17,-3 22,-3 36,-3 13,1 18,1 33,5 16,3 17,3 37,3 19,0 22,0 39,-3 15,-3 20,-3 33,-3 13,0 18,0 35,3 16,3 20,3 37,3 19,0 24,0 47,-6 25,-6 43,-8 57,-6 4,1 9,1 10,2 h 1 v 11 c -3,39 -11,78 -24,112 -16,41 -34,71 -57,94 -13,12 -28,21 -41,25 -9,2 -24,2 -31,1 z m 22,-264 c -4,-1 -14,-2 -23,-4 -15,-3 -17,-3 -36,-3 -20,0 -23,0 -36,2 -13,3 -16,3 -32,3 -17,0 -18,0 -32,-3 -8,-2 -18,-4 -23,-5 -12,-2 -35,-1 -58,3 -23,3 -46,3 -61,1 -26,-5 -55,-5 -82,0 -15,3 -34,4 -44,2 -4,-1 -14,-2 -21,-4 -19,-4 -32,-6 -50,-7 h -16 l -1,-38 c 0,-28 0,-42 -1,-52 -2,-13 -2,-15 0,-16 2,-1 18,-5 27,-6 9,0 17,1 28,6 13,6 22,8 35,9 18,1 28,-1 51,-12 8,-3 11,-3 18,-4 12,0 17,1 35,8 18,8 27,10 45,10 20,1 32,-2 53,-12 13,-6 20,-8 27,-8 9,0 17,2 31,10 16,7 26,10 39,10 14,0 24,-2 43,-10 20,-8 27,-9 39,-9 7,1 10,1 18,4 28,12 38,15 57,14 13,-1 21,-3 34,-9 16,-7 22,-9 36,-8 12,0 18,1 30,5 l 5,2 v 5 c -4,22 -4,36 -4,69 v 34 h -20 c -23,0 -29,0 -52,7 -8,2 -17,4 -20,5 -9,2 -31,2 -39,1 z m 18,-10 c 3,-4 5,-9 3,-13 -2,-4 -7,-8 -11,-8 -8,0 -14,10 -9,18 3,6 12,8 17,3 z m -114,-7 c 2,-2 5,-6 5,-9 0,-6 -6,-12 -13,-12 -3,0 -5,1 -8,3 -2,3 -3,5 -3,8 0,11 10,16 19,10 z m 170,0 c 6,-5 5,-16 -3,-19 -11,-6 -21,7 -14,17 3,6 12,7 17,2 z m -228,-4 c 4,-2 7,-9 6,-13 -2,-8 -11,-13 -19,-8 -8,4 -8,17 0,21 3,2 9,2 13,0 z m -228,-1 c 2,-1 4,-3 5,-5 6,-12 -11,-24 -20,-14 -2,2 -3,5 -4,6 0,5 2,11 6,13 4,3 10,2 13,0 z m 66,-3 c 7,-5 6,-17 -1,-20 -9,-5 -18,1 -18,11 0,3 1,5 3,8 3,3 4,3 9,3 2,0 6,-1 7,-2 z m 81,-1 c 5,-2 8,-6 8,-12 0,-5 -2,-8 -6,-11 -7,-3 -14,-1 -18,6 -3,6 0,13 6,16 5,2 6,2 10,1 z m -192,-8 c 6,-5 7,-11 4,-17 -5,-9 -18,-8 -22,2 -3,5 -1,11 3,14 4,4 11,4 15,1 z m 411,-1 c 6,-5 7,-11 4,-17 -2,-3 -7,-6 -11,-6 -3,0 -8,3 -10,6 -3,6 -1,15 4,18 4,2 10,1 13,-1 z m -459,-3 c 8,-6 7,-18 -1,-23 -12,-5 -24,8 -17,19 4,6 12,7 18,4 z m 579,0 c 6,-2 9,-11 5,-17 -2,-4 -8,-7 -13,-7 -4,1 -9,6 -10,11 0,4 2,10 6,13 4,2 8,3 12,0 z m -67,-1 c 14,-6 6,-29 -9,-24 -10,3 -12,17 -4,23 2,2 5,3 8,3 0,0 2,-1 5,-2 z m -98,-4 c 2,-1 5,-7 5,-10 0,-4 -3,-9 -6,-11 -9,-4 -18,1 -18,11 0,10 11,16 19,10 z m -218,-1 c 4,-3 7,-9 6,-13 -1,-3 -7,-9 -10,-10 -7,-1 -15,6 -15,13 0,5 1,8 5,10 5,3 10,3 14,0 z m 87,-3 c 9,-4 9,-17 1,-21 -7,-4 -16,-1 -19,6 -4,11 8,21 18,15 z m 70,-3 c 1,-2 3,-5 4,-6 1,-5 -1,-10 -4,-13 -8,-8 -21,-2 -21,9 0,8 5,13 13,13 3,0 5,-1 8,-3 z m -228,-2 c 2,-1 4,-4 5,-6 1,-4 1,-5 0,-9 -5,-14 -24,-10 -24,5 0,3 3,8 6,10 4,2 10,2 13,0 z m -42,-19 c 7,-3 9,-11 6,-18 -5,-9 -17,-9 -23,0 -4,6 -2,15 5,18 4,2 7,2 12,0 z m 143,0 c 7,-3 9,-10 6,-17 -4,-10 -16,-11 -21,-2 -4,6 -2,14 4,18 4,2 7,3 11,1 z m -61,-4 c 10,-4 9,-20 -1,-24 -8,-3 -17,3 -17,12 0,10 10,17 18,12 z m 220,-1 c 8,-5 7,-17 -1,-22 -11,-5 -22,7 -16,18 3,7 11,9 17,4 z m 97,1 c 2,-2 4,-4 5,-6 2,-4 2,-5 1,-8 -2,-7 -10,-11 -16,-10 -4,2 -8,6 -9,10 -3,11 10,20 19,14 z m -443,-3 c 7,-5 7,-18 -1,-21 -6,-4 -14,-1 -17,5 -3,5 -2,9 0,13 4,6 12,7 18,3 z m 275,1 c 4,-1 6,-6 6,-11 0,-6 -3,-10 -9,-12 -3,-1 -4,-1 -8,1 -4,2 -8,7 -8,11 0,4 3,10 6,11 3,2 9,2 13,0 z m 223,-1 c 4,-3 6,-6 6,-10 0,-10 -10,-16 -18,-11 -6,2 -8,10 -4,16 2,6 10,8 16,5 z m -106,-5 c 9,-3 11,-15 2,-22 -3,-2 -9,-3 -13,-1 -4,2 -6,9 -6,14 1,4 7,10 10,10 1,1 3,1 3,1 0,0 2,-1 4,-2 z m 151,1 c 9,-4 10,-19 1,-24 -7,-3 -14,-1 -17,5 -5,9 1,18 11,20 1,0 3,-1 5,-1 z m -586,-3 c 9,-7 6,-21 -5,-23 -7,-1 -15,5 -15,12 0,11 11,17 20,11 z m 273,-5 c 4,-2 7,-7 7,-11 0,-5 -3,-9 -8,-11 -5,-3 -11,-1 -15,4 -3,3 -3,4 -3,8 1,10 11,15 19,10 z m -145,-2 c 6,-4 8,-14 3,-20 -2,-3 -9,-6 -12,-5 -7,2 -12,11 -10,17 3,8 12,12 19,8 z m 62,-49 c -4,0 -13,-4 -20,-6 -17,-8 -24,-10 -34,-11 -15,-2 -31,1 -54,11 -19,9 -34,9 -55,0 -14,-7 -20,-8 -35,-8 -10,0 -15,0 -24,2 -7,2 -12,3 -13,3 0,-1 -2,-7 -3,-15 -2,-7 -7,-23 -10,-35 -27,-85 -33,-144 -20,-199 8,-37 25,-68 50,-92.999995 21,-20 44,-33 71,-40 28,-7 69,-7 106,0 30,7 66,20 96,37 l 10,5 v 1 c -1,2 -20,8 -35,11 -8,1 -16,2.999995 -18,3.999995 -10,5 -11,19 -1,24 3,2 5,2 16,2 27,0 46,-6 80,-27 62,-38.999995 94,-51.999995 142,-59.999995 14,-2 47,-3 60,-1 58,6 103,35 133,82.999995 28,46 35,111 19,189 -3,15 -8,34 -22,83 -3,10 -6,21 -7,24 -1,3 -2,6 -2,7 -1,0 -4,-1 -9,-2 -13,-4 -27,-6 -39,-6 -14,1 -22,3 -37,10 -15,7 -21,8 -31,8 -10,0 -17,-2 -32,-9 -17,-8 -24,-9 -40,-9 -17,0 -25,1 -43,9 -16,7 -24,9 -34,9 -13,0 -19,-2 -35,-10 -17,-9 -25,-11 -39,-10 -12,1 -23,4 -35,10 -19,8 -26,10 -38,11 -8,0 -14,-1 -18,-2 z"
     id="path4" />
  <path
     fill="#00ffff"
     stroke="none"
     d="m 581.40954,839.14113 c -26,-5 -48,-24 -64,-56 -7,-13 -12,-28 -21,-58 -10,-31 -11,-35 -20,-51 -7,-15 -16,-28 -26,-38 -7,-7 -10,-10 -17,-13 -17,-8 -32,-8 -48,0 -9,5 -22,18 -31,32 -11,17 -17,29 -29,65 -11,34 -17,49 -22,59 -15,30 -37,50 -60,57 -8,2 -25,2 -33,0 -40,-10 -81,-63 -106,-137 -9,-26 -16,-67 -16,-94 v -11 l 7,-1 c 10,-2 31,0 50,4 8,2 19,3 24,4 12,2 38,1 55,-2 21,-4 42,-3 67,1 28,5 45,5 71,1 15,-2 22,-2 37,-2 16,0 18,0 34,3 32,7 43,7 78,1 19,-3 21,-3 38,-3 13,1 21,1 32,3 10,2 18,3 30,4 18,0 27,-1 45,-5 28,-6 32,-7 42,-8 10,-1 28,0 32,2 2,1 2,1 0,26 -4,45 -17,90 -37,130 -26,52 -57,81 -92,87 -8,1 -12,1 -20,0 z m 25,-264 c -6,-1 -18,-2 -28,-4 -10,-2 -22,-4 -28,-5 -12,0 -30,1 -43,4 -27,5 -41,5 -66,-1 -17,-4 -17,-4 -40,-4 -19,0 -26,0 -38,2 -24,3 -45,4 -65,1 -13,-2 -20,-2 -39,-2 -21,0 -25,0 -39,2 -29,5 -39,5 -66,-1 -19,-4 -31,-6 -50,-7 h -17 v -30 c 0,-17 0,-38 -1,-48 -1,-10 -1,-20 -1,-22 v -5 l 7,-3 c 18,-5 31,-5 43,1 4,1 11,4 17,6 9,3 10,3 25,4 18,0 24,-1 43,-9 8,-3 17,-6 20,-6 8,-2 20,0 28,3 3,2 9,4 14,6 13,6 23,8 37,9 21,1 37,-3 58,-13 24,-11 33,-10 56,1 16,8 21,10 33,11 16,2 30,-1 53,-10 29,-12 38,-12 66,0 26,12 55,12 79,1 19,-8 31,-11 44,-9 8,1 27,6 27,8 1,0 0,7 -1,16 -2,11 -2,23 -3,53 v 38 l -2,-1 c -1,0 -8,0 -17,0 -19,0 -29,1 -52,7 -24,7 -34,8 -54,7 z m 12,-9 c 5,-3 6,-10 3,-16 -3,-6 -13,-8 -18,-3 -5,5 -5,16 2,19 3,2 10,2 13,0 z m 57,-7 c 6,-4 6,-14 1,-19 -3,-3 -10,-4 -14,-2 -9,4 -9,19 1,23 2,1 9,0 12,-2 z m -168,-2 c 4,-5 4,-10 1,-15 -4,-6 -13,-8 -18,-3 -5,4 -6,10 -3,16 2,4 5,6 11,6 5,-1 6,-1 9,-4 z m -63,-1 c 11,-3 13,-19 3,-24 -5,-3 -9,-2 -13,0 -11,8 -7,23 6,25 0,0 2,0 4,-1 z m -226,-1 c 9,-4 10,-19 1,-23 -2,-1 -5,-2 -7,-2 -3,0 -5,1 -8,3 -3,4 -3,4 -3,10 0,6 1,9 7,12 3,1 5,1 10,0 z m 69,-6 c 3,-3 3,-5 3,-9 0,-5 0,-6 -3,-9 -3,-3 -4,-3 -9,-3 -5,0 -6,0 -9,3 -3,3 -3,4 -3,9 0,6 2,10 6,12 5,2 11,1 15,-3 z m 82,-1 c 7,-5 8,-15 2,-20 -9,-8 -22,-2 -22,9 0,5 2,8 6,11 5,3 10,3 14,0 z m -197,-5 c 5,-2 8,-6 8,-12 0,-8 -5,-13 -13,-13 -10,0 -16,10 -11,19 2,4 7,7 11,7 1,0 4,-1 5,-1 z m 412,-1 c 9,-5 10,-20 0,-24 -4,-2 -11,-1 -14,2 -5,5 -5,15 0,19 4,4 8,5 14,3 z m -458,-5 c 11,-7 6,-24 -7,-24 -8,0 -13,5 -13,14 0,4 0,5 4,8 3,3 4,4 8,4 3,0 6,-1 8,-2 z m 582,-1 c 7,-6 6,-17 -2,-21 -6,-3 -11,-2 -15,1 -3,3 -3,4 -4,9 0,6 0,6 4,10 3,4 4,4 9,4 4,0 6,-1 8,-3 z m -66,-2 c 8,-9 3,-23 -10,-23 -4,0 -5,1 -8,4 -4,3 -4,4 -4,9 0,9 5,14 14,14 3,-1 5,-2 8,-4 z m -103,-1 c 5,-2 8,-11 5,-17 -2,-3 -8,-7 -11,-7 -7,0 -13,6 -13,14 0,9 11,15 19,10 z m -217,-2 c 6,-3 8,-11 4,-17 -4,-6 -12,-8 -18,-4 -7,4 -8,14 -2,20 3,2 5,3 9,3 2,0 5,-1 7,-2 z m 88,-3 c 4,-1 6,-6 6,-11 0,-4 -1,-6 -3,-9 -8,-9 -23,-3 -23,10 0,4 1,5 4,8 3,4 4,4 8,4 3,0 6,-1 8,-2 z m 66,0 c 9,-4 10,-19 1,-24 -5,-3 -10,-2 -14,1 -8,7 -7,19 2,23 4,1 6,1 11,0 z m -223,-6 c 2,-3 3,-5 4,-8 1,-9 -4,-15 -13,-15 -4,0 -5,1 -8,4 -4,3 -4,4 -4,8 0,9 4,14 13,14 3,0 5,-1 8,-3 z m -43,-18 c 9,-5 9,-18 1,-23 -5,-3 -13,-2 -17,2 -3,2 -3,4 -4,9 0,6 0,6 4,10 3,4 4,4 8,4 3,0 6,-1 8,-2 z m 144,-1 c 6,-2 8,-11 5,-17 -6,-11 -23,-8 -24,4 -1,6 0,8 3,12 3,2 4,3 8,3 3,0 6,-1 8,-2 z m -61,-3 c 11,-9 5,-26 -9,-25 -10,1 -15,13 -9,22 3,5 13,7 18,3 z m 220,-2 c 10,-11 -1,-28 -15,-21 -6,3 -8,10 -5,17 3,9 13,11 20,4 z m 96,2 c 11,-8 6,-24 -8,-24 -12,0 -17,15 -9,23 4,3 5,3 9,3 4,0 6,-1 8,-2 z m -168,-1 c 8,-6 8,-18 0,-23 -7,-4 -15,-2 -19,5 -2,4 -1,12 2,15 4,5 11,6 17,3 z m -276,-1 c 7,-5 8,-15 2,-21 -3,-3 -5,-3 -9,-3 -5,0 -6,0 -9,4 -4,3 -4,4 -4,8 0,9 4,14 12,14 3,0 6,-1 8,-2 z m 500,-3 c 4,-4 6,-8 4,-12 -4,-12 -21,-12 -24,0 -1,5 1,11 5,14 1,0 5,1 7,1 4,0 6,-1 8,-3 z m -103,-5 c 3,-4 3,-5 3,-10 0,-5 0,-6 -3,-9 -6,-5 -14,-5 -19,1 -2,2 -2,3 -2,8 0,5 0,6 3,9 3,4 6,5 10,5 3,-1 5,-2 8,-4 z m 149,0 c 6,-5 6,-14 0,-20 -3,-2 -4,-2 -9,-2 -4,0 -5,0 -8,3 -4,4 -5,12 -2,17 4,6 14,8 19,2 z m -591,1 c 9,-3 11,-14 4,-21 -3,-3 -5,-3 -9,-3 -5,0 -6,0 -9,4 -4,3 -4,4 -4,9 0,4 1,6 3,8 4,5 9,6 15,3 z m 276,-6 c 4,-1 6,-6 6,-11 0,-12 -13,-17 -22,-9 -6,5 -6,14 0,19 4,3 11,4 16,1 z m -144,-4 c 4,-3 4,-4 4,-9 0,-6 0,-7 -4,-10 -3,-3 -4,-4 -8,-4 -11,0 -17,11 -12,20 2,4 7,7 12,7 4,0 5,-1 8,-4 z m 65,-46 c -8,-1 -16,-4 -27,-9 -18,-8 -25,-9 -41,-9 -16,0 -23,1 -39,8 -15,7 -22,9 -32,9 -11,0 -19,-2 -29,-7 -12,-6 -19,-8 -35,-7 -11,0 -16,0 -24,2 -5,1 -10,2 -11,2 l -1,1 -4,-15 c -2,-8 -7,-26 -11,-40 -10,-33 -15,-52 -19,-78 -5,-29 -6,-43 -6,-67 1,-36 7,-63 21,-91 11,-24 25,-41.999995 42,-56.999995 35,-29 72,-40 122,-39 48,2 96,16 143,42 5,3 10,6 10,6 v 1 l -4,2 c -6,2 -21,6 -34,8 -18,2.999995 -21,4.999995 -22,14.999995 -1,12 5,16 21,16 20,0 42,-5 61,-15 5,-3 17,-10 27,-15.999995 56,-35 93,-50 139,-56 69,-10 130,10 170,55 32,35.999995 47,80.999995 47,137.999995 0,45 -5,75 -26,142 -4,13 -8,30 -10,36 -2,6 -3,11 -3,12 -1,0 -5,-1 -10,-2 -13,-4 -22,-5 -34,-5 -14,0 -25,2 -40,9 -15,7 -23,9 -31,9 -10,0 -17,-2 -31,-8 -19,-9 -24,-11 -42,-10 -19,0 -24,1 -44,9 -29,12 -41,12 -67,-1 -17,-8 -23,-10 -36,-10 -15,0 -26,3 -45,12 -6,2 -14,6 -17,6 -8,2 -21,3 -28,2 z"
     id="path5" />
  <path
     fill="#b8b3b2"
     stroke="none"
     d="m 581.40954,839.14113 c -26,-5 -48,-24 -64,-56 -7,-13 -12,-28 -21,-58 -10,-31 -11,-35 -20,-51 -7,-15 -16,-28 -26,-38 -7,-7 -10,-10 -17,-13 -17,-8 -32,-8 -48,0 -9,5 -22,18 -31,32 -11,17 -17,29 -29,65 -11,34 -17,49 -22,59 -15,30 -37,50 -60,57 -8,2 -25,2 -33,0 -40,-10 -81,-63 -106,-137 -9,-26 -16,-67 -16,-94 v -11 l 7,-1 c 10,-2 31,0 50,4 8,2 19,3 24,4 12,2 38,1 55,-2 21,-4 42,-3 67,1 28,5 45,5 71,1 15,-2 22,-2 37,-2 16,0 18,0 34,3 32,7 43,7 78,1 19,-3 21,-3 38,-3 13,1 21,1 32,3 10,2 18,3 30,4 18,0 27,-1 45,-5 28,-6 32,-7 42,-8 10,-1 28,0 32,2 2,1 2,1 0,26 -4,45 -17,90 -37,130 -26,52 -57,81 -92,87 -8,1 -12,1 -20,0 z m 25,-264 c -6,-1 -18,-2 -28,-4 -10,-2 -22,-4 -28,-5 -12,0 -30,1 -43,4 -27,5 -41,5 -66,-1 -17,-4 -17,-4 -40,-4 -19,0 -26,0 -38,2 -24,3 -45,4 -65,1 -13,-2 -20,-2 -39,-2 -21,0 -25,0 -39,2 -29,5 -39,5 -66,-1 -19,-4 -31,-6 -50,-7 h -17 v -30 c 0,-17 0,-38 -1,-48 -1,-10 -1,-20 -1,-22 v -5 l 7,-3 c 18,-5 31,-5 43,1 4,1 11,4 17,6 9,3 10,3 25,4 18,0 24,-1 43,-9 8,-3 17,-6 20,-6 8,-2 20,0 28,3 3,2 9,4 14,6 13,6 23,8 37,9 21,1 37,-3 58,-13 24,-11 33,-10 56,1 16,8 21,10 33,11 16,2 30,-1 53,-10 29,-12 38,-12 66,0 26,12 55,12 79,1 19,-8 31,-11 44,-9 8,1 27,6 27,8 1,0 0,7 -1,16 -2,11 -2,23 -3,53 v 38 l -2,-1 c -1,0 -8,0 -17,0 -19,0 -29,1 -52,7 -24,7 -34,8 -54,7 z m 12,-9 c 5,-3 6,-10 3,-16 -3,-6 -13,-8 -18,-3 -5,5 -5,16 2,19 3,2 10,2 13,0 z m 57,-7 c 6,-4 6,-14 1,-19 -3,-3 -10,-4 -14,-2 -9,4 -9,19 1,23 2,1 9,0 12,-2 z m -168,-2 c 4,-5 4,-10 1,-15 -4,-6 -13,-8 -18,-3 -5,4 -6,10 -3,16 2,4 5,6 11,6 5,-1 6,-1 9,-4 z m -63,-1 c 11,-3 13,-19 3,-24 -5,-3 -9,-2 -13,0 -11,8 -7,23 6,25 0,0 2,0 4,-1 z m -226,-1 c 9,-4 10,-19 1,-23 -2,-1 -5,-2 -7,-2 -3,0 -5,1 -8,3 -3,4 -3,4 -3,10 0,6 1,9 7,12 3,1 5,1 10,0 z m 69,-6 c 3,-3 3,-5 3,-9 0,-5 0,-6 -3,-9 -3,-3 -4,-3 -9,-3 -5,0 -6,0 -9,3 -3,3 -3,4 -3,9 0,6 2,10 6,12 5,2 11,1 15,-3 z m 82,-1 c 7,-5 8,-15 2,-20 -9,-8 -22,-2 -22,9 0,5 2,8 6,11 5,3 10,3 14,0 z m -197,-5 c 5,-2 8,-6 8,-12 0,-8 -5,-13 -13,-13 -10,0 -16,10 -11,19 2,4 7,7 11,7 1,0 4,-1 5,-1 z m 412,-1 c 9,-5 10,-20 0,-24 -4,-2 -11,-1 -14,2 -5,5 -5,15 0,19 4,4 8,5 14,3 z m -458,-5 c 11,-7 6,-24 -7,-24 -8,0 -13,5 -13,14 0,4 0,5 4,8 3,3 4,4 8,4 3,0 6,-1 8,-2 z m 582,-1 c 7,-6 6,-17 -2,-21 -6,-3 -11,-2 -15,1 -3,3 -3,4 -4,9 0,6 0,6 4,10 3,4 4,4 9,4 4,0 6,-1 8,-3 z m -66,-2 c 8,-9 3,-23 -10,-23 -4,0 -5,1 -8,4 -4,3 -4,4 -4,9 0,9 5,14 14,14 3,-1 5,-2 8,-4 z m -103,-1 c 5,-2 8,-11 5,-17 -2,-3 -8,-7 -11,-7 -7,0 -13,6 -13,14 0,9 11,15 19,10 z m -217,-2 c 6,-3 8,-11 4,-17 -4,-6 -12,-8 -18,-4 -7,4 -8,14 -2,20 3,2 5,3 9,3 2,0 5,-1 7,-2 z m 88,-3 c 4,-1 6,-6 6,-11 0,-4 -1,-6 -3,-9 -8,-9 -23,-3 -23,10 0,4 1,5 4,8 3,4 4,4 8,4 3,0 6,-1 8,-2 z m 66,0 c 9,-4 10,-19 1,-24 -5,-3 -10,-2 -14,1 -8,7 -7,19 2,23 4,1 6,1 11,0 z m -223,-6 c 2,-3 3,-5 4,-8 1,-9 -4,-15 -13,-15 -4,0 -5,1 -8,4 -4,3 -4,4 -4,8 0,9 4,14 13,14 3,0 5,-1 8,-3 z m -43,-18 c 9,-5 9,-18 1,-23 -5,-3 -13,-2 -17,2 -3,2 -3,4 -4,9 0,6 0,6 4,10 3,4 4,4 8,4 3,0 6,-1 8,-2 z m 144,-1 c 6,-2 8,-11 5,-17 -6,-11 -23,-8 -24,4 -1,6 0,8 3,12 3,2 4,3 8,3 3,0 6,-1 8,-2 z m -61,-3 c 11,-9 5,-26 -9,-25 -10,1 -15,13 -9,22 3,5 13,7 18,3 z m 220,-2 c 10,-11 -1,-28 -15,-21 -6,3 -8,10 -5,17 3,9 13,11 20,4 z m 96,2 c 11,-8 6,-24 -8,-24 -12,0 -17,15 -9,23 4,3 5,3 9,3 4,0 6,-1 8,-2 z m -168,-1 c 8,-6 8,-18 0,-23 -7,-4 -15,-2 -19,5 -2,4 -1,12 2,15 4,5 11,6 17,3 z m -276,-1 c 7,-5 8,-15 2,-21 -3,-3 -5,-3 -9,-3 -5,0 -6,0 -9,4 -4,3 -4,4 -4,8 0,9 4,14 12,14 3,0 6,-1 8,-2 z m 500,-3 c 4,-4 6,-8 4,-12 -4,-12 -21,-12 -24,0 -1,5 1,11 5,14 1,0 5,1 7,1 4,0 6,-1 8,-3 z m -103,-5 c 3,-4 3,-5 3,-10 0,-5 0,-6 -3,-9 -6,-5 -14,-5 -19,1 -2,2 -2,3 -2,8 0,5 0,6 3,9 3,4 6,5 10,5 3,-1 5,-2 8,-4 z m 149,0 c 6,-5 6,-14 0,-20 -3,-2 -4,-2 -9,-2 -4,0 -5,0 -8,3 -4,4 -5,12 -2,17 4,6 14,8 19,2 z m -591,1 c 9,-3 11,-14 4,-21 -3,-3 -5,-3 -9,-3 -5,0 -6,0 -9,4 -4,3 -4,4 -4,9 0,4 1,6 3,8 4,5 9,6 15,3 z m 276,-6 c 4,-1 6,-6 6,-11 0,-12 -13,-17 -22,-9 -6,5 -6,14 0,19 4,3 11,4 16,1 z m -144,-4 c 4,-3 4,-4 4,-9 0,-6 0,-7 -4,-10 -3,-3 -4,-4 -8,-4 -11,0 -17,11 -12,20 2,4 7,7 12,7 4,0 5,-1 8,-4 z m 65,-46 c -8,-1 -16,-4 -27,-9 -18,-8 -25,-9 -41,-9 -16,0 -23,1 -39,8 -15,7 -22,9 -32,9 -11,0 -19,-2 -29,-7 -12,-6 -19,-8 -35,-7 -11,0 -16,0 -24,2 -5,1 -10,2 -11,2 l -1,1 -4,-15 c -2,-8 -7,-26 -11,-40 -10,-33 -15,-52 -19,-78 -5,-29 -6,-43 -6,-67 1,-36 7,-63 21,-91 11,-24 25,-41.999995 42,-56.999995 35,-29 72,-40 122,-39 48,2 96,16 143,42 5,3 10,6 10,6 v 1 l -4,2 c -6,2 -21,6 -34,8 -18,2.999995 -21,4.999995 -22,14.999995 -1,12 5,16 21,16 20,0 42,-5 61,-15 5,-3 17,-10 27,-15.999995 56,-35 93,-50 139,-56 69,-10 130,10 170,55 32,35.999995 47,80.999995 47,137.999995 0,45 -5,75 -26,142 -4,13 -8,30 -10,36 -2,6 -3,11 -3,12 -1,0 -5,-1 -10,-2 -13,-4 -22,-5 -34,-5 -14,0 -25,2 -40,9 -15,7 -23,9 -31,9 -10,0 -17,-2 -31,-8 -19,-9 -24,-11 -42,-10 -19,0 -24,1 -44,9 -29,12 -41,12 -67,-1 -17,-8 -23,-10 -36,-10 -15,0 -26,3 -45,12 -6,2 -14,6 -17,6 -8,2 -21,3 -28,2 z"
     id="path6" />
  <path
     fill="#eae6dd"
     stroke="none"
     d="m 582.40954,838.14113 c -34,-6 -58,-32 -75,-81 -2,-6 -8,-22 -12,-36 -9,-29 -12,-36 -19,-50 -11,-20 -27,-40 -38,-47 -8,-4 -17,-7 -25,-8 -22,-2 -41,11 -60,39 -12,18 -17,30 -28,62 -19,58 -28,78 -48,97 -11,11 -19,16 -30,20 -7,2 -10,2 -20,2 -14,0 -21,-1 -32,-7 -14,-6 -28,-18 -41,-35 -24,-29 -47,-79 -56,-121 -5,-23 -10,-57 -10,-72 v -7 l 5,-1 c 11,-1 33,1 64,7 16,3 45,3 66,0 23,-4 43,-3 69,1 18,3 21,3 39,3 15,0 21,0 34,-2 12,-2 18,-2 34,-2 18,0 19,0 35,3 30,7 45,7 76,1 29,-5 42,-5 72,1 17,3 40,4 53,2 6,-1 18,-3 28,-6 23,-5 40,-7 51,-7 8,1 16,2 17,3 0,1 -2,29 -4,44 -11,74 -45,146 -84,177 -9,8 -25,16 -34,19 -8,1 -21,2 -27,1 z m 21,-264 c -4,0 -15,-2 -23,-4 -28,-6 -48,-6 -72,-1 -26,5 -43,5 -65,0 -8,-2 -18,-4 -22,-5 -10,-2 -40,-1 -57,2 -19,3 -38,4 -46,3 -4,0 -14,-1 -21,-2 -12,-2 -19,-2 -37,-2 -21,0 -25,0 -39,2 -29,5 -40,5 -67,-1 -21,-4 -31,-6 -50,-7 h -17 l 1,-27 c 0,-24 0,-42 -3,-69 v -8 l 5,-1 c 3,-1 10,-3 15,-4 13,-2 21,-1 35,5 15,7 21,8 36,9 18,0 26,-1 45,-9 16,-6 16,-6 27,-6 11,0 12,0 36,10 10,4 22,7 35,8 19,1 36,-3 56,-12 27,-12 35,-12 60,1 18,9 25,10 43,10 17,-1 21,-2 42,-10 28,-12 37,-12 65,0 16,7 22,8 41,8 19,1 25,-1 40,-8 23,-10 39,-11 62,-4 l 7,3 -1,2 c 0,1 -1,10 -2,19 -1,13 -1,24 -1,51 v 34 h -20 c -22,0 -30,1 -49,6 -22,7 -41,9 -59,7 z m 15,-7 c 6,-4 8,-12 4,-18 -5,-8 -17,-8 -22,0 -6,12 6,25 18,18 z m 56,-6 c 3,-2 6,-7 6,-12 0,-12 -14,-17 -22,-9 -5,5 -5,12 -1,17 4,6 11,7 17,4 z m -171,0 c 9,-5 11,-17 2,-23 -8,-5 -18,-2 -20,7 -3,11 8,21 18,16 z m -53,-8 c 5,-5 6,-9 3,-15 -2,-4 -3,-5 -7,-7 -6,-3 -10,-2 -15,3 -4,3 -4,4 -4,10 0,5 0,6 4,9 3,4 4,4 10,4 5,0 6,0 9,-4 z m -230,1 c 12,-8 5,-26 -9,-25 -12,2 -16,17 -6,25 3,3 11,3 15,0 z m 67,-4 c 3,-3 3,-5 4,-9 0,-6 0,-6 -4,-10 -3,-4 -4,-4 -9,-4 -5,0 -6,0 -9,4 -4,3 -4,4 -4,9 0,5 0,6 3,9 5,6 13,6 19,1 z m 80,0 c 10,-5 11,-20 2,-25 -4,-2 -11,-2 -14,0 -10,6 -9,19 1,24 4,2 7,2 11,1 z m -192,-8 c 6,-3 8,-13 4,-18 -9,-14 -30,-4 -25,11 3,9 13,12 21,7 z m 411,-1 c 9,-6 8,-19 -1,-23 -5,-3 -9,-2 -13,0 -4,3 -6,6 -6,12 -1,11 11,17 20,11 z m -462,-2 c 7,-3 10,-11 8,-17 -1,-2 -3,-5 -5,-7 -2,-2 -4,-3 -8,-3 -9,0 -15,6 -14,15 1,10 10,15 19,12 z m 585,-3 c 6,-5 6,-14 -1,-20 -6,-6 -15,-5 -20,3 -3,5 -2,12 2,16 3,4 6,5 11,5 4,-1 6,-1 8,-4 z m -69,0 c 4,-3 6,-7 6,-11 0,-11 -11,-18 -20,-13 -13,8 -7,28 7,27 3,-1 5,-2 7,-3 z m -100,-2 c 9,-6 8,-20 -2,-24 -5,-3 -10,-2 -14,2 -12,11 2,30 16,22 z m -218,-2 c 7,-3 9,-11 5,-18 -6,-10 -20,-9 -25,2 -1,4 -1,5 0,8 1,4 5,8 8,9 3,1 9,1 12,-1 z m 88,-2 c 4,-3 7,-8 7,-13 0,-4 -1,-6 -3,-8 -6,-7 -14,-7 -21,0 -3,3 -3,4 -3,9 0,5 0,5 4,9 3,3 5,4 9,4 2,0 5,-1 7,-1 z m 68,-3 c 4,-2 6,-7 6,-13 -1,-4 -1,-6 -4,-9 -4,-3 -5,-3 -9,-3 -5,0 -6,0 -9,3 -7,6 -7,15 -1,20 5,5 11,6 17,2 z m -225,-4 c 5,-5 6,-12 3,-18 -5,-12 -23,-8 -25,6 0,6 2,10 6,13 5,3 12,2 16,-1 z m -44,-17 c 4,-3 8,-7 9,-11 0,-2 0,-5 -2,-8 -4,-11 -19,-12 -25,-2 -7,12 6,27 18,21 z m 145,-2 c 6,-3 8,-11 6,-17 -6,-14 -26,-10 -26,5 0,11 10,17 20,12 z m -59,-5 c 7,-6 6,-19 -3,-23 -5,-3 -9,-3 -13,0 -5,4 -7,7 -7,12 0,10 6,15 15,15 4,-1 6,-1 8,-4 z m 214,3 c 8,-4 11,-12 7,-19 -6,-13 -25,-9 -25,6 0,10 9,17 18,13 z m 100,-1 c 9,-6 9,-19 -1,-24 -7,-4 -15,-1 -19,6 -7,12 8,25 20,18 z m -168,-2 c 5,-3 6,-7 6,-12 0,-6 -2,-9 -6,-12 -12,-7 -26,7 -20,19 4,7 13,10 20,5 z m -275,-1 c 4,-3 6,-10 5,-15 -3,-12 -18,-14 -25,-3 -4,7 -1,17 5,20 4,1 11,1 15,-2 z m 500,-2 c 1,-2 3,-5 4,-7 1,-4 -1,-10 -5,-13 -2,-2 -4,-3 -8,-3 -5,0 -6,0 -9,4 -4,3 -4,4 -4,8 0,9 5,14 13,14 4,0 6,-1 9,-3 z m -106,-4 c 10,-6 7,-22 -4,-25 -8,-2 -15,3 -17,11 0,4 0,7 4,11 5,6 11,7 17,3 z m 152,-2 c 4,-4 4,-4 4,-10 0,-5 0,-6 -4,-9 -5,-5 -9,-6 -15,-3 -7,3 -10,13 -6,20 5,8 15,9 21,2 z m -589,1 c 4,-3 6,-6 6,-12 0,-4 -1,-5 -4,-9 -6,-6 -15,-5 -21,1 -2,3 -2,4 -2,9 0,5 0,6 3,9 4,5 12,6 18,2 z m 274,-5 c 4,-3 6,-7 6,-12 0,-11 -14,-18 -22,-11 -8,6 -8,18 0,23 5,3 11,3 16,0 z m -145,-3 c 4,-4 5,-8 5,-13 -2,-14 -18,-17 -26,-6 -2,4 -2,12 1,16 4,6 14,8 20,3 z m 64,-49 c -8,-1 -16,-4 -24,-8 -31,-14 -52,-14 -82,-1 -16,7 -22,8 -32,8 -11,0 -15,-1 -28,-6 -15,-7 -20,-8 -36,-8 -12,0 -24,1 -34,5 h -2 l -3,-14 c -2,-8 -7,-24 -11,-36 -12,-42 -21,-80 -24,-113 -2,-16 -1,-53 1,-67 4,-25 11,-47 21,-66 17,-31.999995 41,-55.999995 72,-70.999995 25,-13 48,-18 81,-18 34,0 67,6 103,19 14,6 57,26 57,28 v 1 l -10,3 c -5,2 -16,4 -24,6 -8,1 -16,3 -18,3.999995 -5,2 -7,6 -8,12 0,7 2,12 7,14 7,4 29,4 48,-2 13,-3 26,-9 43,-19 59,-36.999995 86,-48.999995 122,-57.999995 26,-7 61,-9 83,-7 45,4 84,23 111,52 35,36.999995 51,81.999995 51,141.999995 0,46 -5,73 -26,145 -5,16 -10,32 -10,36 -1,4 -2,7 -2,8 l -1,1 -7,-3 c -19,-6 -41,-7 -57,-3 -5,2 -14,5 -21,8 -14,6 -20,8 -29,8 -11,0 -15,-1 -32,-9 -20,-9 -24,-9 -42,-9 -18,0 -23,1 -45,10 -14,6 -22,8 -32,8 -11,0 -18,-2 -33,-10 -16,-8 -24,-10 -36,-10 -12,0 -25,3 -39,9 -20,9 -27,11 -38,12 -5,0 -12,0 -14,-1 z"
     id="path7" />
  <path
     fill="#ffffff"
     stroke="none"
     d=""
     id="path8" />
  <path
     style="fill:#fff6d5;fill-opacity:1;stroke-width:1.8893"
     d="m 304.05161,429.68643 c -5.19557,-1.97327 -15.39779,-5.92559 -22.67159,-8.78295 -11.09234,-4.35736 -16.11956,-5.20162 -31.17343,-5.2351 -16.60252,-0.0369 -19.49663,0.55593 -38.59678,7.90646 -27.07184,10.41836 -39.38694,10.7767 -62.06934,1.80615 -14.6179,-5.78118 -16.85149,-6.12986 -38.19735,-5.96297 -12.46937,0.0975 -24.757115,1.03029 -27.306103,2.0729 -4.53672,1.85565 -4.721085,1.57284 -8.73717,-13.40234 -2.256465,-8.4139 -7.240432,-25.92531 -11.07549,-38.91423 C 45.972747,307.35797 39.645995,267.44232 41.016245,222.75368 42.204365,184.00486 46.961037,163.09795 61.219055,133.95663 78.01379,99.63064 102.26505,74.80474 135.12119,58.303397 160.31528,45.65017 174.71737,42.16858 206.75271,40.987082 c 47.31891,-1.745182 85.94514,6.38799 133.10313,28.026308 13.55933,6.221662 26.73615,12.670192 29.28183,14.33007 l 4.6285,3.017955 -4.6285,1.750192 c -2.54568,0.96261 -12.28016,3.4119 -21.63219,5.442878 -25.70531,5.582415 -28.60344,6.802805 -31.23349,13.152315 -3.10272,7.49061 -0.36506,16.99767 5.79179,20.11314 11.38664,5.76184 48.19494,0.76672 70.61546,-9.58297 5.28875,-2.44138 21.94359,-11.8654 37.01074,-20.94227 49.17587,-29.624895 82.39788,-43.837463 120.40521,-51.51003 25.20345,-5.087843 77.40782,-4.545503 97.80881,1.016122 30.91019,8.426588 61.18724,26.204235 80.91089,47.508053 35.34292,38.174625 50.3562,80.701435 50.38425,142.719485 0.0195,42.53975 -4.85363,69.53156 -25.72058,142.47122 -6.6696,23.31336 -12.35902,42.6204 -12.64312,42.90454 -0.28418,0.28413 -5.58158,-0.89629 -11.772,-2.62315 -7.10205,-1.98115 -18.22703,-3.12905 -30.14835,-3.11078 -17.84408,0.0273 -20.04683,0.48721 -39.6753,8.28295 -28.60001,11.35892 -35.71326,11.71197 -56.87888,2.82307 -35.89155,-15.07334 -57.08349,-15.6213 -91.26083,-2.35972 -16.80418,6.52041 -22.27678,7.78448 -34.17763,7.89442 -12.85305,0.11874 -15.76886,-0.61546 -31.37892,-7.90139 -28.92735,-13.5017 -44.70464,-14.21403 -73.47717,-3.31742 -7.2738,2.75471 -17.66732,6.65328 -23.09671,8.6635 -12.87484,4.76686 -32.26352,4.73703 -44.91804,-0.0691 z"
     id="path9" />
  <path
     style="fill:#fff6d5;fill-opacity:1;stroke-width:1.8893"
     d="m 573.81711,835.10273 c -20.90855,-6.85792 -40.08225,-24.82665 -53.01333,-49.6818 -4.30934,-8.28315 -14.72138,-35.39947 -23.13786,-60.25852 -8.41651,-24.85913 -18.26257,-50.5008 -21.88017,-56.98148 -8.8932,-15.93172 -27.27372,-38.75017 -35.03636,-43.49587 -7.40437,-4.5267 -24.68936,-9.90188 -31.8417,-9.90188 -17.65425,0 -37.19018,13.32885 -53.73674,36.66323 -11.70687,16.5093 -18.3401,30.64215 -29.40743,62.65575 -22.59106,65.3475 -33.37945,86.23852 -53.3184,103.24747 -17.26052,14.72415 -24.29787,17.45723 -44.91012,17.44148 -16.21743,-0.0127 -19.18504,-0.5943 -30.77215,-6.03338 C 163.84888,813.30758 128.02122,762.65806 108.58314,704.09798 98.160327,672.69781 89.73338,627.98086 89.650797,603.63503 l -0.03465,-10.20345 19.365303,1.20143 c 10.65093,0.66082 29.56753,2.9142 42.0369,5.00752 27.2087,4.56765 41.34476,4.73558 75.86409,0.90135 26.85381,-2.98282 31.05598,-2.8467 69.19242,2.24078 15.31843,2.04345 28.85845,2.6115 43.45387,1.82302 67.18651,-3.62977 79.02988,-3.56542 100.17593,0.54405 25.2748,4.91175 41.1928,4.94535 70.28049,0.14828 27.26279,-4.49618 41.96676,-4.68825 63.29151,-0.82673 8.83247,1.59938 24.98598,3.38055 35.89668,3.95813 17.77772,0.9411 23.30206,0.34462 53.20085,-5.74455 33.10117,-6.74123 59.7402,-8.79503 65.63857,-5.06048 2.2404,1.4184 2.2965,5.26523 0.3654,25.00425 -9.06735,92.67923 -52.79212,179.60303 -103.78362,206.31923 -11.78305,6.17355 -16.0349,7.37602 -28.33949,8.01472 -9.1836,0.4767 -17.38743,-0.20332 -22.43797,-1.85985 z"
     id="path10" />
</svg>
