<?xml version="1.0" encoding="UTF-8" standalone="no"?>
<svg
   version="1.0"
   width="871.75pt"
   height="913.68549pt"
   viewBox="0 0 871.75 913.68549"
   preserveAspectRatio="xMidYMid"
   id="svg8"
   sodipodi:docname="caries.svg"
   inkscape:version="1.4 (e7c3feb1, 2024-10-09)"
   xmlns:inkscape="http://www.inkscape.org/namespaces/inkscape"
   xmlns:sodipodi="http://sodipodi.sourceforge.net/DTD/sodipodi-0.dtd"
   xmlns="http://www.w3.org/2000/svg"
   xmlns:svg="http://www.w3.org/2000/svg">
  <defs
     id="defs8" />
  <sodipodi:namedview
     id="namedview8"
     pagecolor="#ffffff"
     bordercolor="#000000"
     borderopacity="0.25"
     inkscape:showpageshadow="2"
     inkscape:pageopacity="0.0"
     inkscape:pagecheckerboard="0"
     inkscape:deskcolor="#d1d1d1"
     inkscape:document-units="pt"
     showgrid="false"
     inkscape:zoom="0.39697266"
     inkscape:cx="581.90405"
     inkscape:cy="638.58302"
     inkscape:window-width="1200"
     inkscape:window-height="990"
     inkscape:window-x="0"
     inkscape:window-y="25"
     inkscape:window-maximized="0"
     inkscape:current-layer="svg8" />
  <path
     fill="#12110d"
     stroke="none"
     d="M 195,913 C 181,911 164,903 150,893 114,866 89,814 73,734 64,689 59,651 54,577 49,493 45,464 31,409 14,342 9,322 5,291 1,267 0,253 0,229 0,207 1,195 4,177 13,125 34,83 68,51 85,35 102,25 123,16 152,5 176,0 206,0 c 32,0 60,5 109,21 67,20 88,24 124,24 35,0 50,-3 114,-23 24,-8 42,-13 60,-15 19,-3 68,-3 85,-1 50,9 90,28 120,58 15,15 22,26 32,45 11,24 19,49 21,73 1,13 1,59 0,74 -2,25 -10,66 -24,121 -19,75 -26,117 -30,196 -5,92 -10,133 -22,183 -21,83 -56,136 -101,151 -35,11 -70,2 -99,-27 -15,-15 -26,-32 -38,-57 -13,-29 -18,-44 -34,-97 -15,-51 -22,-66 -34,-83 -13,-19 -31,-30 -51,-31 -26,-1 -53,18 -69,52 -9,17 -14,31 -28,79 -16,52 -23,70 -36,94 -13,25 -28,45 -46,58 -19,14 -43,21 -64,18 z"
     id="path1" />
  <path
     fill="#494640"
     stroke="none"
     d="M 200,893 C 169,888 143,865 123,826 108,795 94,745 86,692 81,657 79,641 75,568 69,485 65,455 48,395 35,346 29,322 25,289 21,262 20,244 20,221 21,200 22,187 27,168 36,126 58,87 85,63 130,25 189,12 259,26 c 20,4 73,20 77,23 l 1,1 -3,4 c -2,2 -5,5 -6,8 -1,2 -5,6 -8,8 -7,5 -9,9 -11,17 -1,2 -2,6 -2,8 -1,2 -3,6 -7,10 -13,16 -17,36 -9,52 3,7 11,13 16,14 4,1 9,6 11,10 1,3 2,5 1,10 0,7 2,15 5,20 9,11 11,14 17,17 4,2 8,4 9,4 4,0 8,2 12,7 4,4 4,4 4,12 -1,8 0,13 5,19 2,3 3,5 3,7 0,1 1,6 3,11 1,5 3,11 4,14 0,2 2,7 4,11 4,7 11,11 19,12 6,1 11,5 17,15 7,10 11,13 23,16 6,1 18,1 30,-1 4,0 7,0 13,2 5,2 11,3 21,4 24,2 30,5 35,15 1,3 5,7 8,11 8,8 12,10 28,11 9,1 11,1 18,4 14,7 25,6 42,-2 11,-5 14,-8 20,-17 6,-8 8,-12 9,-18 0,-3 2,-7 3,-10 2,-6 2,-8 2,-23 0,-17 0,-17 4,-23 5,-7 11,-12 23,-17 6,-2 8,-3 11,-7 2,-3 5,-6 6,-7 3,-2 6,-8 10,-18 2,-5 5,-11 7,-14 5,-7 6,-16 5,-27 -1,-19 -1,-23 3,-31 5,-12 4,-19 -7,-37 -5,-7 -6,-9 -6,-13 0,-9 3,-16 11,-23 5,-6 7,-8 9,-14 1,-5 4,-10 7,-14 6,-8 10,-17 11,-27 l 1,-6 1,-1 c 2,0 18,10 27,18 20,19 35,42 45,71 17,51 14,116 -8,205 -4,12 -8,29 -10,39 -9,34 -18,81 -21,115 -2,13 -4,40 -8,102 -3,57 -6,84 -13,117 -9,46 -19,77 -33,104 -19,38 -40,59 -66,65 -20,5 -42,1 -61,-13 -9,-7 -22,-22 -29,-32 -15,-23 -28,-54 -44,-107 -15,-50 -17,-57 -21,-66 -8,-22 -20,-42 -32,-54 -9,-9 -16,-14 -27,-19 -11,-4 -20,-6 -33,-6 -24,0 -44,9 -62,28 -19,19 -31,44 -47,98 -22,71 -24,78 -34,100 -17,35 -36,57 -59,69 -12,6 -21,8 -33,6 z M 387,636 c 0,0 1,-2 3,-4 l 4,-2 -3,3 c -2,2 -4,3 -4,3 z M 424,45 c 0,0 2,0 2,0 l 2,1 h -3 -2 z m 25,0 c 0,0 2,0 2,0 l 2,1 h -3 -2 z"
     id="path2" />
  <path
     fill="#0000ff"
     stroke="none"
     d="M 196,892 C 174,887 153,872 136,846 115,814 98,762 87,693 82,662 80,639 76,570 70,483 66,457 48,390 34,339 29,316 24,277 21,255 21,208 23,190 31,140 48,102 76,73 110,38 152,22 208,22 c 32,0 57,4 104,19 9,3 18,6 20,7 l 4,2 -3,4 c -2,1 -4,4 -4,6 -1,2 -5,5 -9,9 -8,6 -11,11 -13,21 -1,6 -1,7 -9,17 -8,11 -12,20 -11,33 0,8 0,10 2,15 4,8 10,14 16,17 11,4 14,9 13,19 0,7 3,17 7,23 2,2 5,5 6,7 4,5 14,11 20,12 5,1 6,1 10,5 4,5 4,5 4,14 0,9 0,12 5,18 1,3 3,6 3,9 1,6 8,28 11,34 4,7 11,12 20,13 6,1 10,5 16,15 5,6 7,8 11,11 10,6 22,7 44,4 4,0 6,0 12,2 6,2 12,3 24,4 16,2 23,4 26,7 1,1 3,4 5,7 2,3 6,9 9,12 6,6 7,7 13,8 3,1 10,3 16,3 8,1 11,1 17,4 10,5 18,6 27,4 7,-2 21,-8 26,-12 5,-3 16,-19 17,-26 1,-3 3,-9 5,-13 2,-8 2,-10 2,-25 0,-16 0,-16 4,-22 4,-6 12,-12 23,-16 5,-2 7,-4 13,-11 8,-8 11,-14 14,-23 1,-2 4,-8 6,-11 7,-12 8,-19 5,-44 0,-5 0,-7 4,-15 3,-8 3,-10 3,-15 -1,-6 -4,-13 -11,-24 -4,-7 -5,-8 -5,-13 0,-8 3,-15 11,-22 5,-6 6,-7 8,-13 2,-5 4,-9 8,-15 6,-8 10,-17 11,-27 v -6 h 2 c 3,0 20,13 32,24 33,34 49,78 49,139 0,42 -6,79 -24,150 -21,78 -26,114 -31,205 -6,85 -8,107 -15,143 -9,48 -18,79 -33,108 -18,35 -38,56 -62,64 -18,7 -39,4 -58,-8 -10,-6 -27,-23 -35,-34 -17,-27 -29,-57 -50,-127 -12,-41 -15,-48 -22,-64 -17,-36 -41,-56 -71,-62 -8,-1 -24,-1 -32,0 -32,7 -58,33 -76,76 -5,12 -9,25 -25,75 -13,44 -19,61 -28,78 -11,22 -23,39 -35,50 -8,8 -22,16 -29,19 -9,3 -20,3 -29,2 z"
     id="path3" />
  <path
     fill="#848077"
     stroke="none"
     d="M 196,892 C 174,887 153,872 136,846 115,814 98,762 87,693 82,662 80,639 76,570 70,483 66,457 48,390 34,339 29,316 24,277 21,255 21,208 23,190 31,140 48,102 76,73 110,38 152,22 208,22 c 32,0 57,4 104,19 9,3 18,6 20,7 l 4,2 -3,4 c -2,1 -4,4 -4,6 -1,2 -5,5 -9,9 -8,6 -11,11 -13,21 -1,6 -1,7 -9,17 -8,11 -12,20 -11,33 0,8 0,10 2,15 4,8 10,14 16,17 11,4 14,9 13,19 0,7 3,17 7,23 2,2 5,5 6,7 4,5 14,11 20,12 5,1 6,1 10,5 4,5 4,5 4,14 0,9 0,12 5,18 1,3 3,6 3,9 1,6 8,28 11,34 4,7 11,12 20,13 6,1 10,5 16,15 5,6 7,8 11,11 10,6 22,7 44,4 4,0 6,0 12,2 6,2 12,3 24,4 16,2 23,4 26,7 1,1 3,4 5,7 2,3 6,9 9,12 6,6 7,7 13,8 3,1 10,3 16,3 8,1 11,1 17,4 10,5 18,6 27,4 7,-2 21,-8 26,-12 5,-3 16,-19 17,-26 1,-3 3,-9 5,-13 2,-8 2,-10 2,-25 0,-16 0,-16 4,-22 4,-6 12,-12 23,-16 5,-2 7,-4 13,-11 8,-8 11,-14 14,-23 1,-2 4,-8 6,-11 7,-12 8,-19 5,-44 0,-5 0,-7 4,-15 3,-8 3,-10 3,-15 -1,-6 -4,-13 -11,-24 -4,-7 -5,-8 -5,-13 0,-8 3,-15 11,-22 5,-6 6,-7 8,-13 2,-5 4,-9 8,-15 6,-8 10,-17 11,-27 v -6 h 2 c 3,0 20,13 32,24 33,34 49,78 49,139 0,42 -6,79 -24,150 -21,78 -26,114 -31,205 -6,85 -8,107 -15,143 -9,48 -18,79 -33,108 -18,35 -38,56 -62,64 -18,7 -39,4 -58,-8 -10,-6 -27,-23 -35,-34 -17,-27 -29,-57 -50,-127 -12,-41 -15,-48 -22,-64 -17,-36 -41,-56 -71,-62 -8,-1 -24,-1 -32,0 -32,7 -58,33 -76,76 -5,12 -9,25 -25,75 -13,44 -19,61 -28,78 -11,22 -23,39 -35,50 -8,8 -22,16 -29,19 -9,3 -20,3 -29,2 z"
     id="path4" />
  <path
     fill="#00ffff"
     stroke="none"
     d="M 192,890 C 177,886 166,879 154,867 136,849 123,826 112,796 101,762 92,725 86,680 82,654 80,628 76,562 74,531 72,516 70,498 67,471 60,431 53,407 32,332 25,296 22,249 18,182 35,122 71,79 97,48 139,28 184,23 c 16,-2 46,-1 62,2 21,4 70,17 85,23 l 4,2 -3,4 c -2,3 -5,6 -5,8 -1,1 -5,5 -8,7 -7,5 -11,11 -12,20 -1,8 -2,9 -7,15 -6,6 -9,12 -12,20 -3,9 -3,25 1,33 3,6 11,14 17,16 3,1 6,3 8,5 4,4 4,4 4,11 -1,10 1,17 9,28 8,10 14,14 24,17 4,1 6,2 10,5 4,5 4,5 3,12 0,9 1,13 6,20 1,2 3,6 3,7 0,4 8,30 11,36 3,5 10,10 15,12 11,2 14,4 20,13 7,11 13,16 25,18 7,2 22,2 28,0 5,-1 6,-1 13,1 7,3 12,4 24,5 23,2 28,4 33,14 1,2 5,7 8,11 8,8 12,10 28,11 9,1 11,1 18,5 6,3 9,3 16,4 4,0 10,0 13,-1 8,-2 24,-10 28,-14 6,-6 14,-19 15,-23 1,-3 2,-8 4,-12 2,-8 3,-10 3,-26 0,-17 0,-17 3,-22 4,-7 7,-9 20,-15 9,-4 11,-6 14,-9 2,-3 5,-6 7,-7 3,-4 7,-12 10,-20 1,-3 4,-8 6,-11 4,-7 7,-18 7,-25 0,-3 -1,-9 -2,-12 -1,-9 -1,-13 3,-22 6,-13 3,-23 -8,-40 -4,-6 -4,-7 -4,-12 0,-9 3,-14 11,-23 5,-5 7,-7 7,-10 2,-6 4,-10 9,-17 6,-7 10,-19 10,-27 0,-3 0,-5 1,-5 1,-1 14,7 23,15 28,23 48,60 55,101 9,49 3,104 -19,189 -15,55 -21,85 -26,125 -3,25 -4,37 -7,96 -6,95 -10,123 -25,180 -12,50 -37,95 -61,113 -15,12 -31,17 -47,16 -20,-1 -36,-10 -54,-29 -11,-11 -18,-22 -26,-39 -14,-27 -21,-45 -39,-106 -12,-40 -17,-55 -25,-69 -16,-30 -35,-47 -61,-54 -12,-3 -32,-3 -43,0 -17,4 -29,12 -42,26 -21,22 -31,44 -55,123 -14,46 -18,57 -29,79 -17,34 -34,54 -56,65 -13,6 -26,8 -40,4 z"
     id="path5" />
  <path
     fill="#c1b9aa"
     stroke="none"
     d="M 192,890 C 177,886 166,879 154,867 136,849 123,826 112,796 101,762 92,725 86,680 82,654 80,628 76,562 74,531 72,516 70,498 67,471 60,431 53,407 32,332 25,296 22,249 18,182 35,122 71,79 97,48 139,28 184,23 c 16,-2 46,-1 62,2 21,4 70,17 85,23 l 4,2 -3,4 c -2,3 -5,6 -5,8 -1,1 -5,5 -8,7 -7,5 -11,11 -12,20 -1,8 -2,9 -7,15 -6,6 -9,12 -12,20 -3,9 -3,25 1,33 3,6 11,14 17,16 3,1 6,3 8,5 4,4 4,4 4,11 -1,10 1,17 9,28 8,10 14,14 24,17 4,1 6,2 10,5 4,5 4,5 3,12 0,9 1,13 6,20 1,2 3,6 3,7 0,4 8,30 11,36 3,5 10,10 15,12 11,2 14,4 20,13 7,11 13,16 25,18 7,2 22,2 28,0 5,-1 6,-1 13,1 7,3 12,4 24,5 23,2 28,4 33,14 1,2 5,7 8,11 8,8 12,10 28,11 9,1 11,1 18,5 6,3 9,3 16,4 4,0 10,0 13,-1 8,-2 24,-10 28,-14 6,-6 14,-19 15,-23 1,-3 2,-8 4,-12 2,-8 3,-10 3,-26 0,-17 0,-17 3,-22 4,-7 7,-9 20,-15 9,-4 11,-6 14,-9 2,-3 5,-6 7,-7 3,-4 7,-12 10,-20 1,-3 4,-8 6,-11 4,-7 7,-18 7,-25 0,-3 -1,-9 -2,-12 -1,-9 -1,-13 3,-22 6,-13 3,-23 -8,-40 -4,-6 -4,-7 -4,-12 0,-9 3,-14 11,-23 5,-5 7,-7 7,-10 2,-6 4,-10 9,-17 6,-7 10,-19 10,-27 0,-3 0,-5 1,-5 1,-1 14,7 23,15 28,23 48,60 55,101 9,49 3,104 -19,189 -15,55 -21,85 -26,125 -3,25 -4,37 -7,96 -6,95 -10,123 -25,180 -12,50 -37,95 -61,113 -15,12 -31,17 -47,16 -20,-1 -36,-10 -54,-29 -11,-11 -18,-22 -26,-39 -14,-27 -21,-45 -39,-106 -12,-40 -17,-55 -25,-69 -16,-30 -35,-47 -61,-54 -12,-3 -32,-3 -43,0 -17,4 -29,12 -42,26 -21,22 -31,44 -55,123 -14,46 -18,57 -29,79 -17,34 -34,54 -56,65 -13,6 -26,8 -40,4 z"
     id="path6" />
  <path
     fill="#f2e8d1"
     stroke="none"
     d="M 191,889 C 172,884 155,871 140,849 117,817 100,764 88,691 83,659 82,642 77,564 72,486 67,453 50,395 35,338 29,310 24,266 22,249 22,208 24,193 31,147 46,111 71,80 93,55 127,35 162,27 c 16,-3 30,-4 52,-4 32,1 55,6 103,22 l 17,5 -2,2 c -1,2 -3,5 -5,7 -1,3 -5,7 -9,9 -7,6 -10,12 -12,22 -1,3 -2,7 -4,9 -1,2 -5,7 -7,10 -3,4 -6,8 -7,14 -3,8 -3,10 -3,18 1,9 1,11 4,16 4,8 10,14 16,16 3,1 6,3 8,5 4,4 4,4 4,12 -1,11 2,17 9,26 3,5 7,9 9,11 4,3 12,7 17,7 3,1 5,2 8,6 4,4 4,4 4,11 -1,8 0,14 5,20 1,2 3,6 4,9 3,18 10,36 15,41 5,3 10,6 15,6 6,1 10,5 15,13 8,11 13,15 25,18 6,1 22,1 31,-1 3,0 6,0 12,2 6,3 11,3 24,5 15,1 23,3 26,6 1,1 3,4 5,7 1,2 5,8 9,12 8,8 13,10 29,11 8,1 10,1 17,5 16,7 32,5 53,-8 6,-3 18,-21 20,-28 1,-2 2,-7 3,-9 3,-11 4,-15 4,-30 -1,-14 -1,-14 3,-20 5,-7 12,-12 23,-16 5,-2 7,-3 10,-7 3,-3 6,-7 8,-9 3,-4 6,-8 10,-18 1,-3 4,-9 5,-12 7,-10 9,-22 7,-33 -2,-12 -2,-17 2,-26 6,-13 4,-21 -7,-39 -6,-9 -6,-9 -6,-14 1,-8 4,-14 11,-21 5,-5 6,-7 9,-13 1,-5 4,-9 7,-14 6,-8 10,-17 11,-27 v -6 h 1 c 0,0 6,3 15,10 34,25 56,66 63,118 2,14 2,56 0,75 -4,30 -11,64 -22,108 -15,55 -23,98 -27,143 -2,16 -2,21 -4,49 -6,95 -7,110 -12,141 -8,49 -19,89 -34,119 -24,50 -52,73 -87,71 -19,-1 -36,-10 -53,-27 -11,-12 -19,-24 -28,-42 -14,-28 -20,-47 -39,-109 -9,-31 -13,-44 -20,-58 -15,-30 -33,-49 -56,-58 -8,-3 -24,-6 -32,-6 -12,0 -31,5 -43,13 -14,8 -30,26 -40,44 -11,21 -15,33 -40,112 -12,40 -23,66 -39,89 -12,18 -32,36 -47,41 -7,3 -25,3 -34,1 z m 1,-99 c 0,0 0,-1 -1,-1 l -1,-1 v 1 2 h 1 1 z m 83,-21 h -1 l -1,1 -1,1 1,1 2,1 v -2 c 0,0 0,-1 0,-2 z M 173,691 c 0,-1 -1,-2 -2,-2 h -1 v 1 2 h 2 1 z m 391,-11 v -1 h -1 -1 v 1 1 h 1 1 z m -261,-7 c 0,-1 -1,-2 -2,-2 h -1 v 1 2 h 2 1 z m -193,-17 -1,-1 v 0 h -1 l -1,1 v 1 h 2 1 z m 244,-41 v -1 h -1 -1 v 1 1 h 1 1 z m -59,-45 c 0,-1 0,-1 -1,-1 l -1,-1 v 1 l -1,1 h 1 z m 380,-21 v -1 l -1,1 c -1,0 -1,1 -1,2 v 1 h 1 c 1,-1 1,-2 1,-3 z M 570,532 v -1 h -1 -1 l 1,1 c 0,1 0,1 1,1 v 0 z M 446,467 c 0,-1 0,-1 -1,-1 l -1,-1 v 1 1 h 1 z m 312,-12 c 0,-1 0,-1 -1,-1 l -1,-1 v 1 1 h 1 z m -72,-9 1,-1 -2,-1 h -2 v 2 1 h 2 1 z M 114,417 c 0,-1 -1,-2 -2,-2 h -1 v 1 2 h 2 1 z m 407,-21 v -1 h -1 c 0,0 -1,0 -1,1 l -1,1 h 1 2 z m -360,-4 c 0,-1 -1,-2 -2,-3 l -2,-2 -1,1 h -2 v 2 3 h 4 3 z m 585,-14 v -1 0 c -1,0 -1,0 -1,1 l -1,1 h 1 1 z m -21,-18 v -2 h -1 c -2,-1 -3,0 -3,2 v 1 h 2 2 z m 73,-1 c 0,-1 -1,-2 -2,-2 h -1 v 1 2 h 2 1 z m -87,-14 v -1 l -2,-1 h -2 v 2 2 h 2 l 2,-1 z M 329,326 c 0,-1 -1,-2 -2,-2 h -1 v 1 2 h 2 1 z M 161,305 v -2 l -1,-1 c -1,0 -3,0 -3,1 l -1,1 1,1 1,2 h 1 c 1,-1 2,-1 2,-2 z m 202,1 v -1 l -1,-1 c -1,0 -2,0 -3,0 v 1 1 c 1,1 3,1 4,0 z m 380,-27 v -2 h -1 c 0,0 -1,0 -1,1 l -1,1 h 1 c 0,1 1,1 1,1 h 1 z m -421,-6 v -1 h -1 -1 v 1 1 h 1 1 z m -138,-1 c 0,-1 -2,-2 -3,-1 h -1 l 1,1 c 0,1 1,1 2,1 h 1 z M 58,251 v -2 h -1 -2 l 1,2 v 1 h 1 1 z m 178,-11 1,-1 h -1 c -1,-1 -1,-1 -2,0 h -1 l 1,1 c 0,1 1,1 1,1 0,0 1,0 1,-1 z m 570,-1 v -1 l -1,1 c -1,0 -1,1 -1,1 v 1 h 1 1 z m -485,-8 v -1 l -2,-1 h -2 v 1 c 0,2 1,3 2,3 l 2,-1 z m 467,1 c 0,0 0,-1 -1,-2 h -1 -1 v 1 1 c 1,1 2,1 2,1 h 1 z M 55,216 v -2 h -1 -1 v 2 1 h 1 1 z m 248,-22 2,-2 -2,-1 c -1,-1 -3,-2 -4,-1 -1,0 -2,4 -1,5 v 1 h 2 c 1,0 3,-1 3,-2 z m 515,-17 v -1 h -1 -1 v 1 1 h 1 1 z M 106,158 c 0,-1 -1,-3 -2,-3 h -1 v 2 c 0,2 1,3 2,3 h 1 z M 79,145 h -1 -1 v 1 l 1,2 v 2 l 1,-2 c 0,-1 0,-2 0,-3 z m 706,-4 -1,-1 h -1 v 1 1 l 1,1 1,-1 h 1 z M 184,121 v -1 h -1 -1 v 2 c 0,1 0,2 1,2 v 1 l 1,-1 c 0,-1 1,-2 0,-3 z m -43,-13 c 0,-1 0,-2 -1,-3 h -1 -1 c 0,1 0,2 0,2 l 1,2 h 1 1 z M 265,88 v -1 l -1,-1 h -1 v 2 1 h 1 z m -30,-3 v -2 l -2,-1 c 0,0 -1,1 -3,1 l -1,2 1,1 c 1,1 2,2 3,2 l 2,-1 z M 134,71 133,70 v 0 h -1 l -1,1 v 1 h 2 1 z m 90,-4 v -2 h -1 l -2,-1 -1,1 v 1 l 1,2 c 1,0 2,1 2,1 h 1 z m 43,-8 v -1 l -2,-1 h -2 v 1 c 0,2 1,3 2,3 l 2,-1 z M 252,47 v -1 h -2 c -1,0 -2,1 -2,2 v 1 h 2 2 z m -48,-9 -1,-1 -1,1 -1,1 1,1 v 1 l 1,-1 1,-1 z"
     id="path7" />
  <path
     fill="#ffffff"
     stroke="none"
     d=""
     id="path8" />
  <path
     style="fill:#fff6d5;fill-opacity:1;stroke-width:1.8893"
     d="M 183.25242,885.21767 C 143.70552,869.7631 113.30069,813.78692 94.957475,722.66417 87.200712,684.13127 84.387207,660.1093 79.91054,594.19187 73.536702,500.33927 69.282935,465.07255 59.97086,428.87823 57.56477,419.5262 51.31106,395.29594 46.073712,375.03321 18.650788,268.93676 16.190742,201.87541 37.54136,142.43921 56.479835,89.717957 88.711737,55.214987 136.7899,36.197567 c 36.54277,-14.45457 85.60742,-16.256595 131.06249,-4.813612 24.29193,6.11532 63.29152,18.71346 63.29152,20.445232 0,0.87609 -4.98358,6.765638 -11.0746,13.087883 -7.90827,8.208487 -11.77419,13.99371 -13.5215,20.23455 -1.34581,4.806757 -5.71341,13.546327 -9.70579,19.42127 -3.99236,5.87495 -8.64025,14.83128 -10.32862,19.90296 -5.82072,17.48481 0.67856,38.76182 14.32976,46.91205 12.50606,7.46653 15.18636,10.93376 15.18636,19.64501 0,10.49947 2.43206,16.55437 11.44598,28.49621 6.11073,8.09563 9.40523,10.53909 18.85577,13.98493 13.7371,5.0088 16.93072,9.02165 16.93072,21.27373 0,5.99671 1.34384,11.44981 3.80169,15.42668 2.0909,3.38318 5.43927,12.55422 7.44079,20.38007 2.0015,7.82587 5.42616,17.73173 7.61033,22.01303 4.12362,8.08299 13.37868,15.17389 19.82093,15.18611 2.17141,0.004 9.25441,5.85441 17.00369,14.04437 15.85604,16.75774 22.08404,19.13597 45.40006,17.33641 10.48412,-0.80916 17.71892,-0.36752 23.61624,1.44165 4.67602,1.43451 14.02805,3.20722 20.78229,3.93938 22.18936,2.4053 25.08871,3.74499 33.01638,15.2556 9.61202,13.95621 15.4785,17.77518 30.7412,20.01198 7.01746,1.02844 17.25495,3.63501 22.74995,5.7924 19.99687,7.85095 46.32342,1.41676 61.09257,-14.93092 13.06693,-14.46353 20.54751,-37.01815 20.54751,-61.95266 0,-15.1723 0.0495,-15.3266 7.08488,-22.16105 3.89662,-3.7853 10.95083,-8.52975 15.67597,-10.5432 12.88448,-5.49039 23.92995,-19.17783 34.64723,-42.93455 l 9.231,-20.46203 -1.07858,-16.64834 c -0.89332,-13.78805 -0.40927,-18.63025 2.81715,-28.18419 4.61445,-13.66411 3.49636,-19.46877 -7.29705,-37.88499 -6.36757,-10.86454 -6.62227,-11.93298 -4.51912,-18.9528 1.22587,-4.09155 5.03655,-10.57452 8.46825,-14.4066 3.4317,-3.83208 8.33767,-11.21834 10.9023,-16.41391 2.56455,-5.195573 7.00313,-13.479563 9.86355,-18.408863 2.86035,-4.929307 5.76855,-12.860707 6.46267,-17.625322 l 1.26203,-8.66295 12.32535,9.335587 c 42.2265,31.98354 62.99872,77.062368 65.4825,142.106938 1.73437,45.41877 -3.54848,80.10941 -25.85535,169.78331 -18.83708,75.72541 -23.61758,109.1514 -30.16395,210.91043 -4.47,69.48255 -6.43035,89.72955 -11.61593,119.97045 -12.27315,71.57347 -35.01577,127.2963 -64.01767,156.85312 -13.5414,13.80053 -24.04035,19.7253 -40.27103,22.72568 -34.90019,6.45165 -70.61969,-19.4352 -95.28396,-69.05483 -9.96682,-20.05124 -18.94237,-44.93677 -34.40266,-95.38455 -21.9006,-71.46285 -27.0884,-82.75304 -48.61683,-105.80475 -13.42655,-14.37652 -25.08328,-21.38737 -42.31241,-25.44855 -38.01263,-8.9601 -71.38139,5.29725 -97.25283,41.55278 -12.137,17.0085 -15.97218,26.5767 -40.49266,101.02342 -28.51428,86.57235 -40.98764,111.84195 -66.89348,135.5184 -15.89625,14.52833 -27.14792,19.41098 -44.48343,19.30365 -9.26452,-0.0577 -17.43834,-1.32614 -23.29914,-3.6165 z m 9.97267,-94.42717 c 0,-0.97785 -0.85018,-2.30325 -1.8893,-2.94548 -1.03911,-0.64222 -1.8893,0.1578 -1.8893,1.7778 0,1.62 0.85019,2.94548 1.8893,2.94548 1.03912,0 1.8893,-0.80003 1.8893,-1.7778 z m 83.12915,-19.94918 c 0,-1.55865 -0.8,-2.83395 -1.77779,-2.83395 -2.38237,0 -4.08863,2.95035 -2.57921,4.45973 2.1277,2.12767 4.357,1.29585 4.357,-1.62578 z M 174.3321,690.5461 c 0,-1.03913 -1.27527,-1.88925 -2.83395,-1.88925 -1.55867,0 -2.83395,0.85012 -2.83395,1.88925 0,1.03912 1.27528,1.88932 2.83395,1.88932 1.55868,0 2.83395,-0.8502 2.83395,-1.88932 z m 391.08487,-10.27958 c 0,-0.45825 -0.85018,-1.35862 -1.88929,-2.00085 -1.03912,-0.64222 -1.88931,-0.2673 -1.88931,0.83318 0,1.1004 0.85019,2.00077 1.88931,2.00077 1.03911,0 1.88929,-0.37492 1.88929,-0.8331 z m -262.32915,-7.66875 c 0,-0.98715 -0.91395,-2.09947 -2.03099,-2.47185 -1.11705,-0.3723 -2.031,0.74003 -2.031,2.47185 0,1.7319 0.91395,2.84423 2.031,2.47185 1.11704,-0.37237 2.03099,-1.4847 2.03099,-2.47185 z m -192.99188,-16.059 c 0,-1.03912 -0.85019,-1.88932 -1.8893,-1.88932 -1.03911,0 -1.8893,0.8502 -1.8893,1.88932 0,1.03905 0.85019,1.88925 1.8893,1.88925 1.03911,0 1.8893,-0.8502 1.8893,-1.88925 z M 355.7048,614.97415 c 0,-1.03913 -0.85019,-1.88925 -1.8893,-1.88925 -1.03911,0 -1.8893,0.85012 -1.8893,1.88925 0,1.03912 0.85019,1.88932 1.8893,1.88932 1.03911,0 1.8893,-0.8502 1.8893,-1.88932 z m -60.45757,-45.34313 c 0,-1.03912 -0.85018,-1.88932 -1.8893,-1.88932 -1.03911,0 -1.8893,0.8502 -1.8893,1.88932 0,1.03905 0.85019,1.88925 1.8893,1.88925 1.03912,0 1.8893,-0.8502 1.8893,-1.88925 z m 379.15034,-21.13657 c -0.60306,-1.50713 -1.05075,-1.05945 -1.1414,1.1415 -0.082,1.99162 0.3645,3.10747 0.9923,2.47965 0.62783,-0.62775 0.69488,-2.25728 0.1491,-3.62115 z m -103.3127,-16.6494 c 0,-1.03913 -0.85018,-1.88933 -1.8893,-1.88933 -1.03911,0 -1.8893,0.8502 -1.8893,1.88933 0,1.03905 0.85019,1.88925 1.8893,1.88925 1.03912,0 1.8893,-0.8502 1.8893,-1.88925 z M 446.39115,466.77572 c 0,-0.45825 -0.85019,-1.35862 -1.88931,-2.00085 -1.03911,-0.64215 -1.8893,-0.2673 -1.8893,0.83318 0,1.10047 0.85019,2.00077 1.8893,2.00077 1.03912,0 1.88931,-0.37485 1.88931,-0.8331 z m 311.73432,-12.39195 c 0,-1.03912 -0.8502,-1.88931 -1.88932,-1.88931 -1.03913,0 -1.88925,0.85019 -1.88925,1.88931 0,1.03911 0.85012,1.88929 1.88925,1.88929 1.03912,0 1.88932,-0.85018 1.88932,-1.88929 z m -71.50995,-8.50185 c 0,-0.98716 -0.91395,-2.09949 -2.031,-2.47183 -1.11705,-0.37236 -2.03099,0.73997 -2.03099,2.47183 0,1.73186 0.91395,2.84418 2.03099,2.47182 1.11706,-0.37234 2.031,-1.48467 2.031,-2.47182 z M 114.81918,416.59778 c -0.6422,-1.03911 -1.96765,-1.88929 -2.94544,-1.88929 -0.97779,0 -1.7778,0.85018 -1.7778,1.88929 0,1.03912 1.32545,1.88931 2.94545,1.88931 1.61999,0 2.42,-0.85019 1.77779,-1.88931 z M 521.9631,395.81549 c 0,-1.03911 -0.85019,-1.88929 -1.8893,-1.88929 -1.03912,0 -1.8893,0.85018 -1.8893,1.88929 0,1.03912 0.85018,1.88931 1.8893,1.88931 1.03911,0 1.8893,-0.85019 1.8893,-1.88931 z m -361.21158,-5.17388 c -0.94845,-4.92489 -7.20171,-5.47414 -7.20171,-0.63253 0,2.70375 1.21336,3.91712 3.91713,3.91712 2.70378,0 3.7212,-1.01743 3.28458,-3.28459 z m 586.03815,-11.8298 c 0,-1.03912 -0.8502,-1.8893 -1.88932,-1.8893 -1.03913,0 -1.88925,0.85018 -1.88925,1.8893 0,1.03911 0.85012,1.88929 1.88925,1.88929 1.03912,0 1.88932,-0.85018 1.88932,-1.88929 z m -21.14445,-19.03469 c -0.3723,-1.11705 -1.48462,-2.031 -2.47177,-2.031 -0.98715,0 -2.09948,0.91395 -2.47185,2.031 -0.37238,1.11705 0.73995,2.031 2.47185,2.031 1.73182,0 2.84415,-0.91395 2.47177,-2.031 z m 72.3516,-2.30721 c -2.4249,-2.4249 -4.88392,-0.55073 -3.08865,2.35403 0.6954,1.12519 2.12985,1.51089 3.18773,0.8571 1.29037,-0.79751 1.25782,-1.85427 -0.0991,-3.21113 z m -87.1038,-12.77699 c 0,-0.97779 -1.2753,-1.77779 -2.83395,-1.77779 -2.9217,0 -3.75352,2.2293 -1.62585,4.357 1.50945,1.50942 4.4598,-0.19684 4.4598,-2.57921 z M 329.25461,325.91144 c 0,-1.03911 -0.85019,-1.8893 -1.8893,-1.8893 -1.03911,0 -1.8893,0.85019 -1.8893,1.8893 0,1.03911 0.85019,1.8893 1.8893,1.8893 1.03911,0 1.8893,-0.85019 1.8893,-1.8893 z M 161.10701,304.1845 c 0,-1.55867 -1.27528,-2.83395 -2.83395,-2.83395 -2.95028,0 -3.74831,2.23447 -1.57442,4.40836 2.17389,2.1739 4.40837,1.37586 4.40837,-1.57441 z m 202.15498,0.94465 c 0,-1.03911 -1.27527,-1.8893 -2.83395,-1.8893 -1.55867,0 -2.83395,0.85019 -2.83395,1.8893 0,1.03911 1.27528,1.8893 2.83395,1.8893 1.55868,0 2.83395,-0.85019 2.83395,-1.8893 z M 743.0111,278.67896 c 0,-1.03911 -0.8502,-1.88929 -1.88933,-1.88929 -1.03912,0 -1.88932,0.85018 -1.88932,1.88929 0,1.03912 0.8502,1.88931 1.88932,1.88931 1.03913,0 1.88933,-0.85019 1.88933,-1.88931 z m -419.42438,-5.66789 c 0,-1.03912 -0.85019,-1.8893 -1.88931,-1.8893 -1.03911,0 -1.88929,0.85018 -1.88929,1.8893 0,1.03911 0.85018,1.8893 1.88929,1.8893 1.03912,0 1.88931,-0.85019 1.88931,-1.8893 z m -138.86347,-1.8893 c -0.64221,-1.03911 -1.96766,-1.88929 -2.94545,-1.88929 -0.97779,0 -1.7778,0.85018 -1.7778,1.88929 0,1.03912 1.32545,1.8893 2.94545,1.8893 1.61999,0 2.42,-0.85018 1.7778,-1.8893 z M 59.08487,250.33948 c 0,-1.03911 -0.850185,-1.8893 -1.889295,-1.8893 -1.039118,0 -1.889303,0.85019 -1.889303,1.8893 0,1.03912 0.850185,1.8893 1.889303,1.8893 1.03911,0 1.889295,-0.85018 1.889295,-1.8893 z M 807.24725,238.7807 c 0,-1.03912 -0.8502,-1.36387 -1.88933,-0.72166 -1.03912,0.64221 -1.88932,2.01783 -1.88932,3.05694 0,1.03912 0.8502,1.36387 1.88932,0.72166 1.03913,-0.64221 1.88933,-2.01783 1.88933,-3.05694 z m -570.56828,0.22299 c 0,-1.03911 -0.85019,-1.8893 -1.88931,-1.8893 -1.0391,0 -1.88929,0.85019 -1.88929,1.8893 0,1.03911 0.85018,1.8893 1.88929,1.8893 1.03912,0 1.88931,-0.85019 1.88931,-1.8893 z m 84.58548,-7.91144 c -1.16772,-3.50317 -5.23493,-4.08421 -5.23493,-0.74784 0,1.64525 1.34613,2.99138 2.99138,2.99138 1.64528,0 2.65486,-1.00959 2.24355,-2.24354 z m 467.08977,0.35424 c 0,-1.03911 -0.85019,-1.88929 -1.88925,-1.88929 -1.03912,0 -1.88932,0.85018 -1.88932,1.88929 0,1.03912 0.8502,1.8893 1.88932,1.8893 1.03905,0 1.88925,-0.85018 1.88925,-1.8893 z M 55.306272,215.38745 c 0,-1.55867 -0.850185,-2.83395 -1.889295,-2.83395 -1.039117,0 -1.889302,1.27528 -1.889302,2.83395 0,1.55868 0.850185,2.83395 1.889302,2.83395 1.03911,0 1.889295,-1.27527 1.889295,-2.83395 z M 301.70525,196.29233 c 3.70087,-1.42016 3.90541,-5.65428 0.33925,-7.02276 -3.31995,-1.27398 -4.90797,0.24864 -4.90797,4.70583 0,3.83334 0.26577,3.96813 4.56872,2.31693 z m 516.8778,-19.63551 c 0,-1.03911 -0.8502,-1.88929 -1.88933,-1.88929 -1.03912,0 -1.88932,0.85019 -1.88932,1.88929 0,1.03912 0.8502,1.88931 1.88932,1.88931 1.03913,0 1.88933,-0.85019 1.88933,-1.88931 z M 105.5397,154.46713 c -2.06387,-2.06387 -3.4791,1.21833 -1.99732,4.6322 1.40503,3.23706 1.50688,3.23411 2.2897,-0.0664 0.4506,-1.89978 0.31903,-3.95439 -0.29238,-4.56581 z m -26.420388,-9.4167 c -1.920502,-1.9205 -3.505117,0.9709 -1.92939,3.52048 1.190325,1.92599 1.635338,1.92748 2.27529,0.008 0.43755,-1.31265 0.281895,-2.90029 -0.3459,-3.52809 z m 707.345658,-3.23414 c 0,-0.45822 -0.8502,-1.35858 -1.88932,-2.00079 -1.03913,-0.64221 -1.88933,-0.2673 -1.88933,0.83315 0,1.10044 0.8502,2.0008 1.88933,2.0008 1.03912,0 1.88932,-0.37492 1.88932,-0.83316 z M 185.6679,121.75565 c 0,-0.97779 -0.85019,-1.77779 -1.88931,-1.77779 -1.03911,0 -1.88929,1.32545 -1.88929,2.94545 0,1.62 0.85018,2.42001 1.88929,1.7778 1.03912,-0.64221 1.88931,-1.96767 1.88931,-2.94546 z m -43.45388,-14.05824 c 0,-1.55867 -1.27528,-2.83395 -2.83395,-2.83395 -2.95027,0 -3.7483,2.23448 -1.57441,4.40837 2.17389,2.17389 4.40836,1.37587 4.40836,-1.57442 z M 265.01845,87.85978 c 0,-1.039118 -0.85018,-1.889303 -1.8893,-1.889303 -1.03911,0 -1.8893,0.850185 -1.8893,1.889303 0,1.03911 0.85019,1.889295 1.8893,1.889295 1.03912,0 1.8893,-0.850185 1.8893,-1.889295 z m -28.33948,-2.83395 c 0,-1.574415 -1.67938,-2.83395 -3.7786,-2.83395 -2.09922,0 -3.7786,1.259535 -3.7786,2.83395 0,1.574415 1.67938,2.83395 3.7786,2.83395 2.09922,0 3.7786,-1.259535 3.7786,-2.83395 z M 134.65683,70.856087 c 0,-1.039109 -0.85019,-1.889295 -1.88931,-1.889295 -1.03911,0 -1.88929,0.850185 -1.88929,1.889295 0,1.039118 0.85018,1.889303 1.88929,1.889303 1.03912,0 1.88931,-0.850185 1.88931,-1.889303 z M 224.9102,66.72325 c -1.16771,-3.503183 -5.23493,-4.084215 -5.23493,-0.747848 0,1.64526 1.34613,2.99139 2.99139,2.99139 1.64528,0 2.65486,-1.009597 2.24354,-2.243542 z m 41.99755,-8.147603 c 0,-1.558672 -0.85019,-2.83395 -1.8893,-2.83395 -1.03912,0 -1.8893,1.275278 -1.8893,2.83395 0,1.558673 0.85018,2.83395 1.8893,2.83395 1.03911,0 1.8893,-1.275277 1.8893,-2.83395 z M 253.32054,48.042805 c -0.37235,-1.11705 -1.48467,-2.031 -2.47183,-2.031 -0.98716,0 -2.09948,0.91395 -2.47183,2.031 -0.37236,1.11705 0.73997,2.030992 2.47183,2.030992 1.73186,0 2.84419,-0.913942 2.47183,-2.030992 z m -48.75966,-9.3048 c 0,-1.03911 -0.85018,-1.889295 -1.88929,-1.889295 -1.03912,0 -1.8893,0.850185 -1.8893,1.889295 0,1.039117 0.85018,1.889302 1.8893,1.889302 1.03911,0 1.88929,-0.850185 1.88929,-1.889302 z"
     id="path9" />
</svg>
