<?xml version="1.0" encoding="UTF-8" standalone="no"?>
<svg
   version="1.0"
   width="725.375pt"
   height="1024.266pt"
   viewBox="0 0 725.375 1024.266"
   preserveAspectRatio="xMidYMid"
   id="svg8"
   sodipodi:docname="existing_implant.svg"
   inkscape:version="1.4 (e7c3feb1, 2024-10-09)"
   xmlns:inkscape="http://www.inkscape.org/namespaces/inkscape"
   xmlns:sodipodi="http://sodipodi.sourceforge.net/DTD/sodipodi-0.dtd"
   xmlns="http://www.w3.org/2000/svg"
   xmlns:svg="http://www.w3.org/2000/svg">
  <defs
     id="defs8" />
  <sodipodi:namedview
     id="namedview8"
     pagecolor="#ffffff"
     bordercolor="#000000"
     borderopacity="0.25"
     inkscape:showpageshadow="2"
     inkscape:pageopacity="0.0"
     inkscape:pagecheckerboard="0"
     inkscape:deskcolor="#d1d1d1"
     inkscape:document-units="pt"
     inkscape:zoom="0.41064453"
     inkscape:cx="489.47444"
     inkscape:cy="709.85969"
     inkscape:window-width="1200"
     inkscape:window-height="990"
     inkscape:window-x="0"
     inkscape:window-y="25"
     inkscape:window-maximized="0"
     inkscape:current-layer="svg8"
     showgrid="false" />
  <path
     fill="#0b0d0a"
     stroke="none"
     d="m 353.375,1024 c 0,-1 -4,-1 -8,-1 -4,-1 -8,-1 -9,-1 -1,-1 -3,-1 -4,-1 -1,-1 -3,-1 -4,-2 -2,0 -6,-2 -11,-4 l -8,-3 v 1 1 l -1,-2 c 0,0 -1,-1 -2,-1 -1,0 -2,-1 -2,-1 -1,-1 -6,-4 -12,-8 -9,-6 -15,-11 -25,-20 -11,-12 -20,-21 -20,-23 0,-1 -9,-14 -10,-14 h -1 v -1 l 1,-1 -2,-2 -2,-2 h 1 v 0 l -2,-4 c -1,-2 -3,-4 -3,-4 l -1,-1 v 0 h 1 l -3,-7 c -13,-25 -24,-63 -28,-100 v -1 h -5 c -7,-1 -11,-5 -11,-12 0,-3 1,-5 3,-7 2,-3 5,-4 8,-4 l 4,-1 v -17 -18 l -4,-1 c -3,0 -6,-1 -8,-3 -7,-7 -3,-16 7,-19 l 5,-2 v -17 -17 h -4 c -4,-1 -7,-3 -11,-7 -1,-2 0,-9 3,-12 l 2,-3 v 0 1 l 5,-2 5,-2 v -21 -22 h -6 c -8,0 -14,-3 -17,-7 -3,-4 -4,-17 -4,-57 v -31 h -12 c -11,-1 -12,-1 -15,-3 -1,-1 -3,-4 -4,-5 -1,-2 -6,-32 -9,-58 -1,-5 -1,-9 -2,-10 0,-1 0,-2 0,-2 0,-1 -5,-34 -6,-38 0,-3 -1,-3 -9,-6 -10,-3 -16,-5 -23,-11 -6,-4 -21,-18 -21,-20 0,0 -2,-3 -4,-6 -6,-9 -12,-25 -23,-58 -13,-36 -20,-55 -21,-56 l -1,-1 v 0 h 1 l -3,-9 c -2,-5 -4,-9 -4,-9 0,0 -1,-1 -1,-2 0,-1 -6,-23 -8,-27 0,-1 0,-2 0,-3 -1,-2 -1,-7 -2,-12 -6,-32 -4,-74 6,-102 l 2,-6 h -1 v 0 l 1,-1 c 0,0 2,-5 4,-9 3,-5 7,-13 9,-17 l 5,-8 h -1 v 0 l 3,-4 c 9,-10 26,-26 35,-32 16,-11 36,-19 54,-23 5,0 9,-2 10,-2 3,-1 54,0 59,1 1,1 6,2 12,3 5,1 17,4 26,7 8,3 16,5 17,5 1,0 2,1 2,1 0,0 5,2 11,4 l 10,4 v -1 0 l 1,1 c 1,1 28,11 44,15 19,6 30,8 45,9 15,0 26,-1 42,-5 l 11,-2 v -1 -1 h 1 c 1,1 18,-5 19,-6 l 1,-1 v 0 c 1,0 2,0 4,-1 h 3 v -1 -1 h 2 c 1,0 10,-3 21,-7 18,-7 47,-17 49,-17 0,0 2,-1 4,-1 1,-1 3,-1 4,-1 1,-1 7,-2 15,-3 11,-2 15,-2 34,-2 16,1 24,1 31,3 13,3 29,8 42,14 5,3 10,5 11,5 0,0 1,0 1,1 0,0 4,3 9,6 16,11 36,34 45,53 8,15 15,37 17,55 1,10 1,48 0,57 -1,4 -1,7 -1,8 0,0 0,1 0,2 -1,1 -2,5 -3,10 0,5 -3,13 -5,19 -1,6 -3,11 -2,11 v 1 h -1 c -1,1 -18,48 -18,49 0,1 -1,2 -1,2 -1,1 -5,14 -5,16 0,0 -1,1 -1,1 0,0 -3,8 -7,18 -7,21 -13,37 -18,46 -2,4 -3,7 -3,7 0,0 -2,2 -3,4 -8,9 -14,14 -19,18 -3,2 -5,4 -5,4 v 1 h -1 c 0,0 -2,1 -5,2 -2,1 -6,3 -9,4 -2,1 -5,2 -6,2 -2,1 -4,1 -5,2 -2,0 -3,0 -4,0 0,0 -3,23 -7,49 -9,64 -9,65 -15,69 -2,1 -3,1 -18,2 h -10 v 18 c 0,25 -1,34 -4,37 -3,3 -8,6 -15,6 l -5,1 v 8 c -1,5 -1,12 -1,16 v 7 l 5,1 c 3,0 6,0 6,0 h 1 l 2,3 c 5,8 2,17 -9,20 l -5,1 v 9 c 0,5 0,12 1,17 v 8 h 4 c 4,1 10,5 11,9 2,5 -3,13 -11,15 l -4,1 v 17 17 h 3 c 2,0 5,1 7,2 5,2 5,4 5,11 0,5 -5,10 -12,11 l -4,1 v 8 c 0,13 -2,36 -4,50 -1,4 -1,7 -1,8 0,0 0,1 0,2 -1,1 -2,5 -2,10 -1,5 -3,13 -4,17 -2,5 -3,10 -2,10 v 1 h -1 c 0,0 -1,3 -2,7 -1,3 -4,9 -6,14 -1,5 -3,9 -3,10 0,1 -1,2 -1,2 0,0 -2,4 -4,7 -2,4 -5,11 -8,16 -3,5 -5,10 -5,10 0,0 -1,1 -1,2 -1,0 -4,4 -8,9 -12,18 -32,36 -51,46 -4,3 -8,5 -9,6 l -1,2 -1,-1 c -1,0 -12,4 -13,5 0,0 -1,1 -2,1 -1,0 -6,1 -10,2 -9,2 -33,4 -34,3 z"
     id="path1" />
  <path
     fill="#494948"
     stroke="none"
     d="m 350.375,1000 c -9,-1 -20,-4 -30,-8 -27,-12 -55,-42 -73,-78 -14,-30 -20,-51 -26,-91 v -4 l 2,-1 c 1,0 11,-2 21,-3 29,-4 164,-22 228,-31 16,-3 30,-5 30,-4 1,0 1,7 1,16 -2,43 -13,89 -31,123 -15,30 -39,57 -62,69 -19,10 -41,14 -60,12 z m -130,-223 v -17 l 2,-1 c 1,0 29,-4 62,-9 99,-13 183,-25 200,-27 13,-2 18,-3 19,-2 2,2 2,33 0,35 -1,0 -8,2 -16,3 -82,12 -171,25 -225,31 -20,3 -37,5 -39,5 h -3 z m -24,-14 -1,-1 h 1 2 v 1 1 0 c 0,0 -1,0 -2,-1 z m 329,-27 c 0,-10 0,-17 1,-17 l 1,-1 v 10 c 0,5 0,13 0,17 v 7 h -1 -1 z m -328,2 c 0,-1 0,-1 1,-1 v 0 1 1 h -1 -1 z m 24,-3 c -1,0 -1,-8 -1,-18 v -17 h 2 c 2,-1 35,-6 100,-14 9,-2 34,-5 54,-8 19,-3 49,-7 65,-9 16,-2 37,-5 45,-6 14,-2 16,-2 17,-1 1,1 1,9 1,17 0,12 0,16 -1,17 -1,1 -6,2 -11,3 -5,0 -38,5 -73,10 -87,12 -197,27 -197,27 0,0 -1,0 -1,-1 z m -24,-30 -1,-2 h 1 1 v 2 1 0 h -1 z m 328,-17 c 0,-3 0,-5 1,-5 l 1,-1 v 5 6 h -1 -1 z m -304,-12 c -1,0 -1,-10 -1,-22 v -21 h 1 c 1,-1 56,-6 122,-13 66,-7 128,-13 139,-14 17,-2 20,-2 21,-1 1,1 1,32 0,33 -1,0 -20,3 -44,6 -24,3 -68,9 -98,14 -30,4 -72,10 -94,13 -22,3 -41,5 -43,6 -1,0 -3,0 -3,-1 z m 305,-63 c -1,0 -1,-3 -1,-5 v -5 h 1 1 v 6 5 0 c -1,0 -1,0 -1,-1 z m -330,-1 c -2,-1 -2,-5 -2,-36 l 1,-35 h 166 166 v 18 c 0,14 0,19 -1,20 -1,0 -37,4 -80,8 -44,5 -103,11 -131,14 -28,2 -65,6 -82,8 -17,2 -32,3 -33,3 -2,1 -3,0 -4,0 z m -26,-7 v -1 l 1,1 v 1 1 h -1 z m 380,-28 v -1 l 1,1 v 1 1 h -1 z m -392,-60 c 0,-1 -2,-15 -5,-32 -2,-18 -5,-38 -6,-45 -1,-8 -2,-15 -2,-16 l 1,-1 h 215 215 l 1,2 c 0,0 -2,13 -4,28 -2,15 -5,36 -7,45 -1,10 -2,19 -3,19 0,1 -78,1 -202,1 h -202 z m -34,-119 c -19,-4 -37,-20 -47,-42 -2,-3 -8,-21 -14,-39 -6,-18 -15,-45 -21,-59 -11,-31 -16,-49 -19,-67 -9,-78 23,-139 85,-161 17,-6 27,-7 47,-7 16,0 19,0 34,3 26,5 33,7 87,27 29,11 55,18 72,20 h 7 v 2 c 0,0 -2,3 -5,5 -11,8 -29,14 -43,15 -9,1 -11,2 -11,5 0,3 5,6 11,7 7,2 21,0 34,-3 9,-3 18,-7 65,-31 46,-24 94,-42 133,-49 13,-2 40,-2 52,0 29,6 54,19 73,37 13,14 23,30 29,49 8,22 10,43 8,68 -2,29 -5,41 -20,81 -6,14 -15,42 -22,60 -6,19 -12,37 -14,40 -11,21 -28,36 -46,39 -11,3 -465,3 -475,0 z m 600,-232 v -1 l 1,1 v 1 1 h -1 z"
     id="path2" />
  <path
     fill="#0000ff"
     stroke="none"
     d="m 350.375,999 c -24,-3 -45,-13 -64,-32 -32,-30 -54,-78 -62,-132 -1,-8 -2,-15 -2,-15 1,-1 6,-2 12,-3 27,-3 243,-33 265,-37 h 3 v 16 c -3,78 -33,148 -78,182 -15,11 -31,18 -49,21 -10,1 -15,1 -25,0 z m -129,-205 c 0,-1 0,-9 0,-18 l 1,-16 6,-1 c 4,-1 32,-5 64,-9 32,-4 82,-11 113,-16 30,-4 64,-8 75,-10 12,-2 22,-3 22,-2 1,0 1,33 0,33 -2,2 -169,25 -243,35 l -37,5 z m 0,-76 1,-17 26,-4 c 14,-2 40,-6 59,-8 18,-3 47,-7 65,-10 18,-2 39,-5 47,-6 7,-1 29,-4 47,-6 19,-3 35,-5 36,-5 l 1,1 v 16 c 0,11 0,16 -1,17 -1,0 -31,5 -67,10 -37,5 -98,13 -136,19 -38,5 -71,9 -74,10 h -4 z m 305,-34 v -2 l 1,1 c 0,0 0,2 0,2 l -1,2 z m -305,-29 v -22 h 2 c 1,0 19,-2 41,-4 21,-2 70,-7 108,-11 38,-4 83,-8 99,-10 16,-2 30,-3 31,-3 l 1,1 v 15 15 l -2,1 c -1,0 -21,3 -44,6 -23,4 -61,9 -84,12 -23,3 -66,9 -94,13 -28,4 -53,7 -55,8 h -3 z m 305,-45 v -4 l 1,2 c 0,1 0,3 0,4 l -1,3 z m -330,1 c -1,0 -1,-16 -1,-35 v -35 h 166 165 v 19 18 l -1,1 c -1,0 -36,3 -79,7 -43,5 -97,10 -121,13 -24,2 -61,6 -82,8 -21,2 -40,4 -43,4 -2,1 -4,1 -4,0 z m -37,-94 c 0,-1 -3,-21 -6,-45 -4,-25 -7,-46 -7,-47 v -1 h 215 215 v 2 c 0,3 -3,22 -6,41 -1,6 -3,19 -4,28 -1,8 -2,17 -3,19 v 3 h -202 z m -36,-119 c -18,-5 -35,-20 -45,-42 -2,-3 -8,-20 -14,-37 -5,-18 -14,-44 -20,-58 -18,-48 -21,-60 -20,-95 0,-25 1,-33 6,-51 13,-48 49,-80 100,-90 13,-2 39,-2 55,1 24,4 43,10 75,22 38,15 61,21 83,25 l 11,1 v 1 c 0,1 -6,5 -12,9 -9,5 -22,9 -33,10 -12,1 -15,3 -14,7 2,6 14,9 28,7 19,-2 23,-4 80,-33 46,-24 96,-42 133,-49 17,-3 43,-3 58,0 44,9 76,33 93,71 10,20 13,38 13,66 0,35 -3,51 -22,103 -5,12 -14,36 -19,52 -11,32 -15,43 -22,53 -6,8 -16,17 -24,21 -14,7 3,7 -252,7 -188,0 -233,0 -238,-1 z"
     id="path3" />
  <path
     fill="#818180"
     stroke="none"
     d="m 350.375,999 c -24,-3 -45,-13 -64,-32 -32,-30 -54,-78 -62,-132 -1,-8 -2,-15 -2,-15 1,-1 6,-2 12,-3 27,-3 243,-33 265,-37 h 3 v 16 c -3,78 -33,148 -78,182 -15,11 -31,18 -49,21 -10,1 -15,1 -25,0 z m -129,-205 c 0,-1 0,-9 0,-18 l 1,-16 6,-1 c 4,-1 32,-5 64,-9 32,-4 82,-11 113,-16 30,-4 64,-8 75,-10 12,-2 22,-3 22,-2 1,0 1,33 0,33 -2,2 -169,25 -243,35 l -37,5 z m 0,-76 1,-17 26,-4 c 14,-2 40,-6 59,-8 18,-3 47,-7 65,-10 18,-2 39,-5 47,-6 7,-1 29,-4 47,-6 19,-3 35,-5 36,-5 l 1,1 v 16 c 0,11 0,16 -1,17 -1,0 -31,5 -67,10 -37,5 -98,13 -136,19 -38,5 -71,9 -74,10 h -4 z m 305,-34 v -2 l 1,1 c 0,0 0,2 0,2 l -1,2 z m -305,-29 v -22 h 2 c 1,0 19,-2 41,-4 21,-2 70,-7 108,-11 38,-4 83,-8 99,-10 16,-2 30,-3 31,-3 l 1,1 v 15 15 l -2,1 c -1,0 -21,3 -44,6 -23,4 -61,9 -84,12 -23,3 -66,9 -94,13 -28,4 -53,7 -55,8 h -3 z m 305,-45 v -4 l 1,2 c 0,1 0,3 0,4 l -1,3 z m -330,1 c -1,0 -1,-16 -1,-35 v -35 h 166 165 v 19 18 l -1,1 c -1,0 -36,3 -79,7 -43,5 -97,10 -121,13 -24,2 -61,6 -82,8 -21,2 -40,4 -43,4 -2,1 -4,1 -4,0 z m -37,-94 c 0,-1 -3,-21 -6,-45 -4,-25 -7,-46 -7,-47 v -1 h 215 215 v 2 c 0,3 -3,22 -6,41 -1,6 -3,19 -4,28 -1,8 -2,17 -3,19 v 3 h -202 z m -36,-119 c -18,-5 -35,-20 -45,-42 -2,-3 -8,-20 -14,-37 -5,-18 -14,-44 -20,-58 -18,-48 -21,-60 -20,-95 0,-25 1,-33 6,-51 13,-48 49,-80 100,-90 13,-2 39,-2 55,1 24,4 43,10 75,22 38,15 61,21 83,25 l 11,1 v 1 c 0,1 -6,5 -12,9 -9,5 -22,9 -33,10 -12,1 -15,3 -14,7 2,6 14,9 28,7 19,-2 23,-4 80,-33 46,-24 96,-42 133,-49 17,-3 43,-3 58,0 44,9 76,33 93,71 10,20 13,38 13,66 0,35 -3,51 -22,103 -5,12 -14,36 -19,52 -11,32 -15,43 -22,53 -6,8 -16,17 -24,21 -14,7 3,7 -252,7 -188,0 -233,0 -238,-1 z"
     id="path4" />
  <path
     fill="#ff00ff"
     stroke="none"
     d="m 342.375,997 c -39,-8 -71,-37 -94,-83 -9,-19 -14,-33 -18,-52 -4,-15 -7,-33 -7,-39 v -4 h 3 c 2,-1 14,-2 28,-4 32,-4 168,-23 210,-29 18,-3 35,-5 36,-5 h 2 v 6 c 0,20 -4,51 -9,73 -11,44 -30,80 -54,104 -16,16 -32,26 -52,32 -7,2 -11,2 -23,3 -11,0 -17,0 -22,-2 z m -120,-204 c -1,-1 -1,-32 0,-32 1,-1 68,-11 116,-17 25,-3 124,-17 145,-20 8,-1 15,-2 17,-2 h 2 v 17 16 h -1 c -4,2 -166,25 -229,33 -51,6 -49,6 -50,5 z m 0,-59 c -1,0 -1,-7 -1,-16 0,-11 0,-16 1,-17 1,0 12,-2 25,-4 12,-2 61,-8 109,-15 115,-16 144,-20 145,-19 1,0 1,8 1,17 v 16 h -2 c -1,1 -26,4 -54,8 -29,4 -68,9 -88,12 -20,3 -57,8 -83,11 -27,4 -49,7 -51,7 -1,1 -2,1 -2,0 z m -1,-79 v -21 h 2 c 1,-1 50,-6 107,-11 57,-6 119,-13 138,-14 18,-2 33,-4 33,-3 1,0 1,30 0,31 -1,0 -35,5 -76,11 -42,5 -103,14 -137,18 -34,5 -63,9 -64,9 h -3 z m -25,-79 1,-34 h 164 165 v 17 c 0,13 0,18 -1,19 -1,0 -10,1 -19,2 -10,1 -32,3 -48,5 -17,2 -47,5 -67,7 -20,1 -58,5 -83,8 -61,6 -107,11 -110,11 h -2 z m -36,-60 c -1,-3 -14,-90 -13,-91 0,-1 96,-1 214,-1 h 214 l 1,1 c 0,1 -2,14 -4,30 -3,16 -6,36 -7,44 -1,9 -2,17 -3,17 0,1 -91,1 -201,1 h -201 z m -30,-118 c -18,-2 -34,-13 -44,-29 -7,-10 -10,-18 -21,-49 -5,-16 -14,-41 -19,-56 -17,-45 -20,-56 -22,-82 -2,-17 0,-39 3,-55 13,-61 58,-99 122,-104 23,-1 61,7 104,23 42,16 69,24 90,27 l 10,1 v 1 c 0,1 -8,7 -13,10 -9,4 -22,8 -33,9 -5,1 -10,2 -11,2 -2,2 -1,6 1,8 5,5 17,6 32,4 13,-3 25,-7 41,-16 57,-29 75,-38 115,-52 54,-19 90,-21 127,-9 38,13 67,41 80,78 6,19 8,27 7,55 0,37 -2,47 -19,92 -5,16 -15,44 -22,62 -12,36 -17,47 -25,58 -6,7 -15,14 -23,18 -13,5 -1,5 -249,5 -126,0 -230,0 -231,-1 z"
     id="path5" />
  <path
     fill="#b3b3b3"
     stroke="none"
     d="m 342.375,997 c -39,-8 -71,-37 -94,-83 -9,-19 -14,-33 -18,-52 -4,-15 -7,-33 -7,-39 v -4 h 3 c 2,-1 14,-2 28,-4 32,-4 168,-23 210,-29 18,-3 35,-5 36,-5 h 2 v 6 c 0,20 -4,51 -9,73 -11,44 -30,80 -54,104 -16,16 -32,26 -52,32 -7,2 -11,2 -23,3 -11,0 -17,0 -22,-2 z m -120,-204 c -1,-1 -1,-32 0,-32 1,-1 68,-11 116,-17 25,-3 124,-17 145,-20 8,-1 15,-2 17,-2 h 2 v 17 16 h -1 c -4,2 -166,25 -229,33 -51,6 -49,6 -50,5 z m 0,-59 c -1,0 -1,-7 -1,-16 0,-11 0,-16 1,-17 1,0 12,-2 25,-4 12,-2 61,-8 109,-15 115,-16 144,-20 145,-19 1,0 1,8 1,17 v 16 h -2 c -1,1 -26,4 -54,8 -29,4 -68,9 -88,12 -20,3 -57,8 -83,11 -27,4 -49,7 -51,7 -1,1 -2,1 -2,0 z m -1,-79 v -21 h 2 c 1,-1 50,-6 107,-11 57,-6 119,-13 138,-14 18,-2 33,-4 33,-3 1,0 1,30 0,31 -1,0 -35,5 -76,11 -42,5 -103,14 -137,18 -34,5 -63,9 -64,9 h -3 z m -25,-79 1,-34 h 164 165 v 17 c 0,13 0,18 -1,19 -1,0 -10,1 -19,2 -10,1 -32,3 -48,5 -17,2 -47,5 -67,7 -20,1 -58,5 -83,8 -61,6 -107,11 -110,11 h -2 z m -36,-60 c -1,-3 -14,-90 -13,-91 0,-1 96,-1 214,-1 h 214 l 1,1 c 0,1 -2,14 -4,30 -3,16 -6,36 -7,44 -1,9 -2,17 -3,17 0,1 -91,1 -201,1 h -201 z m -30,-118 c -18,-2 -34,-13 -44,-29 -7,-10 -10,-18 -21,-49 -5,-16 -14,-41 -19,-56 -17,-45 -20,-56 -22,-82 -2,-17 0,-39 3,-55 13,-61 58,-99 122,-104 23,-1 61,7 104,23 42,16 69,24 90,27 l 10,1 v 1 c 0,1 -8,7 -13,10 -9,4 -22,8 -33,9 -5,1 -10,2 -11,2 -2,2 -1,6 1,8 5,5 17,6 32,4 13,-3 25,-7 41,-16 57,-29 75,-38 115,-52 54,-19 90,-21 127,-9 38,13 67,41 80,78 6,19 8,27 7,55 0,37 -2,47 -19,92 -5,16 -15,44 -22,62 -12,36 -17,47 -25,58 -6,7 -15,14 -23,18 -13,5 -1,5 -249,5 -126,0 -230,0 -231,-1 z"
     id="path6" />
  <path
     fill="#dbdbda"
     stroke="none"
     d="m 350.375,998 c -9,-1 -23,-5 -32,-9 -41,-19 -76,-71 -90,-135 -2,-13 -5,-33 -4,-34 0,0 12,-2 26,-4 47,-6 241,-33 249,-35 h 2 v 16 c -2,48 -15,97 -36,132 -29,49 -71,74 -115,69 z m -128,-221 1,-16 13,-2 c 7,-1 34,-5 60,-9 154,-21 205,-28 205,-27 1,0 1,31 0,31 -3,2 -266,39 -277,39 h -2 z m 0,-59 v -17 h 2 c 0,0 19,-2 40,-5 169,-24 228,-32 234,-32 h 4 v 15 16 l -5,1 c -3,1 -64,9 -136,19 -73,10 -133,18 -135,19 h -4 z m 0,-64 v -20 h 1 c 2,0 121,-12 233,-24 24,-2 45,-4 45,-3 2,0 1,28 0,29 -1,0 -14,2 -29,4 -16,2 -56,8 -89,13 -34,4 -83,11 -108,15 -26,3 -49,6 -50,6 l -3,1 z m -25,-44 c -1,0 -1,-16 -1,-34 v -34 h 165 164 v 18 18 h -1 c -4,0 -170,16 -218,21 -29,3 -64,7 -78,8 -14,2 -27,3 -28,3 -2,1 -3,1 -3,0 z m -37,-98 c -2,-11 -13,-85 -13,-86 v -1 h 214 214 v 2 c 0,1 -2,13 -4,27 -2,13 -5,31 -6,40 -1,9 -2,17 -3,19 v 3 h -201 -201 z m -36,-116 c -14,-2 -26,-11 -35,-23 -8,-10 -12,-20 -24,-57 -7,-19 -16,-45 -21,-58 -13,-35 -16,-45 -19,-67 -9,-78 23,-137 83,-159 17,-6 27,-7 47,-7 15,0 19,0 32,2 25,5 41,10 72,22 36,14 61,21 82,25 l 11,1 -1,2 c -3,3 -15,9 -24,12 -5,2 -13,4 -18,4 -11,1 -14,2 -15,5 -2,8 12,13 29,11 20,-2 25,-5 82,-34 46,-24 96,-42 134,-49 14,-2 41,-2 55,1 28,6 49,17 68,35 14,14 23,29 30,50 9,26 10,57 4,92 -3,15 -6,24 -17,55 -6,14 -15,42 -22,60 -6,19 -12,37 -14,40 -10,21 -26,34 -44,37 -11,3 -465,3 -475,0 z"
     id="path7" />
  <path
     fill="#ffffff"
     stroke="none"
     d="m 343.375,997 c -28,-7 -52,-23 -71,-48 -18,-23 -33,-54 -41,-86 -3,-12 -7,-34 -7,-40 v -3 h 3 c 2,-1 11,-2 20,-3 39,-5 170,-23 228,-32 13,-1 24,-3 25,-3 h 1 v 13 c -4,80 -34,148 -77,181 -10,7 -27,16 -38,19 -11,3 -33,4 -43,2 z m -121,-220 1,-15 3,-1 c 2,-1 31,-5 66,-10 34,-4 63,-8 65,-9 2,0 28,-3 59,-8 30,-4 61,-8 68,-9 8,-1 15,-2 15,-2 h 2 v 16 16 l -18,2 c -68,10 -253,36 -260,36 h -1 z m 0,-59 v -16 h 2 c 1,-1 12,-2 25,-4 12,-2 57,-8 101,-14 103,-14 145,-20 148,-20 h 3 v 15 16 h -2 c -1,1 -27,4 -57,8 -31,5 -90,13 -132,19 -42,5 -79,10 -82,11 h -6 z m 0,-64 1,-19 135,-14 c 74,-8 136,-14 139,-14 h 4 v 14 15 0 c -1,0 -20,3 -149,20 -66,10 -122,17 -125,18 h -5 z m -25,-78 v -34 h 164 l 164,1 v 17 17 h -2 c -1,1 -17,2 -34,4 -66,6 -137,13 -182,18 -66,7 -107,11 -108,11 h -2 z m -36,-61 c -1,-3 -14,-89 -13,-89 0,-1 426,-1 426,0 1,0 -1,12 -3,26 -2,13 -5,33 -7,43 -1,11 -2,20 -3,20 0,1 -90,1 -200,1 h -200 z m -32,-118 c -22,-4 -37,-16 -48,-39 -2,-4 -9,-22 -15,-40 -6,-18 -15,-45 -21,-59 -15,-39 -18,-51 -20,-77 -1,-15 -1,-33 2,-49 11,-62 54,-102 117,-108 14,-1 23,-1 41,3 24,4 40,9 75,22 37,14 62,21 82,24 l 9,1 -1,2 c -2,2 -16,9 -25,12 -5,2 -13,3 -18,4 -11,1 -13,2 -13,7 0,5 2,7 9,9 10,3 30,0 47,-6 5,-2 13,-6 20,-9 42,-23 79,-40 118,-54 56,-20 99,-20 139,-1 13,6 22,12 33,23 17,16 27,34 34,59 7,23 7,62 0,91 -3,12 -4,14 -16,47 -5,15 -15,42 -21,60 -6,17 -13,35 -15,39 -8,17 -17,26 -30,33 -16,7 2,7 -251,7 -125,0 -230,-1 -232,-1 z"
     id="path8" />
  <path
     style="fill:#ffe6d5;stroke-width:1.8264"
     d="M 182.30009,395.99295 C 113.63371,394.88471 112.09962,394.57769 96.85586,378.89302 86.502508,368.24021 79.934705,354.49297 66.60392,315.57194 60.582935,297.99287 51.037618,271.31727 45.39209,256.29286 29.925807,215.13244 27.769258,205.65439 26.647227,173.90891 25.88033,152.21118 26.333577,143.13908 28.791545,130.98858 40.81577,71.549148 80.886462,34.130365 140.58922,26.589753 c 15.76163,-1.990733 19.68107,-1.822425 40.53815,1.740802 24.17997,4.13091 43.73331,9.690503 78.7946,22.403663 33.24665,12.05517 60.09416,20.154675 74.42568,22.453147 7.28276,1.167998 13.24138,2.81178 13.24138,3.652838 0,2.906392 -23.15479,12.01485 -37.36334,14.697705 -17.41944,3.289125 -20.39421,6.278505 -14.04742,14.116432 2.66271,3.28832 5.70882,4.3439 14.3359,4.96793 19.16387,1.38619 36.12185,-4.3812 86.99535,-29.587025 107.87801,-53.449335 160.97108,-65.36529 212.75983,-47.75079 21.42045,7.285568 34.88662,15.468383 49.74698,30.229178 25.06994,24.902062 36.25019,52.283957 37.78837,92.548927 1.03583,27.11447 -1.3425,47.813 -7.7298,67.27399 -8.3112,25.32268 -40.7232,115.37007 -46.50652,129.2051 -7.09358,16.96939 -18.79125,30.70862 -31.8684,37.43026 -8.89668,4.57286 -11.14643,4.85776 -48.59608,6.15399 -43.11671,1.4924 -285.33675,1.40782 -380.80381,-0.13295 z"
     id="path9" />
  <path
     style="fill:#f7ede0;fill-opacity:1;stroke-width:1.8264"
     d="m 144.65206,394.13167 c -24.49333,-1.1116 -27.37716,-1.61419 -35.04427,-6.10742 C 93.081552,378.33923 84.891162,364.60007 69.08963,320.0561 63.404105,304.02881 53.123157,275.28755 46.243077,256.18661 29.32418,209.2153 27.434487,199.05353 28.319337,159.8024 28.985187,130.26593 29.3696,127.39926 34.680642,112.36477 42.330132,90.710597 50.2199,77.946265 65.41067,62.648672 79.65095,48.30826 95.445447,39.066505 117.46299,32.191562 c 11.56391,-3.610815 17.5393,-4.270785 38.35434,-4.236142 30.37329,0.05055 43.75065,3.148275 109.97154,25.465552 25.40199,8.560793 53.44806,17.148083 62.32465,19.082873 8.87658,1.93479 16.60597,3.984525 17.17643,4.554975 1.67634,1.676332 -14.09917,7.958325 -32.04687,12.761437 -19.45436,5.206335 -20.44596,5.701605 -20.44596,10.212043 0,11.54258 24.0744,14.63242 48.99069,6.28774 7.71101,-2.58248 35.38885,-14.80989 61.50633,-27.172035 86.96739,-41.16414 121.12869,-52.117703 162.54935,-52.120223 63.87598,-0.0038 116.53048,41.88894 128.00098,101.839818 3.03503,15.86273 3.4143,57.16325 0.66735,72.67568 -2.52277,14.24674 -7.51327,29.49703 -30.44152,93.02509 -22.24643,61.639 -25.40048,68.77686 -35.42048,80.16018 -12.37627,14.06016 -20.58502,17.76237 -43.26202,19.51144 -22.87621,1.76443 -401.52139,1.67136 -440.73574,-0.10832 z"
     id="path10" />
  <path
     style="fill:#f7ede0;fill-opacity:1;stroke-width:1.8264"
     d="m 127.50817,392.3342 c -26.84876,-3.11897 -38.235598,-17.81835 -59.463658,-76.76226 -5.24562,-14.56552 -10.370632,-28.53746 -11.3889,-31.04875 -1.018267,-2.5113 -2.042295,-5.45005 -2.27562,-6.53056 -0.233317,-1.0805 -4.128045,-12.2409 -8.654955,-24.80085 C 30.75509,211.65741 29.06192,202.45281 29.28989,163.84516 29.476437,132.25325 29.824145,128.92583 34.347522,115.44564 41.968977,92.732815 49.44209,80.412325 65.402765,64.246668 77.076005,52.42351 83.15012,47.918778 95.546225,41.891455 c 8.538405,-4.151602 20.422855,-8.789362 26.409885,-10.306117 14.34853,-3.635078 49.22573,-3.577688 68.68154,0.113017 12.38578,2.34954 59.07428,16.210448 82.9823,24.635835 3.01355,1.062 6.91906,2.24655 8.67891,2.632343 5.92426,1.298692 29.64933,8.630707 32.51434,10.048252 1.5614,0.772553 8.861,2.868308 16.22133,4.657238 12.13104,2.948452 13.06106,3.48768 9.94586,5.766592 -1.8901,1.3827 -10.42251,4.585935 -18.96092,7.118303 -8.5384,2.532375 -16.56034,4.939635 -17.82655,5.349479 -1.26618,0.409838 -2.499,0.628763 -2.7396,0.486503 -1.81569,-1.07367 -8.6562,4.809983 -8.6562,7.445363 0,5.935547 6.75123,9.990807 17.98566,10.803437 18.42146,1.33249 31.13275,-3.1521 106.17327,-37.458362 85.16585,-38.935261 123.69846,-49.403558 163.86998,-44.519175 33.14824,4.030432 55.66272,14.79147 78.34129,37.443974 11.67113,11.65776 16.38375,18.044431 22.35518,30.296145 9.77287,20.051208 12.35317,30.736218 13.89315,57.531508 2.3979,41.72083 -0.9135,55.75598 -35.55,150.67776 -17.6178,48.28185 -24.21158,62.01032 -34.9572,72.78255 -9.8262,9.85053 -14.26223,12.18739 -27.93188,14.71435 -12.1137,2.23935 -450.32001,2.44819 -469.4684,0.22375 z"
     id="path11" />
  <path
     style="fill:#ffe6d5;fill-opacity:1;stroke-width:1.8264"
     d="M 125.61116,392.31947 C 100.038,388.50615 88.981385,373.66072 67.09073,313.74554 30.01748,212.27531 29.06015,208.53404 29.18489,165.60837 29.29649,127.20369 31.588805,115.8593 44.091335,91.83829 54.186102,72.443275 75.738575,51.522475 95.546225,41.891455 117.26341,31.331972 128.73082,28.827588 155.36485,28.827588 c 28.98997,0 37.53561,1.863787 105.7463,23.063062 30.98828,9.630877 62.38482,19.221195 69.77007,21.311805 11.84535,3.353175 13.04577,4.080412 10.18651,6.171165 -2.84245,2.078453 -34.70898,13.23771 -40.32418,14.121023 -2.8425,0.447142 -7.94643,4.80579 -7.94643,6.786067 0,4.29287 7.71975,8.69726 17.35383,9.90095 17.37462,2.17082 28.34409,-1.67776 109.58076,-38.44583 78.34273,-35.458252 106.09776,-43.789312 145.19858,-43.583385 26.7592,0.140925 39.41349,2.955225 61.93341,13.773923 12.30562,5.911687 18.549,10.528597 31.39417,23.2158 13.25003,13.08705 17.31338,18.52341 23.40338,31.311562 9.7539,20.4817 12.52642,32.14091 14.00812,58.90835 1.70055,30.72098 -1.05615,48.85751 -12.82867,84.40077 -13.2981,40.1493 -36.81315,103.55104 -43.5096,117.3115 -6.84863,14.07301 -18.95535,26.95543 -30.22815,32.16473 l -8.55791,3.95474 -232.86564,0.24894 c -128.0761,0.1369 -237.00681,-0.36858 -242.06824,-1.12329 z"
     id="path12" />
  <path
     style="fill:#c8c4b7;fill-opacity:1;stroke-width:1.8264"
     d="m 357.63421,392.3006 -239.25802,-0.93318 -7.58553,-4.05639 C 94.202637,378.44053 84.254502,359.77645 59.41097,290.91557 30.731892,211.42343 28.868502,202.83313 30.291875,156.67538 31.314942,123.49862 33.105732,115.22867 43.935642,93.66772 52.087017,77.4394 76.790667,52.322905 92.806632,43.980025 115.62186,32.09533 124.78977,30.03709 154.90413,30.038815 c 21.77802,0.0015 30.57946,0.793717 42.92034,3.864518 18.48723,4.600199 140.5723,41.741512 142.04414,43.213357 1.80052,1.80051 -0.65765,2.973157 -21.78831,10.393935 -11.39446,4.001565 -21.85692,8.397787 -23.24993,9.769387 -7.02639,6.918378 7.30988,14.682808 24.44571,13.239618 14.92566,-1.25703 26.70277,-5.60575 84.01806,-31.023835 C 504.4824,34.621023 519.89057,29.861282 564.01709,29.84686 c 32.71662,-0.01073 37.93328,1.02174 60.96373,12.06543 11.9916,5.75025 18.84548,10.752705 31.66725,23.112908 14.00663,13.502452 17.50793,18.14751 24.31028,32.252092 4.52782,9.38831 9.2076,22.70228 10.8771,30.94518 3.9693,19.59841 3.99742,57.82823 0.0562,76.85244 -4.8789,23.55247 -40.07828,124.125 -53.00842,151.45712 -6.08888,12.87083 -19.44105,26.80859 -31.42883,32.80727 -5.24033,2.62224 -9.76066,4.57123 -10.0452,4.3311 -0.28451,-0.24014 -108.18342,-0.85655 -239.77534,-1.3698 z"
     id="path13" />
  <path
     style="fill:#c8c4b7;fill-opacity:1;stroke-width:1.8264"
     d="m 157.94055,488.62307 c -2.20769,-14.31439 -5.10537,-34.03948 -6.43929,-43.83354 l -2.4253,-17.80737 h 212.49316 c 116.87124,0 212.4889,0.61641 212.48371,1.3698 -0.005,0.75339 -2.38273,16.57455 -5.28342,35.15814 -2.90068,18.5836 -5.82337,37.69227 -6.49485,42.46374 l -1.22089,8.67536 H 361.50409 161.95452 Z"
     id="path14" />
  <path
     style="fill:#c8c4b7;fill-opacity:1;stroke-width:1.8264"
     d="M 197.82447,575.94542 V 542.0452 h 53.57772 c 29.46776,0 103.0259,0.54562 163.46254,1.2126 l 109.88483,1.2126 v 15.90285 15.90292 l -8.6754,1.11645 c -4.77146,0.6141 -34.9755,3.60473 -67.12009,6.6459 -32.14459,3.04125 -77.75885,7.5384 -101.36504,9.99383 -23.60619,2.45542 -63.4673,6.55732 -88.58026,9.11535 -25.11296,2.5581 -49.15291,5.11155 -53.42212,5.6745 l -7.76218,1.02353 z"
     id="path15" />
  <path
     style="fill:#c8c4b7;fill-opacity:1;stroke-width:1.8264"
     d="m 223.39402,654.36857 c 0,-17.39294 0.31218,-19.17712 3.3554,-19.17712 1.84546,0 58.34962,-5.6805 125.56479,-12.62325 67.21518,-6.94275 128.16804,-13.19025 135.4508,-13.88332 l 13.24138,-1.26016 v 13.68008 13.68015 l -5.93579,1.06342 c -3.26469,0.58485 -39.73554,5.61195 -81.04634,11.17133 -41.3108,5.55937 -100.82467,13.80202 -132.25304,18.31702 -31.42838,4.515 -57.42031,8.20905 -57.75985,8.20905 -0.33954,0 -0.61735,-8.62972 -0.61735,-19.1772 z"
     id="path16" />
  <path
     style="fill:#c8c4b7;fill-opacity:1;stroke-width:1.8264"
     d="m 223.39402,717.52442 c 0,-14.32065 0.0505,-14.47612 5.02259,-15.46807 6.87639,-1.37175 66.81847,-9.73883 171.22474,-23.90055 48.21689,-6.54008 90.74911,-12.3798 94.51605,-12.9771 l 6.84899,-1.086 v 14.64862 c 0,17.15168 2.57524,15.3801 -28.30916,19.47443 -12.05422,1.59802 -46.98406,6.5283 -77.62187,10.95607 -52.16027,7.53825 -165.92961,22.81868 -169.8952,22.81868 -1.01358,0 -1.78614,-6.25703 -1.78614,-14.46608 z"
     id="path17" />
  <path
     style="fill:#c8c4b7;fill-opacity:1;stroke-width:1.8264"
     d="m 223.39402,777.8701 c 0,-8.03843 0.67743,-15.03398 1.5054,-15.5457 1.45407,-0.89865 42.18931,-6.81255 114.47082,-16.61873 19.08585,-2.5893 45.79691,-6.3036 59.35791,-8.25397 39.48565,-5.67893 94.08975,-12.7668 98.35382,-12.7668 3.68606,0 3.92442,0.88245 3.92442,14.5284 v 14.5284 l -5.93579,0.9462 c -9.01625,1.43723 -170.35012,23.99505 -215.97146,30.19732 -22.09941,3.00443 -43.67372,5.9436 -47.94293,6.53138 l -7.76219,1.06882 z"
     id="path18" />
  <path
     style="fill:#ffe6d5;fill-opacity:1;stroke-width:1.8264"
     d="m 331.63672,992.39725 c -36.12944,-13.42373 -66.3808,-45.7887 -86.72405,-92.7834 -7.68076,-17.7432 -16.60572,-49.8045 -18.8021,-67.5432 -1.22839,-9.92078 -1.08461,-10.46535 3.01941,-11.4363 2.37008,-0.5607 38.00625,-5.56088 79.19151,-11.11148 41.18526,-5.55059 96.66207,-13.26652 123.28181,-17.14642 26.61973,-3.87998 53.12533,-7.60688 58.90131,-8.2821 l 10.50178,-1.2276 v 5.6826 c 0,10.5258 -3.83763,41.02327 -7.37669,58.62225 -15.38783,76.52032 -57.59482,133.54507 -108.69505,146.85502 -16.20999,4.22213 -39.46185,3.51135 -53.29793,-1.62937 z"
     id="path19" />
  <path
     style="fill:#e3dbdb;fill-opacity:1;stroke-width:1.8264"
     d="M 227.04682,390.48226 C 103.86021,389.43293 111.29275,390.25121 99.130767,376.39947 88.184368,363.93221 70.72502,322.40735 46.296103,250.73888 32.46104,210.15017 31.053283,201.06468 32.041805,158.74321 32.802103,126.19266 33.297635,121.77245 37.41686,110.79707 44.52386,91.860977 51.115138,82.101872 68.339202,65.013137 96.347525,37.22488 119.56917,29.184032 165.86251,31.24423 c 20.39471,0.907627 27.33078,2.09445 49.18214,8.415487 50.24844,14.535593 123.41239,37.283693 123.41239,38.371313 0,0.610147 -6.36955,3.447435 -14.15457,6.305077 -27.66957,10.15665 -31.50535,12.1839 -31.50535,16.650973 0,5.74619 9.75137,10.02838 22.83658,10.02838 14.16348,0 32.85701,-6.53528 88.44629,-30.920895 59.58029,-26.136375 92.70766,-39.341858 110.73771,-44.143088 20.26882,-5.397397 68.02522,-7.005075 84.28695,-2.837445 20.17498,5.170538 39.40498,16.297208 56.45375,32.66463 12.9822,12.463485 16.78702,17.527163 23.60663,31.417328 12.00607,24.45385 14.18369,35.09972 14.22112,69.52458 0.0232,21.66228 -0.7689,32.29363 -3.063,41.09394 -8.31435,31.89391 -42.4974,128.44609 -52.46632,148.19441 -6.23408,12.34967 -20.14973,27.12464 -30.5391,32.42486 -7.48413,3.81814 -8.51827,3.84364 -138.65712,3.41827 -72.11421,-0.23571 -180.84042,-0.85212 -241.61379,-1.36979 z"
     id="path20" />
  <path
     style="fill:#e3dbdb;fill-opacity:1;stroke-width:1.8264"
     d="m 346.26652,994.91125 c -14.39824,-1.9179 -31.37278,-9.99203 -47.36059,-22.5276 -29.13399,-22.84298 -50.60085,-58.20653 -64.43837,-106.15298 -3.18898,-11.04967 -6.2748,-25.54695 -6.85738,-32.2161 l -1.05921,-12.12577 7.09691,-1.15313 c 3.90331,-0.6342 60.51904,-8.5674 125.81273,-17.62927 65.2937,-9.06187 123.64709,-17.16915 129.6742,-18.0162 6.02711,-0.84705 11.11901,-1.40558 11.31535,-1.24118 0.82527,0.69105 -3.29157,37.99988 -5.86587,53.15933 -17.32145,102.0012 -78.55813,167.19535 -148.31777,157.9029 z"
     id="path21" />
  <path
     style="fill:#e3dbdb;fill-opacity:1;stroke-width:1.8264"
     d="m 224.19702,777.84025 c 0.68836,-7.59638 1.47736,-14.03738 1.75332,-14.3133 1.64506,-1.64513 234.15414,-34.24853 259.54998,-36.39533 l 13.1224,-1.10925 1.17173,7.0935 c 0.64446,3.90135 1.18078,9.9879 1.19183,13.52558 l 0.0201,6.43215 -96.34244,13.44465 c -52.98835,7.39448 -115.55207,16.0746 -139.03048,19.2891 l -42.68802,5.84445 z"
     id="path22" />
  <path
     style="fill:#e3e2db;fill-opacity:1;stroke-width:1.8264"
     d="m 224.70017,722.6995 c -1.09531,-8.16615 0.0294,-17.58608 2.26472,-18.9675 1.49181,-0.92205 73.23167,-11.16045 190.67127,-27.21188 l 83.74514,-11.44605 -0.70187,12.42113 c -0.38603,6.8316 -1.59841,13.31767 -2.69419,14.4135 -1.09578,1.09575 -18.74017,4.4166 -39.20973,7.3797 -56.83269,8.22675 -207.3624,28.73925 -220.95632,30.10935 l -12.05758,1.2153 z"
     id="path23" />
  <path
     style="fill:#e3e2db;fill-opacity:1;stroke-width:1.8264"
     d="m 339.6223,992.96785 c -3.87945,-0.91125 -13.74199,-5.127 -21.91677,-9.36833 C 298.3265,973.54517 273.80822,949.40088 261.31182,928.06607 245.78457,901.55672 231.46575,860.31565 228.1062,832.4272 l -1.21191,-10.06035 69.93595,-9.74423 c 38.46478,-5.35934 95.82514,-13.35615 127.46747,-17.77064 31.64233,-4.41458 61.55837,-8.56928 66.48009,-9.23273 l 8.9486,-1.2063 -1.30725,16.2525 c -5.68811,70.71907 -29.02167,128.48152 -65.76104,162.792 -27.36412,25.55512 -62.46986,36.69045 -93.03581,29.5104 z"
     id="path24" />
  <path
     style="fill:#e3e2db;fill-opacity:1;stroke-width:1.8264"
     d="m 224.65279,661.4242 c -0.59741,-5.8896 -0.49888,-13.9959 0.21894,-18.01395 1.14788,-6.42533 1.96273,-7.36988 6.76271,-7.8387 47.94158,-4.68263 259.09852,-26.09288 263.51411,-26.71898 l 6.01374,-0.85275 -0.53455,13.12118 -0.53455,13.12125 -126.9346,17.70727 c -69.81403,9.73905 -131.54373,18.26438 -137.17711,18.94523 l -10.2425,1.2378 z"
     id="path25" />
  <path
     style="fill:#e3e2db;fill-opacity:1;stroke-width:1.8264"
     d="m 197.82447,575.5408 v -33.32468 l 113.69322,0.87165 c 62.53127,0.4794 136.08942,1.3563 163.46254,1.94873 l 49.76933,1.07707 v 14.36858 c 0,13.41592 -0.27247,14.42842 -4.1094,15.27052 -2.26017,0.49613 -62.46279,6.6885 -133.78359,13.76085 -71.32081,7.07235 -143.02973,14.31975 -159.35315,16.10535 l -29.67895,3.2466 z"
     id="path26" />
  <path
     style="fill:#e3e2db;fill-opacity:1;stroke-width:1.8264"
     d="m 162.26172,510.54794 c -1.15973,-5.10791 -11.92358,-79.1457 -11.92358,-82.01486 0,-1.56111 53.05967,-1.74842 210.49227,-0.74309 115.77075,0.7393 210.81538,1.66251 211.21029,2.05159 0.39491,0.38907 -2.0918,19.42449 -5.52603,42.30093 l -6.24405,41.59352 -198.53702,0.46474 -198.53701,0.4647 z"
     id="path27" />
  <path
     style="fill:#ffe6d5;fill-opacity:1;stroke-width:1.8264"
     d="M 166.69299,388.75032 C 109.84545,387.621 110.13324,387.67561 99.87023,376.07163 89.560355,364.41465 67.726317,311.84729 45.15605,244.34245 L 34.469562,212.3805 33.807275,171.74562 c -0.41916,-25.71736 0.09092,-44.15586 1.389442,-50.22592 4.837058,-22.611295 23.73828,-49.719842 47.268593,-67.793672 21.8571,-16.788615 36.90475,-21.178411 72.73476,-21.218648 13.61898,-0.0153 29.84842,1.113045 37.44114,2.603063 20.92749,4.106879 142.16304,40.800127 142.16304,43.027177 0,0.623625 -9.24614,4.79154 -20.54697,9.262035 -18.50383,7.319925 -20.60344,8.615385 -21.11481,13.027965 -0.79666,6.87436 6.97578,10.58784 22.16079,10.58784 15.9182,0 28.57654,-4.3959 97.26471,-33.777383 66.59785,-28.487355 97.7242,-40.161652 114.21391,-42.837247 6.41611,-1.041075 24.40477,-1.877843 39.97481,-1.859498 24.45874,0.0288 29.93821,0.588713 40.28631,4.116525 18.3429,6.253328 32.18062,15.333105 49.3026,32.350463 12.08355,12.009622 17.109,18.625635 22.19715,29.222355 11.94757,24.882445 13.26202,31.745155 13.29375,69.403095 l 0.0285,33.78835 -7.05293,22.71203 c -8.41815,27.10859 -28.63762,84.57318 -39.45982,112.14655 -8.66325,22.07262 -19.95428,38.52716 -32.65823,47.59307 l -7.94148,5.66725 -192.96222,0.1225 c -106.12921,0.0673 -216.42298,-0.34357 -245.09726,-0.9132 z"
     id="path28" />
  <path
     style="fill:#fff6d5;fill-opacity:1;stroke-width:1.8264"
     d="M 133.90056,386.8709 C 122.3486,386.23557 111.08118,384.71618 108.86184,383.49448 96.04085,376.43672 76.50683,333.73051 48.259392,251.00255 L 35.25473,212.91592 35.17863,167.90148 c -0.06067,-35.9036 0.489795,-46.6148 2.719853,-52.92141 C 48.831,84.062912 80.44776,50.03362 107.72146,39.829217 c 14.35685,-5.371582 43.26389,-7.789717 67.57104,-5.65245 14.78309,1.29984 28.80617,4.320856 55.40711,11.936445 47.31525,13.545893 100.45185,30.526935 100.45185,32.10174 0,0.69567 -8.42426,4.879073 -18.72057,9.296445 -17.71029,7.598145 -18.72057,8.322975 -18.72057,13.430883 0,7.2988 5.84688,10.01226 21.64737,10.04625 16.2164,0.0349 29.54214,-4.48193 96.92899,-32.854495 59.1362,-24.89871 90.76169,-37.069553 107.53394,-41.383687 8.10535,-2.084851 20.40057,-2.954176 43.28328,-3.060323 28.84158,-0.1338 33.17904,0.264728 44.4287,4.082055 27.1623,9.21696 58.58212,36.972585 71.24085,62.93268 10.16925,20.85485 12.1203,32.00092 12.15127,69.41935 l 0.027,32.62589 -12.105,36.77721 c -16.99845,51.64441 -34.27402,98.03132 -42.19027,113.28616 -4.1574,8.01141 -11.14493,17.35644 -18.24413,24.39947 l -11.50597,11.41498 -226.00112,-0.30087 c -124.3006,-0.1655 -235.4527,-0.82071 -247.00467,-1.45605 z"
     id="path29" />
</svg>
