<?xml version="1.0" encoding="UTF-8" standalone="no"?>
<svg
   version="1.0"
   width="300.16068pt"
   height="303.87851pt"
   viewBox="0 0 300.16068 303.87851"
   preserveAspectRatio="xMidYMid"
   id="svg8"
   sodipodi:docname="existing_dt.svg"
   inkscape:version="1.4 (e7c3feb1, 2024-10-09)"
   xmlns:inkscape="http://www.inkscape.org/namespaces/inkscape"
   xmlns:sodipodi="http://sodipodi.sourceforge.net/DTD/sodipodi-0.dtd"
   xmlns="http://www.w3.org/2000/svg"
   xmlns:svg="http://www.w3.org/2000/svg">
  <defs
     id="defs8" />
  <sodipodi:namedview
     id="namedview8"
     pagecolor="#ffffff"
     bordercolor="#000000"
     borderopacity="0.25"
     inkscape:showpageshadow="2"
     inkscape:pageopacity="0.0"
     inkscape:pagecheckerboard="0"
     inkscape:deskcolor="#d1d1d1"
     inkscape:document-units="pt"
     inkscape:zoom="1.0931542"
     inkscape:cx="203.08205"
     inkscape:cy="220.00555"
     inkscape:window-width="1200"
     inkscape:window-height="990"
     inkscape:window-x="0"
     inkscape:window-y="25"
     inkscape:window-maximized="0"
     inkscape:current-layer="svg8" />
  <path
     fill="#5f3a21"
     stroke="none"
     d="m 56.40129,303.31061 c -18.11051,0 -19.66284,-0.56791 -22.76749,-1.70371 -1.55233,-0.56788 -3.6221,-1.1358 -3.6221,-0.56788 h -0.51744 l -0.51745,-1.13582 c -0.51744,0 -1.03489,-0.5679 -1.55233,-0.5679 -0.51744,0 -2.58722,-1.13581 -4.65699,-2.8395 -5.17443,-3.40741 -16.04072,-15.33334 -16.55817,-17.60496 0,-1.13579 -0.51743,-1.7037 -1.03489,-2.27159 0,-0.56791 -0.51743,-1.13581 -0.51743,-1.13581 0,-0.56789 -0.51746,-1.7037 -1.03489,-2.83951 -1.03488,-2.8395 -1.55234,-4.54321 -2.06977,-5.67902 0,-0.56789 0,-2.2716 -0.51745,-3.4074 C 0,260.15009 0,227.77972 0.51745,219.82909 l 0.51744,-3.40741 v 0 h 0.51745 l 0.51743,-3.40741 c 1.55234,-6.81483 6.72677,-17.03704 12.41864,-22.71605 5.69189,-6.24692 13.97096,-11.35805 21.21516,-13.62965 1.55233,0 3.6221,-0.5679 3.6221,-1.13578 1.55233,-0.56792 16.04074,-1.13582 20.18029,-0.56792 1.03488,0.56792 2.58719,0.56792 3.10464,0.56792 l 1.03489,0.56788 0.51743,-4.54322 c 1.03489,-9.65433 3.10466,-14.76545 9.31398,-21.58025 l 3.62211,-3.97531 -2.06978,-2.8395 c -1.03489,-1.70371 -2.06977,-2.83951 -2.06977,-3.40741 v -0.56792 h -0.51744 c -0.51744,-0.56788 -4.65699,-7.95061 -7.24421,-13.62963 -1.03489,-2.8395 -2.58721,-5.11111 -2.58721,-5.11111 h -0.51745 v -0.5679 c 0.51745,0 0,-1.70371 -0.51743,-3.40741 -4.65699,-13.62962 -6.20931,-18.740738 -7.76165,-30.098778 -1.03489,-4.54321 -2.06977,-15.33333 -2.06977,-18.74074 0,-10.22225 1.55233,-23.28397 3.62211,-28.39508 0.51744,-1.13581 1.03488,-2.27161 1.03488,-2.8395 0,-1.1358 4.13955,-9.65433 5.17443,-11.35804 5.17441,-6.81482 7.2442,-9.65433 10.8663,-12.49382 1.55232,-1.70371 3.6221,-2.8395101 4.13954,-3.4074201 0,0 1.55234,-1.1358 2.58722,-1.7037 1.03488,-0.56792 3.10466,-1.7037 3.62209,-2.27161 2.58723,-1.70371 9.31398,-3.97531 13.97095,-4.54321001 4.657,-1.13581 12.41866,-0.5679 18.62797,0.56790001 2.58721,0.56788 5.69186,0.56788 6.72675,0.56788 0.51745,0 1.55233,0.56792 1.55233,0.56792 1.03489,1.7037 17.59306,4.5432 24.31982,4.5432 5.17444,0 15.00584,-1.13578 16.55818,-1.70369 0.51743,0 2.58721,-0.5679 5.17443,-1.13581 2.06978,-0.5679 4.13955,-1.1358 4.65698,-1.1358 0.51744,-0.5679 3.62211,-1.13582 7.2442,-1.7037 15.00585,-2.83951 28.45937,-0.56790001 39.32566,7.38271 3.10467,2.2716201 10.86631,11.3580401 13.45352,15.9012501 1.55232,1.7037 2.58722,3.40739 2.58722,3.40739 0,0 0.51744,0.56793 0.51744,1.13581 0,0.56792 0.51745,2.27161 1.03488,3.40742 1.0349,1.70371 1.55234,3.97532 2.06978,5.67901 l 0.51745,2.2716 h 0.51744 0.51744 l -0.51744,1.13582 v 1.1358 h 0.51744 0.51745 v 0.56789 c -0.51745,0 0,2.2716 0.51744,5.11112 0.51744,5.1111 1.03488,27.25927 0.51744,31.80248 -0.51744,1.1358 -1.03488,5.11112 -1.55233,7.95062 0,2.83953 -1.03488,7.38273 -1.55233,9.65434 -0.51744,2.271598 -1.03488,4.543208 -1.03488,5.111118 0,0 0,1.13579 -0.51744,2.2716 -0.51746,1.13579 -1.03489,2.83951 -1.03489,2.83951 0,0.56788 -0.51745,2.8395 -1.55233,5.11109 l -1.55233,3.97534 h 0.51744 v 0.56788 h -0.51744 -0.51745 l -0.51743,2.27161 c 0,1.13581 0,2.27161 0,2.27161 h 0.51743 l -1.03489,0.5679 c -0.51743,0.56789 -1.03486,1.13581 -1.03486,1.13581 0,0.56789 -0.51746,2.27162 -1.0349,3.40741 l -1.55233,2.83949 h 0.51744 0.51745 l -1.03489,0.56791 c 0,0 -1.03488,1.70369 -2.06977,3.40742 l -1.55234,3.40741 v 0 h 0.51745 l -1.55234,1.70368 c -0.51743,0.56792 -2.06976,2.83953 -3.10465,3.97533 l -2.06977,2.8395 1.55234,1.1358 c 2.58721,2.27161 6.20931,6.81482 6.72675,8.51853 0.51745,1.13578 1.03488,2.2716 1.55233,2.2716 h 0.51744 v 1.1358 c 0,0.5679 0,1.70372 0.51745,1.70372 l 1.03488,0.56789 h -0.51744 -0.51744 l 0.51744,0.56789 c 0,0.56791 0.51744,1.70373 0.51744,2.83952 0,1.1358 0.51746,2.2716 0.51746,2.83952 0,0 0.51743,2.2716 0.51743,4.5432 0,1.70369 0,3.97531 0,3.97531 0.51743,0 3.10464,-0.56788 6.72676,-0.56788 5.69187,-1.13582 7.24419,-1.13582 12.93607,0 13.45351,1.13578 21.21516,5.11109 30.01169,12.49382 4.65699,4.5432 9.31397,10.22221 10.86631,14.19753 0.51743,1.1358 1.55232,2.27161 1.55232,2.27161 0.51744,0.56789 1.55233,2.8395 2.06976,6.24692 0.51746,1.13578 1.03489,2.2716 1.03489,2.2716 0,0 0.51746,0.56791 0.51746,1.1358 0,0.56791 0.51743,2.83951 0.51743,5.11113 1.03489,3.4074 1.03489,8.51852 1.03489,22.14813 0,19.30866 -0.51744,23.85187 -3.10467,30.0988 -0.51743,1.7037 -1.03487,3.40742 -1.03487,3.40742 0,0.56789 -4.13955,7.38271 -6.72675,11.92593 -3.10467,4.54319 -10.86631,10.2222 -18.11052,13.06172 -8.27909,3.97531 -1.03488,3.40741 -102.97115,3.40741 -51.22686,0.5679 -101.41883,0 -111.76767,0 z"
     id="path1"
     style="stroke-width:0.542086" />
  <path
     fill="#83685e"
     stroke="none"
     d="m 75.02923,303.31061 c 0.51745,0 156.78522,0 157.30268,0 v 0.5679 H 153.68056 75.02923 Z M 34.15124,301.6069 c -2.58722,-0.56788 -4.65698,-1.1358 -5.17443,-1.7037 -0.51744,-0.5679 -1.03489,-0.5679 -1.55233,-0.5679 -1.03489,0 -8.79653,-5.67902 -10.34885,-7.95063 l -1.03488,-1.13581 0.51742,0.56791 c 0.51746,0 2.06978,1.13582 4.13954,2.83951 5.17444,3.97531 11.9012,6.81482 18.62796,8.51852 l 3.10465,0.5679 v 0.56791 0 h -2.06976 c -1.03489,0 -3.62211,-0.56791 -6.20932,-1.70371 z m 226.12257,0.5679 c 5.69187,-1.13578 11.90119,-3.4074 15.52329,-5.679 12.41862,-6.81483 20.69772,-19.87655 23.28493,-36.91361 0.51745,-2.27159 0.51745,-4.54321 1.03489,-4.54321 v 0 2.27162 c 0,3.40739 -1.55232,10.22221 -3.10467,14.19753 -0.51743,1.7037 -1.03487,3.40742 -1.03487,3.40742 0,1.13579 -4.13955,7.9506 -7.24421,11.92593 -2.06977,2.2716 -4.65698,5.11111 -6.20931,6.24691 -6.72676,5.67901 -16.04073,9.65431 -22.25005,10.22222 h -3.10466 z M 42.43032,289.68097 c -14.4884,-2.83949 -25.87215,-14.19753 -29.49424,-29.53088 -1.03488,-3.9753 -1.03488,-6.81483 -1.03488,-17.60493 0,-15.33336 0.51743,-21.58027 2.58721,-28.39509 2.06976,-6.24691 4.13954,-10.22222 8.79653,-14.76544 7.2442,-7.38271 14.4884,-10.79014 26.90704,-11.35802 6.72675,0 10.34886,0.56788 20.69771,4.5432 3.10465,1.13581 5.69187,1.70372 6.20932,1.70372 0,0 0,-6.24692 0,-13.06174 0,-13.06174 0,-13.62963 1.03489,-15.90123 1.55232,-3.40744 5.17442,-7.38274 8.79652,-9.08644 2.58722,-1.1358 2.58722,-1.1358 61.57571,-1.1358 58.9885,0 58.9885,0 61.57572,1.1358 4.13952,2.27162 7.76164,6.81482 8.79653,10.79012 1.03488,2.27161 1.03488,5.11112 1.03488,15.33336 v 11.92593 h 1.03488 c 2.58722,-1.13581 15.00584,-5.11111 18.62796,-5.67904 7.76165,-1.70368 20.69771,0.56793 27.94192,4.54323 9.31397,5.1111 16.04073,14.19753 18.62794,25.55556 1.55233,5.67902 2.06976,11.92595 2.06976,24.98768 0,11.35802 0,12.49383 -1.03487,16.46913 -3.10466,13.06174 -11.38375,22.71606 -21.73261,27.25928 -7.76165,3.4074 -3.10465,3.4074 -115.90723,3.4074 -86.41296,0 -104.00603,0 -107.11069,-1.1358 z M 9.31397,282.86615 C 7.76166,281.16246 6.72677,278.89084 6.20932,278.32294 5.69189,277.75505 5.69189,276.61925 5.17443,276.05134 3.10465,272.07603 0.51745,262.98961 0,256.74269 v -4.5432 0 c 0.51745,0 0.51745,2.83949 1.03489,5.679 1.03488,9.08642 3.62211,15.90125 8.27908,23.85187 l 2.58723,3.9753 v 0 c -0.51746,0 -1.55234,-1.13579 -2.58723,-2.83951 z M 0,230.05131 c 0,-12.49383 3.62211,-25.55556 9.83143,-34.07408 4.65698,-7.38274 9.83141,-11.35802 16.55816,-15.33335 9.31398,-5.11109 20.18027,-6.81483 30.0117,-5.67901 3.10467,0.56792 5.69186,0.56792 6.20931,0.56792 l 1.03489,0.56788 0.51743,-4.54322 c 1.03489,-7.9506 3.10466,-15.33333 6.20931,-18.17284 l 1.0349,-0.56789 -0.51744,1.13579 c -4.13956,6.81483 -5.17443,10.22224 -5.69188,18.17285 v 5.11112 h -1.55232 c -5.17442,-1.13581 -10.34886,-1.70369 -15.00584,-1.70369 -19.14539,1.13578 -34.66868,11.35802 -41.91288,27.25925 -3.62212,8.51852 -4.657,11.92594 -6.20932,27.82719 L 0,235.16244 Z m 299.59948,-2.27159 c -1.55234,-15.90127 -5.69188,-25.55558 -13.97096,-35.20991 l -2.58722,-3.40739 h 0.51745 c 0.51744,0 5.69188,5.67901 7.76165,9.0864 5.17442,7.38273 9.31395,21.01238 8.79652,30.0988 l -0.51744,3.9753 z M 279.4192,186.3229 c -9.31397,-6.81482 -20.69772,-10.22223 -33.11634,-10.22223 h -6.20932 v -0.56788 -0.56792 h 3.10466 c 5.69188,-0.5679 20.18027,1.7037 25.35471,3.9753 4.13953,2.27162 9.83141,5.67904 11.90117,7.38273 l 2.58722,2.27159 h -0.51744 c 0,0 -1.55232,-1.13579 -3.10466,-2.27159 z m -47.60475,-14.76545 c -0.51744,-5.67901 -2.06977,-11.92593 -4.13954,-15.90123 -1.55234,-2.27161 -5.17443,-6.24692 -7.2442,-7.95063 -1.55233,-1.13578 -2.06977,-1.7037 -0.51745,-3.4074 2.58722,-2.83951 4.13955,-5.11113 5.69188,-8.51852 7.76163,-13.62964 14.4884,-36.345688 17.07562,-54.518558 0,-3.4074 0.51744,-6.81481 1.03488,-6.81481 v 0 4.54321 c -1.03488,10.22222 -3.6221,23.851878 -7.76166,35.777798 -5.17441,14.19755 -9.31396,22.71607 -14.48838,29.53088 l -1.55234,1.7037 1.55234,1.1358 c 6.72675,5.67903 11.38374,16.46916 11.38374,26.12348 v 2.8395 h 3.10464 l 3.62212,-0.56788 -1.0349,0.56788 c -1.03488,0 -2.58722,0.5679 -4.13954,0.5679 l -2.58721,0.56791 z M 71.92458,151.68091 c 0,0 1.03488,-1.70371 2.58721,-2.8395 l 2.58722,-2.83952 -2.06978,-2.8395 c -1.03489,-1.70371 -2.06977,-2.83951 -2.06977,-3.40741 v -0.56792 h -0.51744 c -0.51744,-0.56788 -4.65699,-7.95061 -7.24421,-14.19753 -6.20931,-13.62963 -9.31396,-23.85187 -11.90118,-40.320998 -1.55233,-9.65434 -1.55233,-27.82718 0,-36.3457 0.51744,-3.97531 1.55233,-7.38273 2.06978,-9.08642 0.51744,-1.13581 1.03488,-2.27161 1.03488,-2.8395 0,-1.1358 4.13955,-9.65433 5.17443,-11.35804 5.17441,-6.81482 7.2442,-9.65433 10.8663,-12.49382 1.55232,-1.70371 3.6221,-2.8395101 4.13954,-3.4074201 0.51745,-0.56791 1.03488,-1.1358 6.20931,-3.97531 1.03489,-0.5679 3.62211,-1.70371 5.69189,-2.27161 10.86629,-3.97531 22.76748,-3.40741001 39.8431,1.1358 5.17443,1.70372 14.4884,2.8395 19.66283,2.8395 5.17444,0 15.00584,-1.13578 16.55818,-1.70369 0.51743,0 2.58721,-0.5679 5.17443,-1.13581 2.06978,-0.5679 4.13955,-1.1358 4.65698,-1.1358 2.06976,-1.13582 13.45352,-2.83950001 18.62794,-2.83950001 9.31398,0 16.04074,1.70368001 23.28496,5.67902001 4.13953,2.2716 11.90117,9.0864201 11.90117,10.2222101 v 0.56791 l -3.10467,-2.83952 C 217.32605,5.7302319 205.9423,1.1870119 193.00622,1.1870119 c -6.72675,0 -11.38374,0.56788 -20.18026,2.8395 -11.38375,3.40742 -13.97097,3.40742 -23.80238,3.40742 -9.83143,0 -13.45352,-0.56792 -24.83726,-3.40742 -9.31398,-2.27162 -13.45352,-2.8395 -21.73261,-2.8395 -10.34886,0.56788 -17.59305,2.8395 -26.38959,9.0864201 -21.21516,15.90124 -28.45936,48.27164 -19.14539,88.02474 4.13953,17.604938 13.4535,38.617288 19.66283,45.432118 2.58722,2.2716 2.58722,2.83952 1.03488,3.9753 -0.51743,0 -2.06976,1.70371 -3.6221,2.83951 l -2.06976,1.70372 z m 22.76747,-9.65432 c -7.24418,-1.70371 -12.41861,-7.95062 -19.14537,-22.71607 -6.20933,-15.33334 -9.83142,-28.962988 -10.8663,-46.000008 -0.51746,-9.08643 0,-20.44447 1.55232,-27.25929 3.10465,-14.19753 12.41863,-24.98767 24.31983,-29.53087 10.34885,-3.40741 18.62795,-3.40741 32.5989,0 11.38375,3.40741 15.00583,3.97531 23.80238,4.5432 9.31397,0 17.07562,-0.56789 26.38958,-3.4074 11.38375,-3.40742 12.41862,-3.40742 19.66283,-3.40742 8.2791,0 12.41864,1.13581 18.11053,3.97532 7.24419,3.9753 13.97093,13.06173 17.0756,22.14815 2.58722,7.38273 3.6221,14.76545 3.6221,25.55558 0,11.35802 -0.51744,17.60493 -3.6221,30.09878 -4.13954,18.740748 -10.8663,34.074078 -17.59306,40.888898 -1.03488,1.13582 -3.6221,2.83952 -5.17443,3.97534 -2.58721,1.13579 -2.58721,1.13579 -55.3664,1.70367 -30.01168,0 -53.81407,0 -55.36641,-0.56788 z M 243.1982,65.359882 v -7.38272 h 0.51744 0.51744 v 7.38272 7.38272 h -0.51744 -0.51744 z m 0,-10.79014 c -2.06977,-13.62964 -4.657,-22.14815 -9.83143,-30.09877 -1.03486,-2.27162 -2.5872,-4.54321 -3.10465,-5.11112 l -0.51744,-1.1358 1.03489,1.1358 c 2.06977,1.7037 5.17441,6.81482 7.2442,11.35804 3.10466,6.81482 6.20931,21.01235 5.69187,24.98766 l -0.51744,1.70369 z"
     id="path2"
     style="stroke-width:0.542086" />
  <path
     fill="#ae978a"
     stroke="none"
     d="m 76.58156,303.31061 c 1.03488,0 2.06977,0 2.58722,0 l 1.55233,0.5679 H 78.1339 75.54668 Z m 152.64567,0 c 0.51745,0 1.55234,0 2.06978,0 l 1.0349,0.5679 h -2.06979 -1.55232 z M 34.15124,301.6069 c -2.58722,-0.56788 -4.65698,-1.1358 -5.17443,-1.7037 -0.51744,-0.5679 -1.03489,-0.5679 -1.55233,-0.5679 -0.51744,0 -5.69188,-3.4074 -5.69188,-3.97531 v -0.56791 l 5.17444,2.83951 c 2.58722,1.70371 6.20931,3.40743 8.27908,3.97531 2.06978,0 4.13955,1.1358 4.65699,1.1358 l 1.03489,0.56791 h -1.03489 c -1.03488,0 -3.10466,-0.56791 -5.69187,-1.70371 z m 225.60513,1.1358 c 0.51744,0 1.55234,-0.5679 2.58722,-0.5679 1.55232,-0.5679 3.62209,-1.13578 4.65697,-1.7037 1.55235,0 3.10467,-0.5679 3.10467,-0.5679 l 1.03488,0.5679 -3.62209,1.1358 c -2.06978,0.5679 -4.13955,1.1358 -5.69189,1.1358 l -2.06976,0.56791 z m 11.90119,-3.4074 0.51744,-0.5679 h 0.51744 v 0.5679 h -1.03488 l -0.51745,0.5679 z m 2.58721,-1.13581 c 0,-0.5679 0,-0.5679 0.51745,-0.5679 v 0 0.5679 0.56791 h -0.51745 -0.51744 z m 4.65699,-2.8395 c 0,-0.56791 0,-0.56791 0.51744,-0.56791 v 0 0.56791 0.56791 h -0.51744 -0.51744 z m 2.58721,-1.70371 c 0.51744,-0.56789 2.58722,-2.83951 4.13955,-3.97531 1.03488,-1.70371 2.5872,-2.83949 3.10465,-2.83949 v 0 l -1.55232,2.2716 c -2.06977,2.27159 -6.20931,5.679 -7.2442,5.679 v 0 z m -262.86102,0 -0.51744,-1.13581 h 0.51744 c 0,0 0.51745,0.56792 1.03489,1.13581 l 1.03487,0.56791 H 20.1803 c -0.51746,0 -1.0349,-0.56791 -1.55235,-0.56791 z m 22.7675,-4.5432 C 28.97681,286.27356 19.1454,277.75505 15.00586,265.2612 c -2.58723,-6.81481 -3.10466,-9.08641 -2.58723,-23.85187 0,-7.9506 0,-16.46913 0.51745,-18.74073 1.55233,-9.65433 5.69187,-18.74075 10.8663,-23.85186 6.72676,-6.24693 11.90119,-8.51852 21.7326,-10.22225 9.31398,-1.13579 11.38375,-0.56788 23.80237,3.97532 4.13955,1.13581 7.24421,2.27162 7.24421,2.27162 h 0.51745 v -13.62964 c 0,-12.49385 0.51743,-13.62963 1.55232,-15.90123 2.06978,-5.11113 6.20933,-8.51856 11.9012,-9.65434 1.55232,-0.5679 20.18027,-0.5679 60.02337,-0.5679 57.43618,0.5679 57.43618,0.5679 60.02339,1.70368 3.10465,2.27162 6.20931,5.11112 7.76165,9.08644 1.03488,2.8395 1.55232,3.40741 1.55232,15.90126 v 12.49383 h 0.51745 c 0.51743,0 3.10465,-1.13581 6.72675,-2.27161 12.41864,-3.40743 18.11051,-4.54322 27.94192,-2.8395 9.83141,2.2716 15.52329,5.11111 21.73261,11.92593 3.10466,3.4074 4.65698,5.11109 6.20931,9.65432 1.55232,2.83951 3.10466,6.81481 3.10466,9.08642 2.06976,9.65432 2.58721,31.80248 1.03489,39.7531 -1.55233,7.38272 -4.65699,13.06174 -9.83142,18.74075 -4.65699,5.67902 -8.79652,7.95062 -15.5233,10.22224 -3.62209,1.13579 -3.62209,1.13579 -110.21534,1.70368 -90.03507,0 -107.62814,0 -110.21534,-1.13578 z m 248.89007,-5.11112 c 0,0 0.51742,-0.56789 1.03488,-1.13581 l 0.51743,-0.56789 v 0.56789 c 0,0 -0.51743,0.56792 -0.51743,1.13581 l -1.03488,0.56791 z M 7.2442,280.59456 c 0,-0.56791 -0.51743,-1.13582 -0.51743,-1.70372 l -0.51745,-0.5679 h 0.51745 c 0,0 0.51743,0.5679 1.03489,1.1358 l 0.51743,1.13582 v 0.5679 H 7.76166 Z m 287.18085,-3.40742 c 0.51744,-1.1358 1.03488,-2.27159 1.03488,-2.27159 h 0.51745 v 0.56789 c 0,0 -0.51745,1.13581 -1.03489,2.27161 l -1.55232,1.70369 z M 5.17443,276.05134 c -0.51743,0 -0.51743,-0.5679 -0.51743,-1.13579 v -0.56792 l 0.51743,0.56792 c 0.51746,0 0.51746,0.56789 0.51746,1.13579 l -0.51746,0.56791 z m -2.06978,-5.11112 c -0.51742,0 -0.51742,-1.13579 -0.51742,-1.13579 v -0.56791 h 0.51742 c 0,0.56791 0.51746,1.1358 0.51746,1.7037 l 0.51743,1.13581 H 3.62211 3.10465 Z m 293.9076,0.56791 v -1.13581 h 0.51746 v 0.5679 l -0.51746,0.56791 -0.51743,1.1358 z m 0.51746,-3.40741 c 0.51743,-1.13581 1.03489,-2.83952 1.03489,-3.9753 l 0.51743,-2.27161 h 0.51745 c 0,0.56788 -1.03488,6.24691 -1.55234,7.38271 l -0.51743,1.1358 z m -295.45994,0 c 0,0 0,-1.13581 -0.51743,-1.13581 v -1.1358 h 0.51743 0.51746 v 1.7037 l 0.51742,1.13581 H 2.58723 2.06977 Z m -1.03488,-3.9753 v -0.56791 l 0.51745,0.56791 c 0.51743,0 0.51743,0 0.51743,0.56789 v 0 H 1.55234 1.03489 Z m -0.51744,-2.83953 v -0.5679 l 0.51744,0.5679 c 0.51745,0 0.51745,0.56792 0.51745,0.56792 v 0.56788 H 1.03489 0.51745 Z m 298.56458,-1.1358 c 0,0 0,-0.5679 0.51745,-1.13581 l 0.51744,-0.56789 v 1.1358 1.1358 h -0.51744 -0.51745 z M 0,257.3106 v -0.56791 l 0.51745,0.56791 v 0.56789 0.5679 H 0 Z m 0,-31.23458 v -2.27162 h 0.51745 0.51744 v 1.1358 c 0,0.56791 -0.51744,1.13582 -0.51744,2.2716 L 0,228.34762 Z m 299.59948,-0.56791 c -0.51745,-0.56791 -0.51745,-1.70371 -0.51745,-2.27161 v -1.13581 l 0.51745,0.56791 c 0.51744,0 0.51744,1.1358 0.51744,2.2716 v 2.2716 z M 0.51745,220.96489 v -1.1358 h 0.51744 0.51745 v 0.56791 c 0,0 0,0.56789 -0.51745,1.1358 l -0.51744,1.1358 z m 298.56458,0 C 298.5646,220.397 298.5646,219.2612 298.5646,219.2612 v -0.56792 l 0.51743,0.56792 c 0.51745,0 0.51745,1.1358 0.51745,1.70369 l -0.51745,1.1358 z M 1.03489,217.55748 v -1.1358 h 0.51745 0.51743 v 0.5679 c 0,0 0,0.5679 -0.51743,1.1358 H 1.03489 Z m 297.52971,0 c -0.51746,0 -0.51746,-0.5679 -0.51746,-1.7037 v -1.1358 l 0.51746,1.1358 c 0.51743,0.5679 0.51743,1.7037 0.51743,1.7037 l -0.51743,0.5679 z M 1.55234,214.71798 v -0.56791 h 0.51743 0.51746 v 0.56791 c -0.51746,0.56789 -0.51746,0.56789 -1.03489,0.56789 v 0 z m 0.51743,-2.2716 c 0.51746,-0.56793 0.51746,-1.70371 0.51746,-1.70371 0,-0.56791 0.51742,-1.13582 0.51742,-2.27161 l 1.03489,-0.5679 -0.51743,2.2716 c -0.51746,1.1358 -1.03488,2.27162 -1.03488,2.83951 l -0.51746,0.56791 z m 293.90761,-2.83953 c 0,-1.13579 -1.03489,-2.8395 -1.03489,-3.40741 -0.51744,-0.56789 -1.03489,-1.70369 -1.03489,-1.70369 v -0.5679 l 0.51745,0.5679 c 0.51744,0.56789 1.55233,2.2716 2.06977,3.97531 l 1.03489,2.8395 v 0.56789 h -0.51746 z m -4.13955,-9.08642 -1.55231,-2.83951 v -0.56788 h 0.51742 l 1.03489,1.7037 c 0.51745,1.13579 1.03489,2.27161 1.55234,2.83951 l 0.51743,1.70369 v 0 c -0.51743,0 -1.03488,-1.1358 -2.06977,-2.83951 z M 7.2442,199.95253 c 0,-1.13579 0.51746,-1.70371 1.03489,-1.70371 v 0 0.56792 c 0,0 -0.51743,1.13579 -1.03489,1.70369 l -1.03488,1.70371 z m 280.97152,-5.1111 -1.03487,-1.70371 1.55232,1.13581 1.03489,1.7037 v 0.56791 h -0.51743 z m -277.3494,-0.5679 c 0,-0.56791 0,-0.56791 0.51742,-0.56791 v 0 0.56791 0.5679 h -0.51742 -0.51746 z m 2.06976,-2.83951 c 0,-0.56792 3.62209,-3.97532 4.13955,-3.97532 v 0 l -1.55234,2.27162 c -1.55232,1.13578 -2.58721,2.2716 -2.58721,2.2716 v 0 z m 6.20932,-5.67903 c 0,-0.56789 1.0349,-1.13578 2.06977,-2.2716 l 2.06977,-1.13579 h 0.51744 v 0.56789 l -2.06978,1.13581 c -1.03489,1.1358 -2.06976,1.70369 -2.06976,1.70369 z m 258.20403,-1.13578 -0.51744,-0.56791 v -0.56791 h 0.51744 l 1.03489,0.56791 0.51744,1.1358 h -0.51744 c 0,0 -0.51745,0 -1.03489,-0.56789 z m -7.2442,-4.54322 -0.51745,-0.56791 h 0.51745 0.51744 v 0.56791 0.56789 0 c -0.51744,0 -0.51744,0 -0.51744,-0.56789 z M 31.04658,178.37228 c 0.51744,-0.5679 5.17443,-1.70371 5.69187,-1.70371 v 0.56791 h -0.51744 c -0.51744,0.5679 -1.55233,0.5679 -2.58721,1.1358 -1.03489,0.56789 -2.06978,0.56789 -2.06978,0.56789 h -0.51744 z m 32.59891,-1.70371 -0.51744,-0.5679 h 0.51744 c 0.51743,-0.56788 0.51743,-1.7037 0.51743,-3.4074 0,-1.70371 0,-2.83951 0.51746,-2.83951 l 0.51743,-0.56791 v 3.40742 c 0,3.9753 -0.51743,4.54321 -1.55232,3.9753 z m 168.68642,0 c -0.51746,0 -0.51746,-1.7037 -0.51746,-3.9753 v -3.97533 l 0.51746,0.56791 c 0.51743,0 0.51743,1.70371 0.51743,3.40742 v 3.4074 h 0.51743 0.51746 v 0.5679 c -0.51746,0.56791 -1.03489,0.56791 -1.55232,0 z m -193.52368,-0.5679 c 0.51744,-0.56788 1.55233,-0.56788 2.06977,-0.56788 h 1.55232 l -1.03487,0.56788 c -0.51745,0.5679 -1.55234,0.5679 -2.06978,0.5679 h -1.03489 z m 4.65698,-0.56788 v -0.56792 h 1.03489 1.55234 v 0 0.56792 h -1.03489 l -1.0349,0.56788 z m 13.97097,0 -0.51745,-0.56792 h 1.03488 1.03489 v 0.56792 c -0.51743,0.56788 -0.51743,0.56788 -1.55232,0 z m 3.62208,0 h 0.51746 0.51743 v 0.56788 h -1.03489 -0.51742 z m 194.55856,0 h 0.51745 0.51744 v 0.56788 h -1.03489 -0.51744 z M 47.08733,174.96487 c 0,-0.5679 1.55232,-0.5679 3.62208,-0.5679 h 3.62211 v 0.5679 0.56792 h -4.13954 -3.62212 z m 198.18064,0 v -0.5679 h 1.03489 0.51743 v 0.5679 0.56792 h -0.51743 -1.03489 z m 5.69187,0 h 0.51745 0.51744 v 0.56792 h -1.03489 -0.51746 z M 64.68038,167.58216 c 0,-0.56792 0.51743,-1.70372 0.51743,-2.2716 l 0.51745,-1.13581 v 1.70369 c 0,0.56791 0,1.70372 -0.51745,2.27161 l -0.51743,1.1358 z m 166.61663,-2.83952 c -0.51744,0 -0.51744,-0.56789 -0.51744,-1.13579 v -1.13582 l 0.51744,0.56791 c 0.51744,0.56791 0.51744,1.7037 0.51744,1.7037 l -0.51744,0.56792 z m -165.58175,-1.7037 c 0,-0.56791 0.51744,-1.70371 1.03487,-2.83951 l 0.51745,-2.27161 h 0.51745 0.51744 l -1.03489,2.27161 c 0,1.1358 -1.03488,2.2716 -1.03488,2.2716 z m 3.10466,-7.38272 c 0,0 0,-0.5679 0.51743,-0.5679 l 0.51746,-0.56791 v 0.56791 c 0,0 0,0.5679 -0.51746,1.1358 h -0.51743 z m 155.23289,-4.54322 -1.03489,-1.7037 v 0 l 0.51744,-0.56789 1.55232,1.70369 1.03489,1.70372 h -0.51743 c 0,0 -1.03489,-0.56791 -1.55233,-1.13582 z m -149.54102,-2.27159 2.58722,-2.83952 -0.51745,-0.56789 c 0,-0.56791 -0.51744,-1.13581 -0.51744,-1.13581 v -0.5679 l 1.03489,1.1358 c 1.55232,1.1358 1.55232,1.70372 -0.51745,2.8395 -0.51744,0.56791 -2.06977,1.70371 -3.10466,2.83951 l -1.55232,1.13581 z m 144.36659,-2.83952 c 0,0 1.03488,-1.1358 2.06976,-2.2716 l 2.06978,-2.27161 v 0.56791 c 0,0.56788 -3.6221,4.54322 -4.13954,4.54322 v 0 z m -144.88404,-4.54321 -1.03488,-1.1358 h 0.51744 c 0,0 0.51744,0.56792 1.03489,1.1358 l 0.51744,1.13579 v 0 c -0.51744,0 -1.03489,-0.56788 -1.03489,-1.13579 z M 92.10485,140.8908 C 86.93042,138.61918 82.79087,132.94017 77.61644,122.15003 69.33735,105.68088 65.19781,88.643842 64.68038,69.903092 c -0.51746,-15.33335 1.03488,-23.85187 5.17443,-32.93829 1.55232,-4.54321 3.10465,-6.24691 6.72675,-10.22222 3.6221,-3.97532 5.17443,-5.11112 9.31397,-7.38273 7.24421,-3.97531 10.34886,-5.11112 20.18028,-4.5432 7.76164,0 8.27909,0 17.07562,2.27161 13.97095,3.4074 17.59306,3.97529 28.9768,3.97529 10.8663,-0.56789 16.04073,-1.13579 25.87216,-4.5432 4.65697,-1.7037 6.20931,-1.7037 12.93606,-2.27162 5.69188,0 8.27909,0 11.38375,0.56792 10.34886,2.8395 18.62794,10.22222 23.80237,21.01235 4.13955,9.08642 5.17444,14.76543 5.69188,27.25928 0,11.92591 -0.51744,19.87654 -3.6221,32.93828 -5.69187,23.283958 -13.97098,39.753108 -22.76749,44.296318 -2.06977,1.70371 -2.06977,1.70371 -56.40128,1.70371 -52.77919,0 -54.33153,0 -56.91873,-1.13579 z m 132.4654,-2.27162 c 0,0 0.51743,-1.1358 1.55232,-2.27161 l 1.03489,-2.2716 h 0.51745 v 0.56789 l -1.03489,2.2716 c -1.03488,1.13582 -1.55234,2.2716 -2.06977,2.2716 v 0 z m -153.68056,-2.27161 -0.51746,-0.5679 0.51746,0.5679 c 0.51744,0.56789 1.03489,0.56789 1.03489,1.13581 v 0 h -0.51745 -0.51744 z m -3.10466,-5.67902 c -0.51745,-0.56791 -0.51745,-0.56791 -0.51745,-1.1358 h 0.51745 l 0.51744,1.1358 0.51745,1.13581 h -0.51745 -0.51744 z m 162.99454,-3.97531 c 0,-0.56788 0.51744,-1.13581 0.51744,-1.70371 h 0.51744 v 0.5679 c 0,0 0,1.13581 -0.51744,1.13581 v 1.1358 h -0.51744 -0.51745 z m 2.06977,-5.11111 c 0,-0.5679 0.51743,-1.13581 0.51743,-1.70371 h 0.51746 v 0.5679 c 0,0 0,1.13581 -0.51746,1.13581 v 1.1358 h -0.51743 -0.51743 z M 62.09315,118.74261 c -0.51743,-1.1358 -0.51743,-1.70368 -0.51743,-2.2716 v 0 h 0.51743 c 0,0.56792 0.51745,1.1358 1.0349,2.2716 l 0.51744,1.70371 H 63.12805 62.6106 Z m 172.82596,-3.4074 c 1.55233,-4.54321 4.65699,-16.469148 5.69187,-20.444458 0.51745,-2.8395 1.03489,-5.1111 1.03489,-5.1111 l 0.51744,-0.56792 v 0.56792 c 0,1.13581 -2.58721,12.493828 -3.62211,17.604928 -1.03488,3.40742 -2.58722,7.38273 -3.10465,8.51853 l -0.51744,0.5679 z M 59.50596,111.3599 c 0,-0.5679 -0.51746,-2.2716 -0.51746,-2.83952 l -0.51743,-1.1358 v 0 h 0.51743 l 1.03487,2.27161 c 0,1.13581 0.51747,2.27162 0.51747,2.27162 l -0.51747,1.13578 z m -2.58723,-8.51851 c 0,-0.56791 -0.51744,-1.70373 -0.51744,-2.83952 l -0.51744,-2.271598 0.51744,0.5679 c 0.51744,0.56789 1.55232,5.111108 1.55232,5.679008 H 57.43618 Z M 54.33152,90.347532 c -0.51745,-1.1358 -0.51745,-2.2716 -0.51745,-2.2716 v -0.56789 h 0.51745 c 0,0.56789 0.51744,1.1358 0.51744,2.27161 l 0.51745,2.2716 h -0.51745 -0.51744 z m 187.31435,-2.83949 c 0,0 0,-0.56792 0.51744,-0.56792 l 0.51745,-0.56789 v 0.56789 1.13581 h -0.51745 -0.51744 z M 53.29663,85.804332 c 0,-0.5679 0,-1.7037 -0.51745,-2.83951 v -2.2716 l 0.51745,0.56789 c 0,0.56791 0.51744,1.70371 0.51744,3.40742 l 0.51745,2.27159 h -0.51745 -0.51744 z m 188.86668,-1.1358 c 0,-0.5679 0,-1.13582 0.51745,-1.13582 l 0.51744,-0.56789 v 1.13581 1.1358 h -0.51744 -0.51745 z m 0.51745,-4.54322 c 0,-0.56789 0,-1.1358 0.51744,-1.1358 l 0.51744,-0.56791 v 1.13582 1.1358 h -0.51744 -0.51744 z M 52.77918,79.557422 c -0.51743,0 -0.51743,-1.13582 -0.51743,-2.27162 v -1.7037 l 0.51743,0.5679 c 0.51745,0.56789 0.51745,1.70371 0.51745,2.83951 v 1.1358 z m -0.51743,-6.24691 c -0.51745,0 -0.51745,-3.40742 -0.51745,-7.38273 v -6.81482 h 0.51745 0.51743 v 7.38272 7.38272 0 c -0.51743,0 -0.51743,0 -0.51743,-0.56789 z m 191.45389,-14.19755 v -1.1358 l 0.51744,0.56791 c 0,0 0,1.1358 0,1.1358 l -0.51744,1.1358 z M 52.26175,55.137652 c 0,-0.56791 0,-2.27161 0.51743,-3.40741 v -2.2716 h 0.51745 0.51744 l -0.51744,2.8395 c 0,1.13579 -0.51745,2.83951 -0.51745,3.40741 l -0.51743,1.1358 z m 190.93645,-2.83951 v -0.5679 l 0.51744,0.5679 v 0.5679 0.56789 h -0.51744 z m -0.51744,-3.40742 -0.51745,-0.56789 v -0.5679 h 0.51745 0.51744 c 0,0.5679 0,0.5679 0,1.13579 l -0.51744,0.56792 z M 53.29663,47.754932 c 0,-2.27162 1.55233,-6.81483 2.06978,-7.38273 h 0.51744 l -1.03489,3.40743 c -0.51744,2.27159 -1.03489,3.9753 -1.03489,4.5432 h -0.51744 z m 188.86668,-1.70371 c -1.03488,-2.27159 -1.55233,-6.2469 -1.55233,-6.81481 h 0.51745 l 0.51744,3.40741 c 0.51744,1.7037 1.03489,3.4074 1.03489,3.4074 l -0.51745,1.13582 z M 56.40129,35.829002 c 0,0 0,-0.56789 0.51744,-0.56789 l 0.51745,-0.56792 v 0.56792 c 0,0 0,0.56789 -0.51745,1.1358 h -0.51744 z m 182.13991,-1.7037 -0.51743,-1.70371 h 0.51743 0.51746 l 0.51744,1.1358 c 0,0.56791 0,1.1358 0,1.70372 h -0.51744 z M 57.95361,32.421592 c 0,-0.5679 1.03489,-2.27161 2.06976,-4.54323 l 1.55235,-3.40739 h 0.51743 v 0.5679 l -1.55231,3.9753 c -1.03488,2.27161 -2.06977,3.97532 -2.58723,3.97532 v 0 z m 178.00037,-4.54323 c -1.03487,-1.70369 -2.06975,-3.97529 -3.10464,-5.1111 l -1.03489,-1.70371 v -0.56789 h 0.51746 l 2.06975,3.40741 c 1.03489,1.70369 2.06978,3.97529 2.58722,5.1111 l 1.03489,1.70372 h -0.51745 c 0,0 -1.03488,-1.1358 -1.55234,-2.83953 z M 63.64549,22.199352 c 0,-0.56789 0,-0.56789 0.51743,-0.56789 v 0 0.56789 0.56791 h -0.51743 -0.51744 z m 4.65698,-6.24691 1.55234,-1.70371 0.51742,0.56792 v 0 l -1.03488,1.7037 c -0.51743,0.56791 -1.55232,1.1358 -1.55232,1.1358 H 67.26758 Z M 221.4656,9.7055419 v -0.56791 l 0.51743,0.56791 c 0.51745,0 0.51745,0 0.51745,0.5678901 v 0 h -0.51745 -0.51743 z m -76.58157,-2.27161 -1.03489,-0.56792 h 7.76165 c 4.13954,-0.56789 8.27908,-0.56789 9.83142,-1.13578 h 2.06977 l -0.51745,0.56789 c -0.51744,0 -3.62209,0.56789 -6.72675,1.13581 -6.72677,0.5679 -9.31397,0.5679 -11.38375,0 z m -6.72677,-0.56792 c -1.03488,0 -2.06977,-0.56789 -2.06977,-0.56789 l -0.51743,-0.56789 3.10466,0.56789 c 2.06977,0 3.62208,0.56789 3.62208,0.56789 l 0.51746,0.56792 h -1.55233 c -0.51744,0 -2.06978,-0.56792 -3.10467,-0.56792 z m -56.40127,-1.13578 c 0,0 1.55233,-1.13581 3.10467,-1.70372 l 2.58721,-1.1358 h 0.51744 v 0.5679 l -3.10465,1.13581 c -1.55234,1.13581 -3.10467,1.7037 -3.10467,1.7037 h -0.51743 z m 51.22684,0 -0.51743,-0.56791 h 1.03489 c 0.51743,0 1.03489,0 1.55233,0.56791 v 0.56789 h -1.0349 c -0.51743,0 -1.03489,0 -1.03489,-0.56789 z m 31.0466,0 c 0.51744,-0.56791 2.06976,-1.13581 3.62211,-1.13581 l 2.5872,-0.56791 v 0.56791 c -0.51744,0 -1.55233,0.5679 -2.5872,0.5679 -1.0349,0.56791 -2.58724,0.56791 -3.10467,1.1358 h -1.03489 z m -34.15124,-0.56791 c -0.51744,0 -1.55233,-0.5679 -1.55233,-0.5679 l -0.51744,-0.56791 1.55233,0.56791 c 1.03488,0 2.06977,0 2.06977,0.5679 v 0 0 c 0,0 -1.03489,0 -1.55233,0 z m 81.75598,-1.13581 -1.55232,-0.5679 v -0.5679 h 0.51744 l 1.55233,0.5679 2.06975,1.13581 v 0 0.5679 h -0.51743 c 0,0 -1.03488,-0.5679 -2.06977,-1.13581 z m -40.36055,0 v -0.5679 h 1.03488 0.51746 v 0.5679 c -0.51746,0.56791 -1.03488,0.56791 -1.03488,0.56791 h -0.51746 z m -47.60475,-0.5679 c -1.03488,0 -1.55233,-0.5679 -1.55233,-0.5679 l -0.51743,-0.5679 h 1.03488 c 0.51744,0 1.55233,0.5679 2.58721,0.5679 l 1.55234,1.1358 h -1.03489 c -1.03489,0 -1.55233,0 -2.06978,-0.5679 z m 50.70941,-0.5679 c 0.51744,-0.5679 6.72676,-1.7037 7.2442,-1.7037 v 0.56788 l -2.06977,0.56792 c -1.03489,0 -2.5872,0.5679 -3.62209,1.1358 h -1.55234 z m -84.86064,-0.5679 c 0.51744,0 1.55232,-0.56792 2.58721,-0.56792 l 2.06978,-0.56788 -0.51744,0.56788 c -0.51745,0 -1.55234,0.56792 -2.58723,0.56792 l -2.06977,0.5679 z m 29.49424,0 c -1.03488,0 -2.06978,-0.56792 -2.06978,-0.56792 l -0.51743,-0.56788 h 2.06977 c 1.03489,0.56788 2.06978,0.56788 2.06978,1.1358 v 0 0 c 0,0 -1.03489,0 -1.55234,0 z m 85.37809,0 c -1.55232,-0.56792 -2.58721,-1.1358 -3.10465,-1.1358 V 0.61911189 h 0.51744 c 1.03489,0 6.20932,1.13578001 6.20932,1.70370001 l 0.51743,0.5679 h -0.51743 c -0.51745,0 -2.06978,-0.5679 -3.62211,-0.5679 z m -109.69792,-1.1358 c 0,-0.56790001 0.51746,-0.56790001 1.03489,-0.56790001 h 1.03488 V 1.1870119 c -0.51743,0.56788 -1.03488,0.56788 -1.55231,0.56788 h -1.03488 z m 18.62797,0 -0.51746,-0.56790001 h 1.03489 c 1.03489,0 1.55234,0 2.06978,0.56790001 v 0.56788 h -1.03489 c -0.51744,0 -1.03489,0 -1.55232,-0.56788 z m 69.33734,0 V 0.61911189 h 1.03489 1.55234 L 184.2097,1.1870119 c -0.51745,0.56788 -1.03489,0.56788 -1.03489,0.56788 h -0.51745 z M 98.31417,0.61911189 v -0.5679 h 2.06976 2.58724 l -1.55235,0.5679 c -0.51744,0 -1.55233,0.56790001 -2.06977,0.56790001 h -1.03488 z m 9.31397,0 -2.06977,-0.5679 h 2.58722 3.10465 v 0.5679 0.56790001 h -1.03489 c -0.51744,0 -1.55233,-0.56790001 -2.58721,-0.56790001 z m 78.65133,0 c 0,-0.5679 3.10467,-0.5679 6.72675,-0.5679 h 6.72677 v 0.5679 0.56790001 h -6.72677 -7.24421 z"
     id="path3"
     style="stroke-width:0.542086" />
  <path
     fill="#ff9678"
     stroke="none"
     d="m 42.43032,289.11308 c -8.27908,-1.13582 -15.00584,-5.11112 -20.69772,-12.49383 -4.13954,-4.54322 -6.72674,-10.22223 -8.27908,-17.03706 -1.03489,-4.54321 -1.03489,-5.67901 -1.03489,-21.01235 0.51745,-14.19754 0.51745,-16.46915 1.55234,-20.44446 2.06978,-7.95062 4.13954,-13.06174 8.79652,-18.17285 7.24421,-7.38272 13.97096,-10.22221 26.3896,-11.35804 7.2442,0 10.34887,0.56793 20.69772,3.97532 3.62209,1.70372 7.2442,2.83951 7.2442,2.27162 0.51743,0 0.51743,-6.24694 0.51743,-13.62964 0,-13.06174 0,-13.62963 1.03489,-15.90123 1.55233,-3.40744 4.65699,-6.81482 8.27909,-8.51856 2.58722,-1.13578 2.58722,-1.13578 61.57571,-1.13578 58.9885,0 58.9885,0 61.05828,1.13578 3.10465,1.70374 6.72677,4.54323 8.27908,7.95064 1.03489,2.83952 1.55233,3.40741 1.55233,16.46915 l 0.51744,13.62964 0.51745,-0.5679 c 0.51743,0 4.13954,-1.13581 8.27909,-2.27161 9.31397,-2.8395 13.45351,-3.40743 19.66283,-3.40743 7.76164,0.56793 13.97096,2.27161 19.14539,5.11113 3.62209,2.27161 5.17442,3.40742 9.31397,7.38273 7.76163,9.08641 9.83141,15.90123 10.8663,34.07409 1.03488,13.62962 0.51743,20.44443 -1.03489,26.69137 -4.65699,14.76544 -15.00584,24.98767 -28.97681,27.25927 -4.13954,1.13578 -17.59305,1.13578 -108.14558,1.13578 -86.93041,0 -104.00603,0 -107.11069,-1.13578 z m 21.7326,-113.01241 -0.51743,-0.56788 h 0.51743 0.51746 v 0.56788 0.5679 0 c -0.51746,0 -0.51746,0 -0.51746,-0.5679 z m 27.42449,-35.77779 c -9.83142,-5.11111 -22.25006,-31.8025 -25.35471,-56.790168 -2.58721,-18.17283 -1.55232,-35.20988 3.10465,-45.43211 4.65699,-10.22224 11.90121,-17.60494 22.25006,-21.58025 8.79652,-2.83952 17.07561,-2.83952 30.52913,0.56791 15.52329,3.97529 17.07561,3.97529 27.94192,3.97529 11.38375,0 13.45352,0 31.04658,-5.11111 9.31398,-2.8395 21.21516,-1.70371 28.97681,2.27161 3.62209,1.70371 5.17444,3.40741 8.79653,7.38271 6.2093,6.81483 9.83142,15.33334 11.90119,27.25928 1.03488,5.11112 1.03488,20.44447 0,27.25927 -3.10466,24.419778 -13.45352,51.679048 -22.25006,57.925968 -4.65698,3.4074 -1.55232,3.4074 -60.02338,3.4074 -52.77919,0 -54.84894,0 -56.91872,-1.1358 z M 165.0643,5.1623219 v -0.5679 l 0.51745,0.5679 c 0.51744,0 0.51744,0 0.51744,0.56791 v 0 h -1.03489 -0.51743 z"
     id="path4"
     style="stroke-width:0.542086" />
  <path
     fill="#e9cdab"
     stroke="none"
     d="m 64.16292,176.10067 -0.51743,-0.56788 h 0.51743 0.51746 v 0.56788 0.5679 0 c -0.51746,0 -0.51746,0 -0.51746,-0.5679 z m 27.42449,-35.77779 c -9.83142,-5.11111 -22.25006,-31.8025 -25.35471,-56.790168 -2.58721,-18.17283 -1.55232,-35.20988 3.10465,-45.43211 4.65699,-10.22224 11.90121,-17.60494 22.25006,-21.58025 8.79652,-2.83952 17.07561,-2.83952 30.52913,0.56791 15.52329,3.97529 17.07561,3.97529 27.94192,3.97529 11.38375,0 13.45352,0 31.04658,-5.11111 9.31398,-2.8395 21.21516,-1.70371 28.97681,2.27161 3.62209,1.70371 5.17444,3.40741 8.79653,7.38271 6.2093,6.81483 9.83142,15.33334 11.90119,27.25928 1.03488,5.11112 1.03488,20.44447 0,27.25927 -3.10466,24.419778 -13.45352,51.679048 -22.25006,57.925968 -4.65698,3.4074 -1.55232,3.4074 -60.02338,3.4074 -52.77919,0 -54.84894,0 -56.91872,-1.1358 z M 165.0643,5.1623219 v -0.5679 l 0.51745,0.5679 c 0.51744,0 0.51744,0 0.51744,0.56791 v 0 h -1.03489 -0.51743 z"
     id="path5"
     style="stroke-width:0.542086" />
  <path
     fill="#fdedd3"
     stroke="none"
     d="m 93.13974,140.8908 c -6.20932,-2.83952 -10.34887,-7.95063 -16.04073,-21.01238 -7.2442,-15.33333 -11.38375,-32.370378 -11.9012,-49.975328 -0.51743,-15.33335 1.03489,-23.85187 4.657,-32.37038 4.13953,-9.08642 10.34885,-15.90125 18.62795,-19.30866 9.83141,-4.54322 20.18026,-4.54322 34.66867,-0.5679 13.45352,3.4074 18.1105,3.97531 29.49424,3.97531 10.34886,-0.56791 15.00587,-1.1358 25.35472,-4.5432 4.65697,-1.70372 6.72675,-1.70372 12.93606,-2.27161 9.31398,0 13.45352,0.56789 19.66284,3.9753 6.20931,3.4074 11.38374,9.08641 14.48839,16.46916 2.58723,5.67899 3.62212,8.51852 3.10467,9.65431 -0.51744,0.56789 -1.03489,4.54322 -2.06978,9.65432 -4.13954,27.25928 -9.31397,44.86424 -18.62794,61.333368 -6.20931,11.35804 -10.8663,17.03706 -20.18028,22.14817 -5.69187,3.4074 -5.69187,3.4074 -49.15709,3.4074 -34.15122,0 -43.46521,0 -45.01752,-0.56788 z"
     id="path6"
     style="stroke-width:0.542086" />
  <path
     fill="#fef4e9"
     stroke="none"
     d="m 80.72111,68.767292 c -3.10467,-1.70371 -3.6221,-3.97532 -3.6221,-10.22222 0.51743,-9.65435 3.6221,-17.03705 9.83141,-23.85188 4.65699,-5.1111 9.8314,-7.95061 15.00584,-8.51852 3.10467,0 3.10467,0 4.65699,1.70369 2.06977,2.27162 2.58723,4.54323 1.03489,7.38275 -0.51744,1.1358 -1.55233,2.2716 -5.17443,3.9753 -8.27908,4.54322 -10.8663,9.08642 -11.90118,19.87655 -0.51745,3.4074 -1.03489,6.24692 -1.55234,7.38272 -1.55232,2.83949 -5.17443,3.97531 -8.27908,2.27161 z"
     id="path7"
     style="stroke-width:0.542086" />
  <path
     fill="#ffffff"
     stroke="none"
     d=""
     id="path8"
     style="stroke-width:0.542086" />
</svg>
