<?xml version="1.0" encoding="UTF-8" standalone="no"?>
<svg
   version="1.0"
   width="279pt"
   height="276pt"
   viewBox="0 0 279 276"
   preserveAspectRatio="xMidYMid"
   id="svg8"
   sodipodi:docname="healthtooth.svg"
   inkscape:version="1.4 (e7c3feb1, 2024-10-09)"
   xmlns:inkscape="http://www.inkscape.org/namespaces/inkscape"
   xmlns:sodipodi="http://sodipodi.sourceforge.net/DTD/sodipodi-0.dtd"
   xmlns="http://www.w3.org/2000/svg"
   xmlns:svg="http://www.w3.org/2000/svg">
  <defs
     id="defs8" />
  <sodipodi:namedview
     id="namedview8"
     pagecolor="#ffffff"
     bordercolor="#000000"
     borderopacity="0.25"
     inkscape:showpageshadow="2"
     inkscape:pageopacity="0.0"
     inkscape:pagecheckerboard="0"
     inkscape:deskcolor="#d1d1d1"
     inkscape:document-units="pt"
     inkscape:zoom="1.4817528"
     inkscape:cx="191.6649"
     inkscape:cy="198.07622"
     inkscape:window-width="1552"
     inkscape:window-height="990"
     inkscape:window-x="147"
     inkscape:window-y="25"
     inkscape:window-maximized="0"
     inkscape:current-layer="svg8" />
  <path
     fill="#1b1814"
     stroke="none"
     d="M 58,275 C 41,269 29,255 22,232 17,215 16,205 13,160 12,142 12,141 6,117 1,96 1,96 1,76 1,60 1,55 2,50 9,27 25,11 46,5 64,0 82,0 104,6 c 24,6 29,7 40,7 10,-1 17,-2 32,-7 21,-7 45,-7 62,0 18,7 30,20 37,38 5,16 5,36 -2,62 -2,9 -4,18 -4,20 -2,10 -4,28 -5,46 -1,25 -2,31 -4,41 -6,36 -22,58 -44,62 -6,1 -8,1 -14,0 -12,-4 -22,-13 -29,-26 -5,-8 -8,-17 -13,-34 -2,-7 -6,-16 -7,-20 -6,-11 -14,-14 -22,-7 -4,5 -7,10 -13,29 -11,32 -20,47 -36,55 -7,4 -18,5 -24,3 z m 21,-17 c 10,-6 16,-17 25,-45 7,-21 11,-29 17,-35 11,-12 29,-11 39,1 5,6 8,13 12,27 7,21 8,24 12,31 6,14 12,20 21,23 19,5 35,-14 41,-51 2,-12 2,-19 4,-40 1,-31 3,-43 10,-71 3,-13 3,-17 3,-27 0,-19 -3,-28 -13,-39 -10,-11 -22,-16 -42,-16 -11,0 -14,0 -25,4 -31,8 -31,8 -42,8 -10,0 -13,0 -21,-2 C 94,19 86,17 75,16 66,16 62,16 56,17 26,24 11,49 15,86 c 1,5 3,18 5,28 6,23 7,33 9,54 0,6 0,12 1,13 0,1 0,6 1,11 0,12 3,28 5,36 3,9 9,21 14,25 8,8 20,10 29,5 z"
     id="path1" />
  <path
     fill="#44413e"
     stroke="none"
     d="m 61,276 c 0,-1 4,-1 9,-1 l 8,-1 -3,1 c -1,0 -5,1 -8,1 z m 143,-1 -2,-1 6,1 c 3,0 6,0 6,1 v 0 h -4 c -2,0 -5,-1 -6,-1 z M 58,274 h 1 1 v 1 h -2 -1 z m 158,0 c 0,0 2,0 2,0 l 2,1 h -3 -2 z m -163,-1 -1,-1 h 1 c 0,0 1,0 2,1 l 2,1 h -1 c -1,0 -2,0 -3,-1 z m 30,-2 c 3,-2 8,-5 11,-8 l 5,-5 -2,2 c -4,6 -15,14 -18,14 h -1 z m 139,2 c 1,0 2,-1 3,-1 h 1 l -2,1 c -1,1 -2,1 -3,1 h -1 z m -28,-2 c -2,0 -3,-1 -3,-2 v 0 l 3,2 c 2,1 4,1 4,2 v 0 h -1 c 0,0 -2,-1 -3,-2 z m 32,1 c 0,-1 1,-1 2,-2 l 2,-1 v 0 c 0,1 -1,1 -2,2 z M 44,268 C 41,265 34,258 33,255 l -1,-1 3,4 c 5,5 8,8 12,11 l 3,2 h -1 c 0,0 -2,-1 -5,-3 z m 144,-1 -1,-1 1,1 c 1,1 2,1 2,2 v 0 0 c -1,0 -1,-1 -2,-2 z m 43,2 c 0,-1 1,-1 2,-2 l 2,-1 -2,1 c -1,1 -1,2 -2,2 z m -48,-6 -2,-2 2,2 c 2,1 3,2 3,3 v 0 0 c -1,0 -2,-1 -3,-3 z m 56,-1 c 1,-2 8,-11 9,-12 v 0 l -1,3 c -1,1 -4,4 -6,7 l -3,4 z M 62,260 h 1 1 v 1 h -2 -1 z m 10,0 h 1 1 v 1 h -2 -1 z m 128,-1 c -4,-2 -10,-8 -13,-14 l -2,-3 v 0 c 1,0 2,2 4,5 5,7 9,11 15,13 l 5,1 h -2 c -2,0 -4,-1 -7,-2 z m 14,1 c 0,0 2,0 2,0 l 2,1 h -3 -2 z m -139,0 c 0,-1 2,-1 3,-2 l 3,-1 -2,1 c -2,1 -3,2 -3,2 z m 103,-2 c -1,-1 -2,-3 -2,-4 l -1,-1 1,1 c 0,0 2,2 3,3 l 2,3 v 0 c 0,0 -2,-1 -3,-2 z m 43,0 c 1,-1 3,-2 4,-3 l 2,-1 -1,1 c -1,2 -6,5 -8,5 v 0 z m -166,0 -1,-1 1,1 h 2 v 1 0 h -1 c 0,0 -1,0 -1,-1 z m -7,-5 c -2,-3 -4,-5 -4,-6 v 0 0 c 1,0 3,3 5,5 l 4,5 v 0 c -1,0 -3,-2 -5,-4 z m 37,0 c 2,-2 4,-4 4,-4 v 0 l -3,4 c -3,2 -5,4 -5,4 v 0 z m 16,0 c 2,-2 3,-4 4,-4 v 0 l -2,3 c -1,2 -2,4 -3,4 l -1,2 z m -71,-2 -1,-2 v 0 c 1,0 1,1 2,2 l 1,2 v 0 c -1,0 -1,-1 -2,-2 z m 141,-5 -3,-6 v -1 h 1 l 3,7 3,6 v 0 c -1,0 -2,-3 -4,-6 z m 59,5 c 0,-1 1,-1 2,-2 l 2,-1 -2,1 c -1,1 -1,2 -2,2 z M 91,245 c 1,-2 2,-4 3,-4 v 0 l -1,3 c -1,2 -2,3 -3,3 l -1,1 z m 143,0 c 1,-1 1,-2 2,-2 v 0 l -1,2 c -1,1 -1,2 -2,2 v 0 z M 26,243 c 0,-1 -1,-2 -1,-3 v 0 l 2,2 1,3 v 1 h -1 z m 14,-2 -2,-5 v -1 h 1 l 2,6 3,5 v 0 c -1,0 -2,-2 -4,-5 z m 212,0 c 0,-1 0,-2 1,-3 l 1,-1 v 1 c 0,0 0,1 -1,2 l -1,2 z m -143,-1 c 0,-1 0,-2 1,-3 l 1,-1 v 1 c 0,0 0,1 -1,2 l -1,2 z m -13,-4 c 0,-1 0,-2 1,-3 l 1,-1 v 1 c 0,0 0,1 -1,2 l -1,2 z m 144,-2 c 0,-1 1,-3 1,-4 l 1,-1 -1,2 c 0,1 -1,3 -1,4 l -1,2 z m -129,1 c 0,-1 0,-2 1,-3 l 1,-1 v 1 c 0,0 0,1 -1,2 l -1,2 z m 55,-2 c -1,0 -1,-1 -1,-2 v 0 l 1,1 1,2 v 1 h -1 z m 15,0 c -1,0 -1,-1 -1,-2 v 0 l 1,1 1,2 v 1 h -1 z M 22,231 v -1 l 1,1 v 1 1 h -1 z m 220,-5 v -1 l 1,1 v 1 1 h -1 z m -64,-1 c -1,0 -1,-1 -1,-2 v 0 l 1,1 1,2 v 1 h -1 z M 20,224 v -1 l 1,1 v 1 1 h -1 z m 14,-1 v -1 l 1,1 v 1 1 h -1 z m 81,1 c 0,-1 1,-3 2,-5 l 1,-3 v 1 c 0,1 -1,3 -1,5 l -2,3 z m 47,-3 c -1,-1 -1,-2 -1,-3 h 1 v 3 c 1,1 1,2 1,3 h -1 z M 19,220 v -2 l 1,1 c 0,0 0,2 0,2 l -1,2 z m 239,0 v -1 l 1,1 v 1 1 h -1 z M 33,219 v -2 l 1,1 c 0,0 0,2 0,2 l -1,2 z m 211,-1 v -1 l 1,1 v 1 1 h -1 z m -71,-8 c -1,-4 -2,-7 -2,-8 h 1 l 2,8 c 1,4 2,7 2,8 h -1 z m 86,6 v -2 l 1,1 c 0,0 0,2 0,2 l -1,2 z M 18,215 v -2 l 1,1 c 0,0 0,2 0,2 l -1,2 z m 142,-1 c -1,-1 -1,-2 -1,-3 h 1 v 3 c 1,1 1,2 1,3 h -1 z M 32,213 v -3 l 1,1 c 0,1 0,3 0,4 l -1,2 z m 213,1 v -3 l 1,1 c 0,1 0,3 0,3 l -1,2 z m -141,-1 c 0,-1 1,-2 1,-3 l 1,-2 v 1 c 0,1 -1,2 -1,4 l -1,2 z m -87,-4 v -3 l 1,1 c 0,1 0,3 0,4 l -1,2 z m 243,1 v -2 l 1,1 c 0,0 0,2 0,2 l -1,2 z m -103,-4 c 0,-2 -1,-4 -1,-4 h 1 l 1,4 c 1,1 1,3 1,4 h -1 z m 89,2 v -3 l 1,1 c 0,1 0,3 0,3 l -1,2 z M 31,207 v -3 l 1,1 c 0,1 0,3 0,3 l -1,2 z m 230,-3 v -3 l 1,1 c 0,1 0,3 0,4 l -1,2 z M 16,201 v -4 l 1,2 c 0,1 0,3 0,4 l -1,3 z m 231,0 v -2 l 1,1 c 0,0 0,2 0,2 l -1,2 z M 30,197 v -5 l 1,2 c 0,2 0,4 0,5 l -1,3 z m 78,4 c 0,-1 0,-2 1,-3 l 1,-1 v 1 c 0,0 0,1 -1,2 l -1,2 z m 15,-1 c 0,-1 3,-7 4,-7 v 0 l -2,3 c -1,2 -1,4 -2,4 z m 139,-8 v -6 l 1,3 c 0,2 0,4 0,6 l -1,3 z m -152,4 c 0,-1 0,-2 1,-3 l 1,-1 v 1 c 0,0 0,1 -1,2 l -1,2 z m 42,-3 -2,-3 v 0 c 1,0 2,1 3,3 l 1,3 v 0 c -1,0 -2,-1 -2,-3 z m 96,-1 v -5 l 1,2 c 0,2 0,4 0,5 l -1,3 z m -80,1 c -1,0 -1,-1 -1,-2 v 0 l 1,1 1,2 v 1 h -1 z M 15,189 v -5 l 1,2 c 0,2 0,4 0,6 l -1,3 z m 115,0 c 2,-2 4,-4 4,-4 v 0 l -3,4 c -2,1 -4,3 -4,3 v 0 z M 29,185 v -4 l 1,2 c 0,1 0,3 0,4 l -1,2 z m 135,2 v -1 -1 h 1 v 1 l 1,2 v 0 c -1,0 -1,0 -2,-1 z m -20,-2 -1,-1 h 1 c 0,0 1,0 2,1 v 1 0 c 0,0 -1,0 -2,-1 z m -5,-2 c 0,0 2,0 2,0 l 2,1 h -3 -2 z m 23,-1 -1,-1 1,1 c 1,1 2,1 2,2 v 0 0 c -1,0 -1,-1 -2,-2 z m 87,-6 v -6 l 1,3 c 0,2 0,4 0,6 l -1,4 z m -129,3 c 1,-2 3,-3 3,-3 v 0 l -2,3 c -1,1 -3,2 -3,2 v 0 z m 143,-5 v -7 l 1,3 c 0,2 0,6 0,8 l -1,4 z m -249,2 v -5 l 1,2 c 0,2 0,4 0,5 l -1,3 z m 142,0 -3,-3 3,2 c 1,1 3,3 4,3 v 1 0 c 0,0 -2,-1 -4,-3 z M 28,173 v -5 l 1,2 c 0,2 0,4 0,6 l -1,3 z m 96,3 c 0,-1 1,-1 2,-2 l 2,-1 -2,1 c -1,1 -1,2 -2,2 z m 26,-4 c -1,0 -3,-1 -5,-1 l -3,-1 h 3 c 1,0 4,1 5,2 l 3,1 h -2 c 0,0 -1,0 -1,-1 z m -16,-2 c 1,0 3,0 3,0 l 2,1 h -3 -3 z M 13,162 v -7 l 1,3 c 0,2 0,6 0,8 l -1,4 z m 14,-3 v -5 l 1,2 c 0,2 0,4 0,6 l -1,3 z m 223,-1 v -5 l 1,2 c 0,2 0,4 0,5 l -1,3 z m 14,-1 v -5 l 1,2 c 0,2 0,4 0,6 l -1,3 z M 12,149 v -4 l 1,2 c 0,1 0,3 0,4 l -1,2 z m 14,-1 v -4 l 1,2 c 0,1 0,3 0,4 l -1,2 z m 225,-3 v -5 l 1,2 c 0,2 0,4 0,5 l -1,3 z m 14,0 v -4 l 1,2 c 0,1 0,3 0,4 l -1,2 z M 11,141 v -3 l 1,1 c 0,1 0,3 0,3 l -1,2 z m 14,-1 v -3 l 1,1 c 0,1 0,3 0,4 l -1,2 z m 241,-3 v -4 l 1,2 c 0,1 0,3 0,4 l -1,2 z m -14,-2 v -3 l 1,1 c 0,1 0,3 0,4 l -1,2 z M 10,134 v -1 l 1,1 v 1 1 h -1 z m 14,-1 v -2 l 1,1 c 0,0 0,2 0,2 l -1,2 z M 9,130 v -2 l 1,1 c 0,0 0,2 0,2 l -1,2 z m 258,0 v -2 l 1,1 c 0,0 0,2 0,2 l -1,2 z m -14,-1 v -3 l 1,1 c 0,1 0,3 0,3 l -1,2 z M 23,128 v -1 l 1,1 v 1 1 H 23 Z M 8,125 v -1 l 1,1 v 1 1 H 8 Z m 14,-2 v -1 l 1,1 v 1 1 h -1 z m 246,0 v -1 l 1,1 v 1 1 h -1 z m -14,-1 v -1 l 1,1 v 1 1 h -1 z M 7,121 v -1 l 1,1 v 1 1 H 7 Z m 14,-2 v -1 l 1,1 v 1 1 h -1 z m 248,0 v -1 l 1,1 v 1 1 h -1 z m -14,-1 v -3 l 1,1 c 0,1 0,3 0,3 l -1,2 z M 6,116 c -1,-2 -1,-4 -1,-4 h 1 l 1,3 c 0,2 0,3 0,4 H 6 Z m 14,-1 v -1 l 1,1 v 1 1 h -1 z m 250,-1 v -1 l 1,1 v 1 1 h -1 z m -14,-2 v -1 l 1,1 v 1 1 h -1 z M 19,111 v -1 l 1,1 v 1 1 h -1 z m 252,-1 v -1 l 1,1 v 1 1 h -1 z M 4,109 v -2 l 1,1 c 0,0 0,2 0,2 l -1,2 z m 253,-1 v -1 l 1,1 v 1 1 h -1 z M 18,107 v -1 l 1,1 v 1 1 H 18 Z M 3,104 v -1 l 1,1 v 1 1 H 3 Z m 255,1 c 0,-2 1,-4 1,-5 l 1,-2 v 2 c 0,1 -1,3 -1,4 l -1,3 z M 17,103 v -1 l 1,1 v 1 1 h -1 z m 256,0 v -2 l 1,1 c 0,0 0,2 0,2 l -1,2 z M 2,100 v -1 l 1,1 v 1 1 H 2 Z m 14,-1 v -2 l 1,1 c 0,0 0,2 0,2 l -1,2 z M 1,95 v -3 l 1,1 c 0,1 0,3 0,4 l -1,2 z m 259,0 v -1 l 1,1 v 1 1 h -1 z M 15,94 v -3 l 1,1 c 0,1 0,3 0,3 l -1,2 z m 260,0 v -1 l 1,1 v 1 1 h -1 z m -14,-3 v -1 l 1,1 v 1 1 h -1 z m 15,-1 v -2 l 1,1 c 0,0 0,2 0,2 l -1,2 z M 0,86 v -5 l 1,2 c 0,2 0,4 0,5 l -1,3 z m 14,-1 v -4 l 1,2 c 0,1 0,3 0,4 l -1,3 z m 248,2 v -2 l 1,1 c 0,0 0,2 0,2 l -1,2 z m 15,-3 v -4 l 1,2 c 0,1 0,3 0,4 l -1,2 z m -14,-5 v -5 l 1,2 c 0,2 0,4 0,5 l -1,3 z M 13,73 v -3 l 1,1 c 0,1 0,3 0,4 l -1,2 z m 265,-5 v -3 l 1,1 c 0,1 0,3 0,4 l -1,2 z M 0,64 v -4 l 1,2 c 0,1 0,3 0,4 l -1,2 z m 14,0 v -3 l 1,1 c 0,1 0,3 0,3 l -1,2 z m 249,-3 v -4 l 1,2 c 0,1 0,3 0,4 l -1,3 z m 14,-3 v -3 l 1,1 c 0,1 0,3 0,4 l -1,2 z M 15,57 v -1 l 1,1 v 1 1 H 15 Z M 1,56 v -2 l 1,1 c 0,0 0,2 0,2 l -1,2 z m 261,-2 v -2 l 1,1 c 0,0 0,2 0,2 l -1,2 z M 16,53 v -1 l 1,1 v 1 1 h -1 z m 260,-1 v -2 l 1,1 c 0,0 0,2 0,2 l -1,2 z M 2,51 v -1 l 1,1 v 1 1 H 2 Z m 258,-5 c -1,0 -1,-1 -1,-2 v 0 l 1,1 1,2 v 1 h -1 z M 4,45 c 0,-1 0,-2 1,-3 l 1,-1 v 1 c 0,0 -1,1 -1,3 l -1,2 z m 15,1 c 0,-1 3,-7 4,-7 v 0 l -2,3 c -1,2 -1,4 -2,4 z m 238,-6 -2,-3 v 0 c 1,0 2,1 3,3 l 1,3 v 0 c -1,0 -2,-1 -2,-3 z M 25,36 c 2,-3 6,-7 10,-10 l 2,-1 -4,3 c -2,1 -5,5 -7,7 l -3,4 z m 224,-6 -5,-5 5,5 c 3,3 6,6 6,6 v 0 0 c 0,0 -3,-3 -6,-6 z m 21,4 -1,-1 1,1 1,1 v 1 h -1 z M 11,31 c 1,-2 2,-4 3,-5 l 2,-1 -3,4 c -1,2 -3,4 -3,5 l -1,1 z m 126,-3 c 2,0 4,0 6,0 l 3,1 h -6 -6 z m -8,-1 c 1,0 3,0 3,0 l 2,1 h -3 -3 z m 20,0 c 1,0 3,0 3,0 l 2,1 h -3 -3 z m -25,-1 c 0,0 2,0 2,0 l 2,1 h -3 -2 z m 31,0 c 0,0 2,0 2,0 l 2,1 h -3 -2 z m 108,-1 -1,-2 2,1 c 1,1 2,2 2,3 v 0 0 c -1,0 -2,-1 -3,-2 z m -143,0 h 1 1 v 1 h -2 -1 z m 40,0 h 1 1 v 1 h -2 -1 z m -46,-1 -2,-1 h 1 c 1,0 2,1 4,1 l 2,1 h -2 c -1,0 -2,-1 -3,-1 z m 126,-1 -1,-1 2,1 c 1,1 2,1 2,2 v 0 0 c 0,0 -1,-1 -3,-2 z M 21,19 c 3,-3 6,-5 7,-6 l 3,-1 -3,2 c -2,1 -5,4 -8,6 l -4,4 z m 18,4 1,-1 h 1 v 1 h -2 l -1,1 z m 128,0 h 1 1 v 1 h -2 -1 z m -61,-2 h 1 1 v 1 h -2 -1 z m 153,-2 -2,-2 2,2 c 2,1 3,2 3,3 v 0 0 c -1,0 -2,-1 -3,-3 z m -157,1 h 1 1 v 1 h -2 -1 z m 75,0 h 1 1 v 1 h -2 -1 z M 98,19 h 1 1 v 1 h -2 -1 z m 131,0 -3,-2 h 1 c 1,0 3,1 5,1 l 3,2 h -1 c -1,0 -3,-1 -5,-1 z M 93,18 c 0,0 2,0 2,0 l 2,1 h -3 -2 z m 91,0 h 1 1 v 1 h -2 -1 z M 53,17 h 1 1 v 1 h -2 -1 z m 36,0 h 1 1 v 1 h -2 -1 z m 99,0 h 1 1 v 1 h -2 -1 z M 58,16 h 1 1 v 1 h -2 -1 z m 24,0 c 1,0 3,0 3,0 l 2,1 h -3 -3 z m 110,0 h 1 1 v 1 h -2 -1 z m 31,0 h 1 1 v 1 h -2 -1 z m 29,-2 c -3,-2 -5,-3 -5,-4 v 0 l 3,2 c 2,1 4,2 5,3 l 1,2 v 0 c 0,0 -2,-1 -4,-3 z M 67,15 c 3,0 7,0 9,0 l 5,1 h -9 -9 z m 131,0 c 1,0 3,0 4,0 l 2,1 h -4 -4 z m 13,0 c 2,0 4,0 6,0 l 3,1 h -6 -5 z m -75,-2 c 3,0 7,0 10,0 l 5,1 h -10 -9 z m -9,-1 c 1,0 3,0 3,0 l 2,1 h -3 -3 z m 27,0 c 1,0 3,-1 5,-1 h 2 l -3,1 c -1,0 -4,1 -5,1 h -2 z M 31,12 c 0,-1 2,-2 4,-3 l 4,-2 h 1 v 1 l -5,2 z m 88,-1 -2,-1 h 2 c 1,0 3,1 4,1 l 3,1 h -2 c -2,0 -4,-1 -5,-1 z m 44,-1 c 1,0 2,-1 3,-1 h 2 l -2,1 c -2,0 -3,1 -4,1 h -1 z m -56,-3 -4,-1 3,1 c 2,0 4,1 6,1 l 2,1 h -2 c -1,0 -3,-1 -5,-2 z m 63,1 c 1,0 2,-1 3,-1 h 2 l -2,1 c -2,0 -3,1 -4,1 h -1 z m 6,-2 c 1,-1 2,-1 3,-1 h 2 l -2,1 c -2,0 -3,1 -3,1 h -1 z m 61,0 -1,-1 h 1 c 0,0 1,0 2,1 l 2,1 h -1 c -1,0 -2,0 -3,-1 z M 100,5 h 1 1 v 1 h -2 -1 z M 95,4 c 0,0 2,0 2,0 l 2,1 H 96 94 Z M 53,3 h 1 1 v 1 h -2 -1 z m 37,0 c 0,0 2,0 2,0 l 2,1 h -3 -2 z m 95,0 c 0,0 2,0 2,0 l 2,1 h -3 -2 z m 45,0 h 1 1 v 1 h -2 -1 z M 58,2 c 1,0 3,0 3,0 l 2,1 h -3 -3 z m 23,0 c 1,0 3,0 4,0 l 3,1 h -5 -4 z m 110,0 h 1 1 v 1 h -2 -1 z m 34,0 c 0,0 2,0 2,0 l 2,1 h -3 -2 z M 68,1 c 1,0 3,0 4,0 l 3,1 h -5 -4 z m 129,0 c 1,0 3,0 4,0 l 3,1 h -5 -4 z m 20,0 c 1,0 3,0 4,0 l 2,1 h -4 -4 z M 207,0 c 0,0 2,0 2,0 l 2,1 h -3 -2 z"
     id="path2" />
  <path
     fill="#0000ff"
     stroke="none"
     d="m 64,275 c 2,0 4,0 6,0 l 4,1 h -7 -6 z m 144,0 c 1,0 3,0 4,0 l 3,1 h -5 -4 z M 75,274 h 1 1 v 1 h -2 -1 z m -29,-5 -2,-2 2,2 c 2,0 3,1 3,2 v 0 0 c -1,0 -2,-1 -3,-2 z m 44,-2 c 0,-1 2,-2 2,-2 v 0 l -1,2 c -1,1 -3,2 -3,2 v 0 z m -50,-3 -2,-2 2,2 c 2,1 3,2 3,3 v 0 0 c -1,0 -2,-1 -3,-3 z m 143,-1 -2,-2 2,2 c 2,1 3,2 3,3 v 0 0 c -1,0 -2,-1 -3,-3 z m -88,-1 c 0,0 1,-2 2,-3 l 3,-1 -2,2 c -2,1 -3,3 -3,3 v 0 z m 143,1 c 0,-1 1,-1 2,-2 l 2,-1 -2,1 c -1,1 -1,2 -2,2 z M 62,260 h 1 1 v 1 h -2 -1 z m 144,0 h 1 1 v 1 h -2 -1 z m 8,0 c 0,0 2,0 2,0 l 2,1 h -3 -2 z m -180,-2 -1,-2 2,1 c 1,1 2,2 2,3 v 0 0 c -1,0 -2,-1 -3,-2 z m 184,2 c 0,-1 2,-1 3,-2 l 3,-1 -2,1 c -2,1 -3,2 -3,2 z m -41,-4 -1,-1 1,1 c 1,1 2,1 2,2 v 0 0 c -1,0 -1,-1 -2,-2 z m 65,2 c 0,-1 1,-1 2,-2 l 2,-1 -2,1 c -1,1 -1,2 -2,2 z M 85,253 c 2,-2 4,-4 4,-4 v 0 l -3,4 c -3,2 -5,4 -5,4 v 0 z m 139,4 c 0,-1 1,-1 2,-2 l 2,-1 -2,1 c -1,1 -1,2 -2,2 z m -176,-4 -2,-3 3,2 c 2,2 3,4 3,4 v 0 0 c 0,0 -2,-1 -4,-3 z m 145,0 -2,-2 2,2 c 2,1 3,2 3,3 v 0 0 c -1,0 -2,-1 -3,-3 z m -4,-4 c 0,-1 -1,-2 -1,-3 l -1,-1 v 0 c 1,0 2,1 2,3 l 2,2 v 0 c -1,0 -1,-1 -2,-1 z M 26,242 c -1,0 -1,-1 -1,-2 v 0 l 1,1 1,2 v 1 h -1 z m 15,0 -1,-2 v -1 h 1 l 1,2 1,3 v 0 c -1,0 -1,-1 -2,-2 z m 128,-1 c -1,0 -1,-1 -1,-2 v 0 l 1,1 1,2 v 1 h -1 z M 19,220 v -1 l 1,1 v 1 1 h -1 z m 142,-1 v -1 l 1,1 v 1 1 h -1 z M 33,218 v -1 l 1,1 v 1 1 h -1 z m 211,0 v -1 l 1,1 v 1 1 h -1 z m -69,-2 v -1 l 1,1 v 1 1 h -1 z m 84,0 v -1 l 1,1 v 1 1 h -1 z M 18,215 v -1 l 1,1 v 1 1 h -1 z m 14,-2 v -3 l 1,1 c 0,1 0,3 0,3 l -1,2 z m 213,0 v -2 l 1,1 c 0,0 0,2 0,2 l -1,2 z m -86,-1 v -1 l 1,1 v 1 1 h -1 z M 17,210 v -3 l 1,1 c 0,1 0,3 0,3 l -1,2 z m 243,0 v -1 l 1,1 v 1 1 h -1 z m -87,-1 v -1 l 1,1 v 1 1 h -1 z m 73,-2 v -2 l 1,1 c 0,0 0,2 0,2 l -1,2 z M 31,206 v -2 l 1,1 c 0,0 0,2 0,2 l -1,2 z m 230,-1 v -3 l 1,1 c 0,1 0,3 0,3 l -1,2 z M 16,203 v -3 l 1,1 c 0,1 0,3 0,3 l -1,2 z m 231,-3 v -1 l 1,1 v 1 1 h -1 z M 30,196 v -4 l 1,2 c 0,1 0,3 0,4 l -1,3 z m 232,-2 v -3 l 1,1 c 0,1 0,3 0,4 l -1,2 z m -110,-1 -2,-3 v 0 c 1,0 2,1 3,3 l 1,3 v 0 c -1,0 -2,-1 -2,-3 z M 15,190 v -4 l 1,2 c 0,1 0,3 0,4 l -1,3 z m 233,1 v -4 l 1,2 c 0,1 0,3 0,4 l -1,2 z m -121,1 c 0,0 1,-2 3,-4 l 4,-2 -3,3 c -2,2 -4,3 -4,3 z m -98,-8 v -3 l 1,1 c 0,1 0,3 0,3 l -1,2 z m 91,-5 c 1,-2 3,-3 3,-3 v 0 l -2,3 c -1,1 -3,2 -3,2 v 0 z m 143,-3 v -6 l 1,3 c 0,2 0,4 0,6 l -1,3 z m -249,1 v -4 l 1,2 c 0,1 0,3 0,4 l -1,2 z m 143,0 -1,-2 2,1 c 1,1 2,2 2,3 v 0 0 c -1,0 -2,-1 -3,-2 z m 92,-2 v -5 l 1,2 c 0,2 0,4 0,5 l -1,3 z M 28,172 v -4 l 1,2 c 0,1 0,3 0,4 l -1,3 z m 118,-1 -2,-1 h 2 c 1,0 2,0 3,1 l 2,1 h -1 c -1,0 -3,-1 -4,-1 z m -12,-1 h 1 1 v 1 h -2 -1 z M 13,163 v -7 l 1,3 c 0,2 0,5 0,7 l -1,4 z m 14,-5 v -4 l 1,2 c 0,1 0,3 0,4 l -1,3 z m 237,0 v -5 l 1,2 c 0,2 0,4 0,5 l -1,3 z m -14,-1 v -4 l 1,2 c 0,1 0,3 0,4 l -1,2 z M 12,149 v -3 l 1,1 c 0,1 0,3 0,4 l -1,2 z m 14,-2 v -3 l 1,1 c 0,1 0,3 0,3 l -1,2 z m 239,-1 v -2 l 1,1 c 0,0 0,2 0,2 l -1,2 z m -14,-2 v -4 l 1,2 c 0,1 0,3 0,4 l -1,2 z M 11,141 v -2 l 1,1 c 0,0 0,2 0,2 l -1,2 z m 14,-2 v -2 l 1,1 c 0,0 0,2 0,2 l -1,2 z m 241,-2 v -3 l 1,1 c 0,1 0,3 0,4 l -1,2 z m -14,-3 v -2 l 1,1 c 0,0 0,2 0,2 l -1,2 z M 24,133 v -2 l 1,1 c 0,0 0,2 0,2 l -1,2 z M 9,130 v -1 l 1,1 v 1 1 H 9 Z m 258,0 v -1 l 1,1 v 1 1 h -1 z m -14,-2 v -2 l 1,1 c 0,0 0,2 0,2 l -1,2 z m 1,-6 v -1 l 1,1 v 1 1 h -1 z M 7,121 v -1 l 1,1 v 1 1 H 7 Z m 262,-2 v -1 l 1,1 v 1 1 h -1 z M 6,117 v -1 l 1,1 v 1 1 H 6 Z m 249,0 v -2 l 1,1 c 0,0 0,2 0,2 l -1,2 z M 5,113 v -1 l 1,1 v 1 1 H 5 Z m -1,-4 v -1 l 1,1 v 1 1 H 4 Z m 254,-6 v -1 l 1,1 v 1 1 h -1 z m 15,0 v -1 l 1,1 v 1 1 h -1 z M 2,100 v -1 l 1,1 v 1 1 H 2 Z m 257,-1 v -1 l 1,1 v 1 1 h -1 z M 16,98 v -1 l 1,1 v 1 1 H 16 Z M 1,96 v -3 l 1,1 c 0,1 0,3 0,3 l -1,2 z m 259,-1 v -1 l 1,1 v 1 1 h -1 z M 15,93 v -2 l 1,1 c 0,0 0,2 0,2 l -1,2 z m 261,-3 v -1 l 1,1 v 1 1 h -1 z M 0,87 v -4 l 1,2 c 0,1 0,3 0,4 l -1,2 z m 14,-2 v -4 l 1,2 c 0,1 0,3 0,4 l -1,2 z m 248,1 v -1 l 1,1 v 1 1 h -1 z m 15,-1 v -3 l 1,1 c 0,1 0,3 0,3 l -1,2 z m -14,-7 v -4 l 1,2 c 0,1 0,3 0,4 l -1,3 z m 15,-10 v -3 l 1,1 c 0,1 0,3 0,4 l -1,2 z M 14,64 v -2 l 1,1 c 0,0 0,2 0,2 l -1,2 z M 0,63 v -3 l 1,1 c 0,1 0,3 0,3 l -1,2 z m 263,-1 v -4 l 1,2 c 0,1 0,3 0,4 l -1,2 z m 14,-5 v -2 l 1,1 c 0,0 0,2 0,2 l -1,2 z M 1,55 v -1 l 1,1 v 1 1 H 1 Z m 261,-1 v -1 l 1,1 v 1 1 h -1 z m 14,-3 v -1 l 1,1 v 1 1 h -1 z M 19,45 c 0,0 0,-1 1,-1 l 1,-1 -1,1 v 2 h -1 v 0 z m 238,-4 -1,-2 v 0 c 1,0 1,1 2,2 l 1,2 v 0 c -1,0 -1,-1 -2,-2 z m 13,-7 -1,-1 1,1 1,1 v 1 h -1 z m -21,-3 -4,-5 v 0 c 0,0 3,2 5,5 l 4,4 v 0 c 0,0 -3,-2 -5,-4 z M 29,31 c 1,-2 3,-3 3,-3 v 0 l -2,3 c -1,1 -3,2 -3,2 v 0 z M 12,29 c 0,-1 1,-1 2,-2 l 2,-1 -2,1 c -1,1 -1,2 -2,2 z m 125,-1 c 2,0 4,0 6,0 l 3,1 h -6 -6 z M 33,28 c 0,-1 1,-1 2,-2 l 2,-1 -2,1 c -1,1 -1,2 -2,2 z m 96,-1 c 0,0 2,0 2,0 l 2,1 h -3 -2 z m 21,0 c 0,0 2,0 2,0 l 2,1 h -3 -2 z m -26,-1 h 1 1 v 1 h -2 -1 z m 140,-1 -1,-1 1,1 c 1,1 2,1 2,2 v 0 0 c -1,0 -1,-1 -2,-2 z M 116,24 h 1 1 v 1 h -2 -1 z M 20,20 c 2,-2 4,-4 4,-4 v 0 l -3,4 c -3,2 -5,4 -5,4 v 0 z m 239,-1 -2,-2 2,2 c 2,1 3,2 3,3 v 0 0 c -1,0 -2,-1 -3,-3 z M 93,18 h 1 1 v 1 h -2 -1 z m 91,0 h 1 1 v 1 h -2 -1 z M 58,16 h 1 1 v 1 h -2 -1 z m 24,0 c 0,0 2,0 2,0 l 2,1 h -3 -2 z m 141,0 h 1 1 v 1 h -2 -1 z M 25,16 c 0,-1 1,-1 2,-2 l 2,-1 -2,1 c -1,1 -1,2 -2,2 z m 44,-1 c 2,0 4,0 6,0 l 3,1 h -6 -6 z m 129,0 c 1,0 3,0 4,0 l 2,1 h -4 -3 z m 13,0 c 2,0 4,0 5,0 l 3,1 h -5 -5 z m 42,-1 -1,-1 1,1 c 1,1 2,1 2,2 v 0 0 c -1,0 -1,-1 -2,-2 z M 138,13 c 2,0 6,0 8,0 l 4,1 h -8 -8 z m -10,-1 c 0,0 2,0 2,0 l 2,1 h -3 -2 z m 24,0 c 0,0 2,0 2,0 l 2,1 h -3 -2 z m -29,-1 h 1 1 v 1 h -2 -1 z m 34,0 h 1 1 v 1 h -2 -1 z m -38,-1 h 1 1 v 1 h -2 -1 z M 108,7 h 1 1 v 1 h -2 -1 z M 96,4 h 1 1 V 5 H 96 95 Z M 91,3 h 1 1 v 1 h -2 -1 z m 94,0 h 1 1 v 1 h -2 -1 z m 45,0 h 1 1 v 1 h -2 -1 z M 58,2 c 0,0 2,0 2,0 l 2,1 h -3 -2 z m 25,0 c 1,0 3,0 3,0 l 2,1 h -3 -3 z m 143,0 h 1 1 v 1 h -2 -1 z M 68,1 c 1,0 3,0 4,0 l 3,1 h -5 -4 z m 128,0 c 1,0 3,0 3,0 l 2,1 h -3 -3 z m 22,0 c 1,0 3,0 3,0 l 2,1 h -3 -3 z M 207,0 c 0,0 2,0 2,0 l 2,1 h -3 -2 z"
     id="path3" />
  <path
     fill="#7a7773"
     stroke="none"
     d="m 64,275 c 2,0 4,0 6,0 l 4,1 h -7 -6 z m 144,0 c 1,0 3,0 4,0 l 3,1 h -5 -4 z M 75,274 h 1 1 v 1 h -2 -1 z m 15,-7 c 0,-1 2,-2 2,-2 v 0 l -1,2 c -1,1 -3,2 -3,2 v 0 z m -50,-3 -2,-2 2,2 c 2,1 3,2 3,3 v 0 0 c -1,0 -2,-1 -3,-3 z m 143,-1 -2,-2 2,2 c 2,1 3,2 3,3 v 0 0 c -1,0 -2,-1 -3,-3 z m -86,-3 c 0,-1 2,-2 2,-2 v 0 l -1,2 c -1,1 -3,2 -3,2 v 0 z m -35,0 h 1 1 v 1 h -2 -1 z m 144,0 h 1 1 v 1 h -2 -1 z m 8,0 c 0,0 2,0 2,0 l 2,1 h -3 -2 z m -180,-2 -1,-2 2,1 c 1,1 2,2 2,3 v 0 0 c -1,0 -2,-1 -3,-2 z m 208,0 c 0,-1 1,-1 2,-2 l 2,-1 -2,1 c -1,1 -1,2 -2,2 z M 85,253 c 2,-2 4,-4 4,-4 v 0 l -3,4 c -3,2 -5,4 -5,4 v 0 z m 139,4 c 0,-1 1,-1 2,-2 l 2,-1 -2,1 c -1,1 -1,2 -2,2 z m -176,-4 -2,-3 3,2 c 2,2 3,4 3,4 v 0 0 c 0,0 -2,-1 -4,-3 z m 145,0 -2,-2 2,2 c 2,1 3,2 3,3 v 0 0 c -1,0 -2,-1 -3,-3 z m -4,-4 c 0,-1 -1,-2 -1,-3 l -1,-1 v 0 c 1,0 2,1 2,3 l 2,2 v 0 c -1,0 -1,-1 -2,-1 z m -148,-7 -1,-2 v -1 h 1 l 1,2 1,3 v 0 c -1,0 -1,-1 -2,-2 z M 19,220 v -1 l 1,1 v 1 1 h -1 z m 142,-1 v -1 l 1,1 v 1 1 h -1 z M 33,218 v -1 l 1,1 v 1 1 h -1 z m 211,0 v -1 l 1,1 v 1 1 h -1 z m -69,-2 v -1 l 1,1 v 1 1 h -1 z m 84,0 v -1 l 1,1 v 1 1 h -1 z M 18,215 v -1 l 1,1 v 1 1 h -1 z m 14,-2 v -3 l 1,1 c 0,1 0,3 0,3 l -1,2 z m 213,0 v -2 l 1,1 c 0,0 0,2 0,2 l -1,2 z m -86,-1 v -1 l 1,1 v 1 1 h -1 z M 17,210 v -3 l 1,1 c 0,1 0,3 0,3 l -1,2 z m 243,0 v -1 l 1,1 v 1 1 h -1 z m -87,-1 v -1 l 1,1 v 1 1 h -1 z m 73,-2 v -2 l 1,1 c 0,0 0,2 0,2 l -1,2 z M 31,206 v -2 l 1,1 c 0,0 0,2 0,2 l -1,2 z m 230,-1 v -3 l 1,1 c 0,1 0,3 0,3 l -1,2 z M 16,203 v -3 l 1,1 c 0,1 0,3 0,3 l -1,2 z m 231,-3 v -1 l 1,1 v 1 1 h -1 z M 30,196 v -4 l 1,2 c 0,1 0,3 0,4 l -1,3 z m 232,-2 v -3 l 1,1 c 0,1 0,3 0,4 l -1,2 z M 15,190 v -4 l 1,2 c 0,1 0,3 0,4 l -1,3 z m 233,1 v -4 l 1,2 c 0,1 0,3 0,4 l -1,2 z m -121,1 c 0,0 1,-2 3,-4 l 4,-2 -3,3 c -2,2 -4,3 -4,3 z m -98,-8 v -3 l 1,1 c 0,1 0,3 0,3 l -1,2 z m 91,-5 c 1,-2 3,-3 3,-3 v 0 l -2,3 c -1,1 -3,2 -3,2 v 0 z m 143,-3 v -6 l 1,3 c 0,2 0,4 0,6 l -1,3 z m -249,1 v -4 l 1,2 c 0,1 0,3 0,4 l -1,2 z m 143,0 -1,-2 2,1 c 1,1 2,2 2,3 v 0 0 c -1,0 -2,-1 -3,-2 z m 92,-2 v -5 l 1,2 c 0,2 0,4 0,5 l -1,3 z M 28,172 v -4 l 1,2 c 0,1 0,3 0,4 l -1,3 z m 118,-1 -2,-1 h 2 c 1,0 2,0 3,1 l 2,1 h -1 c -1,0 -3,-1 -4,-1 z m -12,-1 h 1 1 v 1 h -2 -1 z M 13,163 v -7 l 1,3 c 0,2 0,5 0,7 l -1,4 z m 14,-5 v -4 l 1,2 c 0,1 0,3 0,4 l -1,3 z m 237,0 v -5 l 1,2 c 0,2 0,4 0,5 l -1,3 z m -14,-1 v -4 l 1,2 c 0,1 0,3 0,4 l -1,2 z M 12,149 v -3 l 1,1 c 0,1 0,3 0,4 l -1,2 z m 14,-2 v -3 l 1,1 c 0,1 0,3 0,3 l -1,2 z m 239,-1 v -2 l 1,1 c 0,0 0,2 0,2 l -1,2 z m -14,-2 v -4 l 1,2 c 0,1 0,3 0,4 l -1,2 z M 11,141 v -2 l 1,1 c 0,0 0,2 0,2 l -1,2 z m 14,-2 v -2 l 1,1 c 0,0 0,2 0,2 l -1,2 z m 241,-2 v -3 l 1,1 c 0,1 0,3 0,4 l -1,2 z m -14,-3 v -2 l 1,1 c 0,0 0,2 0,2 l -1,2 z M 24,133 v -2 l 1,1 c 0,0 0,2 0,2 l -1,2 z M 9,130 v -1 l 1,1 v 1 1 H 9 Z m 258,0 v -1 l 1,1 v 1 1 h -1 z m -14,-2 v -2 l 1,1 c 0,0 0,2 0,2 l -1,2 z m 1,-6 v -1 l 1,1 v 1 1 h -1 z M 7,121 v -1 l 1,1 v 1 1 H 7 Z m 262,-2 v -1 l 1,1 v 1 1 h -1 z M 6,117 v -1 l 1,1 v 1 1 H 6 Z m 249,0 v -2 l 1,1 c 0,0 0,2 0,2 l -1,2 z M 5,113 v -1 l 1,1 v 1 1 H 5 Z m -1,-4 v -1 l 1,1 v 1 1 H 4 Z m 254,-6 v -1 l 1,1 v 1 1 h -1 z M 2,100 v -1 l 1,1 v 1 1 H 2 Z m 257,-1 v -1 l 1,1 v 1 1 h -1 z M 16,98 v -1 l 1,1 v 1 1 H 16 Z M 1,96 v -3 l 1,1 c 0,1 0,3 0,3 l -1,2 z m 259,-1 v -1 l 1,1 v 1 1 h -1 z M 15,93 v -2 l 1,1 c 0,0 0,2 0,2 l -1,2 z m 261,-3 v -1 l 1,1 v 1 1 h -1 z M 0,87 v -4 l 1,2 c 0,1 0,3 0,4 l -1,2 z m 14,-2 v -4 l 1,2 c 0,1 0,3 0,4 l -1,2 z m 248,1 v -1 l 1,1 v 1 1 h -1 z m 15,-1 v -3 l 1,1 c 0,1 0,3 0,3 l -1,2 z m -14,-7 v -4 l 1,2 c 0,1 0,3 0,4 l -1,3 z m 15,-10 v -3 l 1,1 c 0,1 0,3 0,4 l -1,2 z M 14,64 v -2 l 1,1 c 0,0 0,2 0,2 l -1,2 z M 0,63 v -3 l 1,1 c 0,1 0,3 0,3 l -1,2 z m 263,-1 v -4 l 1,2 c 0,1 0,3 0,4 l -1,2 z m 14,-5 v -2 l 1,1 c 0,0 0,2 0,2 l -1,2 z M 1,55 v -1 l 1,1 v 1 1 H 1 Z m 261,-1 v -1 l 1,1 v 1 1 h -1 z m 14,-3 v -1 l 1,1 v 1 1 h -1 z M 19,45 c 0,0 0,-1 1,-1 l 1,-1 -1,1 v 2 h -1 v 0 z m 230,-14 -4,-5 v 0 c 0,0 3,2 5,5 l 4,4 v 0 c 0,0 -3,-2 -5,-4 z M 29,31 c 1,-2 3,-3 3,-3 v 0 l -2,3 c -1,1 -3,2 -3,2 v 0 z M 12,29 c 0,-1 1,-1 2,-2 l 2,-1 -2,1 c -1,1 -1,2 -2,2 z m 125,-1 c 2,0 4,0 6,0 l 3,1 h -6 -6 z M 33,28 c 0,-1 1,-1 2,-2 l 2,-1 -2,1 c -1,1 -1,2 -2,2 z m 96,-1 c 0,0 2,0 2,0 l 2,1 h -3 -2 z m 21,0 c 0,0 2,0 2,0 l 2,1 h -3 -2 z m -26,-1 h 1 1 v 1 h -2 -1 z m 140,-1 -1,-1 1,1 c 1,1 2,1 2,2 v 0 0 c -1,0 -1,-1 -2,-2 z M 116,24 h 1 1 v 1 h -2 -1 z M 19,21 c 2,-2 4,-4 4,-4 v 0 l -3,4 c -2,1 -4,3 -4,3 v 0 z m 239,-2 -1,-2 2,1 c 1,1 2,2 2,3 v 0 0 c -1,0 -2,-1 -3,-2 z M 93,18 h 1 1 v 1 h -2 -1 z m 91,0 h 1 1 v 1 h -2 -1 z M 58,16 h 1 1 v 1 h -2 -1 z m 24,0 c 0,0 2,0 2,0 l 2,1 h -3 -2 z m 141,0 h 1 1 v 1 h -2 -1 z M 25,16 c 0,-1 1,-1 2,-2 l 2,-1 -2,1 c -1,1 -1,2 -2,2 z m 44,-1 c 2,0 4,0 6,0 l 3,1 h -6 -6 z m 129,0 c 1,0 3,0 4,0 l 2,1 h -4 -3 z m 13,0 c 2,0 4,0 5,0 l 3,1 h -5 -5 z m 42,-1 -1,-1 1,1 c 1,1 2,1 2,2 v 0 0 c -1,0 -1,-1 -2,-2 z M 138,13 c 2,0 6,0 8,0 l 4,1 h -8 -8 z m -10,-1 c 0,0 2,0 2,0 l 2,1 h -3 -2 z m 24,0 c 0,0 2,0 2,0 l 2,1 h -3 -2 z m -29,-1 h 1 1 v 1 h -2 -1 z m 34,0 h 1 1 v 1 h -2 -1 z m -38,-1 h 1 1 v 1 h -2 -1 z M 108,7 h 1 1 v 1 h -2 -1 z M 96,4 h 1 1 V 5 H 96 95 Z M 91,3 h 1 1 v 1 h -2 -1 z m 94,0 h 1 1 v 1 h -2 -1 z m 45,0 h 1 1 v 1 h -2 -1 z M 58,2 c 0,0 2,0 2,0 l 2,1 h -3 -2 z m 25,0 c 1,0 3,0 3,0 l 2,1 h -3 -3 z m 143,0 h 1 1 v 1 h -2 -1 z M 68,1 c 1,0 3,0 4,0 l 3,1 h -5 -4 z m 128,0 c 1,0 3,0 3,0 l 2,1 h -3 -3 z m 22,0 c 1,0 3,0 3,0 l 2,1 h -3 -3 z M 207,0 c 0,0 2,0 2,0 l 2,1 h -3 -2 z"
     id="path4" />
  <path
     fill="#00ffff"
     stroke="none"
     d="m 64,275 c 2,0 4,0 6,0 l 4,1 h -7 -6 z m 144,0 c 1,0 3,0 4,0 l 3,1 h -5 -4 z M 88,269 c 0,-1 1,-1 2,-2 l 2,-1 -2,1 c -1,1 -1,2 -2,2 z m -48,-5 -2,-2 2,2 c 2,1 3,2 3,3 v 0 0 c -1,0 -2,-1 -3,-3 z m 143,-1 -2,-2 2,2 c 2,1 3,2 3,3 v 0 0 c -1,0 -2,-1 -3,-3 z m -87,-2 c 0,-1 1,-1 2,-2 l 2,-1 -2,1 c -1,1 -1,2 -2,2 z m 110,-1 h 1 1 v 1 h -2 -1 z m 8,0 h 1 1 v 1 h -2 -1 z m 10,-3 c 0,-1 1,-1 2,-2 l 2,-1 -2,1 c -1,1 -1,2 -2,2 z m -175,-4 -2,-2 2,2 c 2,1 3,2 3,3 v 0 0 c -1,0 -2,-1 -3,-3 z m 33,3 c 0,0 1,-2 3,-4 l 4,-2 -3,3 c -2,2 -4,3 -4,3 z m 163,-44 v -1 l 1,1 v 1 1 h -1 z M 32,211 v -1 l 1,1 v 1 1 h -1 z m -15,-1 v -2 l 1,1 c 0,0 0,2 0,2 l -1,2 z m 229,-3 v -2 l 1,1 c 0,0 0,2 0,2 l -1,2 z M 31,205 v -1 l 1,1 v 1 1 h -1 z m 230,0 v -2 l 1,1 c 0,0 0,2 0,2 l -1,2 z M 16,203 v -2 l 1,1 c 0,0 0,2 0,2 l -1,2 z m 14,-7 v -4 l 1,2 c 0,1 0,3 0,4 l -1,2 z m 232,-1 v -3 l 1,1 c 0,1 0,3 0,3 l -1,2 z M 15,191 v -3 l 1,1 c 0,1 0,3 0,4 l -1,2 z m 233,-1 v -3 l 1,1 c 0,1 0,3 0,4 l -1,2 z m -118,-1 c 1,-2 3,-3 3,-3 v 0 l -2,3 c -1,1 -3,2 -3,2 v 0 z M 29,183 v -2 l 1,1 c 0,0 0,2 0,2 l -1,2 z m 91,-4 c 1,-2 3,-3 3,-3 v 0 l -2,3 c -1,1 -3,2 -3,2 v 0 z m 143,-1 v -3 l 1,1 c 0,1 0,3 0,4 l -1,2 z m -249,0 v -3 l 1,1 c 0,1 0,3 0,3 l -1,2 z m 143,-1 -1,-2 2,1 c 1,1 2,2 2,3 v 0 0 c -1,0 -2,-1 -3,-2 z m 92,-3 v -4 l 1,2 c 0,1 0,3 0,4 l -1,2 z M 28,171 v -3 l 1,1 c 0,1 0,3 0,4 l -1,2 z m 118,-1 h 1 1 v 1 h -2 -1 z M 13,164 v -5 l 1,2 c 0,2 0,4 0,6 l -1,3 z m 251,-5 v -4 l 1,2 c 0,1 0,3 0,4 l -1,2 z M 27,157 v -3 l 1,1 c 0,1 0,3 0,4 l -1,2 z m 223,-2 v -2 l 1,1 c 0,0 0,2 0,2 l -1,2 z M 12,150 v -3 l 1,1 c 0,1 0,3 0,3 l -1,2 z m 14,-4 v -2 l 1,1 c 0,0 0,2 0,2 l -1,2 z m 239,0 v -2 l 1,1 c 0,0 0,2 0,2 l -1,2 z m -14,-3 v -3 l 1,1 c 0,1 0,3 0,4 l -1,2 z M 11,141 v -1 l 1,1 v 1 1 h -1 z m 14,-3 v -1 l 1,1 v 1 1 h -1 z m 241,0 v -3 l 1,1 c 0,1 0,3 0,3 l -1,2 z m -14,-5 v -1 l 1,1 v 1 1 h -1 z M 24,132 v -1 l 1,1 v 1 1 H 24 Z M 9,130 v -1 l 1,1 v 1 1 H 9 Z m 244,-3 v -1 l 1,1 v 1 1 h -1 z m 16,-8 v -1 l 1,1 v 1 1 h -1 z m -14,-3 v -1 l 1,1 v 1 1 h -1 z M 4,109 v -1 l 1,1 v 1 1 H 4 Z m 254,-6 v -1 l 1,1 v 1 1 h -1 z M 1,96 v -1 l 1,1 v 1 1 H 1 Z M 0,87 v -3 l 1,1 c 0,1 0,3 0,4 l -1,2 z m 14,-3 v -3 l 1,1 c 0,1 0,3 0,4 l -1,2 z m 263,1 v -2 l 1,1 c 0,0 0,2 0,2 l -1,2 z m -14,-7 v -4 l 1,2 c 0,1 0,3 0,4 l -1,2 z m 15,-10 v -3 l 1,1 c 0,1 0,3 0,4 l -1,2 z M 14,64 v -1 l 1,1 v 1 1 h -1 z m 249,-1 v -3 l 1,1 c 0,1 0,3 0,3 l -1,2 z M 0,62 v -2 l 1,1 c 0,0 0,2 0,2 l -1,2 z m 277,-6 v -1 l 1,1 v 1 1 h -1 z M 1,55 v -1 l 1,1 v 1 1 H 1 Z m 261,-1 v -1 l 1,1 v 1 1 h -1 z m -13,-23 -3,-4 4,3 c 2,3 4,5 4,5 v 0 0 c 0,0 -2,-2 -5,-4 z M 27,33 c 0,-1 1,-1 2,-2 l 2,-1 -2,1 c -1,1 -1,2 -2,2 z m 110,-5 c 2,0 4,0 6,0 l 3,1 h -6 -6 z M 33,28 c 0,-1 1,-1 2,-2 l 2,-1 -2,1 c -1,1 -1,2 -2,2 z m 96,-1 c 0,0 2,0 2,0 l 2,1 h -3 -2 z m 22,0 h 1 1 v 1 h -2 -1 z M 19,21 c 2,-2 4,-4 4,-4 v 0 l -3,4 c -2,1 -4,3 -4,3 v 0 z m 239,-2 -1,-2 2,1 c 1,1 2,2 2,3 v 0 0 c -1,0 -2,-1 -3,-2 z M 93,18 h 1 1 v 1 H 93 92 Z M 82,16 h 1 1 v 1 H 82 81 Z M 69,15 c 1,0 3,0 3,0 l 2,1 h -3 -3 z m 130,0 c 1,0 3,0 3,0 l 2,1 h -3 -3 z m 12,0 c 1,0 3,0 4,0 l 3,1 h -5 -4 z m -72,-2 c 2,0 4,0 6,0 l 4,1 h -7 -6 z m -11,-1 c 0,0 2,0 2,0 l 2,1 h -3 -2 z m 24,0 h 1 1 v 1 h -2 -1 z m 5,-1 h 1 1 v 1 h -2 -1 z M 58,2 h 1 1 v 1 h -2 -1 z m 27,0 h 1 1 v 1 h -2 -1 z m 141,0 h 1 1 v 1 h -2 -1 z M 68,1 c 1,0 3,0 4,0 l 3,1 h -5 -4 z m 128,0 c 0,0 2,0 2,0 l 2,1 h -3 -2 z m 23,0 c 0,0 2,0 2,0 l 2,1 h -3 -2 z M 207,0 c 0,0 2,0 2,0 l 2,1 h -3 -2 z"
     id="path5" />
  <path
     fill="#aeaca8"
     stroke="none"
     d="m 64,275 c 2,0 4,0 6,0 l 4,1 h -7 -6 z m 144,0 c 1,0 3,0 4,0 l 3,1 h -5 -4 z m -168,-11 -2,-2 2,2 c 2,1 3,2 3,3 v 0 0 c -1,0 -2,-1 -3,-3 z m 143,-1 -2,-2 2,2 c 2,1 3,2 3,3 v 0 0 c -1,0 -2,-1 -3,-3 z m -87,-2 c 0,-1 1,-1 2,-2 l 2,-1 -2,1 c -1,1 -1,2 -2,2 z m 110,-1 h 1 1 v 1 h -2 -1 z m 8,0 h 1 1 v 1 h -2 -1 z m 10,-3 c 0,-1 1,-1 2,-2 l 2,-1 -2,1 c -1,1 -1,2 -2,2 z m -175,-4 -2,-2 2,2 c 2,1 3,2 3,3 v 0 0 c -1,0 -2,-1 -3,-3 z m 33,3 c 0,0 1,-2 3,-4 l 4,-2 -3,3 c -2,2 -4,3 -4,3 z M 32,211 v -1 l 1,1 v 1 1 h -1 z m -15,-1 v -2 l 1,1 c 0,0 0,2 0,2 l -1,2 z m 229,-3 v -2 l 1,1 c 0,0 0,2 0,2 l -1,2 z M 31,205 v -1 l 1,1 v 1 1 h -1 z m 230,0 v -2 l 1,1 c 0,0 0,2 0,2 l -1,2 z M 16,203 v -2 l 1,1 c 0,0 0,2 0,2 l -1,2 z m 14,-7 v -4 l 1,2 c 0,1 0,3 0,4 l -1,2 z m 232,-1 v -3 l 1,1 c 0,1 0,3 0,3 l -1,2 z M 15,191 v -3 l 1,1 c 0,1 0,3 0,4 l -1,2 z m 233,-1 v -3 l 1,1 c 0,1 0,3 0,4 l -1,2 z m -118,-1 c 1,-2 3,-3 3,-3 v 0 l -2,3 c -1,1 -3,2 -3,2 v 0 z M 29,183 v -2 l 1,1 c 0,0 0,2 0,2 l -1,2 z m 91,-4 c 1,-2 3,-3 3,-3 v 0 l -2,3 c -1,1 -3,2 -3,2 v 0 z m 143,-1 v -3 l 1,1 c 0,1 0,3 0,4 l -1,2 z m -249,0 v -3 l 1,1 c 0,1 0,3 0,3 l -1,2 z m 143,-1 -1,-2 2,1 c 1,1 2,2 2,3 v 0 0 c -1,0 -2,-1 -3,-2 z m 92,-3 v -4 l 1,2 c 0,1 0,3 0,4 l -1,2 z M 28,171 v -3 l 1,1 c 0,1 0,3 0,4 l -1,2 z m 118,-1 h 1 1 v 1 h -2 -1 z M 13,164 v -5 l 1,2 c 0,2 0,4 0,6 l -1,3 z m 251,-5 v -4 l 1,2 c 0,1 0,3 0,4 l -1,2 z M 27,157 v -3 l 1,1 c 0,1 0,3 0,4 l -1,2 z m 223,-2 v -2 l 1,1 c 0,0 0,2 0,2 l -1,2 z M 12,150 v -3 l 1,1 c 0,1 0,3 0,3 l -1,2 z m 14,-4 v -2 l 1,1 c 0,0 0,2 0,2 l -1,2 z m 239,0 v -2 l 1,1 c 0,0 0,2 0,2 l -1,2 z m -14,-3 v -3 l 1,1 c 0,1 0,3 0,4 l -1,2 z M 11,141 v -1 l 1,1 v 1 1 h -1 z m 14,-3 v -1 l 1,1 v 1 1 h -1 z m 241,0 v -3 l 1,1 c 0,1 0,3 0,3 l -1,2 z m -14,-5 v -1 l 1,1 v 1 1 h -1 z M 24,132 v -1 l 1,1 v 1 1 H 24 Z M 9,130 v -1 l 1,1 v 1 1 H 9 Z m 244,-3 v -1 l 1,1 v 1 1 h -1 z m 16,-8 v -1 l 1,1 v 1 1 h -1 z m -14,-3 v -1 l 1,1 v 1 1 h -1 z M 4,109 v -1 l 1,1 v 1 1 H 4 Z m 254,-6 v -1 l 1,1 v 1 1 h -1 z M 1,96 v -1 l 1,1 v 1 1 H 1 Z M 0,87 v -3 l 1,1 c 0,1 0,3 0,4 l -1,2 z m 14,-3 v -3 l 1,1 c 0,1 0,3 0,4 l -1,2 z m 263,1 v -2 l 1,1 c 0,0 0,2 0,2 l -1,2 z m -14,-7 v -4 l 1,2 c 0,1 0,3 0,4 l -1,2 z m 15,-10 v -3 l 1,1 c 0,1 0,3 0,4 l -1,2 z M 14,64 v -1 l 1,1 v 1 1 h -1 z m 249,-1 v -3 l 1,1 c 0,1 0,3 0,3 l -1,2 z M 0,62 v -2 l 1,1 c 0,0 0,2 0,2 l -1,2 z m 277,-6 v -1 l 1,1 v 1 1 h -1 z M 1,55 v -1 l 1,1 v 1 1 H 1 Z m 261,-1 v -1 l 1,1 v 1 1 h -1 z m -13,-23 -3,-4 4,3 c 2,3 4,5 4,5 v 0 0 c 0,0 -2,-2 -5,-4 z M 27,33 c 0,-1 1,-1 2,-2 l 2,-1 -2,1 c -1,1 -1,2 -2,2 z m 110,-5 c 2,0 4,0 6,0 l 3,1 h -6 -6 z m -8,-1 c 0,0 2,0 2,0 l 2,1 h -3 -2 z m 22,0 h 1 1 v 1 h -2 -1 z M 19,21 c 2,-2 4,-4 4,-4 v 0 l -3,4 c -2,1 -4,3 -4,3 v 0 z m 239,-2 -1,-2 2,1 c 1,1 2,2 2,3 v 0 0 c -1,0 -2,-1 -3,-2 z M 93,18 h 1 1 v 1 H 93 92 Z M 82,16 h 1 1 v 1 H 82 81 Z M 69,15 c 1,0 3,0 3,0 l 2,1 h -3 -3 z m 130,0 c 1,0 3,0 3,0 l 2,1 h -3 -3 z m 12,0 c 1,0 3,0 4,0 l 3,1 h -5 -4 z m -72,-2 c 2,0 4,0 6,0 l 4,1 h -7 -6 z m -11,-1 c 0,0 2,0 2,0 l 2,1 h -3 -2 z m 24,0 h 1 1 v 1 h -2 -1 z m 5,-1 h 1 1 v 1 h -2 -1 z M 58,2 h 1 1 v 1 h -2 -1 z m 27,0 h 1 1 v 1 h -2 -1 z m 141,0 h 1 1 v 1 h -2 -1 z M 68,1 c 1,0 3,0 4,0 l 3,1 h -5 -4 z m 128,0 c 0,0 2,0 2,0 l 2,1 h -3 -2 z m 23,0 c 0,0 2,0 2,0 l 2,1 h -3 -2 z M 207,0 c 0,0 2,0 2,0 l 2,1 h -3 -2 z"
     id="path6" />
  <path
     fill="#dedcda"
     stroke="none"
     d="m 70,275 c 0,0 2,0 2,0 l 2,1 h -3 -2 z m 138,0 c 1,0 3,0 4,0 l 3,1 h -5 -4 z m -168,-11 -2,-2 2,2 c 2,1 3,2 3,3 v 0 0 c -1,0 -2,-1 -3,-3 z m 143,-1 -2,-2 2,2 c 2,1 3,2 3,3 v 0 0 c -1,0 -2,-1 -3,-3 z m 31,-3 h 1 1 v 1 h -2 -1 z m -165,-7 -1,-1 1,1 c 1,1 2,1 2,2 v 0 0 c -1,0 -1,-1 -2,-2 z m 35,1 c 0,-1 1,-1 2,-2 l 2,-1 -2,1 c -1,1 -1,2 -2,2 z M 32,211 v -1 l 1,1 v 1 1 h -1 z m -15,-1 v -1 l 1,1 v 1 1 h -1 z m 229,-4 v -1 l 1,1 v 1 1 h -1 z M 16,203 v -1 l 1,1 v 1 1 h -1 z m 14,-8 v -3 l 1,1 c 0,1 0,3 0,3 l -1,2 z m 232,0 v -1 l 1,1 v 1 1 h -1 z M 15,192 v -2 l 1,1 c 0,0 0,2 0,2 l -1,2 z m 233,-2 v -3 l 1,1 c 0,1 0,3 0,3 l -1,2 z m -117,-2 c 0,-1 2,-2 2,-2 v 0 l -1,2 c -1,1 -3,2 -3,2 v 0 z m -11,-9 c 1,-2 3,-3 3,-3 v 0 l -2,3 c -1,1 -3,2 -3,2 v 0 z m 143,0 v -2 l 1,1 c 0,0 0,2 0,2 l -1,2 z M 14,178 v -2 l 1,1 c 0,0 0,2 0,2 l -1,2 z m 143,-1 -1,-2 2,1 c 1,1 2,2 2,3 v 0 0 c -1,0 -2,-1 -3,-2 z m 92,-4 v -3 l 1,1 c 0,1 0,3 0,3 l -1,2 z M 28,171 v -3 l 1,1 c 0,1 0,3 0,3 l -1,2 z m -15,-6 v -4 l 1,2 c 0,1 0,3 0,4 l -1,3 z m 251,-6 v -3 l 1,1 c 0,1 0,3 0,4 l -1,2 z M 27,156 v -2 l 1,1 c 0,0 0,2 0,2 l -1,2 z m 223,-2 v -1 l 1,1 v 1 1 h -1 z M 12,150 v -2 l 1,1 c 0,0 0,2 0,2 l -1,2 z m 253,-4 v -1 l 1,1 v 1 1 h -1 z m -14,-4 v -2 l 1,1 c 0,0 0,2 0,2 l -1,2 z m 15,-4 v -2 l 1,1 c 0,0 0,2 0,2 l -1,2 z M 1,96 v -1 l 1,1 v 1 1 H 1 Z M 0,88 v -1 l 1,1 v 1 1 H 0 Z m 277,-3 v -1 l 1,1 v 1 1 h -1 z M 14,84 v -3 l 1,1 c 0,1 0,3 0,3 l -1,2 z m 249,-9 v -1 l 1,1 v 1 1 h -1 z m 15,-7 v -3 l 1,1 c 0,1 0,3 0,4 l -1,2 z m -15,-5 v -2 l 1,1 c 0,0 0,2 0,2 l -1,2 z M 0,62 v -2 l 1,1 c 0,0 0,2 0,2 l -1,2 z m 277,-6 v -1 l 1,1 v 1 1 h -1 z m -28,-26 -3,-3 3,3 c 2,2 4,4 4,4 v 0 0 c 0,0 -2,-2 -4,-4 z M 137,28 c 2,0 4,0 6,0 l 3,1 h -6 -6 z M 18,22 c 0,-1 2,-2 2,-2 v 0 l -1,2 c -1,1 -3,2 -3,2 v 0 z m 240,-3 -1,-2 2,1 c 1,1 2,2 2,3 v 0 0 c -1,0 -2,-1 -3,-2 z m -57,-4 h 1 1 v 1 h -2 -1 z m 10,0 c 1,0 3,0 4,0 l 2,1 h -4 -4 z m -73,-2 c 1,0 3,0 4,0 l 2,1 h -4 -3 z m -9,-1 h 1 1 v 1 h -2 -1 z m 23,0 h 1 1 v 1 h -2 -1 z M 68,1 c 1,0 3,0 4,0 l 3,1 h -5 -4 z m 128,0 h 1 1 v 1 h -2 -1 z m 24,0 h 1 1 v 1 h -2 -1 z M 207,0 c 0,0 2,0 2,0 l 2,1 h -3 -2 z"
     id="path7" />
  <path
     fill="#ffffff"
     stroke="none"
     d="m 30,193 v -1 l 1,1 v 1 1 h -1 z m 127,-16 -1,-2 2,1 c 1,1 2,2 2,3 v 0 0 c -1,0 -2,-1 -3,-2 z M 13,167 v -3 l 1,1 c 0,1 0,3 0,3 l -1,2 z m 251,-7 v -2 l 1,1 c 0,0 0,2 0,2 l -1,2 z M 14,82 v -1 l 1,1 v 1 1 H 14 Z M 278,68 v -3 l 1,1 c 0,1 0,3 0,4 l -1,2 z m -29,-38 -2,-2 2,2 c 2,1 3,2 3,3 v 0 0 c -1,0 -2,-1 -3,-3 z M 135,28 h 1 1 v 1 h -2 -1 z m 5,0 c 1,0 3,0 4,0 l 2,1 h -4 -4 z m 118,-10 -1,-1 1,1 c 1,1 2,1 2,2 v 0 0 c -1,0 -1,-1 -2,-2 z m -48,-3 h 1 1 v 1 h -2 -1 z M 69,1 c 1,0 3,0 4,0 l 2,1 H 71 68 Z M 207,0 c 0,0 2,0 2,0 l 2,1 h -3 -2 z"
     id="path8" />
  <path
     style="fill:#fff6d5;stroke-width:0.506157"
     d="m 61.790577,259.58291 c -4.101345,-1.1545 -7.490437,-3.18039 -11.283562,-6.74495 -3.56718,-3.35224 -6.903398,-8.10394 -7.967093,-11.34738 -0.3432,-1.0465 -0.910635,-2.18936 -1.260967,-2.53968 -0.922755,-0.92276 -4.131653,-8.24903 -5.037668,-11.50156 -0.981037,-3.52186 -2.264963,-9.89005 -2.855441,-14.1628 -0.250796,-1.81479 -0.686135,-4.79172 -0.96742,-6.61539 -0.281283,-1.82368 -0.766674,-6.72075 -1.078642,-10.88239 -0.31197,-4.16163 -0.776597,-9.50266 -1.032505,-11.86895 -0.255907,-2.36628 -0.679134,-7.94667 -0.940501,-12.40085 -0.261369,-4.45418 -0.729457,-10.49011 -1.040196,-13.41317 -0.310738,-2.92306 -0.693374,-7.19811 -0.850301,-9.50012 -0.156927,-2.302 -0.484302,-4.30844 -0.727499,-4.45875 -0.243197,-0.1503 -0.442177,-1.7269 -0.442177,-3.50355 0,-1.77666 -0.22777,-3.37105 -0.506157,-3.54311 -0.278386,-0.17205 -0.506158,-1.42479 -0.506158,-2.78386 0,-1.35907 -0.22777,-2.61181 -0.506157,-2.78387 -0.278386,-0.17205 -0.506157,-1.08313 -0.506157,-2.02462 0,-0.9415 -0.227771,-1.85258 -0.506157,-2.02464 -0.278387,-0.17204 -0.506157,-1.3109 -0.506157,-2.53078 0,-1.21987 -0.227772,-2.35874 -0.506158,-2.53078 -0.278387,-0.17206 -0.506157,-1.08314 -0.506157,-2.02464 0,-0.94149 -0.227771,-1.85257 -0.506158,-2.02462 -0.278386,-0.17206 -0.506157,-1.08314 -0.506157,-2.02464 0,-0.94149 -0.20371,-1.8377 -0.45269,-1.99158 -0.24898,-0.15388 -0.566578,-1.13534 -0.705773,-2.18104 -0.139196,-1.0457 -0.607595,-3.49565 -1.040885,-5.44436 -0.433291,-1.94871 -1.526259,-7.642975 -2.428817,-12.653935 -1.499772,-8.326658 -1.641264,-10.00392 -1.643901,-19.487055 -0.0025,-8.821163 0.165078,-11.152515 1.117861,-15.55607 3.023725,-13.975002 8.892214,-24.082551 18.366886,-31.634076 5.450107,-4.343855 15.241837,-8.993313 18.939862,-8.993313 0.967995,0 1.759995,-0.227771 1.759995,-0.506157 0,-0.278387 1.093297,-0.506157 2.429557,-0.506157 1.336253,0 2.679045,-0.249491 2.98398,-0.554424 0.381548,-0.381554 3.530071,-0.473229 10.097836,-0.29402 12.617257,0.344277 13.695562,0.535923 37.635147,6.688876 16.83751,4.327579 19.05288,4.76636 24.51505,4.855501 3.13364,0.05114 3.67098,0.153324 2.31128,0.439527 -1.12,0.23575 0.64848,0.384317 4.8085,0.40395 4.08966,0.0193 6.1969,-0.133582 5.56773,-0.40395 -0.66223,-0.284568 0.69436,-0.447309 3.92272,-0.470582 2.92887,-0.02111 4.93503,-0.241336 4.93503,-0.541732 0,-0.278387 1.13886,-0.506158 2.53079,-0.506158 1.39193,0 2.53078,-0.202851 2.53078,-0.450781 0,-0.247929 0.74026,-0.576738 1.64502,-0.730686 3.17849,-0.540835 7.22309,-1.476882 8.22505,-1.903537 0.55677,-0.237084 3.7847,-1.119327 7.17318,-1.960539 3.38848,-0.841212 6.80505,-1.775277 7.59236,-2.0757 6.54612,-2.497842 12.93822,-3.50806 22.19704,-3.50806 9.18638,0 15.05017,0.540019 19.50472,1.796266 1.51421,0.427028 3.64793,1.005047 4.7416,1.284486 3.45808,0.883563 10.52734,4.888885 14.42854,8.174968 8.31259,7.001901 14.31631,16.562144 16.35196,26.038643 0.91323,4.251302 1.07084,6.725952 1.09016,17.117547 0.0224,12.066443 -0.4443,18.980895 -1.28131,18.980895 -0.24027,0 -0.43686,0.911085 -0.43686,2.024633 0,1.113547 -0.22777,2.024625 -0.50615,2.024625 -0.27839,0 -0.50616,0.911085 -0.50616,2.024632 0,1.113548 -0.22777,2.024625 -0.50616,2.024625 -0.27839,0 -0.50616,0.783758 -0.50616,1.74168 0,0.957918 -0.22777,1.882448 -0.50616,2.054508 -0.27838,0.17205 -0.50615,1.43823 -0.50615,2.81373 0,1.3755 -0.22777,2.50092 -0.50616,2.50092 -0.27838,0 -0.50616,0.91108 -0.50616,2.02463 0,1.11354 -0.22777,2.02462 -0.50615,2.02462 -0.27839,0 -0.50616,0.92453 -0.50616,2.05451 0,1.24077 -0.20048,1.9306 -0.50616,1.74167 -0.31616,-0.19539 -0.50615,0.83835 -0.50615,2.75399 0,1.70711 -0.22441,3.06682 -0.50616,3.06682 -0.27839,0 -0.50616,1.13886 -0.50616,2.53079 0,1.39193 -0.22777,2.53079 -0.50616,2.53079 -0.2812,0 -0.50616,1.34975 -0.50616,3.03694 0,1.68719 -0.22495,3.03694 -0.50615,3.03694 -0.29526,0 -0.50616,1.68719 -0.50616,4.04926 0,2.36207 -0.2109,4.04926 -0.50616,4.04926 -0.31147,0 -0.50615,2.53079 -0.50615,6.58005 0,4.39096 -0.18262,6.58004 -0.54892,6.58004 -0.37866,0 -0.4964,2.51674 -0.37962,8.11423 0.12356,5.92184 0.005,8.2164 -0.43817,8.49242 -0.41397,0.25771 -0.68432,2.95343 -0.84869,8.46242 -0.52555,17.61503 -1.23494,24.04362 -4.36208,39.53026 -2.66801,13.21288 -8.65476,26.74564 -14.76406,33.37345 -2.19429,2.38053 -7.24497,6.12984 -10.48221,7.78136 -2.5115,1.28127 -8.15169,1.79582 -11.95886,1.091 -6.01515,-1.1136 -11.73853,-5.14381 -16.17053,-11.38677 -4.25049,-5.98728 -13.15095,-25.4228 -14.50897,-31.68255 -1.53873,-7.09273 -3.75091,-14.53349 -4.51451,-15.18472 -0.88804,-0.75735 -2.51471,-5.59296 -2.51471,-7.47546 0,-0.54598 -0.4265,-1.5359 -0.94776,-2.19981 -0.52128,-0.66391 -1.37542,-2.45985 -1.8981,-3.99098 -0.52267,-1.53112 -1.23503,-2.96601 -1.58301,-3.18863 -0.34799,-0.22262 -0.6327,-0.64196 -0.6327,-0.93185 0,-0.2899 -0.7972,-1.45843 -1.77155,-2.59674 -0.97435,-1.13831 -1.77155,-2.34673 -1.77155,-2.68536 0,-0.73086 -2.69754,-3.10296 -5.11334,-4.49643 -8.30645,-4.79133 -7.14964,-4.43044 -14.37372,-4.48415 -5.77833,-0.043 -6.95007,0.096 -9.61698,1.14048 -7.8485,3.07384 -13.1616,8.31583 -17.98965,17.74884 -0.92615,1.80951 -2.09748,3.83323 -2.60298,4.49714 -0.50548,0.66391 -0.91906,1.69514 -0.91906,2.29162 0,0.59648 -0.37848,1.62487 -0.84107,2.28531 -0.4626,0.66044 -1.00724,2.0208 -1.21032,3.02303 -0.67644,3.33812 -9.06509,27.2731 -11.766635,33.57321 -3.594307,8.38206 -8.058157,15.88212 -10.207365,17.15018 -0.920122,0.54289 -2.282797,1.86706 -3.028155,2.94262 -0.988545,1.42647 -2.407852,2.46225 -5.24595,3.82837 -3.400012,1.63661 -4.46532,1.89882 -8.44617,2.07888 -3.105502,0.14047 -5.424615,-0.0386 -7.286318,-0.56268 z"
     id="path9" />
</svg>
