<?xml version="1.0" encoding="UTF-8" standalone="no"?>
<svg
   version="1.0"
   width="883.78363pt"
   height="865.39233pt"
   viewBox="0 0 883.78363 865.39233"
   preserveAspectRatio="xMidYMid"
   id="svg8"
   sodipodi:docname="hopelesstooth.svg"
   inkscape:version="1.4 (e7c3feb1, 2024-10-09)"
   xmlns:inkscape="http://www.inkscape.org/namespaces/inkscape"
   xmlns:sodipodi="http://sodipodi.sourceforge.net/DTD/sodipodi-0.dtd"
   xmlns="http://www.w3.org/2000/svg"
   xmlns:svg="http://www.w3.org/2000/svg">
  <defs
     id="defs8" />
  <sodipodi:namedview
     id="namedview8"
     pagecolor="#ffffff"
     bordercolor="#000000"
     borderopacity="0.25"
     inkscape:showpageshadow="2"
     inkscape:pageopacity="0.0"
     inkscape:pagecheckerboard="0"
     inkscape:deskcolor="#d1d1d1"
     inkscape:document-units="pt"
     inkscape:zoom="0.41064453"
     inkscape:cx="586.88228"
     inkscape:cy="697.68371"
     inkscape:window-width="1200"
     inkscape:window-height="990"
     inkscape:window-x="0"
     inkscape:window-y="25"
     inkscape:window-maximized="0"
     inkscape:current-layer="svg8" />
  <path
     fill="#1c1a13"
     stroke="none"
     d="m 595.65685,861.3923 c -4,-4 -4,-4 -3,-8 1,-6 4,-8 21,-13 22,-7 41,-17 58,-30 5,-3 15,-12 23,-20 13,-13 14,-14 18,-14 5,0 10,4 11,10 0,3 0,4 -3,8 -3,4 -26,28 -28,29 -1,0 -4,2 -7,4 -3,2 -10,7 -16,11 -6,3 -11,6 -12,7 l -1,1 v -1 h -1 v 1 1 h -1 l -1,-1 v 1 1 h -1 c 0,0 -5,2 -12,4 -14,6 -34,13 -38,13 -2,0 -4,-1 -7,-4 z m -332,-1 c -7,-2 -13,-4 -13,-4 -1,0 -2,-1 -2,-1 0,0 -4,-2 -9,-4 -5,-2 -13,-7 -18,-10 -6,-3 -11,-5 -11,-5 h -1 v -1 c 0,0 -2,-2 -5,-4 -9,-6 -20,-15 -31,-25 -11,-11 -14,-16 -14,-21 1,-6 9,-11 15,-9 1,1 6,5 10,10 10,10 23,21 34,28 l 7,5 v -1 0 l 2,2 c 4,4 30,16 43,20 15,5 17,6 19,9 1,3 1,9 0,10 h -1 v 1 l 1,1 -2,1 c -3,3 -11,2 -24,-2 z m 35,-79 c 0,-1 -1,-1 -2,-1 -2,0 -6,-1 -9,-3 -4,-1 -8,-2 -9,-2 h -1 v -1 c 0,-1 -4,-3 -5,-3 -1,0 -7,-5 -15,-12 -12,-12 -23,-30 -31,-48 -1,-4 -3,-8 -3,-8 0,0 -1,-1 -1,-2 0,-1 -1,-7 -3,-14 -2,-7 -5,-16 -6,-21 0,-5 -1,-9 -2,-10 0,-1 0,-3 0,-4 -1,-2 -2,-13 -3,-25 -2,-12 -3,-29 -4,-38 -1,-9 -1,-18 -2,-20 0,-2 0,-4 0,-4 0,-2 -3,-29 -5,-38 -3,-17 -5,-27 -7,-28 -1,0 -7,-1 -14,-2 -16,0 -19,-1 -21,-1 -3,-1 -24,-7 -25,-7 -1,0 -2,-1 -2,-1 0,0 -4,-2 -8,-4 -5,-2 -10,-4 -13,-6 l -4,-2 v 0 1 l -2,-2 c -1,0 -1.999996,-1 -1.999996,-1 0,0 -2,-1 -3,-2 -1,-1 -6,-5 -10,-8 -5,-3 -13,-10 -18,-15 -19,-20 -28,-40 -21,-49 1,-2 2,-3 2,-4 0,0 1,-1 2,-2 l 2,-1 -2,-2 c -17,-18 -24,-27 -30,-38 -2,-3 -4,-6 -4,-6 l -1,-1 v 0 h 1 l -2,-5 c -4,-11 -5.9999998,-27 -4,-33 2,-4 8,-10 11,-10 h 1 v -1 c 0,0 -2,-3 -4,-6 -6,-9 -12.9999998,-24 -15.9999998,-35 -1,-6 -2,-12 -2.99999995,-13 0,-1 0,-9 0,-17 0,-16 1.99999995,-27 4.99999995,-36 l 2,-4 v 0 h -1 l 2,-2 c 4.9999998,-7 6.9999998,-8 12.9999998,-8 3,0 6,1 7,1 1,1 9,9 18,17 l 16,16 1,-1 h 1 v 1 c 0,3 35.999996,22 41.999996,22 h 2 v 1 1 h 2 c 1,1 12,4 24,9 24,9 38,15 48,23 6,5 20,18 26,26 l 3,4 2,-3 c 2,-2 3,-3 4,-3 0,0 3,-3 6,-6 4,-3 9,-7 11,-9 3,-2 5,-4 5,-4 v -1 h 1 l 1,1 1,-2 c 1,0 2,-1 3,-1 0,0 3,-1 7,-3 3,-2 6,-3 7,-3 h 1 v -1 -1 h 2 c 1,0 5,-1 10,-2 5,-2 10,-3 11,-3 1,0 2,0 2,-1 1,-1 39,-1 50,1 5,0 10,1 11,1 h 2 v 1 1 l 7,1 c 3,1 7,2 7,2 1,0 2,0 2,1 1,1 19,8 21,8 h 2 v 1 1 h 2 c 22,7 34,9 53,8 14,0 27,-1 37,-4 8,-2 24,-7 25,-8 0,0 1,-1 2,-1 0,0 7,-2 14,-4 24,-8 31,-10 55,-9 17,0 21,0 29,2 5,1 10,2 11,2 1,0 2,1 2,1 0,0 4,2 8,3 8,3 21,11 28,16 2,2 4,4 4,4 1,0 4,3 8,7 3,4 7,7 7,7 0,0 2,-2 3,-4 6,-8 18,-19 26,-26 5,-3 9,-6 9,-6 l 1,-1 v 0 1 l 7,-4 c 4,-2 13,-6 19,-8 6,-2 12,-5 12,-5 l 1,-1 v 0 1 l 7,-3 c 14,-5 29,-11 30,-12 l 1,-1 v 0 1 l 9,-4 c 17,-10 26,-16 43,-33 18,-17 18,-17 25,-15 6,2 9,7 13,17 7,22 6,52 -2,73 l -2,5 h 1 1 l -2,1 c 0,0 -2,3 -3,6 -2,3 -5,9 -7,12 l -4,7 1,1 c 0,0 2,1 5,3 l 4,3 v 0 c 0,0 1,2 2,4 2,7 0,22 -5,34 l -3,7 h 1 v 0 l -1,1 c -1,1 -4,6 -7,11 -3,5 -10,13 -17,20 l -11,11 4,5 c 5,7 6,12 2,21 -2,7 -6,14 -11,20 l -3,4 v 0 h 1 l -11,10 c -7,7 -15,14 -22,18 -6,4 -11,7 -12,8 l -1,1 v 0 -1 l -7,4 c -4,2 -12,5 -18,7 -6,2 -11,3 -12,4 -1,0 -2,0 -3,0 -2,1 -7,1 -11,2 -5,1 -15,3 -21,3 -12,0 -13,1 -14,3 0,1 -1,5 -1,7 -1,3 -1,5 -1,6 -1,0 -1,3 -1,5 -1,2 -1,4 -1,5 -2,2 -6,34 -7,49 0,4 0,11 -1,13 0,2 -1,14 -2,26 -3,32 -5,46 -12,72 -5,22 -12,38 -22,54 -4,6 -17,23 -18,23 -1,0 -4,2 -7,5 -6,5 -19,11 -27,13 -10,3 -23,4 -32,2 -14,-4 -24,-10 -38,-22 l -8,-8 h 1 v 0 l -4,-5 c -4,-6 -15,-26 -19,-36 -1,-3 -3,-6 -3,-6 l -1,-1 v 0 h 1 l -3,-8 c -2,-5 -3,-9 -4,-10 0,-2 -1,-5 -2,-7 -2,-9 -9,-25 -11,-27 l -3,-3 h 1 v 0 l -4,-4 c -6,-7 -11,-9 -19,-9 -9,-1 -15,2 -22,10 l -5,5 1,1 v 1 h -1 c -1,0 -10,22 -9,23 v 1 h -1 -1 l -1,6 c -4,12 -11,30 -16,39 -2,6 -4,10 -4,11 0,0 0,1 -1,1 0,0 -3,4 -6,8 -13,21 -30,34 -46,38 -3,1 -6,1 -7,2 -2,1 -24,1 -25,0 z m 118,-581 c 0,0 -6,0 -12,-1 -7,-1 -17,-2 -23,-3 -7,-1 -12,-2 -13,-2 -2,-1 -3,-1 -4,-1 -1,-1 -7,-2 -13,-5 -7,-2 -14,-4 -15,-5 -2,0 -3,-1 -4,-1 0,0 -1,0 -1,-1 0,0 -3,-2 -5,-3 -9,-6 -15,-13 -18,-22 -1,-4 -2,-5 0,-10 0,-4 2,-8 3,-9 2,-3 13,-14 14,-15 1,0 4,-2 8,-4 15,-7 36,-12 65,-17 17,-1.999995 68,-1.999995 88,0 7,1 14,2 16,3 1,0 2,0 3,0 1,1 7,2 14,4 14,3 26,8 33,12 l 5,3 v -1 0 l 6,6 c 16,15 16,29 1,43 -7,7 -14,11 -26,15 -17,7 -40,11 -63,13 -12,1 -59,2 -59,1 z m -72,-120.999995 c -2,-2 -7,-7 -12,-13 -4,-5 -8,-9 -8,-9 h -1 v -1 c 0,0 -1,-3 -4,-6 -3,-4 -4,-7 -4,-10 0,-7 9,-12 15,-8 1,1 6,8 12,15 6,7 11,13 12,14 l 2,2 v 0 h -1 l 3,4 c 3,5 3,8 -1,12 -4,4 -9,4 -13,0 z m 183,2 c -1,-1 -3,-3 -4,-5 -2,-5 0,-9 18,-31 10,-12 12,-14 17,-14 3,0 5,1 7,3 4,4 4,8 0,13 l -2,3 h 1 v 0 l -1,1 c -1,1 -5,6 -10,11 -13,16 -17,20 -21,20 -2,0 -4,-1 -5,-1 z m -90,-17 c -1,0 -3,-2 -4,-4 -1,-2 -1,-5 -1,-28 0,-28.0000002 0,-29.0000002 5,-32.00000015 4,-1 8,0 12,1.99999995 l 2,1 h -1 -1 l 1,2 c 1,2 2,41.0000002 1,49.0000002 0,4 -1,7 -3,8 -2,2 -8,3 -11,2 z"
     id="path1" />
  <path
     fill="#5f5d59"
     stroke="none"
     d="m 596.65685,862.3923 c -4,-4 -5,-7 -3,-11 v -2 h 1 1 l -1,4 c 0,4 0,5 2,7 4,4 8,4 23,-1 32,-11 61,-27 80,-44 2,-2 4,-4 5,-5 l 3,-1 -3,2 c -4,5 -16,14 -26,21 -17,12 -41,23 -63,30 -13,4 -15,4 -19,0 z m -333,-2 c -14,-5 -29,-11 -41,-18 -10,-5 -30,-19 -31,-20 v -1 h 1 c 0,0 2,1 4,3 15,12 42,26 68,35 5,2 10,3 11,4 l 2,1 h -1 c -1,0 -7,-2 -13,-4 z m 22,1 c 3,-2 3,-3 3,-7 0,-6 -1,-7 -10,-9 -34,-9 -75,-34 -98,-62 -5,-6 -9,-7 -14,-5 -7,4 -7,10 0,19 l 5,7 -4,-4 c -8,-8 -10,-14 -5,-20 3,-3 8,-5 12,-4 1,1 6,5 10,10 23,24 55,44 86,54 7,2 14,5 15,5 3,2 5,6 5,10 0,3 -5,9 -7,9 h -1 z m 312,-15 c 0,-1 7,-3 16,-6 33,-11 56,-25 80,-49 l 13,-13 v 1 c 0,1 -14,16 -21,23 -16,14 -35,26 -54,34 -12,4 -24,8 -30,9 z m -411,-28 -1,-2 2,1 c 1,0 2,1 3,2 v 1 h -1 c 0,0 -2,-1 -3,-2 z m -8,-8 -4,-4 5,4 c 3,2 5,4 5,5 v 0 h -1 c 0,0 -3,-2 -5,-5 z m 533,-7 c 2,-2 5,-6 7,-8 2,-3 3,-5 3,-8 v -3 h 1 1 v 3 c 0,3 -4,10 -11,16 l -4,5 z m 8,-23 c -2,-1 -4,-2 -8,-2 h -4 l 1,-1 c 0,-1 2,-1 4,-1 3,0 5,1 7,3 l 3,3 v 0 1 z m -412,1 v -1 h 3 c 2,0 3,0 4,1 v 1 h -3 -4 z m 249,-1 c -8,-2 -15,-5 -21,-9 l -5,-3 v -1 h 1 l 5,3 c 3,2 10,5 14,7 8,2 10,2 22,2 13,0 14,0 23,-3 6,-2 12,-5 17,-8 l 7,-5 h 1 v 1 l -5,3 c -6,5 -18,11 -25,12 -10,3 -26,3 -34,1 z m -258,0 v -1 h 2 c 1,0 2,0 3,1 l 2,1 h -4 -3 z m 22,0 c 0,0 2,0 2,0 l 2,1 h -3 -2 z m -26,-1 v -1 l 1,1 c 1,0 1,0 1,1 v 0 h -2 -1 z m 32,0 h 1 1 v 1 h -2 -1 z m -39,-2 -3,-1 3,1 c 2,0 4,1 4,1 l 1,1 h -1 c -1,0 -3,-1 -4,-2 z m 43,1 c 0,-1 1,-1 1,-1 2,0 15,-6 19,-9 8,-6 10,-9 16,-16 14,-17 23,-35 35,-71 3,-10 8,-22 9,-26 12,-24 35,-30 52,-13 6,6 12,18 19,39 9,27 17,44 26,59 l 5,8 v 1 h -1 l -5,-7 c -5,-9 -17,-32 -21,-45 -2,-6 -4,-11 -5,-12 0,-2 -2,-7 -4,-12 -6,-20 -13,-30 -23,-36 -6,-3 -16,-4 -23,0 -12,6 -17,15 -29,50 -4,11 -9,25 -12,30 -11,25 -25,44 -41,54 -5,3 -16,8 -18,8 h -1 z m -54,-5 c -21,-12 -40,-35 -51,-67 -5,-14 -11,-33 -13,-47 -3,-17 -7,-51 -8,-69 -2,-32 -5,-56 -9,-74 -3,-15 -3,-17 -6,-17 -1,-1 -9,-1 -18,-2 -29,-2 -57,-12 -82.999996,-30 l -6,-5 v -1 h 1 l 2,2 c 7,6 31.999996,20 42.999996,23 17,6 34,9 51,10 7,0 14,0 14,0 1,1 4,16 6,31 3,17 5,28 6,47 5,66 9,94 19,124 8,25 20,46 34,60 4,4 13,11 19,14 3,2 6,3 6,4 v 0 h -1 c 0,0 -3,-1 -6,-3 z m 249,-9 -1,-2 2,1 c 1,0 2,1 3,2 v 1 h -1 c 0,0 -2,-1 -3,-2 z m 98,-4 c 0,0 2,-2 4,-5 10,-9 23,-33 31,-56 9,-28 13,-54 18,-115 4,-38 6,-57 11,-78 l 2,-10 h 14 c 13,-1 21,-2 29,-4 h 2 v 1 1 l -9,1 c -5,1 -14,2 -21,3 -7,0 -12,1 -13,1 -3,4 -10,49 -12,79 -5,59 -8,85 -18,116 -7,25 -18,46 -33,62 l -5,6 z m -325,-6 c -8,-2 -15,-6 -22,-13 -12,-11 -21,-26 -28,-47 -10,-29 -14,-53 -18,-105 -4,-47 -7,-69 -17,-112 -8,-33 -10,-44 -11,-60 -3,-36 5,-70 23,-96 26,-36 71,-50 120,-37 4,1 14,5 22,8 19,7 29,10 43,13 16,3 32,3 47,2 22,-2 32,-5 69,-18 19,-7 30,-9 49,-9 15,0 21,0 33,4 37,12 63,46 71,92 2,13 2,40 0,55 -2,11 -4,20 -11,52 -9,36 -13,63 -15,97 -5,76 -15,117 -33,146 -20,30 -50,39 -75,21 -15,-11 -24,-27 -40,-72 -4,-11 -10,-25 -13,-31 -4,-10 -7,-13 -13,-19 -15,-15 -35,-20 -54,-14 -16,5 -29,18 -37,35 -2,4 -6,16 -10,29 -12,33 -19,48 -29,61 -13,16 -32,23 -51,18 z m 233,-178 c 8,-4 9,-12 3,-20 -28,-38 -82,-54 -130,-38 -11,3 -24,10 -34,17 -9,7 -22,21 -25,25 -3,8 2,16 11,16 4,0 5,0 15,-11 13,-12 20,-17 31,-22 14,-6 22,-7 39,-7 14,0 17,0 25,2 18,5 34,15 47,29 9,10 12,11 18,9 z m -140,-101 c 5,-3 6,-10 4,-15 -1,-1 -8,-9 -15,-16 -8,-7 -14,-14 -14,-14 0,-1 7,-8 15,-17 15,-14 15,-15 15,-19 0,-6 -4,-10 -10,-10 -4,0 -5,1 -18,13 -7,7 -14,14 -15,15 -1,1 -3,2 -3,2 -1,0 -8,-7 -17,-15 -15,-16 -16,-16 -20,-16 -8,0 -13,9 -8,16 1,1 8,9 15,17 l 14,14 -15,16 c -15,15 -16,16 -16,19 0,6 4,10 10,10 6,0 9,-2 24,-17 6,-7 12,-12 12,-12 1,0 7,5 14,12 17,18 21,20 28,17 z m 126,-14 c 8,-8 16,-15 16,-15 1,0 5,4 10,8 21,21 21,21 26,21 7,0 11,-4 11,-10 0,-3 -1,-4 -15,-18 -8,-9 -15,-16 -15,-16 0,-1 6,-8 14,-16 8,-8 15,-16 16,-17 2,-7 -3,-14 -9,-14 -5,0 -9,3 -19,13 -4,5 -10,10 -13,13 l -6,5 -16,-15 c -15,-16 -16,-16 -20,-16 -3,0 -5,1 -7,3 -3,3 -3,4 -3,8 1,4 2,5 15,19 8,8 15,15 15,15 0,1 -7,8 -15,17 -15,14 -15,15 -15,19 0,6 4,10 10,10 5,0 5,0 20,-14 z m -2,292 c -1,-1 -2,-2 -2,-2 v -1 h 1 c 1,1 1,2 2,3 l 1,2 v 0 c -1,0 -1,-1 -2,-2 z m 220,-260 v -1 l 9,-2 c 13,-5 27,-11 36,-16 7,-4 12,-7 27,-18 l 4,-3 -6,5 c -7,7 -21,16 -33,22 -10,5 -32,13 -36,13 z m -561,-21 c -5,0 -11,-1 -15,-2 -24,-4 -52,-18 -68.999996,-34 -8,-8 -16,-19 -16,-21 v -2 h 1 c 0,0 4,1 8,2 10,2 36.999996,6 41.999996,6 9,0 13,-4 13,-11 0,-6 -3,-8 -16,-12 -21,-6 -36.999996,-14 -52.999996,-26 -8,-6 -19,-19 -24,-27 -4,-8 -9,-20 -8,-23 l 1,-1 10,5 c 12,6 25,11 46,17 15.999996,5 16.999996,5 19.999996,4 5,-2 7,-6 7,-11 0,-6 -3,-8 -15,-12 -31.999996,-12 -59.999996,-33 -71.999996,-57 -6,-13 -8,-22 -9,-39 0,-10 0,-16 1,-16 l 1,-1 9,9 c 22,20 45,32 96.999996,50 30,11 44,20 58,42 5,8 5,8 1,17 -11,23 -15,46 -14,80 1,20 2,32 6,51 3,11 2,13 0,13 -1,0 -5,-1 -10,-1 z m 522,0 -1,-1 2,-8 c 4,-16 6,-35 7,-54 1,-33 -3,-56 -14,-79 -3,-8 -3,-8 2,-17 10,-15 22,-27 37,-34 3,-1 16,-6 28,-11 27,-10 41,-16 51,-21 13,-7 29,-19 39,-28 l 9,-8 1,1 c 1,0 1,6 1,16 -1,13 -1,17 -3,24 -7,21 -19,36 -40,52 -11,8 -23,14 -38,20 -14,4 -16,6 -16,12 0,4 1,6 3,8 3,3 3,3 9,3 8,0 45,-12 59,-20 6,-3 12,-5 13,-5 h 1 l -1,3 c -4,20 -18,39 -39,53 -15,10 -27,15 -45,20 -15,4 -19,8 -16,16 2,5 5,7 12,7 6,0 26,-3 41,-6 6,-1 10,-2 10,-1 l 1,1 -5,7 c -14,21 -41,38 -72,46 -12,3 -34,6 -36,4 z m -618.999996,-14 -1,-2 2,1 c 1,0 2,1 3,2 v 1 h -1 c 0,0 -2,-1 -3,-2 z m 740.999996,-14 c 8,-10 9,-13 13,-20 3,-7 4,-8 4,-16 v -9 l 1,2 c 0,1 1,3 2,5 1,8 -9,28 -20,39 l -5,6 z m -757.999996,-4 c -11,-15 -17,-28 -15,-36 1,-2 1,-4 2,-4 l 1,-1 -1,8 c 0,7 0,8 4,17 3,4 7,11 9,13 2,3 4,6 5,7 l 1,2 v 0 c -1,0 -3,-3 -6,-6 z m -11,-43 c 0,0 1,-2 2,-3 l 2,-2 -2,-1 c -1,-1 -2,-3 -3,-4 l -1,-2 2,1 c 1,0 3,2 5,4 l 3,3 -2,2 c -2,0 -3,2 -4,2 l -2,1 z m 779.999996,-1 c -3,-2 -3,-4 0,-6 l 3,-1 -2,1 -1,2 2,3 2,2 v 0 l -1,1 z m 7,-12 c 0,0 1,-2 2,-3 l 3,-2 v 0 l 1,1 -3,3 -3,2 z m -798.999996,-8 -3,-4 h 1 c 0,0 2,2 3,4 l 3,3 v 0 c 0,0 -2,-2 -4,-3 z m 810.999996,-5 c 0,0 1,-1 2,-2 0,-1 3,-4 5,-7 10,-15 15,-31 15,-47 v -10 1 c 2,1 3,8 2,16 -1,10 -3,15 -8,26 -3,7 -12,21 -15,23 l -1,1 z m -818.999996,-5 -2,-3 h 1 c 0,0 1,1 2,3 l 2,2 v 1 h -1 z m -7,-11 c -10,-18 -14.9999998,-38 -10,-48 l 1,-3 h 1 c 0,0 -1,2 -1,4 -3,9 2,31 10,46 l 3,6 v 1 h -1 z m 843.999996,-52 v -1 -1 h 1 l 1,1 1,2 h -1 c 0,0 -1,0 -2,-1 z m -847.999996,-3 c 2,-1 3,-2 4,-2 h 1 v -1 c 0,0 -2,-3 -4,-6 -6,-9 -15.9999998,-31 -14.9999998,-33 h 1 l 1,2 c 3.9999998,12 9.9999998,23 16.9999998,33 l 3,5 -1,1 c 0,0 -2,1 -4,1 l -4,1 z m 842.999996,0 c -2,0 -4,-1 -4,-1 l -1,-1 3,-4 c 8,-11 15,-24 19,-40 3,-13 4,-40 1,-52 -3,-11 -7,-20 -11,-23 l -3,-3 h 1 c 1,0 3,2 5,4 8,8 13,32 12,54 -1,19 -7,35 -19,55 l -4,8 1,1 c 1,1 2,1 3,1 l 1,1 h -1 c 0,0 -2,0 -3,0 z m -197,-9 c -9,-10 -18,-17 -30,-23 -29,-14 -59,-17 -93,-10 -10,2 -19,5 -35,12 -21,8 -38,12 -58,13 -25,1 -45,-3 -74,-15 -18,-7 -35,-12 -47,-13 -4,0 -8,-1 -9,-1 l -2,-1 h 4 c 13,0 31,4 56,14 26,10 42,14 66,13 23,0 36,-2 66,-13 29,-11 45,-14 66,-14 36,0 65,11 90,35 l 8,8 v 0 c 11,-15 27,-30 39,-36 l 2,-1 v 0 c 0,1 -3,3 -7,6 -8,5 -26,23 -30,29 -1,2 -3,4 -4,4 l -1,1 z m -458,1 c -2,-3 -5,-7 -7,-9 l -2,-3 4,4 c 2,2 5,5 7,8 l 3,4 3,-3 3,-3 h 1 v 1 l -3,3 c -2,2 -4,4 -4,4 -1,0 -3,-3 -5,-6 z m 19,-9 c 1,-2 3,-3 3,-3 h 1 l -1,2 c -1,0 -2,2 -3,2 l -2,1 z m 5,-4 c 0,-1 14,-11 15,-11 1,0 3,-1 5,-2 10,-6 38,-13 49,-13 h 6 l -4,1 c -2,0 -7,1 -12,2 -18,2 -34,8 -50,18 -5,3 -8,5 -9,5 z m -42,-7 c -14,-11 -26,-17 -50,-26 -36,-12 -55.999996,-21 -72.999996,-32 -4,-3 -14,-12 -23,-21 -8,-8 -16,-15 -17,-15 l -1,-1 1,-1 c 2,0 4,2 20,17 24,24 36,31 88.999996,50 29,10 43,18 54,28 l 5,4 h -1 c 0,0 -2,-1 -4,-3 z m 526,-13 c 0,-2 14,-8 38,-16 46,-18 64,-28 86,-49 l 13,-13 -1,2 c -2,4 -17,19 -27,26 -12,9 -24,16 -40,23 -12,5 -16,7 -43,17 -6,2 -14,5 -18,7 -4,1 -7,3 -8,3 z m -710.9999958,-4 v -1 l 1,1 v 1 1 h -1 z m -1,-5 c -1,-2 -1,-4 -1,-5 v -1 h 1 c 0,1 1,2 1,4 l 1,4 h -1 l -1,1 z m -1.99999995,-11 v -4 l 0.99999995,2 c 0,1 1,3 1,4 v 2 h -1 -0.99999995 z m 0,-6 c -1,-2 -1,-18 0.99999995,-25 v -4 h 1 1 l -1,3 c 0,2 -1,9 -1,16 l -0.99999995,12 z m 1.99999995,-31 c 0,-3 4,-14 7,-19 1.9999998,-4 5.9999998,-7 7.9999998,-7 l 1,1 -3,2 c -5,3 -7.9999998,9 -9.9999998,17 -1,3 -2,6 -2,7 h -1 z m 403.9999958,-3 c -33,-3 -61,-10 -77,-20 -14,-8 -21,-17 -22,-28 v -5 h 1 1 v 4 c 0,7 2,12 7,17 13,14 39,24 79,29 9,1 19,2 22,2 3,0 6,1 8,1 l 2,1 h -9 c -5,0 -10,0 -12,-1 z m 48,0 c 1,0 5,-1 8,-1 h 6 v 1 1 h -9 -8 z m 19,-1 c 1,0 9,-2 16,-2 24,-3 44,-9 60,-16 l 8,-4 h 1 v 1 l -5,3 c -16,9 -49,17 -74,18 l -9,1 z m 381,-21 c 2,-1 3,-2 6,-2 h 4 l -3,1 c -2,1 -5,2 -6,3 h -2 z m -440,0 c -30,-2 -57,-9 -72,-16 -5,-3 -12,-9 -12,-11 0,-3 8,-9 15,-13 15,-7 38,-12 66,-15 45,-4 98,2 125,15 8,4 16,10 16,13 0,2 -5,7 -13,11 -13,6 -31,11 -57,15 -15,1 -53,2 -68,1 z m 146,-3 v -1 h 1 1 v 1 c -1,1 -1,1 -2,1 v 0 z m 12,-13 c 0,-1 0,-6 1,-9 0,-7 0,-8 -3,-14 -4,-8 -13,-15 -27,-21 -27,-11 -64,-17 -110,-16 -34,1 -57,4 -81,11 -24,8 -37,17 -42,31 l -1,3 -1,-2 c -1,-2 4,-10 10,-15 14,-13 40,-22 81,-28 17,-1.999995 65,-1.999995 83,0 23,3 48,9 61,14 14,7 26,17 30,25 3,6 3,14 0,20 l -2,4 z m -226,-79.999995 -1,-1 2,1 c 3,0 8,-1 10,-3 2,-2 1,-8 -1,-12 -4,-5 -24,-29 -26,-31 -4,-3 -13,-2 -13,2 v 1 h -1 -1 v -1 c 0,0 1,-2 3,-3 3,-3 8,-4 12,-1 2,1 25,29 28,34 3,5 3,9 -1,12 -3,3 -8,4 -11,2 z m 179,-1 c -1,-2 -2,-3 -2,-4 v -1 l 2,3 c 2,2 4,2 7,2 h 5 l -1,1 c 0,1 -2,1 -4,1 -3,0 -5,-1 -7,-2 z m -193,-14 c -12,-14 -17,-21 -17,-23 v 0 l 4,4 c 7,8 21,26 22,28 l 1,2 v 0 c -1,0 -5,-5 -10,-11 z m 210,9 c 0,-1 16,-22 22,-28 1,-2 2,-3 2,-6 0,-5 -2,-7 -6,-8 -4,-2 -7,0 -19,16 -7,9 -14,16 -14,17 l -2,1 v 0 c 0,-2 20,-27 26,-33 4,-4 10,-4 14,0 4,5 4,8 -1,15 -5,7 -21,26 -22,26 z m -105,-11 c -1,0 -3,-2 -3,-3 -2,-3 -3,-23 -3,-42 1,-13.0000002 1,-14.0000002 4,-17.0000002 1,-1 2,-1.99999995 3,-1.99999995 h 1 l -3,1.99999995 c -2,3 -2,3 -2,30.0000002 0,27 0,27 2,29 4,4 13,1 13,-4 0,-1 0,-13 0,-26 0,-25.0000002 0,-25.0000002 -3,-28.0000002 l -2,-2.99999995 v 0 c 2,0 5,1.99999995 6,4.99999995 1,3 2,41.0000002 1,49.0000002 0,4 -1,7 -3,8 -2,2 -8,3 -11,2 z"
     id="path2" />
  <path
     fill="#00ffff"
     stroke="none"
     d="m 299.65685,753.3923 c -26,-6 -45,-34 -56,-81 -6,-25 -9,-42 -12,-85 -4,-49 -7,-71 -19,-122 -8,-31 -8,-36 -8,-63 0,-25 0,-26 3,-37 12,-45 37,-72 76,-82 24,-6 51,-3 83,10 31,13 54,17 82,16 24,-1 41,-5 66,-15 8,-3 18,-6 22,-8 31,-9 61,-7 85,5 26,12 45,38 54,72 3,13 4,22 4,40 0,19 -2,33 -9,66 -12,50 -15,69 -18,116 -6,67 -13,100 -27,130 -14,27 -33,41 -55,40 -14,-1 -26,-8 -36,-20 -7,-9 -18,-31 -25,-53 -10,-28 -14,-36 -19,-45 -20,-34 -61,-40 -89,-12 -6,6 -8,9 -12,18 -3,6 -9,21 -13,32 -11,33 -16,42 -24,55 -14,20 -34,29 -53,23 z m 61,-176 c 1,0 6,-4 11,-10 18,-18 35,-27 59,-30 22,-3 48,4 66,16 6,5 17,15 21,20 5,8 17,6 22,-3 2,-5 1,-9 -6,-17 -14,-18 -37,-33 -62,-39 -28,-7 -62,-3 -87,11 -20,11 -41,31 -41,40 0,3 2,8 4,10 2,1 8,3 10,2 1,0 2,0 3,0 z m -42,-101 c 1,-1 7,-5 12,-10 4,-5 11,-11 14,-14 l 6,-5 15,15 c 16,15 16,15 21,15 4,0 5,-1 8,-3 2,-3 3,-5 3,-8 0,-6 -3,-10 -19,-25 l -11,-11 15,-16 c 15,-14 15,-15 15,-19 0,-9 -7,-15 -14,-12 -2,0 -10,7 -18,15 -8,7 -15,14 -15,14 -1,0 -8,-7 -16,-15 -16,-16 -19,-17 -25,-15 -4,2 -7,6 -7,12 0,4 0,4 15,19 8,9 15,16 15,17 0,0 -7,7 -15,16 -14,14 -15,15 -15,18 0,7 3,10 9,12 2,1 4,1 7,0 z m 184,0 c 0,0 8,-7 16,-15 l 15,-14 6,6 c 22,20 25,23 28,24 8,1 14,-5 14,-13 0,-3 -1,-4 -15,-18 -8,-8 -15,-15 -15,-15 0,-1 7,-8 15,-16 9,-10 15,-17 16,-18 1,-4 -1,-8 -4,-11 -2,-2 -4,-3 -7,-3 -5,0 -5,0 -19,13 -7,7 -14,14 -15,15 -1,1 -3,2 -3,2 -1,0 -7,-5 -14,-12 -6,-7 -13,-14 -15,-15 -9,-6 -19,-2 -19,8 0,5 2,8 16,21 7,8 13,14 13,14 0,1 -7,8 -14,16 -15,15 -15,15 -15,20 0,3 1,6 2,7 2,3 7,5 11,4 1,0 2,0 3,0 z m -312,23 -1,-2 h 1 2 v 2 1 0 c -1,0 -1,-1 -2,-1 z m -24,-29 c -35,-5 -68.999996,-24 -85.999996,-48 l -5,-6 v -1 l 1,-1 11,3 c 14.999996,3 31.999996,5 38.999996,5 5,0 6,0 9,-3 4,-3 6,-9 4,-13 -2,-5 -5,-6 -17,-9 -31.999996,-10 -57.999996,-26 -72.999996,-48 -5,-9 -12,-24 -10,-25 v -1 l 7,4 c 11,5 28,11 47,17 16.999996,5 16.999996,5 20.999996,4 8,-3 11,-12 7,-18 -2,-3 -4,-4 -16,-8 -14.999996,-5 -18.999996,-8 -31.999996,-16 -18,-12 -33,-29 -40,-46 -4,-9 -7,-23 -7,-35 0,-6 0,-11 1,-11 v -1 l 7,7 c 23,21 47,34 103.999996,53 6,2 14,5 16,7 13,6 27,19 36,33 5,7 5,7 3,11 -7,13 -12,31 -15,49 -1,9 -1,16 -1,35 1,22 2,31 6,51 1,6 2,11 2,11 v 1 h -7 c -3,0 -9,-1 -12,-1 z m 531,0 c 0,-1 1,-7 3,-13 4,-22 5,-38 5,-61 -1,-29 -4,-45 -13,-65 -4,-9 -4,-9 0,-15 10,-17 25,-31 40,-38 3,-1 13,-4 21,-7 48,-17 71,-29 93,-49 l 10,-9 1,2 c 0,0 0,7 0,14 -1,15 -3,23 -9,35 -12,26 -40,48 -73,59 -12,4 -15,7 -15,14 0,8 6,13 15,12 8,-1 44,-14 57,-20 l 12,-6 v 4 c -1,5 -7,18 -12,25 -16,22 -46,40 -76,46 -4,1 -7,2 -9,4 -5,4 -5,12 0,17 3,3 4,3 10,3 7,0 28,-3 41,-6 l 9,-2 v 1 c 0,2 -9,14 -16,21 -21,20 -53,33 -84,35 h -10 z m -643.999996,-77 c 0,-1 0,-1 1,-1 v 0 1 1 h -1 -1 z m -9,-199 -2,-3 3,2 c 2,2 3,4 3,4 v 0 0 c 0,0 -2,-1 -4,-3 z m 372.999996,-18 c -41,-3 -78,-13 -85,-24 l -1,-2 2,-3 c 7,-9 37,-19 74,-23 16,-2 56,-2 73,0 34,5 62,14 69,23 l 2,3 -3,4 c -9,9 -35,17 -68,21 -16,1 -48,2 -63,1 z m 34,-134.999995 v -8 l 1,4 c 0,2 0,6 0,8 l -1,5 z m -20,3 v -1 l 1,1 v 1 1 h -1 z m 0,-21 v -4 l 1,2 c 0,1 0,3 0,4 l -1,3 z"
     id="path3" />
  <path
     fill="#ff00ff"
     stroke="none"
     d="m 299.65685,753.3923 c -26,-6 -45,-34 -56,-81 -6,-25 -9,-42 -12,-85 -4,-49 -7,-71 -19,-122 -8,-31 -8,-36 -8,-63 0,-25 0,-26 3,-37 12,-45 37,-72 76,-82 24,-6 51,-3 83,10 31,13 54,17 82,16 24,-1 41,-5 66,-15 8,-3 18,-6 22,-8 31,-9 61,-7 85,5 26,12 45,38 54,72 3,13 4,22 4,40 0,19 -2,33 -9,66 -12,50 -15,69 -18,116 -6,67 -13,100 -27,130 -14,27 -33,41 -55,40 -14,-1 -26,-8 -36,-20 -7,-9 -18,-31 -25,-53 -10,-28 -14,-36 -19,-45 -20,-34 -61,-40 -89,-12 -6,6 -8,9 -12,18 -3,6 -9,21 -13,32 -11,33 -16,42 -24,55 -14,20 -34,29 -53,23 z m 61,-176 c 1,0 6,-4 11,-10 18,-18 35,-27 59,-30 22,-3 48,4 66,16 6,5 17,15 21,20 5,8 17,6 22,-3 2,-5 1,-9 -6,-17 -14,-18 -37,-33 -62,-39 -28,-7 -62,-3 -87,11 -20,11 -41,31 -41,40 0,3 2,8 4,10 2,1 8,3 10,2 1,0 2,0 3,0 z m -42,-101 c 1,-1 7,-5 12,-10 4,-5 11,-11 14,-14 l 6,-5 15,15 c 16,15 16,15 21,15 4,0 5,-1 8,-3 2,-3 3,-5 3,-8 0,-6 -3,-10 -19,-25 l -11,-11 15,-16 c 15,-14 15,-15 15,-19 0,-9 -7,-15 -14,-12 -2,0 -10,7 -18,15 -8,7 -15,14 -15,14 -1,0 -8,-7 -16,-15 -16,-16 -19,-17 -25,-15 -4,2 -7,6 -7,12 0,4 0,4 15,19 8,9 15,16 15,17 0,0 -7,7 -15,16 -14,14 -15,15 -15,18 0,7 3,10 9,12 2,1 4,1 7,0 z m 184,0 c 0,0 8,-7 16,-15 l 15,-14 6,6 c 22,20 25,23 28,24 8,1 14,-5 14,-13 0,-3 -1,-4 -15,-18 -8,-8 -15,-15 -15,-15 0,-1 7,-8 15,-16 9,-10 15,-17 16,-18 1,-4 -1,-8 -4,-11 -2,-2 -4,-3 -7,-3 -5,0 -5,0 -19,13 -7,7 -14,14 -15,15 -1,1 -3,2 -3,2 -1,0 -7,-5 -14,-12 -6,-7 -13,-14 -15,-15 -9,-6 -19,-2 -19,8 0,5 2,8 16,21 7,8 13,14 13,14 0,1 -7,8 -14,16 -15,15 -15,15 -15,20 0,3 1,6 2,7 2,3 7,5 11,4 1,0 2,0 3,0 z m -312,23 -1,-2 h 1 2 v 2 1 0 c -1,0 -1,-1 -2,-1 z m -24,-29 c -35,-5 -68.999996,-24 -85.999996,-48 l -5,-6 v -1 l 1,-1 11,3 c 14.999996,3 31.999996,5 38.999996,5 5,0 6,0 9,-3 4,-3 6,-9 4,-13 -2,-5 -5,-6 -17,-9 -31.999996,-10 -57.999996,-26 -72.999996,-48 -5,-9 -12,-24 -10,-25 v -1 l 7,4 c 11,5 28,11 47,17 16.999996,5 16.999996,5 20.999996,4 8,-3 11,-12 7,-18 -2,-3 -4,-4 -16,-8 -14.999996,-5 -18.999996,-8 -31.999996,-16 -18,-12 -33,-29 -40,-46 -4,-9 -7,-23 -7,-35 0,-6 0,-11 1,-11 v -1 l 7,7 c 23,21 47,34 103.999996,53 6,2 14,5 16,7 13,6 27,19 36,33 5,7 5,7 3,11 -7,13 -12,31 -15,49 -1,9 -1,16 -1,35 1,22 2,31 6,51 1,6 2,11 2,11 v 1 h -7 c -3,0 -9,-1 -12,-1 z m 531,0 c 0,-1 1,-7 3,-13 4,-22 5,-38 5,-61 -1,-29 -4,-45 -13,-65 -4,-9 -4,-9 0,-15 10,-17 25,-31 40,-38 3,-1 13,-4 21,-7 48,-17 71,-29 93,-49 l 10,-9 1,2 c 0,0 0,7 0,14 -1,15 -3,23 -9,35 -12,26 -40,48 -73,59 -12,4 -15,7 -15,14 0,8 6,13 15,12 8,-1 44,-14 57,-20 l 12,-6 v 4 c -1,5 -7,18 -12,25 -16,22 -46,40 -76,46 -4,1 -7,2 -9,4 -5,4 -5,12 0,17 3,3 4,3 10,3 7,0 28,-3 41,-6 l 9,-2 v 1 c 0,2 -9,14 -16,21 -21,20 -53,33 -84,35 h -10 z m -643.999996,-77 c 0,-1 0,-1 1,-1 v 0 1 1 h -1 -1 z m -9,-199 -2,-3 3,2 c 2,2 3,4 3,4 v 0 0 c 0,0 -2,-1 -4,-3 z m 372.999996,-18 c -41,-3 -78,-13 -85,-24 l -1,-2 2,-3 c 7,-9 37,-19 74,-23 16,-2 56,-2 73,0 34,5 62,14 69,23 l 2,3 -3,4 c -9,9 -35,17 -68,21 -16,1 -48,2 -63,1 z m 34,-134.999995 v -8 l 1,4 c 0,2 0,6 0,8 l -1,5 z m -20,3 v -1 l 1,1 v 1 1 h -1 z m 0,-21 v -4 l 1,2 c 0,1 0,3 0,4 l -1,3 z"
     id="path4" />
  <path
     fill="#f3e3cd"
     stroke="none"
     d="m 299.65685,753.3923 c -26,-6 -45,-34 -56,-81 -6,-25 -9,-42 -12,-85 -4,-49 -7,-71 -19,-122 -8,-31 -8,-36 -8,-63 0,-25 0,-26 3,-37 12,-45 37,-72 76,-82 24,-6 51,-3 83,10 31,13 54,17 82,16 24,-1 41,-5 66,-15 8,-3 18,-6 22,-8 31,-9 61,-7 85,5 26,12 45,38 54,72 3,13 4,22 4,40 0,19 -2,33 -9,66 -12,50 -15,69 -18,116 -6,67 -13,100 -27,130 -14,27 -33,41 -55,40 -14,-1 -26,-8 -36,-20 -7,-9 -18,-31 -25,-53 -10,-28 -14,-36 -19,-45 -20,-34 -61,-40 -89,-12 -6,6 -8,9 -12,18 -3,6 -9,21 -13,32 -11,33 -16,42 -24,55 -14,20 -34,29 -53,23 z m 61,-176 c 1,0 6,-4 11,-10 18,-18 35,-27 59,-30 22,-3 48,4 66,16 6,5 17,15 21,20 5,8 17,6 22,-3 2,-5 1,-9 -6,-17 -14,-18 -37,-33 -62,-39 -28,-7 -62,-3 -87,11 -20,11 -41,31 -41,40 0,3 2,8 4,10 2,1 8,3 10,2 1,0 2,0 3,0 z m -42,-101 c 1,-1 7,-5 12,-10 4,-5 11,-11 14,-14 l 6,-5 15,15 c 16,15 16,15 21,15 4,0 5,-1 8,-3 2,-3 3,-5 3,-8 0,-6 -3,-10 -19,-25 l -11,-11 15,-16 c 15,-14 15,-15 15,-19 0,-9 -7,-15 -14,-12 -2,0 -10,7 -18,15 -8,7 -15,14 -15,14 -1,0 -8,-7 -16,-15 -16,-16 -19,-17 -25,-15 -4,2 -7,6 -7,12 0,4 0,4 15,19 8,9 15,16 15,17 0,0 -7,7 -15,16 -14,14 -15,15 -15,18 0,7 3,10 9,12 2,1 4,1 7,0 z m 184,0 c 0,0 8,-7 16,-15 l 15,-14 6,6 c 22,20 25,23 28,24 8,1 14,-5 14,-13 0,-3 -1,-4 -15,-18 -8,-8 -15,-15 -15,-15 0,-1 7,-8 15,-16 9,-10 15,-17 16,-18 1,-4 -1,-8 -4,-11 -2,-2 -4,-3 -7,-3 -5,0 -5,0 -19,13 -7,7 -14,14 -15,15 -1,1 -3,2 -3,2 -1,0 -7,-5 -14,-12 -6,-7 -13,-14 -15,-15 -9,-6 -19,-2 -19,8 0,5 2,8 16,21 7,8 13,14 13,14 0,1 -7,8 -14,16 -15,15 -15,15 -15,20 0,3 1,6 2,7 2,3 7,5 11,4 1,0 2,0 3,0 z m -312,23 -1,-2 h 1 2 v 2 1 0 c -1,0 -1,-1 -2,-1 z m -24,-29 c -35,-5 -68.999996,-24 -85.999996,-48 l -5,-6 v -1 l 1,-1 11,3 c 14.999996,3 31.999996,5 38.999996,5 5,0 6,0 9,-3 4,-3 6,-9 4,-13 -2,-5 -5,-6 -17,-9 -31.999996,-10 -57.999996,-26 -72.999996,-48 -5,-9 -12,-24 -10,-25 v -1 l 7,4 c 11,5 28,11 47,17 16.999996,5 16.999996,5 20.999996,4 8,-3 11,-12 7,-18 -2,-3 -4,-4 -16,-8 -14.999996,-5 -18.999996,-8 -31.999996,-16 -18,-12 -33,-29 -40,-46 -4,-9 -7,-23 -7,-35 0,-6 0,-11 1,-11 v -1 l 7,7 c 23,21 47,34 103.999996,53 6,2 14,5 16,7 13,6 27,19 36,33 5,7 5,7 3,11 -7,13 -12,31 -15,49 -1,9 -1,16 -1,35 1,22 2,31 6,51 1,6 2,11 2,11 v 1 h -7 c -3,0 -9,-1 -12,-1 z m 531,0 c 0,-1 1,-7 3,-13 4,-22 5,-38 5,-61 -1,-29 -4,-45 -13,-65 -4,-9 -4,-9 0,-15 10,-17 25,-31 40,-38 3,-1 13,-4 21,-7 48,-17 71,-29 93,-49 l 10,-9 1,2 c 0,0 0,7 0,14 -1,15 -3,23 -9,35 -12,26 -40,48 -73,59 -12,4 -15,7 -15,14 0,8 6,13 15,12 8,-1 44,-14 57,-20 l 12,-6 v 4 c -1,5 -7,18 -12,25 -16,22 -46,40 -76,46 -4,1 -7,2 -9,4 -5,4 -5,12 0,17 3,3 4,3 10,3 7,0 28,-3 41,-6 l 9,-2 v 1 c 0,2 -9,14 -16,21 -21,20 -53,33 -84,35 h -10 z m -643.999996,-77 c 0,-1 0,-1 1,-1 v 0 1 1 h -1 -1 z m -9,-199 -2,-3 3,2 c 2,2 3,4 3,4 v 0 0 c 0,0 -2,-1 -4,-3 z m 372.999996,-18 c -41,-3 -78,-13 -85,-24 l -1,-2 2,-3 c 7,-9 37,-19 74,-23 16,-2 56,-2 73,0 34,5 62,14 69,23 l 2,3 -3,4 c -9,9 -35,17 -68,21 -16,1 -48,2 -63,1 z m 34,-134.999995 v -8 l 1,4 c 0,2 0,6 0,8 l -1,5 z m -20,3 v -1 l 1,1 v 1 1 h -1 z m 0,-21 v -4 l 1,2 c 0,1 0,3 0,4 l -1,3 z"
     id="path5" />
  <path
     fill="#ffffff"
     stroke="none"
     d=""
     id="path6" />
  <path
     fill="#ffffff"
     stroke="none"
     d=""
     id="path7" />
  <path
     fill="#ffffff"
     stroke="none"
     d=""
     id="path8" />
</svg>
