<?xml version="1.0" encoding="UTF-8" standalone="no"?>
<svg
   version="1.0"
   width="861.39386pt"
   height="1069.1384pt"
   viewBox="0 0 861.39386 1069.1384"
   preserveAspectRatio="xMidYMid"
   id="svg8"
   sodipodi:docname="kyukaper.svg"
   inkscape:version="1.4 (e7c3feb1, 2024-10-09)"
   xmlns:inkscape="http://www.inkscape.org/namespaces/inkscape"
   xmlns:sodipodi="http://sodipodi.sourceforge.net/DTD/sodipodi-0.dtd"
   xmlns="http://www.w3.org/2000/svg"
   xmlns:svg="http://www.w3.org/2000/svg">
  <defs
     id="defs8" />
  <sodipodi:namedview
     id="namedview8"
     pagecolor="#ffffff"
     bordercolor="#000000"
     borderopacity="0.25"
     inkscape:showpageshadow="2"
     inkscape:pageopacity="0.0"
     inkscape:pagecheckerboard="0"
     inkscape:deskcolor="#d1d1d1"
     inkscape:document-units="pt"
     showgrid="false"
     inkscape:zoom="0.39697266"
     inkscape:cx="544.11808"
     inkscape:cy="754.46002"
     inkscape:window-width="1200"
     inkscape:window-height="990"
     inkscape:window-x="0"
     inkscape:window-y="25"
     inkscape:window-maximized="0"
     inkscape:current-layer="svg8" />
  <path
     fill="#0b0b0a"
     stroke="none"
     d="m 546.39388,1068.1384 c -19,-2 -26,-4 -36,-6 -7,-2 -13,-4 -14,-4 -1,0 -2,-1 -2,-1 0,0 -5,-2 -11,-5 -18,-8 -38,-21 -52,-36 -19,-17.99996 -30,-36.99996 -36,-61.99996 -2,-10 -2,-14 -2,-29 0,-20 1,-27 6,-44 7,-20 16,-39 30,-57 7,-10 7,-10 4,-23 -4,-21 -12,-50 -15,-58 -4,-9 -9,-18 -15,-24 l -3,-4 -1,1 h -1 v -2 c -1,0 -4,-3 -9,-5 -6,-3 -9,-3 -16,-4 -14,0 -25,4 -38,16 -4,4 -9,10 -12,14 l -5,8 h 1 v 1 h -1 c 0,0 -2,2 -3,5 l -3,5 h 1 v 1 h -1 -1 l 1,1 v 1 h -1 -1 l -7,16 c -4,9 -9,21 -11,27 -2,6 -8,21 -14,33 -5,12 -9,23 -9,24 0,1 -1,2 -2,3 -1,1 -1,2 -1,5 0,0 0,1 -1,1 0,0 -3,5 -5,11 -3,6 -7,15 -10,21 l -5,11 h 1 1 l -2,1 c 0,0 -3,4 -5,9 -6,12 -15,27 -21,35 -5,8 -24,29 -26,29 0,0 -2,2 -5,3 -17,12 -41,15.99996 -61,8 -11,-4 -25,-16 -33.000003,-27 -1,-2 -3,-4 -3,-4 h -1 v -1 h 1 l -2,-4 c -18,-28 -31,-80 -36,-140 -1,-18 -1,-83 0,-109 1,-11 1,-37 1,-57 0,-35 0,-37 -2,-47 -3,-15 -10,-34 -21,-60 -5,-13 -11,-26 -12,-29 -1,-4 -3,-7 -3,-7 l -1,-1 v 0 h 1 l -3,-7 c -1,-4 -3,-13 -5.0000001,-19 -2,-7 -3,-13 -4,-14 0,-1 0,-3 -1,-4 0,-1 -1,-7 -2,-13 -1.99999999,-17 -1.99999999,-58 1,-74 4,-22 11.0000001,-43 20.0000001,-59 l 5,-9 h -1 v 0 l 3,-3 2,-2 v -1 h -1 l 4,-5 c 5,-5 29,-29 31,-30 0,0 4,-3 8,-5 10,-7 25,-14 37.000003,-18 4,-2 9,-3 10,-4 1,0 2,0 3,0 6,-1 10,-2 11,-3 v -1 h 1 c 0,1 5,0 11,-1 11,-1 42,-1 54,0 4,1 9,1 9,0 h 1 v 1 c 1,1 2,1 4,1 6,0 34,7 64,16 47,13 58,16 72,17 17,1 41,-1 50,-4 1,-1 3,-1 4,-1 0,0 3,-1 6,-2 l 5,-1 v -1 -1 h 2 c 1,0 8,-2 16,-4 15,-5 15,-5 18,-17 2,-6 3,-12 3,-12 0,-1 1,-2 1,-2 1,-1 5,-13 5,-14 v -1 h 1 1 l 2,-5 c 1,-2 4,-8 6,-12 l 4,-7 h -1 v 0 l 1,-1 c 0,0 2,-2 3,-4 l 2,-3 v 0 h -1 l 3,-3 2,-2 -1,-1 v -1 h 1 c 0,0 3,-3 6,-8 3,-4 10,-12 14,-18 l 9,-10 h -1 v -1 h 1 c 1,0 24,-27 31,-36.000001 5,-8 12,-22 15,-31 1,-4 2,-7 2,-8 0,0 0,-1 0,-2 2,-3 0,-29 -1,-35 -1,-4 -2,-9 -2,-12 0,-4.0000002 0,-6.0000002 3,-8.0000002 3,-4.00000004 8,-4.00000004 15,-1 l 4,2 v -1 0 l 1,1 c 0,0 4,3 8,5 3,2.0000002 8,6.0000002 10,7.0000002 l 4,3 v 0 -1 l 5,5 c 11,9 38,37 39,40 0,0 3,4 6,9 5,9 12,21 15,30.000001 1,3 2,6 2,6 0,0 1,1 1,2 0,1 1,5 2,10 1,7 1,13 1,29 1,21 0,33 -1,35 l -1,1 h 1 c 0,0 2,-3 4,-5 5,-7 29,-33 31,-33 0,0 1,-1 2,-2 1,0 4,-2 6,-4 7,-4 12,-4 15,-1 4,3 5,9 5,28 1,7 2,14 3,19 3,9 14,38 15,39 l 1,1 v 0 c 0,1 0,2 1,4 v 3 h 1 1 v 2 c 0,1 6,24 7,28 0,1 0,4 1,8 0,3 0,7 1,8 1,5 -1,32 -3,43 -2,12 -7,25 -12,34 l -3,7 h 1 1 l -2,1 c 0,0 -2,3 -4,6 l -4,6 h 1 v 0 l -2,2 c -2,2 -2,2 -1,14 1,14 1,33 0,46 0,6 -1,11 0,11 v 1 l -1,1 c -1,0 -1,1 -1,2 0,2 0,3 0,4 -1,1 -4,16 -5,20 0,1 0,2 0,3 -1,1 -2,5 -4,10 -1,5 -4,13 -6,19 -2,5 -4,10 -4,11 0,1 -1,2 -1,2 -1,1 -10,21 -10,23 0,1 -1,2 -2,3 -1,1 -1,2 -1,5 0,0 0,1 -1,1 -1,1 -7,16 -10,27 -6,19 -9,35 -10,63 -1,59 -3,97 -3,103 -1,3 -1,10 -2,17 -1,6 -2,18 -3,25 -1,7 -2,14 -1,14 v 1 l -1,1 c -1,0 -1,1 -1,2 0,2 0,3 0,4 0,0 -1,2 -1,5 l -1,4 6,2 c 15,8 37,26 46,39 3,4 5,7 6,8 1,1 2,2 2,2 0,1 2,5 5,10 2,5 5,14 7,19 2,9 2,11 3,29 0,10 -1,19 -1,20 -1,0 -2,6 -3,11 0,0 0,2 -1,3 0,2 -1,4 -1,5 0,1 -1,2 -1,2 -1,0 -1,1 -1,3 0,1 -1,2 -1,2 0,0 -2,4 -4,8 -3,4 -6,10 -8,13 -2,2.99996 -4,5.99996 -4,5.99996 0,1 -1,2 -2,3 l -3,2 v 1 l 1,1 -10,9 -9,9 v -1 0 l -3,2 c -1,2 -6,5 -9,8 -4,2 -8,5 -8,5 0,1 -1,1 -2,1 0,0 -6,3 -12,6 -14,7 -29,12 -44,15 -6,1 -11,2 -12,3 -1,0 -3,0 -4,1 -5,0 -53,1 -56,0 z m 277,-688.99996 c -3,-2 -10,-6 -16,-10 l -11,-6 h -1 v 0 l -3,-3 c -9,-7 -10,-10 -7,-16 1,-2 3,-4 5,-5 5,-3 7,-2 26,9 l 15,9 v 0 h 1 l 3,3 c 7,6 7,12 2,17 -4,4 -8,5 -14,2 z m -22,-85 c -8,-5 -5,-18 3,-19 6,-2 35,-4 42,-4 5,0 7,1 10,2 5,3 6,12 1,17 -1,1 -2,3 -3,3 0,0 -7,1 -16,1 -20,3 -34,3 -37,0 z m -18,-66 c -4,-3 -6,-8 -4,-12 1,-3 17,-17 30,-26 3,-2 5,-4 5,-4 v -1 h 2 c 7,0 10,0 13,2 1,1 2,4 3,6 2,6 -1,9 -17,22 -8,6 -15,12 -15,12 l -1,2 v -1 -1 l -3,2 c -5,3 -9,3 -13,-1 z"
     id="path1" />
  <path
     fill="#343331"
     stroke="none"
     d="m 548.39388,1068.1384 v -1 h -4 l -5,1 v -1 -1 h -3 l -4,1 1,-1 v -1 h -3 l -4,1 1,-1 v -1 h -3 l -3,1 v -1 -1 l -5,-1 c -3,-1 -6,-1 -6,0 h -1 v -1 l 1,-1 h -3 c -2,-1 -4,-1 -4,0 h -1 l 1,-1 v -1 h -2 l -2,1 1,-1 v -1 h -2 l -2,1 v -1 h 1 l -8,-4 c -5,-1 -9,-3 -9,-2 h -1 v -1 l 1,-1 -5,-2 c -2,-1 -5,-2 -5,-1 h -1 v 0 l 1,-1 -9,-6 c -5,-3 -9,-5 -10,-5 h -1 l 1,-1 v -1 l -2,-1 c -1,0 -2,0 -2,0 h -1 v -1 h 1 l -2,-2 c -1,-1 -3,-1 -3,-1 h -1 v -1 l 1,-1 -4,-3 c -2,-1 -4,-3 -4,-3 h -1 v -1 c 0,0 -2,-2 -3,-4 l -3,-2 2,2 2,3 -3,-2 -2,-2 v -1 c 0,0 -2,-3 -4,-6 l -5,-6 v 1 h -1 v -1 c 0,-0.99996 -2,-3.99996 -4,-7.99996 l -4,-6 -1,1 v 1 -2 c 1,-1 -2,-7 -3,-7 h -1 l 1,-2 v -1 h -1 l -1,1 v -1 c 0,-1 0,-2 0,-3 v -2 l -1,1 h -1 v -1 c 1,0 0,-3 0,-5 l -2,-4 v 1 l -1,1 v -2 c 1,-1 -2,-16 -3,-17 -1,-1 -1,-16 -1,-34 l 1,-7 v 0 h 1 v -3 l -1,-3 h 1 1 v -4 c 1,-2 3,-8 5,-14 2,-7 3,-12 3,-13 v -1 h 1 l 1,1 1,-4 c 1,-2 2,-5 1,-5 v -1 l 1,1 h 1 v -1 l -1,-2 1,1 h 1 v -1 l -1,-2 1,1 h 1 v -1 l -1,-2 1,1 h 1 v -1 l -1,-2 h 1 l 1,1 1,-2 c 0,-2 10,-17 19,-30 l 3,-4 -1,-2 c -1,0 -1,-2 -1,-3 l 1,-3 h -1 -1 v -4 c 0,-2 0,-5 -1,-5 0,0 -1,-2 -1,-4 v -4 l -1,-1 h -1 l 1,-1 c 0,-1 -1,-5 -2,-9 l -1,-7 h -1 -1 l 1,-2 v -2 h -1 -1 v -1 c 1,0 1,-3 0,-5 l -1,-5 h -1 -1 l 1,-1 c 0,-1 -1,-3 -2,-6 l -1,-5 h -1 -1 v -1 c 1,-1 -1,-6 -2,-6 h -1 v -1 h 1 l -2,-3 c 0,-2 -2,-3 -2,-3 h -1 l 1,-1 v -1 l -1,-1 h -2 l 1,-1 v -2 h -2 l -2,-1 v -1 l 1,-1 -4,-4 -3,-3 -1,1 -1,2 v -2 l 1,-2 -3,-1 c -1,-1 -3,-2 -3,-1 h -1 l 1,-1 v -1 h -1 l -2,1 v -1 -1 h -1 l -1,1 v -1 c -1,-2 -6,-3 -16,-4 h -9 v 1 1 l -2,-1 h -2 v 1 1 l -1,-1 h -2 v 1 1 l -1,-1 c -1,0 -3,1 -5,1 l -3,2 1,1 v 2 -1 l -1,-1 -3,2 -3,1 1,1 v 1 h -1 l -1,-1 -3,3 c -2,1 -3,3 -3,4 v 1 h -2 c -1,1 -3,2 -4,4 l -2,2 1,1 v 1 h -1 -2 v 1 c 0,1 0,1 0,2 v 0 l -1,1 -2,1 v 1 l 1,1 h -2 l -1,1 v 1 l 1,1 h -1 -2 v 2 c 0,0 0,1 0,2 v 0 l -1,1 c -2,1 -10,18 -10,19 l 1,1 h -1 -1 v 1 h 1 l -2,2 c -1,2 -2,3 -2,4 l 1,2 h -1 -1 v 1 l 1,1 h -2 l -1,1 v 2 l 1,2 h -1 -1 l -2,5 c -1,2 -2,5 -2,6 l 1,1 h -2 l -1,1 v 2 l 1,2 h -2 l -1,1 v 2 l 1,2 -1,-1 h -1 v 2 c -1,1 -1,3 0,3 v 1 h -1 l -1,-1 v 2 c -1,1 -1,3 0,3 v 1 h -1 l -1,-1 -2,5 c -1,3 -2,6 -1,7 v 1 h -1 l -1,-1 -1,2 c 0,1 0,2 0,3 h 1 l -2,2 c -1,2 -2,3 -2,4 l 1,2 h -2 l -1,1 v 2 c 0,1 0,2 -1,3 -1,2 -2,3 -2,4 0,1 0,2 -1,3 -1,1 -2,3 -2,4 l 1,2 h -1 c -2,1 -6,12 -5,13 v 1 h -1 l -1,-1 -1,3 c -1,2 -1,3 0,4 v 1 h -1 l -1,-1 -1,4 c -1,2 -2,5 -1,5 v 1 l -1,-1 h -1 v 2 l 1,1 h -1 v -1 l -3,5 c -1,3 -2,6 -1,6 v 1 l -1,-1 h -1 v 2 l 1,1 h -1 v -1 l -6,12 c -4,7 -6,13 -6,14 v 1 l -1,-1 h -1 l -2,4 c -1,3 -1,5 -1,5 v 0 l -2,2 -2,2 1,1 v 1 h -1 l -1,-1 -1,2 c 0,1 0,3 0,3 v 1 h -1 l -1,-1 v 1 c 0,1 0,2 0,2 v 1 h -1 l -1,-1 v 1 c 0,1 0,2 0,3 v 1 l -1,-1 v -1 l -5,6 -4,5 1,1 v 1 h -1 c 0,0 -4,3 -7,7 -8,8 -19,16 -26,19 l -4,1 1,1 v 1 h -1 c 0,-1 -2,-1 -3,0 h -3 v 1 l 1,1 -3,-1 h -2 v 1 l 1,1 -3,-1 h -3 v 1 1 l -12,-1 c -6,0 -12,-1 -12,0 h -1 v -1 l 1,-1 -4,-1 c -2,-1 -5,-1 -5,0 h -1 l 1,-1 v -1 h -1 l -2,1 1,-1 v -1 h -2 l -1,1 v -1 h 1 l -4,-3 c -2,-1 -4,-2 -4,-1 h -1 v -1 l 1,-1 -2,-1 -2,-1 -1,1 v 1 -2 l 1,-1 -5,-4 -5,-5 v 1 l -1.000003,1 v -1 c 0,-1 0,-3 -1,-4 l -2,-2 -1,1 v 1 -2 c 1,0 0,-3 -2,-5 l -3,-4 v 1 l -1,1 v -1 c 0,-1 0,-3 0,-4 l -1,-2 -1,1 h -1 v -1 c 1,0 -1,-4 -2,-7 l -4,-7 -1,1 v 1 -2 c 1,0 0,-4 -2,-8 l -3,-7 v 1 h -1 l 1,-1 v -2 h -1 -1 l 1,-1 v -2 h -1 -1 l 1,-2 v -2 h -1 l -1,1 v -1 c 1,0 0,-3 0,-5 l -1,-5 -1,1 h -1 l 1,-2 v -2 h -1 -1 v -1 c 1,0 1,-3 0,-6 l -1,-5 h -1 -1 v -1 c 1,-1 0,-5 -1,-10 l -1,-10 h -1 l -1,1 1,-4 v -3 h -1 l -1,1 1,-1 c 0,-1 -1,-9 -2,-17 -1,-9 -2,-18 -2,-20 v -4 h -1 v 1 -7 -7 h -1 v 0 -44 -44 0 h 1 v -11 -11 1 h 1 v -13 c -1,-8 -1,-14 0,-15 0,0 0,-12 0,-26 l 1,-26 h -1 -1 l 1,-4 v -5 h -1 -1 l 1,-2 v -3 h -1 v 0 l -1,-4 c 0,-2 0,-5 -1,-5 0,0 -1,-2 -1,-3 v -3 l -1,-1 h -1 l 1,-1 c 0,-1 -4,-14 -5,-16 -1,-1 -2,-3 -2,-4 0,-2 -1,-4 -1,-4 -1,-1 -1,-2 -1,-3 v -2 l -1,-1 h -2 l 1,-2 c 0,-1 -1,-2 -2,-4 -1,-1 -1,-2 -1,-3 0,-1 -1,-3 -2,-4 l -2,-2 h 1 v -1 l -1,-3 -1,-3 -1,1 h -1 v -1 c 1,-1 1,-2 0,-4 l -1,-3 -1,1 h -1 v -1 c 0,-1 0,-2 0,-3 v -2 l -1,1 h -1 v -1 c 1,0 -1,-5 -3,-10 l -4,-10 v 1 l -1,1 v -2 c 1,0 0,-3 -1,-6 l -1,-6 -1,1 h -1 l 1,-2 v -2 h -1 l -1,1 v -1 c 1,0 0,-3 0,-6 l -1.0000001,-5 -1,1 h -1 l 1,-2 v -2 h -1 -1 v -1 c 1,0 1,-3 0,-5 v -4 l -1,1 h -1 l -1,-1 v -1 h 1 l 1,1 v -2 -3 l -1,1 h -1 v -1 c 1,0 1,-5 0,-9 l -1,-9 h -1 v 0 -5 -5 H 0.39387691 v 0 -20 -20 0 H 1.3938769 v -4 -5 1 h 1 v -4 l -1,-4 1,1 h 1 v -3 l -1,-4 1,1 h 1 v -3 l -1,-3 1,1 h 1 l 1,-6 c 0,-3 1,-6 0,-6 v -1 0 l 1,1 4.0000001,-11 c 2,-6 4,-12 4,-13 v -2 l 1,1 h 1 v -2 l -1,-1 h 1 v 1 l 3,-5 c 1,-2 2,-5 1,-5 v -1 h 1 l 1,1 1,-3 c 1,-2 1,-4 1,-4 v -1 h 1 v 1 l 4,-6 c 3,-4 4,-7 4,-7 v -1 h 1 v 1 l 2,-3 c 2,-1 3,-3 3,-3 0,-1 17,-18 19,-19 2,-1 3,-3 4,-4 l 1,-2 v 1 l 1,1 6,-5 6,-4 h -1 v -1 h 1 c 1,1 6,-2 6,-3 v -1 h 1 c 1,1 9,-3 9,-4 v -1 l 1,1 h 1 v -1 -1 h 1 c 0,1 3,0 5.000003,-1 2,0 7,-3 12,-4 l 9,-3 -1,-1 v 0 l 1,-1 v 0 1 l -1,1 h 1 2 v -1 -1 l 3,1 h 2 l -1,-1 v -1 h 1 c 0,1 3,1 5,0 h 5 l -1,-1 v -1 h 1 c 0,1 4,1 8,0 h 7 l -1,-1 v -1 l 1,1 c 0,0 8,0 20,0 h 20 v 0 1 h 5 5 -1 v 1 l 10,1 c 5,0 10,1 10,0 h 1 v 1 l -1,1 7,1 c 4,1 7,1 8,1 l 1,-1 v 1 1 h 2 l 2,-1 v 1 l 1,1 h 3 l 4,1 h -1 v 0 l 6,2 c 4,1 7,2 8,1 h 1 v 1 l -1,1 h 3 c 2,1 4,1 4,0 h 1 v 1 1 h 1 l 2,-1 v 1 l 1,1 h 3 c 1,0 3,1 3,1 0,1 2,1 4,1 l 3,1 h -1 v 1 l 8,2 c 4,1 8,2 9,2 v -1 l 2,2 c 1,0 2,1 4,1 l 2,-1 v 1 1 h 2 l 2,-1 v 1 l 1,1 h 3 l 3,1 v 0 1 h 2 l 2,-1 v 1 1 l 9,1 c 6,2 11,2 15,1 h 5 v 1 1 h 7 6 v -1 -1 l 7,1 h 6 v -1 -1 l 3,1 h 3 v -1 -1 l 3,1 h 2 v -1 -1 h 2 l 1,1 1,-1 c 0,-1 2,-1 4,-1 h 3 v -1 -1 l 3,-1 c 1,0 4,0 5,0 2,-1 10,-3 19,-6 14,-5 16,-6 17,-8 1,-1 1,-3 1,-4 l -1,-1 h 1 l 1,1 1,-4 c 0,-2 2,-7 3,-12 2,-4 3,-9 2,-9 v -1 h 1 l 1,1 v -2 c 0,-1 0,-2 0,-3 v -1 h 1 v 1 l 3,-6 c 2,-3 3,-7 2,-7 v -1 l 1,1 h 1 v -2 l -1,-1 h 1 v 1 l 3,-5 c 2,-3 3,-6 2,-6 v -1 h 1 l 1,1 1,-2 c 0,-1 0,-3 0,-3 v -1 h 1 v 1 l 5,-7 c 3,-4 5,-8 4,-8 v -1 0 l 1,1 3,-3 2,-3 -1,-1 v -1 h 1 l 1,1 1,-2 1,-2 -1,-1 v 0 h 1 l 1,1 3,-5 c 2,-2 3,-5 3,-5 v -1 h 1 l 1,1 2,-3 c 1,-1 1,-3 1,-3 v -1 h 1 l 1,1 2,-3 3,-4 h -1 v -1 l 1,1 h 1 l 2,-3 c 1,-2 2,-4 2,-4 l 1,-1 h 1 c 1,0 2,-2 4,-3 l 2,-3 -1,-1 v -1 h 1 l 1,1 2,-2 c 1,-2 2,-4 2,-5 l 1,-1 h 1 c 1,0 2,-1 3,-2 l 1,-2 -1,-1 v -1 l 2,-1 h 2 v -1 c 0,-2 0,-3 2,-3 l 2,-1 v -1 l -1,-2.000001 h 2 l 1,-1 v -1 h -1 l 2,-2 2,-2 -1,-1 v -1 h 1 1 v -1 h -1 l 2,-2 2,-1 v -2 c -1,-1 0,-3 1,-4 2,-3 6,-11 7,-17 v -4 h -1 l -1,1 1,-1 c 1,-1 2,-4 2,-13 v -12 h -1 -1 l 1,-3 v -4 h -1 -1 l 1,-1 c 0,-1 0,-3 0,-5 l -1,-3 h -1 l -1,1 1,-2 c 0,-1 0,-3 -1,-4 l -1,-2 1,-2.0000002 c 1,0 1,-2 1,-3 l -1,-1 h 1 v 1 l 3,-3 c 3,-3.00000004 9,-3.00000004 16,1 3,2 6,3 6,2 h 2 l -1,1 h -1 l 4,3.0000002 c 1,1 4,2 4,1 h 1 v 1 l -1,1 h 1 c 1,0 2,0 2,0 h 1 v 1 l -1,1 6,4 c 3,2 6,3 6,3 h 1 v 1 l -1,1 3,2 c 2,1 4,2 5,2 h 1 -1 l -1,1 12,11 c 6,6 12,12 12,12 h 1 l -2,-1 h -1 l 3,3 3,4 v -1 h 1 v 1 l -1,1 3,3 3,4 1,-1 v 0 1 c -1,0 0,3 2,5 l 3,4 v -1 h 1 v 1 c 0,0 0,2 0,3 l 1,2 1,-1 h 1 v 1 c -1,0 0,3 2,6 l 3,6 v -1 h 1 v 1 c -1,0 0,3 1,5 l 2,5.000001 v -1 h 1 l -1,2 v 2 h 1 l 1,-1 v 1 c -1,0 0,4 1,8 l 2,7 v 0 l 1,-1 v 6 c 0,4 0,7 1,7 0,0 1,9 1,19 v 18 l -1,-1 h -1 v 5 l 1,5 h -1 -1 v 4 3 h 2 c 0,0 2,-1 2,-2 l 2,-2 -1,-1 v -1 h 1 l 1,1 1,-2 c 0,-1 0,-2 0,-2 v -1 h 1 v 1 l 2,-3 c 2,-1 2,-3 2,-3 v -1 0 l 1,1 8,-9 c 5,-4 11,-10 14,-12 l 5,-4 -1,-1 v -1 0 l 1,1 4,-2 c 1,-1 5,-2 7,-3 l 5,-1 -1,1 v 1 h 2 c 2,1 4,5 4,10 v 3 h 1 1 v 10 l -1,10 h 1 1 v 3 c -1,2 -1,4 0,6 v 4 l 1,-1 h 1 v 1 c -1,1 2,12 3,14 l 2,1 -1,1 c 0,0 2,6 5,13 3,7 5,12 5,13 v 1 l 1,-1 h 1 v 1 c -1,0 0,3 1,6 l 2,5 v -1 h 1 v 1 c -1,0 0,5 1,11 2,5 3,12 4,15 v 5 h 1 l 1,-1 -1,5 v 4 h 1 1 v 14 13 h -1 -1 v 5 l 1,4 h -1 -1 v 3 l 1,3 h -1 -1 v 2 l 1,3 -1,-1 h -1 v 4 c -1,1 -1,4 0,4 v 2 -1 l -1,-1 -3,7 c -1,4 -4,12 -6,17 -3,5 -5,9 -4,9 v 1 h -1 v -1 l -4,6 c -4,5 -5,8 -5,12 l -1,6 h 1 1 l -1,5 v 5 h 1 l 1,-1 v 18 17 h -1 -1 v 6 l 1,6 h -1 -1 l -2,11 c -1,6 -1,12 -1,13 v 3 l -1,-1 h -1 v 2 l 1,3 -1,-1 h -1 v 2 2 l 1,-1 h 2 l -2,1 c -1,1 -2,3 -2,5 v 3 l -1,-1 v 0 l -3,9 c -2,4 -3,9 -2,9 v 2 -1 l -1,-1 -5,11 c -2,6 -4,11 -3,11 v 1 h -1 l -1,-1 -1,3 c 0,2 -1,4 0,4 v 1 l -1,-1 h -1 v 1 l 1,2 h -1 l -1,-1 -1,3 c -1,2 -1,3 -1,4 l 1,1 h -1 c -1,0 -4,6 -4,7 0,1 0,2 -1,3 0,1 -1,2 -1,2 0,1 0,2 -1,3 -1,2 -2,3 -2,4 l 1,2 h -1 -1 v 1 l 1,2 h -2 l -1,1 v 2 l 1,2 h -1 -1 v 2 l 1,1 h -1 -1 v 2 l 1,1 h -1 -1 v 2 l 1,1 h -1 l -1,-1 v 3 c -1,2 -1,3 0,4 v 1 h -1 l -1,-1 -1,3 c 0,2 0,4 1,5 v 1 h -1 l -1,-1 -1,7 c -1,4 -1,8 -1,8 l 1,2 h -1 -1 v 5 l 1,5 h -1 -1 l 1,7 c 0,6 0,8 -1,9 -1,2 -1,6 -1,17 l 1,15 h -1 -1 v 17 l 1,17 -1,-1 h -1 v 12 l 1,13 h -1 -1 v 9 l 1,9 h -1 -1 v 7 l 1,6 h -1 l -1,1 v 9 9 h -1 -1 l -1,9 c -1,6 -1,10 -1,11 l 1,1 h -1 -1 l -1,7 c 0,4 -1,9 -2,11 v 3 l 5,3 c 4,2 7,3 7,2 h 2 l -1,1 h -1 l 2,2 2,1 1,-1 h 1 v 1 l -1,1 h 1 c 1,0 2,0 3,0 h 1 l -1,1 h -1 l 3,3 3,2 1,-1 h 1 v 1 l -1,1 2,1 c 1,1 3,1 3,1 h 1 v 1 c 0,0 4,4 8,9 l 9,9 v 0 0 l 1,2 2,2 1,-1 v 0 1 c -1,0 1,3 3,6 l 4,6 1,-1 v 0 1 c -1,0 0,3 2,6 l 3,6 v -1 h 1 v 1 c 0,1 0,2 0,3 v 2 h 1 l 1,-1 v 1 c 0,1 0,3 0,4 v 2 l 1,-1 h 1 v 1 c -1,0 0,3 0,6 l 1,5 h 1 1 v 17 c 0,9 0,17 1,17 v 1 h -1 -1 l -1,6 c 0,4 -1,8 -2,9 v 3 l 1,-1 h 1 v 1 l -1,1 -1,-1 h -1 v 2 l 1,2 -1,-1 h -1 v 2 l 1,2 h -1 c -2,1 -6,12 -5,13 v 1 h -1 l -1,-1 -2,4 c -1,3 -1,5 -1,5 v 1 h -1 l -1,-1 v 1 c -1,1 -3,5 -6,8.99996 l -6,8 h 1 l 2,1 h -2 c -2,0 -17,15 -17,17 v 2 l -1,-2 v -1 l -3,2 -3,2 v 1 l 1,1 h -1 c -1,0 -3,0 -4,1 l -3,2 1,1 v 1 h -1 c 0,0 -1,0 -2,0 h -1 v 1 l 1,1 h -1 c -1,0 -4,1 -8,3 -3,2 -8,5 -12,7 l -6,2 1,1 v 1 h -1 c 0,-1 -3,0 -5,1 l -5,2 h 1 l 1,1 h -2 c 0,-1 -3,0 -6,1 l -5,1 v 1 1 h -1 c 0,-1 -6,0 -11,1 -6,2 -13,3 -16,4 h -6 l 1,1 v 1 h -1 c 0,-1 -12,0 -26,0 l -25,1 z m 278,-687.99996 c -1,-1 -3,-3 -5,-4 -2,-1 -5,-2 -5,-1 h -1 v 0 l 1,-1 -2,-2 c -1,0 -3,-1 -3,0 h -1 v 0 l 1,-1 -2,-2 -2,-1 -1,1 h -1 v -1 l 1,-1 -2,-1 c -1,0 -3,0 -3,0 h -1 v -1 l 1,-1 -4,-2 c -3,-1 -5,-2 -5,-2 h -1 v -1 -1 l -3,-1 -2,-1 v -1 c 0,0 0,-2 -1,-3 v -2 h -1 -1 v -1 -2 h 1 c 0,0 1,-2 2,-3 1,-3 3,-4 4,-5 h 3 v -1 -1 h 1 c 1,1 4,2 7,3 l 5,3 1,-1 v 0 1 l -1,1 2,1 c 1,0 3,0 3,0 h 1 v 1 l -1,1 5,2 5,3 v -1 0 l 2,2 1,2 h 2 l 1,-1 v 1 l -1,1 4,2 c 3,1 5,2 5,2 0,0 1,1 2,2 l 2,2 v 0 h -1 l 1,2 c 2,3 2,5 1,7 -1,0 -2,2 -3,3 -1,2 -3,3 -4,3 h -1 v 1 1 h -2 c -1,0 -3,-1 -4,-1 z m -12,-85 c -7,0 -12,-1 -13,-2 -1,-1 -3,-3 -3,-6 l -2,-4 h 1 l 1,-1 v -2 -2 l 1,1 v 0 l 2,-2 c 1,-1 4,-2 7,-2 h 5 v -1 h -1 6 5 v -1 0 h 6 6 v -1 -1 l 9,1 c 6,0 9,1 11,2 1,1 3,1 3,1 h 1 v 3 c 0,1 0,3 1,3 l 1,1 -2,3 c -2,5 -5,7 -7,8 -6,0 -25,1 -25,2 0,0 -6,0 -13,0 z m -30,-67 c -6,-4 -6,-11 -1,-17 l 2,-2 h 1 c 0,0 2,-2 5,-3 l 4,-4 h -1 v -1 h 1 c 0,0 2,0 3,-1 l 2,-1 -1,-1 v -1 0 l 1,1 2,-1 2,-1 -1,-1 v -1 h 1 c 0,0 1,0 2,0 l 2,-1 -1,-1 v -1 h 1 c 0,0 1,0 2,0 l 2,-1 -1,-1 v -1 0 l 1,1 5,-3 c 4,-2 4,-2 8,0 5,2 6,5 6,11 v 5 h -1 c 0,0 -2,1 -3,2 l -2,2 1,-1 h 1 v 1 l -1,1 h -1 v -1 l -5,3 -4,3 1,1 v 1 h -1 l -1,-1 -4,3 -3,3 v 1 1 h -1 l -1,-1 -2,2 -2,1 1,1 v 1 h -1 c 0,-1 -3,0 -5,2 -5,4 -10,4 -13,1 z m -79,-80 v -1 h 1 1 v 1 c -1,1 -1,1 -2,1 v 0 z"
     id="path2" />
  <path
     fill="#e6563c"
     stroke="none"
     d="m 555.39388,1043.1384 c -41,-3 -81,-19 -106,-43 -33,-33.99996 -41,-75.99996 -22,-122.99996 5,-11 17,-32 18,-32 h 2 l 2,6 c 4,11 13,30 20,41 6,10 6,10 5,13 -5,7 -11,20 -12,27 -3,11 -1,22 5,28 3,2 4,3 8,3 4,0 5,-1 8,-4 3,-3 3,-4 3,-8 0,-13 0,-16 2,-21 1,-3 3,-5 3,-5 1,0 3,3 6,6 15,16 33,25 57,29 3,1 4,2 6,6 3,6 12,15 18,18 6,3 15,5 22,5 6,0 19,-3 20,-4 0,-2 3,-1 8,1 10,4 23,1 29,-7 4,-6 6,-12 6,-24 0,-17 -4,-32 -14,-47 -7,-9 -16,-18 -23,-22 -5,-3 -8,-3 -13,-3 -7,-1 -11,1 -19,7 -7,6 -13,9 -21,9 -7,0 -12,-2 -16,-6 -1,-3 -2,-4 -2,-9 0,-16 22,-37 46,-44 10,-2 35,-2 45,1 34,9 59,33 70,65 2,7 2,11 3,23 0,12 0,16 -2,23 -7,29 -32,56.99996 -65,73.99996 -10,5 -29,11 -42,14 -11,2 -34,4 -40,4 -1,0 -8,-1 -15,-1 z m -416,-71.99996 c -10,-4 -20,-13 -28,-26 -18.000003,-27 -29.000003,-74 -33.000003,-138 -1,-22 -1,-77 1,-120 3,-48 2,-63 -2,-87 -4,-17 -9,-33 -20,-57 -13,-30 -19,-45 -23,-58 -18,-62 -12,-124 16,-165 6,-10 18,-23 28,-30 26.000003,-20 53.000003,-29 92.000003,-30 31,-1 60,4 97,16 52,18 75,23 103,22 19,-1 28,-3 54,-12 10,-3 19,-6 20,-6 h 2 l 1,13 c 1,15 3,24 8,38 7,22 19,41 36,58 26,26 57,42 94,49 12,2 40,2 52,0 26,-4 50,-13 69,-27 3,-2 7,-4 7,-4 h 1 v 17 c -1,18 -3,36 -8,53 -4,16 -9,27 -20,51 -15,32 -23,56 -26,79 -2,12 -4,39 -4,63 0,47 -4,102 -11,133 l -2,9 h -19 c -20,1 -23,1 -39,7 -22,10 -46,33 -53,52 -3,9 -3,20 0,27 4,8 12,17 19,20 19,10 39,7 60,-8 l 4,-3 6,6 c 11,11 17,25 17,40 v 7 h -1 c 0,0 -3,-1 -6,-2 -5,-3 -10,-2 -16,2 -10,6 -20,7 -27,2 -3,-3 -8,-12 -8,-15 0,-3 -5,-9 -9,-10 -1,0 -7,-1 -13,-1 -13,-1 -19,-3 -29,-10 -13,-9 -26,-25 -39,-46 -17,-30 -23,-47 -39,-113 -2,-11 -6,-24 -7,-29 -11,-32 -30,-50 -56,-57 -11,-3 -29,-2 -38,1 -24,8 -43,27 -59,57 -6,11 -11,24 -31,71 -33,82 -46,109 -63,132 -8,11 -20,21 -29,26 -6,3 -8,3 -16,4 -6,0 -11,0 -13,-1 z m 379,-147 c 4,-2 7,-8 7,-15 0,-6 2,-14 6,-21 4,-8 2,-14 -3,-18 -8,-4 -15,-3 -20,3 -4,4 -7,15 -9,26 -2,12 1,22 8,25 4,2 7,2 11,0 z m 82,-412 c -7,-3 -24,-18 -32,-30 -16,-22 -19,-48 -11,-77 5,-16 19,-42 31,-55 l 4,-5 h 1 c 0,1 1,4 2,8 4,15 12,29 28,47 12,15 17,22 20,28 9,20 7,45 -5,63 -5,8 -14,17 -19,20 -4,1 -16,3 -19,1 z m 54,-4 c 0,0 1,-2 3,-5 14,-20 19,-50 11,-73 -5,-16 -10,-23 -26,-42 -13,-16 -21,-28 -25,-41 -1,-3 -1,-11 -2,-18 0,-15 -1,-18 -6,-20 -7,-4 -11,-2 -26,13 -50,51 -67,111 -43,158 2,3 6,10 9,14 l 5,8 v 1 h -1 l -6,-3 c -39,-18 -65,-51 -75,-93 -2,-10 -2,-39 0,-49 5,-26 14,-48 30,-71 9,-14 18,-25 36,-45 17,-19 26,-32 33,-44.000001 9,-18 14,-34 14,-53 v -10 h 1 c 1,0 13,10 22,18 29,30 43,60.000001 43,95.000001 0,10 -1,18 -4,43 -1,5 -2,14 -2,19 0,7 0,9 2,12 4,5 7,7 13,8 10,1 13,-2 24,-20 9,-14 15,-23 23,-32 l 4,-4 1,1 c 1,1 1,3 1,5 0,5 5,22 11,36 14,37 17,48 18,72 1,35 -10,65 -32,89 -10,10 -18,16 -30,22 -8,4 -22,10 -25,10 h -1 z"
     id="path3" />
  <path
     fill="#fb9f4c"
     stroke="none"
     d="m 139.39388,971.13844 c -10,-4 -20,-13 -28,-26 -18.000003,-27 -29.000003,-74 -33.000003,-138 -1,-22 -1,-77 1,-120 3,-48 2,-63 -2,-87 -4,-17 -9,-33 -20,-57 -13,-30 -19,-45 -23,-58 -18,-62 -12,-124 16,-165 6,-10 18,-23 28,-30 26.000003,-20 53.000003,-29 92.000003,-30 31,-1 60,4 97,16 52,18 75,23 103,22 19,-1 28,-3 54,-12 10,-3 19,-6 20,-6 h 2 l 1,13 c 1,15 3,24 8,38 7,22 19,41 36,58 26,26 57,42 94,49 12,2 40,2 52,0 26,-4 50,-13 69,-27 3,-2 7,-4 7,-4 h 1 v 17 c -1,18 -3,36 -8,53 -4,16 -9,27 -20,51 -15,32 -23,56 -26,79 -2,12 -4,39 -4,63 0,47 -4,102 -11,133 l -2,9 h -19 c -20,1 -23,1 -39,7 -22,10 -46,33 -53,52 -3,9 -3,20 0,27 4,8 12,17 19,20 19,10 39,7 60,-8 l 4,-3 6,6 c 11,11 17,25 17,40 v 7 h -1 c 0,0 -3,-1 -6,-2 -5,-3 -10,-2 -16,2 -10,6 -20,7 -27,2 -3,-3 -8,-12 -8,-15 0,-3 -5,-9 -9,-10 -1,0 -7,-1 -13,-1 -13,-1 -19,-3 -29,-10 -13,-9 -26,-25 -39,-46 -17,-30 -23,-47 -39,-113 -2,-11 -6,-24 -7,-29 -11,-32 -30,-50 -56,-57 -11,-3 -29,-2 -38,1 -24,8 -43,27 -59,57 -6,11 -11,24 -31,71 -33,82 -46,109 -63,132 -8,11 -20,21 -29,26 -6,3 -8,3 -16,4 -6,0 -11,0 -13,-1 z m 379,-147 c 4,-2 7,-8 7,-15 0,-6 2,-14 6,-21 4,-8 2,-14 -3,-18 -8,-4 -15,-3 -20,3 -4,4 -7,15 -9,26 -2,12 1,22 8,25 4,2 7,2 11,0 z m 79,-414 c -7,-4 -21,-17 -27,-26 -6,-8 -12,-21 -15,-30 -3,-10 -2,-32 1,-44 6,-20 18,-43 33,-61 l 3,-3 v 0 c 1,0 1,3 2,7 4,15 13,29 31,52 18,21 23,32 23,50 0,18 -6,33 -19,46 -8,9 -12,11 -21,11 -5,1 -6,1 -11,-2 z"
     id="path4" />
  <path
     fill="#a5a4a1"
     stroke="none"
     d="m 139.39388,971.13844 c -10,-4 -20,-13 -28,-26 -18.000003,-27 -29.000003,-74 -33.000003,-138 -1,-22 -1,-77 1,-120 3,-48 2,-63 -2,-87 -4,-17 -9,-33 -20,-57 -13,-30 -19,-45 -23,-58 -18,-62 -12,-124 16,-165 6,-10 18,-23 28,-30 26.000003,-20 53.000003,-29 92.000003,-30 31,-1 60,4 97,16 52,18 75,23 103,22 19,-1 28,-3 54,-12 10,-3 19,-6 20,-6 h 2 l 1,13 c 1,15 3,24 8,38 7,22 19,41 36,58 26,26 57,42 94,49 12,2 40,2 52,0 26,-4 50,-13 69,-27 3,-2 7,-4 7,-4 h 1 v 17 c -1,18 -3,36 -8,53 -4,16 -9,27 -20,51 -15,32 -23,56 -26,79 -2,12 -4,39 -4,63 0,47 -4,102 -11,133 l -2,9 h -19 c -20,1 -23,1 -39,7 -22,10 -46,33 -53,52 -3,9 -3,20 0,27 4,8 12,17 19,20 19,10 39,7 60,-8 l 4,-3 6,6 c 11,11 17,25 17,40 v 7 h -1 c 0,0 -3,-1 -6,-2 -5,-3 -10,-2 -16,2 -10,6 -20,7 -27,2 -3,-3 -8,-12 -8,-15 0,-3 -5,-9 -9,-10 -1,0 -7,-1 -13,-1 -13,-1 -19,-3 -29,-10 -13,-9 -26,-25 -39,-46 -17,-30 -23,-47 -39,-113 -2,-11 -6,-24 -7,-29 -11,-32 -30,-50 -56,-57 -11,-3 -29,-2 -38,1 -24,8 -43,27 -59,57 -6,11 -11,24 -31,71 -33,82 -46,109 -63,132 -8,11 -20,21 -29,26 -6,3 -8,3 -16,4 -6,0 -11,0 -13,-1 z m 379,-147 c 4,-2 7,-8 7,-15 0,-6 2,-14 6,-21 4,-8 2,-14 -3,-18 -8,-4 -15,-3 -20,3 -4,4 -7,15 -9,26 -2,12 1,22 8,25 4,2 7,2 11,0 z"
     id="path5" />
  <path
     fill="#ff00ff"
     stroke="none"
     d="m 138.39388,969.13844 c -24,-9 -44.000003,-47 -53.000003,-106 -7,-46 -8,-90 -4,-171 1,-38 1,-71 -1,-84 -5,-25 -10,-41 -27,-79 -6,-12 -12,-28 -14,-35 -23,-68 -17,-136 17,-180 10,-15 27,-28 46.000003,-37 31,-15 69,-20 112,-13 21,4 32,7 56,15 25,8 46,14 62,17 10,2 15,2 33,2 25,0 29,0 58,-10 12,-4 21,-7 21,-7 h 1 v 10 c 2,21 7,40 17,60 22,45 67,78 121,88 12,2 44,2 55,0 26,-4 49,-13 68,-26 l 7,-5 v 9 c 0,24 -6,57 -15,80 -2,5 -7,18 -12,29 -25,54 -31,80 -31,134 0,52 -4,109 -11,143 l -2,9 -6,-1 c -24,-2 -41,1 -60,11 -10,6 -18,12 -28,23 -23,23 -26,47 -9,65 12,14 33,19 52,12 4,-2 11,-5 16,-8 4,-3 8,-5 8,-5 2,0 9,8 14,15 5,9 7,16 8,26 v 9 l -5,-2 c -6,-3 -11,-2 -19,3 -6,3 -7,3 -13,3 -5,0 -7,0 -10,-2 -4,-3 -7,-7 -9,-14 -1,-5 -4,-9 -9,-11 -1,-1 -7,-1 -13,-2 -18,-1 -29,-6 -43,-21 -11,-11 -23,-29 -33,-49 -12,-25 -16,-39 -31,-98 -8,-38 -15,-53 -32,-69 -15,-15 -39,-23 -61,-19 -17,3 -28,10 -43,25 -20,20 -25,28 -62,120 -25,61 -38,87 -50,107 -14,21 -24,31 -38,37 -8,4 -20,5 -28,2 z m 382,-145 c 4,-3 6,-8 6,-14 0,-6 2,-15 5,-21 4,-7 4,-13 0,-17 -4,-5 -9,-6 -15,-6 -5,1 -9,5 -12,12 -3,7 -7,22 -7,28 0,16 13,26 23,18 z"
     id="path6" />
  <path
     fill="#00ffff"
     stroke="none"
     d="m 138.39388,969.13844 c -24,-9 -44.000003,-47 -53.000003,-106 -7,-46 -8,-90 -4,-171 1,-38 1,-71 -1,-84 -5,-25 -10,-41 -27,-79 -6,-12 -12,-28 -14,-35 -23,-68 -17,-136 17,-180 10,-15 27,-28 46.000003,-37 31,-15 69,-20 112,-13 21,4 32,7 56,15 25,8 46,14 62,17 10,2 15,2 33,2 25,0 29,0 58,-10 12,-4 21,-7 21,-7 h 1 v 10 c 2,21 7,40 17,60 22,45 67,78 121,88 12,2 44,2 55,0 26,-4 49,-13 68,-26 l 7,-5 v 9 c 0,24 -6,57 -15,80 -2,5 -7,18 -12,29 -25,54 -31,80 -31,134 0,52 -4,109 -11,143 l -2,9 -6,-1 c -24,-2 -41,1 -60,11 -10,6 -18,12 -28,23 -23,23 -26,47 -9,65 12,14 33,19 52,12 4,-2 11,-5 16,-8 4,-3 8,-5 8,-5 2,0 9,8 14,15 5,9 7,16 8,26 v 9 l -5,-2 c -6,-3 -11,-2 -19,3 -6,3 -7,3 -13,3 -5,0 -7,0 -10,-2 -4,-3 -7,-7 -9,-14 -1,-5 -4,-9 -9,-11 -1,-1 -7,-1 -13,-2 -18,-1 -29,-6 -43,-21 -11,-11 -23,-29 -33,-49 -12,-25 -16,-39 -31,-98 -8,-38 -15,-53 -32,-69 -15,-15 -39,-23 -61,-19 -17,3 -28,10 -43,25 -20,20 -25,28 -62,120 -25,61 -38,87 -50,107 -14,21 -24,31 -38,37 -8,4 -20,5 -28,2 z m 382,-145 c 4,-3 6,-8 6,-14 0,-6 2,-15 5,-21 4,-7 4,-13 0,-17 -4,-5 -9,-6 -15,-6 -5,1 -9,5 -12,12 -3,7 -7,22 -7,28 0,16 13,26 23,18 z"
     id="path7" />
  <path
     fill="#fffffc"
     stroke="none"
     d="m 138.39388,969.13844 c -24,-9 -44.000003,-47 -53.000003,-106 -7,-46 -8,-90 -4,-171 1,-38 1,-71 -1,-84 -5,-25 -10,-41 -27,-79 -6,-12 -12,-28 -14,-35 -23,-68 -17,-136 17,-180 10,-15 27,-28 46.000003,-37 31,-15 69,-20 112,-13 21,4 32,7 56,15 25,8 46,14 62,17 10,2 15,2 33,2 25,0 29,0 58,-10 12,-4 21,-7 21,-7 h 1 v 10 c 2,21 7,40 17,60 22,45 67,78 121,88 12,2 44,2 55,0 26,-4 49,-13 68,-26 l 7,-5 v 9 c 0,24 -6,57 -15,80 -2,5 -7,18 -12,29 -25,54 -31,80 -31,134 0,52 -4,109 -11,143 l -2,9 -6,-1 c -24,-2 -41,1 -60,11 -10,6 -18,12 -28,23 -23,23 -26,47 -9,65 12,14 33,19 52,12 4,-2 11,-5 16,-8 4,-3 8,-5 8,-5 2,0 9,8 14,15 5,9 7,16 8,26 v 9 l -5,-2 c -6,-3 -11,-2 -19,3 -6,3 -7,3 -13,3 -5,0 -7,0 -10,-2 -4,-3 -7,-7 -9,-14 -1,-5 -4,-9 -9,-11 -1,-1 -7,-1 -13,-2 -18,-1 -29,-6 -43,-21 -11,-11 -23,-29 -33,-49 -12,-25 -16,-39 -31,-98 -8,-38 -15,-53 -32,-69 -15,-15 -39,-23 -61,-19 -17,3 -28,10 -43,25 -20,20 -25,28 -62,120 -25,61 -38,87 -50,107 -14,21 -24,31 -38,37 -8,4 -20,5 -28,2 z m 382,-145 c 4,-3 6,-8 6,-14 0,-6 2,-15 5,-21 4,-7 4,-13 0,-17 -4,-5 -9,-6 -15,-6 -5,1 -9,5 -12,12 -3,7 -7,22 -7,28 0,16 13,26 23,18 z"
     id="path8" />
  <path
     style="fill:#fff6d5;fill-opacity:1;stroke-width:1.8893"
     d="M 134.11147,965.69584 C 113.19213,954.64339 96.009472,918.49256 87.242752,867.08801 80.222047,825.92141 78.905347,790.31674 81.505627,711.95066 85.068914,604.56206 84.262642,599.05151 54.918899,530.24176 32.798954,478.37151 25.567079,445.68944 27.326692,405.54803 30.737444,327.74007 74.155987,276.31139 146.20491,264.73839 c 18.37603,-2.95169 63.62085,-1.37395 80.76092,2.81621 6.75425,1.65119 25.88339,7.18783 42.50923,12.30366 58.26641,17.92879 58.64245,17.99973 95.40959,17.99973 h 33.06273 l 22.91083,-7.75803 22.91081,-7.75804 1.264,12.48128 c 6.78137,66.96279 53.49874,121.2897 121.21107,140.95442 14.54418,4.22385 20.48035,4.89774 43.30477,4.91606 38.68984,0.0311 66.71854,-7.18772 92.87524,-23.91997 l 10.68323,-6.83399 -1.16288,17.6418 c -2.18685,33.17472 -9.47865,59.50909 -28.16445,101.71559 -24.60322,55.57228 -27.52312,70.24918 -29.88157,150.19925 -1.60035,54.25125 -4.4733,89.84385 -9.66437,119.73075 l -2.09136,12.04065 -10.06677,-1.18312 c -28.62012,-3.36375 -57.04864,7.52377 -80.35759,30.77535 -22.39884,22.34362 -28.78562,39.67447 -21.05842,57.1431 12.12608,27.41302 41.90098,35.37577 72.3835,19.35765 l 13.68241,-7.18988 5.5952,6.52253 c 7.52028,8.76667 12.20628,19.53427 13.82509,31.76752 1.30241,9.84233 1.22886,10.07078 -2.58533,8.0295 -5.6996,-3.05032 -10.90947,-2.59725 -19.28868,1.67753 -9.27807,4.73332 -21.02193,4.9545 -25.07767,0.47235 -1.64545,-1.81845 -4.66237,-7.20405 -6.70427,-11.96798 -4.23624,-9.88342 -8.37923,-12.1266 -25.69235,-13.9107 -15.47652,-1.59487 -25.89602,-6.7023 -37.59237,-18.42712 -12.46222,-12.49253 -23.28224,-28.35458 -34.21398,-50.15753 -10.9306,-21.80062 -16.00492,-37.17592 -28.40809,-86.07735 -12.47393,-49.18042 -15.70873,-57.94425 -26.40036,-71.52472 -16.60008,-21.08535 -37.28399,-30.82808 -62.66892,-29.51873 -21.55439,1.11173 -33.24136,7.08533 -52.69587,26.93468 -20.56283,20.98027 -23.78648,27.29152 -65.17205,127.59412 -27.0895,65.65448 -47.63199,104.3022 -64.29894,120.96915 -15.49524,15.49523 -36.5565,20.89733 -51.23577,13.14173 z M 519.67225,825.98921 c 4.16961,-2.23147 7.03898,-9.48555 8.44869,-21.35932 0.58815,-4.95375 2.35889,-11.50043 3.93498,-14.54828 4.43621,-8.57865 3.66239,-16.164 -2.11241,-20.70645 -6.78891,-5.34015 -15.93854,-5.08267 -21.27592,0.59865 -5.50698,5.86193 -11.53202,25.38308 -11.53202,37.36388 0,7.89637 0.89496,10.3185 5.52257,14.94607 5.69282,5.6928 11.10021,6.87053 17.01411,3.70545 z"
     id="path9" />
</svg>
