<?xml version="1.0" encoding="UTF-8" standalone="no"?>
<svg
   version="1.0"
   width="816pt"
   height="907.09015pt"
   viewBox="0 0 816 907.09015"
   preserveAspectRatio="xMidYMid"
   id="svg8"
   sodipodi:docname="perio.svg"
   inkscape:version="1.4 (e7c3feb1, 2024-10-09)"
   xmlns:inkscape="http://www.inkscape.org/namespaces/inkscape"
   xmlns:sodipodi="http://sodipodi.sourceforge.net/DTD/sodipodi-0.dtd"
   xmlns="http://www.w3.org/2000/svg"
   xmlns:svg="http://www.w3.org/2000/svg">
  <defs
     id="defs8" />
  <sodipodi:namedview
     id="namedview8"
     pagecolor="#ffffff"
     bordercolor="#000000"
     borderopacity="0.25"
     inkscape:showpageshadow="2"
     inkscape:pageopacity="0.0"
     inkscape:pagecheckerboard="0"
     inkscape:deskcolor="#d1d1d1"
     inkscape:document-units="pt"
     showgrid="false"
     inkscape:zoom="0.39697266"
     inkscape:cx="544.11808"
     inkscape:cy="656.21648"
     inkscape:window-width="1200"
     inkscape:window-height="990"
     inkscape:window-x="0"
     inkscape:window-y="25"
     inkscape:window-maximized="0"
     inkscape:current-layer="svg8" />
  <path
     fill="#0b0b0b"
     stroke="none"
     d="m 387,906 c -15,-4 -33,-14 -46,-26 -11,-12 -19,-22 -34,-45 -13,-22 -17,-27 -26,-37 -9,-9 -19,-16 -29,-19 -10,-3 -24,-3 -35,1 -15,6 -19,9 -52,43 -34,34 -42,40 -56,47 -20,11 -33,13 -70,13 -23,0 -26,0 -29,-1 -6,-3 -9,-8 -10,-14 0,-7 1,-12 5,-16 5,-4 9,-5 25,-5 31,0 46,-3 60,-10 15,-7 22,-13 61,-54 17,-17 26,-24 39,-31 15,-8 30,-11 49,-11 23,0 40,6 59,21 12,10 22,23 40,51 7,11 15,23 18,27 19,26 43,35 68,27 10,-3 18,-8 27,-18 8,-8 10,-11 31,-43 6,-9 13,-20 17,-24 15,-19 33,-31 54,-38 8,-2 10,-2 27,-2 22,-1 28,1 45,9 15,8 24,15 43,35 36,39 47,47 66,55 10,4 17,4 51,6 22,1 23,1 28,8 2,2 2,5 3,9 0,7 -2,12 -7,16 -4,3 -4,3 -34,3 -38,-1 -46,-2 -66,-12 -18,-9 -32,-20 -57,-48 -10,-10 -22,-23 -28,-27 -15,-13 -30,-19 -45,-19 -16,0 -27,5 -41,18 -9,8 -16,17 -31,41 -6,11 -14,22 -16,26 -16,21 -40,38 -61,43 -10,2 -33,3 -43,1 z m 43,-169 c -18,-5 -34,-17 -45,-33 -5,-6 -11,-20 -13,-29 -6,-19 -6,-23 -7,-81 -1,-60 -1,-63 -7,-75 -3,-7 -11,-15 -17,-17 -4,-2 -7,-2 -13,-2 -10,1 -15,3 -25,11 -10,8 -16,16 -35,46 -26,38 -39,54 -57,71 -31,29 -58,39 -87,33 -16,-3 -28,-10 -41,-22 -22,-23 -30,-51 -27,-98 2,-33 7,-58 22,-114 20,-70 22,-88 24,-164 1,-65 3,-83 9,-110 5,-24 12,-47 23,-68 13,-27 28,-47 47,-61 10,-7 31,-18 44,-22 8,-2 9,-2 35,-2 24,0 27,0 37,2 16,3 30,8 45,15 14,7 23,14 49,33 24,17 34,24 49,32 34,17 61,23 110,25 63,4 81,7 109,21 18,9 40,27 51,42 25,33 33,71 24,116 -7,39 -23,70 -67,139 -42,64 -48,77 -74,146 -22,57 -39,91 -58,116 -19,26 -44,44 -68,50 -8,3 -30,2 -37,0 z"
     id="path1" />
  <path
     fill="#4f4f4f"
     stroke="none"
     d="m 766,847 -2,-1 h 8 9 v 1 c -1,1 -11,1 -15,0 z M 49,846 c 1,0 3,0 4,0 l 2,1 h -4 -4 z m 705,0 -1,-1 h 2 2 v 1 c -1,1 -2,1 -2,1 0,0 -1,0 -1,-1 z M 166,821 c 0,-1 2,-2 2,-2 v 0 l -1,2 c -1,1 -3,2 -3,2 v 0 z m -12,-41 c 1,-2 3,-3 3,-3 v 0 l -2,3 c -1,1 -3,2 -3,2 v 0 z m 284,-76 c -7,-2 -13,-5 -20,-12 -6,-6 -9,-12 -13,-23 -6,-17 -6,-23 -7,-79 0,-54 0,-61 -5,-76 -8,-24 -24,-40 -45,-47 -8,-2 -24,-2 -32,0 -8,2 -22,8 -30,15 -15,11 -29,28 -46,54 -21,33 -32,48 -47,63 -33,33 -63,39 -85,17 -15,-15 -21,-40 -19,-72 3,-34 8,-62 23,-113 11,-39 18,-73 20,-95 1,-7 2,-28 3,-48 3,-91 3,-102 8,-126 6,-30 18,-61 32,-83 8,-11 26,-28 35,-34 18,-10 35,-14 58,-13 15,1 25,3 40,8 18,6 33,14 56,32 47,37 82,54 125,63 19,5 35,6 67,7 42,1 60,4 80,13 18,8 41,26 51,41 16,24 21,54 12,90 -3,17 -8,29 -18,50 -10,21 -15,28 -36,61 -49,74 -55,87 -89,175 -11,28 -16,40 -24,56 -15,29 -30,50 -47,63 -16,13 -32,18 -47,13 z M 364,552 v -5 l 1,1 c 1,2 1,8 0,9 h -1 z m -36,-53 1,-1 2,1 3,1 h -4 -3 z M 102,244 v -3 l 1,1 c 0,1 0,3 0,4 l -1,2 z m 418,-138 -1,-1 h 2 1 v 1 c -1,1 -1,1 -1,1 -1,0 -1,0 -1,-1 z m 10,0 c 0,0 2,0 2,0 l 2,1 h -3 -2 z"
     id="path2" />
  <path
     fill="#0000ff"
     stroke="none"
     d="m 440,704 c -16,-4 -29,-18 -35,-37 -5,-17 -5,-23 -6,-78 0,-56 0,-60 -6,-77 -7,-23 -23,-39 -44,-45 -10,-3 -26,-3 -35,-1 -9,3 -21,9 -30,16 -15,11 -28,27 -48,59 -17,26 -28,42 -43,57 -15,14 -28,23 -39,27 -5,2 -9,3 -16,3 -9,0 -10,-1 -17,-4 -14,-7 -25,-22 -29,-42 -5,-22 -1,-62 8,-105 2,-8 8,-30 13,-49 21,-74 22,-86 24,-169 1,-60 3,-78 8,-102 11,-50 33,-89 61,-108 17,-11 32,-16 57,-15 24,0 40,3 62,14 13,6 21,12 41,27 35,27 64,44 96,54 27,9 50,13 93,14 47,1 64,5 87,16 13,7 23,15 34,26 18,19 26,38 26,67 0,22 -4,41 -13,63 -9,23 -20,44 -49,88 -42,63 -53,86 -80,157 -13,34 -21,52 -28,67 -28,55 -62,84 -92,77 z"
     id="path3" />
  <path
     fill="#00ff00"
     stroke="none"
     d="m 440,704 c -16,-4 -29,-18 -35,-37 -5,-17 -5,-23 -6,-78 0,-56 0,-60 -6,-77 -7,-23 -23,-39 -44,-45 -10,-3 -26,-3 -35,-1 -9,3 -21,9 -30,16 -15,11 -28,27 -48,59 -17,26 -28,42 -43,57 -15,14 -28,23 -39,27 -5,2 -9,3 -16,3 -9,0 -10,-1 -17,-4 -14,-7 -25,-22 -29,-42 -5,-22 -1,-62 8,-105 2,-8 8,-30 13,-49 21,-74 22,-86 24,-169 1,-60 3,-78 8,-102 11,-50 33,-89 61,-108 17,-11 32,-16 57,-15 24,0 40,3 62,14 13,6 21,12 41,27 35,27 64,44 96,54 27,9 50,13 93,14 47,1 64,5 87,16 13,7 23,15 34,26 18,19 26,38 26,67 0,22 -4,41 -13,63 -9,23 -20,44 -49,88 -42,63 -53,86 -80,157 -13,34 -21,52 -28,67 -28,55 -62,84 -92,77 z"
     id="path4" />
  <path
     fill="#ff9400"
     stroke="none"
     d="m 440,704 c -16,-4 -29,-18 -35,-37 -5,-17 -5,-23 -6,-78 0,-56 0,-60 -6,-77 -7,-23 -23,-39 -44,-45 -10,-3 -26,-3 -35,-1 -9,3 -21,9 -30,16 -15,11 -28,27 -48,59 -17,26 -28,42 -43,57 -15,14 -28,23 -39,27 -5,2 -9,3 -16,3 -9,0 -10,-1 -17,-4 -14,-7 -25,-22 -29,-42 -5,-22 -1,-62 8,-105 2,-8 8,-30 13,-49 21,-74 22,-86 24,-169 1,-60 3,-78 8,-102 11,-50 33,-89 61,-108 17,-11 32,-16 57,-15 24,0 40,3 62,14 13,6 21,12 41,27 35,27 64,44 96,54 27,9 50,13 93,14 47,1 64,5 87,16 13,7 23,15 34,26 18,19 26,38 26,67 0,22 -4,41 -13,63 -9,23 -20,44 -49,88 -42,63 -53,86 -80,157 -13,34 -21,52 -28,67 -28,55 -62,84 -92,77 z"
     id="path5" />
  <path
     fill="#00ffff"
     stroke="none"
     d="m 440,704 c -16,-4 -29,-18 -35,-37 -5,-17 -5,-23 -6,-78 0,-56 0,-60 -6,-77 -7,-23 -23,-39 -44,-45 -10,-3 -26,-3 -35,-1 -9,3 -21,9 -30,16 -15,11 -28,27 -48,59 -17,26 -28,42 -43,57 -15,14 -28,23 -39,27 -5,2 -9,3 -16,3 -9,0 -10,-1 -17,-4 -14,-7 -25,-22 -29,-42 -5,-22 -1,-62 8,-105 2,-8 8,-30 13,-49 21,-74 22,-86 24,-169 1,-60 3,-78 8,-102 11,-50 33,-89 61,-108 17,-11 32,-16 57,-15 24,0 40,3 62,14 13,6 21,12 41,27 35,27 64,44 96,54 27,9 50,13 93,14 47,1 64,5 87,16 13,7 23,15 34,26 18,19 26,38 26,67 0,22 -4,41 -13,63 -9,23 -20,44 -49,88 -42,63 -53,86 -80,157 -13,34 -21,52 -28,67 -28,55 -62,84 -92,77 z"
     id="path6" />
  <path
     fill="#b3aab3"
     stroke="none"
     d="m 440,704 c -16,-4 -29,-18 -35,-37 -5,-17 -5,-23 -6,-78 0,-56 0,-60 -6,-77 -7,-23 -23,-39 -44,-45 -10,-3 -26,-3 -35,-1 -9,3 -21,9 -30,16 -15,11 -28,27 -48,59 -17,26 -28,42 -43,57 -15,14 -28,23 -39,27 -5,2 -9,3 -16,3 -9,0 -10,-1 -17,-4 -14,-7 -25,-22 -29,-42 -5,-22 -1,-62 8,-105 2,-8 8,-30 13,-49 21,-74 22,-86 24,-169 1,-60 3,-78 8,-102 11,-50 33,-89 61,-108 17,-11 32,-16 57,-15 24,0 40,3 62,14 13,6 21,12 41,27 35,27 64,44 96,54 27,9 50,13 93,14 47,1 64,5 87,16 13,7 23,15 34,26 18,19 26,38 26,67 0,22 -4,41 -13,63 -9,23 -20,44 -49,88 -42,63 -53,86 -80,157 -13,34 -21,52 -28,67 -28,55 -62,84 -92,77 z"
     id="path7" />
  <path
     fill="#ffffff"
     stroke="none"
     d="m 439,702 c -20,-5 -32,-22 -37,-52 -1,-10 -1,-19 -1,-61 -1,-56 -1,-62 -7,-79 -5,-12 -9,-19 -18,-28 -20,-20 -50,-24 -77,-11 -19,10 -40,32 -60,64 -20,31 -32,47 -47,62 -22,23 -43,32 -60,29 -18,-3 -31,-17 -38,-40 -2,-6 -2,-11 -3,-24 -1,-32 5,-68 20,-120 12,-46 19,-75 22,-96 3,-17 4,-36 5,-84 1,-48 2,-68 5,-85 7,-53 30,-102 57,-123 7,-5 20,-12 29,-15 22,-7 55,-6 79,3 19,6 34,15 61,37 40,30 77,49 114,57 22,5 38,7 70,8 34,1 43,2 59,5 40,9 73,37 84,69 4,12 5,20 5,34 0,43 -15,79 -63,152 -18,27 -34,53 -43,71 -11,20 -19,39 -36,82 -22,60 -32,80 -49,104 -8,12 -25,29 -33,34 -14,8 -27,11 -38,7 z"
     id="path8" />
  <path
     style="fill:#fff6d5;fill-opacity:1;stroke-width:1.8893"
     d="m 432.33978,698.11845 c -9.13043,-4.25138 -16.10386,-11.31645 -21.54137,-21.82463 -6.81434,-13.16895 -7.94416,-23.67015 -9.35968,-86.9949 -1.27424,-57.0048 -1.81288,-64.5231 -5.42271,-75.68985 -12.50664,-38.6886 -48.46762,-58.82565 -85.44433,-47.8462 -22.44897,6.66575 -44.65913,27.41913 -70.0184,65.42583 -43.76964,65.5989 -70.33074,90.9213 -98.17536,93.59677 -19.20986,1.84583 -36.64946,-10.93507 -45.464517,-33.31935 -3.662168,-9.29947 -4.199603,-14.1858 -4.186575,-38.06392 0.01717,-31.53203 2.581005,-47.7804 15.054452,-95.40958 14.09417,-53.81785 23.26122,-93.49558 26.2711,-113.70925 1.60751,-10.79565 3.69264,-46.04686 4.74949,-80.29521 1.97546,-64.01635 2.36868,-69.55836 6.86963,-96.82181 7.15564,-43.34363 28.27778,-88.60514 50.46212,-108.132575 26.96693,-23.737245 69.47118,-29.837213 110.76624,-15.89655 20.41422,6.891562 29.05755,11.83557 54.60888,31.236367 52.18692,39.624868 90.72454,57.775168 140.01154,65.942128 9.87159,1.63574 35.37713,3.83549 56.67897,4.88831 41.70509,2.06125 52.15321,3.48963 69.10387,9.4473 35.19259,12.36921 64.12759,43.12031 70.82097,75.26611 1.38765,6.66414 1.84792,18.40919 1.20097,30.64344 -2.22772,42.12644 -13.5081,66.78389 -73.46733,160.59041 -32.24374,50.44547 -45.76504,78.01916 -71.33709,145.47603 -29.36014,77.44958 -58.53597,121.06283 -88.49558,132.28695 -13.0983,4.90718 -21.88297,4.69965 -33.68529,-0.79582 z"
     id="path9" />
</svg>
