<?xml version="1.0" encoding="UTF-8" standalone="no"?>
<svg
   version="1.0"
   width="817.75pt"
   height="812.65686pt"
   viewBox="0 0 817.75 812.65686"
   preserveAspectRatio="xMidYMid"
   id="svg8"
   sodipodi:docname="rootfructure.svg"
   inkscape:version="1.4 (e7c3feb1, 2024-10-09)"
   xmlns:inkscape="http://www.inkscape.org/namespaces/inkscape"
   xmlns:sodipodi="http://sodipodi.sourceforge.net/DTD/sodipodi-0.dtd"
   xmlns="http://www.w3.org/2000/svg"
   xmlns:svg="http://www.w3.org/2000/svg">
  <defs
     id="defs8" />
  <sodipodi:namedview
     id="namedview8"
     pagecolor="#ffffff"
     bordercolor="#000000"
     borderopacity="0.25"
     inkscape:showpageshadow="2"
     inkscape:pageopacity="0.0"
     inkscape:pagecheckerboard="0"
     inkscape:deskcolor="#d1d1d1"
     inkscape:document-units="pt"
     showgrid="false"
     inkscape:zoom="0.39697266"
     inkscape:cx="541.59901"
     inkscape:cy="658.73554"
     inkscape:window-width="1200"
     inkscape:window-height="990"
     inkscape:window-x="0"
     inkscape:window-y="25"
     inkscape:window-maximized="0"
     inkscape:current-layer="svg8" />
  <path
     fill="#12120f"
     stroke="none"
     d="m 169.75,811 c -4,0 -9,-2 -12,-3 l -6,-2 v 1 1 l -1,-2 c 0,0 -4,-2 -7,-4 -19,-10 -38,-28 -52,-51 -3,-5 -6,-9 -6,-9 l -1,-1 v 0 h 1 l -5,-10 c -3,-5 -6,-14 -9,-19 -2,-6 -4,-11 -4,-11 h -1 l 1,-2 v -1 h -1 -1 v -1 c 1,0 0,-3 -1,-6 -6,-19 -17,-69 -18,-88 -1,-12 -4,-41 -4,-44 -1,-3 -1,-7 -1,-11 -1,-4 -1,-10 -1,-14 -1,-15 -2,-23 -2,-39 -1,-9 -1,-16 -2,-16 0,0 0,-8 0,-16 -1,-9 -1,-17 -2,-18 0,-2 0,-5 0,-6 0,-4 -3,-35 -6,-54 -2,-20 -7,-41 -15,-76 -3,-14 -7,-31 -8,-37 -1,-7 -2,-13 -3,-14 0,-1 0,-4 -1,-6 0,-2 0,-10 -1,-16 -1,-13 -1,-45 0,-57 0,-9 2,-21 5,-32 0,-3 1,-7 1,-8 1,-2 1,-3 1,-4 1,-1 3,-6 5,-12 10,-29 28,-58 50,-77 4,-4 8,-7 10,-9 l 2,-2 v 1 h 1 l 3,-3 3,-3 v 1 0 l 6,-4 c 3,-2 6,-4 6,-4 l 1,-1 v 0 1 l 11,-5 c 18,-9 37,-15 56,-17 6,-1 19,-1 37,-1 31,1 41,2 70,10 8,3 16,5 16,4 h 1 v 1 c 1,1 61,19 75,22 6,2 15,3 21,4 14,2 54,1 66,-1 10,-2 36,-9 37,-10 0,0 1,-1 2,-1 3,0 30,-8 31,-9 0,0 1,0 2,0 1,0 13,-4 14,-5 0,0 1,-1 2,-1 1,0 8,-2 16,-4 29,-8 41,-10 75,-10 38,0 59,4 88,19 7,3 14,6 14,6 h 1 v 1 c 0,0 4,3 9,7 5,3 14,11 21,18 l 13,12 h -1 v 1 l 2,2 c 2,1 3,2 3,3 0,0 1,2 3,4 l 3,3 h -1 v 0 l 4,7 c 21,32 32,73 32,120 0,19 -1,36 -4,52 -1,6 -1,12 -1,13 -1,1 -1,3 -1,4 -1,1 -1,2 -1,3 0,0 0,1 0,2 -1,2 -6,24 -6,25 0,0 0,1 0,2 -2,3 -4,14 -4,15 h 1 l -1,1 c -1,2 -3,11 -3,12 h 1 l -1,1 c -1,2 -3,12 -3,13 h 1 l -1,2 c -1,0 -1,2 -1,2 1,1 0,2 0,3 -1,1 -5,27 -7,45 -3,22 -8,87 -7,94 0,1 0,5 0,8 -1,2 -1,12 -2,22 -1,32 -3,54 -7,82 -1,10 -2,19 -1,19 v 1 l -1,1 c -1,0 -1,1 -1,2 0,2 0,3 0,4 -1,1 -2,7 -3,13 -1,6 -3,17 -5,23 -2,6 -3,12 -2,12 v 1 h -1 c 0,0 -2,5 -3,10 -2,5 -5,15 -8,22 -3,7 -5,13 -5,14 0,0 -1,1 -1,1 -1,1 -9,17 -9,17 0,1 -1,2 -2,3 0,1 -4,6 -7,11 -7,10 -36,39 -39,39 0,0 -3,2 -7,4 -7,4 -16,7 -25,10 -5,1 -10,1 -23,1 -16,0 -18,0 -26,-2 -19,-6 -34,-15 -50,-29 l -9,-9 v 0 h 1 l -6,-8 c -4,-4 -8,-10 -10,-14 -3,-3 -5,-6 -5,-6 h -1 v -1 c 0,0 -4,-8 -8,-18 -10,-20 -16,-35 -26,-67 -17,-56 -25,-78 -29,-82 l -2,-2 h 1 v 0 l -4,-6 c -7,-9 -20,-21 -28,-25 -6,-3 -7,-3 -17,-3 -10,0 -11,0 -17,3 -14,7 -30,25 -39,44 -4,10 -16,45 -15,46 v 1 h -1 c -1,1 -10,30 -10,33 0,1 -1,2 -1,2 0,0 -2,6 -4,12 -6,16 -12,33 -18,43 l -4,9 h 1 1 l -2,1 c 0,0 -2,3 -4,7 -3,4 -6,9 -8,13 l -4,6 v 0 0 l -4,5 c -25,28 -46,42 -72,47 -9,1 -29,1 -38,-1 z"
     id="path1" />
  <path
     fill="#51514f"
     stroke="none"
     d="m 173.75,776 c -22,-5 -44,-24 -59,-54 -16,-29 -28,-76 -35,-129 -4,-29 -5,-43 -10,-126 -4,-83 -6,-96 -20,-155 -12,-51 -14,-66 -15,-98 0,-26 1,-39 4,-56 9,-42 32,-78 64,-100 30,-19 64,-27 106,-24 27,2 42,5 105,25 42,12 52,15 77,17 25,2 57,0 81,-6 6,-2 20,-6 31,-10 73,-23 96,-28 133,-26 19,1 33,3 47,8 20,7 37,18 53,33 22,23 35,49 42,82 4,18 5,33 5,57 -1,31 -2,38 -20,116 -10,43 -12,62 -17,157 -4,73 -6,102 -12,136 -8,48 -23,91 -41,116 -7,11 -22,25 -30,30 -9,5 -18,8 -28,9 -5,0 -8,0 -8,-1 -1,-1 9,-23 23,-53 4,-9 7,-16 7,-17 0,0 -1,-3 -2,-6 -3,-5 -25,-43 -27,-47 l -2,-3 9,-8 c 5,-5 20,-20 34,-34 22,-21 25,-25 25,-28 0,-2 -5,-9 -27,-37 -16,-20 -28,-35 -28,-36 0,0 3,-8 7,-18 12,-30 29,-73 29,-74 h -1 l -14,22 c -7,12 -21,34 -31,48 -9,15 -17,28 -17,30 0,1 5,9 13,19 21,28 31,42 31,44 0,1 -17,15 -37,32 -26,22 -37,31 -37,33 0,1 6,12 18,33 18,30 18,30 4,59 -8,17 -15,28 -15,28 -1,0 -4,-2 -7,-4 -9,-7 -18,-17 -26,-29 -12,-19 -19,-35 -34,-84 -14,-45 -22,-66 -28,-78 -14,-31 -35,-52 -58,-60 -37,-13 -75,1 -99,36 -14,21 -21,38 -37,89 -11,35 -17,53 -23,67 -18,41 -44,68 -72,75 -8,2 -23,2 -31,0 z m 199,-219 c 0,-1 1,-1 2,-2 l 2,-1 -2,1 c -1,1 -1,2 -2,2 z m 31,-515 c 3,0 8,0 11,0 l 6,1 h -11 -11 z"
     id="path2" />
  <path
     fill="#0000ff"
     stroke="none"
     d="m 173.75,775 c -14,-3 -25,-10 -37,-23 -10,-10 -17,-20 -24,-35 -14,-29 -25,-72 -31,-120 -4,-31 -5,-44 -10,-129 -5,-82 -8,-101 -19,-147 -9,-36 -13,-61 -16,-80 -1,-16 -1,-50 0,-64 3,-30 12,-55 26,-77 31,-47 81,-69 146,-65 26,2 49,7 105,24 47,15 63,18 97,18 36,0 48,-2 102,-19 54,-17 69,-21 94,-23 16,-1 43,0 57,3 51,10 92,48 108,100 7,21 10,40 10,67 0,31 -3,49 -14,100 -17,70 -18,79 -23,182 -3,63 -5,83 -9,112 -7,59 -22,107 -41,136 -18,26 -41,42 -62,42 h -6 v -1 c 0,-1 16,-35 24,-52 4,-9 7,-16 7,-17 0,-2 -13,-26 -24,-45 l -7,-10 34,-34 c 30,-30 34,-34 34,-37 0,-2 -5,-9 -27,-37 -15,-18 -27,-34 -27,-35 -1,0 3,-11 8,-23 15,-37 29,-75 29,-76 h -1 l -4,7 c -3,3 -17,27 -33,51 -16,26 -29,46 -29,48 0,1 5,8 12,18 18,24 32,43 32,45 0,0 -15,13 -33,28 -37,31 -41,35 -41,37 0,1 8,16 18,33 18,30 18,30 4,58 -7,15 -14,28 -15,28 -3,0 -20,-17 -28,-28 -16,-22 -20,-31 -48,-121 -15,-46 -25,-66 -44,-85 -22,-22 -50,-30 -80,-23 -25,7 -48,28 -65,62 -7,14 -11,24 -19,52 -22,67 -28,83 -38,101 -17,29 -39,49 -61,54 -8,2 -23,2 -31,0 z"
     id="path3" />
  <path
     fill="#9e9e9d"
     stroke="none"
     d="m 173.75,775 c -14,-3 -25,-10 -37,-23 -10,-10 -17,-20 -24,-35 -14,-29 -25,-72 -31,-120 -4,-31 -5,-44 -10,-129 -5,-82 -8,-101 -19,-147 -9,-36 -13,-61 -16,-80 -1,-16 -1,-50 0,-64 3,-30 12,-55 26,-77 31,-47 81,-69 146,-65 26,2 49,7 105,24 47,15 63,18 97,18 36,0 48,-2 102,-19 54,-17 69,-21 94,-23 16,-1 43,0 57,3 51,10 92,48 108,100 7,21 10,40 10,67 0,31 -3,49 -14,100 -17,70 -18,79 -23,182 -3,63 -5,83 -9,112 -7,59 -22,107 -41,136 -18,26 -41,42 -62,42 h -6 v -1 c 0,-1 16,-35 24,-52 4,-9 7,-16 7,-17 0,-2 -13,-26 -24,-45 l -7,-10 34,-34 c 30,-30 34,-34 34,-37 0,-2 -5,-9 -27,-37 -15,-18 -27,-34 -27,-35 -1,0 3,-11 8,-23 15,-37 29,-75 29,-76 h -1 l -4,7 c -3,3 -17,27 -33,51 -16,26 -29,46 -29,48 0,1 5,8 12,18 18,24 32,43 32,45 0,0 -15,13 -33,28 -37,31 -41,35 -41,37 0,1 8,16 18,33 18,30 18,30 4,58 -7,15 -14,28 -15,28 -3,0 -20,-17 -28,-28 -16,-22 -20,-31 -48,-121 -15,-46 -25,-66 -44,-85 -22,-22 -50,-30 -80,-23 -25,7 -48,28 -65,62 -7,14 -11,24 -19,52 -22,67 -28,83 -38,101 -17,29 -39,49 -61,54 -8,2 -23,2 -31,0 z"
     id="path4" />
  <path
     fill="#ff00ff"
     stroke="none"
     d="m 173.75,775 c -50,-13 -84,-86 -95,-208 -2,-20 -4,-45 -7,-97 -4,-80 -6,-97 -17,-144 -3,-12 -7,-30 -9,-39 -20,-94 -9,-163 35,-208 22,-22 48,-35 82,-42 13,-2 49,-2 65,0 16,3 41,9 80,21 56,18 69,20 103,20 37,0 47,-2 112,-22 54,-18 69,-20 102,-20 18,0 25,0 34,2 31,5 55,18 76,38 21,22 34,47 41,79 4,18 5,31 5,58 -1,33 -2,39 -15,96 -15,66 -17,83 -22,181 -5,92 -10,136 -22,179 -12,41 -24,66 -44,85 -15,14 -27,21 -42,22 h -8 v 0 c 0,-1 15,-34 23,-52 7,-14 8,-16 7,-19 -1,-3 -25,-46 -28,-50 l -2,-3 33,-33 c 35,-34 37,-36 34,-41 -1,-1 -13,-17 -27,-35 -14,-18 -26,-34 -27,-34 0,-1 4,-11 8,-23 14,-34 32,-81 32,-82 h -1 l -6,9 c -3,5 -19,30 -35,55 -16,25 -29,46 -29,48 0,1 3,6 7,11 11,15 26,35 32,44 l 6,8 -3,3 c -2,1 -18,15 -36,30 -18,15 -33,28 -34,29 -2,1 -2,3 -2,4 1,1 9,16 18,32 10,16 18,30 18,31 0,0 -6,13 -14,28 l -13,27 -2,-1 c -4,-2 -21,-19 -26,-27 -12,-17 -22,-37 -33,-74 -5,-13 -11,-35 -16,-48 -9,-28 -14,-42 -21,-55 -21,-37 -48,-55 -82,-55 -42,0 -73,28 -95,84 -3,6 -9,25 -14,41 -12,37 -17,53 -22,66 -16,40 -40,69 -67,79 -5,2 -9,2 -19,3 -9,0 -15,-1 -18,-1 z"
     id="path5" />
  <path
     fill="#00ffff"
     stroke="none"
     d="m 173.75,775 c -50,-13 -84,-86 -95,-208 -2,-20 -4,-45 -7,-97 -4,-80 -6,-97 -17,-144 -3,-12 -7,-30 -9,-39 -20,-94 -9,-163 35,-208 22,-22 48,-35 82,-42 13,-2 49,-2 65,0 16,3 41,9 80,21 56,18 69,20 103,20 37,0 47,-2 112,-22 54,-18 69,-20 102,-20 18,0 25,0 34,2 31,5 55,18 76,38 21,22 34,47 41,79 4,18 5,31 5,58 -1,33 -2,39 -15,96 -15,66 -17,83 -22,181 -5,92 -10,136 -22,179 -12,41 -24,66 -44,85 -15,14 -27,21 -42,22 h -8 v 0 c 0,-1 15,-34 23,-52 7,-14 8,-16 7,-19 -1,-3 -25,-46 -28,-50 l -2,-3 33,-33 c 35,-34 37,-36 34,-41 -1,-1 -13,-17 -27,-35 -14,-18 -26,-34 -27,-34 0,-1 4,-11 8,-23 14,-34 32,-81 32,-82 h -1 l -6,9 c -3,5 -19,30 -35,55 -16,25 -29,46 -29,48 0,1 3,6 7,11 11,15 26,35 32,44 l 6,8 -3,3 c -2,1 -18,15 -36,30 -18,15 -33,28 -34,29 -2,1 -2,3 -2,4 1,1 9,16 18,32 10,16 18,30 18,31 0,0 -6,13 -14,28 l -13,27 -2,-1 c -4,-2 -21,-19 -26,-27 -12,-17 -22,-37 -33,-74 -5,-13 -11,-35 -16,-48 -9,-28 -14,-42 -21,-55 -21,-37 -48,-55 -82,-55 -42,0 -73,28 -95,84 -3,6 -9,25 -14,41 -12,37 -17,53 -22,66 -16,40 -40,69 -67,79 -5,2 -9,2 -19,3 -9,0 -15,-1 -18,-1 z"
     id="path6" />
  <path
     fill="#d2d2d0"
     stroke="none"
     d="m 173.75,775 c -50,-13 -84,-86 -95,-208 -2,-20 -4,-45 -7,-97 -4,-80 -6,-97 -17,-144 -3,-12 -7,-30 -9,-39 -20,-94 -9,-163 35,-208 22,-22 48,-35 82,-42 13,-2 49,-2 65,0 16,3 41,9 80,21 56,18 69,20 103,20 37,0 47,-2 112,-22 54,-18 69,-20 102,-20 18,0 25,0 34,2 31,5 55,18 76,38 21,22 34,47 41,79 4,18 5,31 5,58 -1,33 -2,39 -15,96 -15,66 -17,83 -22,181 -5,92 -10,136 -22,179 -12,41 -24,66 -44,85 -15,14 -27,21 -42,22 h -8 v 0 c 0,-1 15,-34 23,-52 7,-14 8,-16 7,-19 -1,-3 -25,-46 -28,-50 l -2,-3 33,-33 c 35,-34 37,-36 34,-41 -1,-1 -13,-17 -27,-35 -14,-18 -26,-34 -27,-34 0,-1 4,-11 8,-23 14,-34 32,-81 32,-82 h -1 l -6,9 c -3,5 -19,30 -35,55 -16,25 -29,46 -29,48 0,1 3,6 7,11 11,15 26,35 32,44 l 6,8 -3,3 c -2,1 -18,15 -36,30 -18,15 -33,28 -34,29 -2,1 -2,3 -2,4 1,1 9,16 18,32 10,16 18,30 18,31 0,0 -6,13 -14,28 l -13,27 -2,-1 c -4,-2 -21,-19 -26,-27 -12,-17 -22,-37 -33,-74 -5,-13 -11,-35 -16,-48 -9,-28 -14,-42 -21,-55 -21,-37 -48,-55 -82,-55 -42,0 -73,28 -95,84 -3,6 -9,25 -14,41 -12,37 -17,53 -22,66 -16,40 -40,69 -67,79 -5,2 -9,2 -19,3 -9,0 -15,-1 -18,-1 z"
     id="path7" />
  <path
     fill="#ffffff"
     stroke="none"
     d="m 177.75,775 c -30,-6 -56,-35 -72,-78 -19,-52 -26,-98 -32,-209 -6,-100 -7,-115 -21,-172 -12,-53 -15,-71 -16,-101 -1,-38 4,-64 15,-90 8,-20 18,-34 33,-49 19,-18 39,-29 68,-36 13,-3 26,-4 48,-4 31,1 44,4 111,24 53,17 63,19 100,18 38,0 48,-2 106,-20 59,-19 78,-23 113,-22 23,1 33,2 49,8 35,11 64,36 81,71 7,13 10,22 14,37 5,19 5,28 5,55 0,33 -2,47 -15,103 -15,63 -16,71 -22,199 -4,73 -9,112 -19,150 -11,42 -25,72 -43,91 -15,16 -33,26 -48,26 h -4 v -1 c 0,0 12,-27 21,-46 5,-10 9,-20 9,-21 0,-2 -1,-5 -3,-8 -3,-7 -23,-42 -25,-45 l -2,-3 33,-33 c 33,-33 34,-34 34,-37 0,-5 1,-3 -29,-42 -14,-17 -25,-32 -25,-32 0,-1 6,-15 12,-32 23,-57 28,-71 28,-72 v -2 l -2,1 c 0,0 -7,10 -14,22 -7,11 -23,36 -35,55 -12,18 -22,35 -22,36 0,1 3,5 6,9 11,15 28,38 33,46 l 6,8 -36,30 c -23,19 -37,32 -38,33 -1,3 -2,2 23,44 7,11 12,21 12,22 0,1 -6,13 -13,28 l -14,26 -5,-4 c -14,-11 -26,-28 -36,-49 -9,-17 -12,-28 -27,-74 -17,-55 -23,-70 -36,-89 -7,-11 -21,-25 -29,-31 -17,-11 -39,-15 -59,-12 -24,4 -46,19 -63,44 -12,19 -19,35 -32,76 -18,56 -23,72 -32,89 -13,26 -32,48 -52,57 -11,6 -28,8 -39,6 z"
     id="path8" />
  <path
     style="fill:#fff6d5;fill-opacity:1;stroke-width:1.8893"
     d="M 168.0524,770.9462 C 138.13352,758.87945 115.4103,727.12565 99.77023,675.52752 86.3416,631.22525 80.957373,590.36442 74.232168,481.71958 68.274917,385.4809 67.14193,376.33792 53.512443,314.51661 39.02986,248.82574 39.215537,250.24893 39.33961,205.88192 39.447902,167.15764 39.695027,164.46847 44.63488,148.2583 62.579012,89.374543 98.446142,53.926123 152.78655,41.369188 c 15.46022,-3.572535 21.5281,-3.963435 49.33288,-3.178073 35.62697,1.006298 39.76609,1.890578 116.01694,24.78582 50.71226,15.226973 63.52036,17.20551 101.66929,15.705428 34.10081,-1.340903 46.1033,-3.76842 98.35763,-19.89297 66.73389,-20.59263 82.8763,-23.327003 122.93429,-20.823923 38.58327,2.410935 65.36584,14.238743 91.50109,40.409025 31.64205,31.684405 46.28783,71.050865 46.28783,124.416915 0,33.40172 -2.10128,48.7167 -14.16308,103.22335 -15.77497,71.2867 -16.28992,75.32205 -20.7327,162.47971 -5.5242,108.37408 -10.4481,150.70641 -22.70775,195.22716 -15.82267,57.45967 -38.40442,91.92884 -69.5736,106.19857 -5.86905,2.68695 -13.09663,4.61775 -16.06125,4.29067 l -5.39019,-0.59467 15.02319,-32.73488 15.0231,-32.73487 -3.528,-7.8516 c -1.94047,-4.31843 -8.70742,-16.9371 -15.03769,-28.0416 l -11.50961,-20.19008 31.88078,-31.7991 c 17.5344,-17.48955 32.3862,-33.77475 33.00397,-36.18937 1.64866,-6.44363 -0.2553,-9.51945 -27.5622,-44.52675 -17.13022,-21.96105 -24.51411,-32.86095 -23.6772,-34.95203 0.66885,-1.6713 3.59888,-9.41512 6.51113,-17.20845 2.91225,-7.7934 11.37735,-29.37268 18.81142,-47.95403 14.11875,-35.28963 16.38495,-45.83416 6.95055,-32.34119 -15.09855,21.5938 -67.29774,105.86355 -67.29774,108.64462 0,1.7739 2.84857,6.96083 6.33015,11.52653 10.72591,14.06565 35.21177,48.8328 35.70872,50.7024 0.25867,0.97312 -6.33113,7.43467 -14.64404,14.3589 -42.8622,35.70202 -57.62361,48.94807 -57.62361,51.708 0,1.67295 7.65166,15.96772 17.00369,31.76617 9.35203,15.79845 17.00369,30.34988 17.00369,32.33648 0,3.66135 -21.04708,46.66372 -24.55698,50.17365 -2.49739,2.49742 -16.74109,-11.2539 -26.69545,-25.77255 -13.11744,-19.13213 -22.15467,-40.80143 -40.38692,-96.83903 -19.147,-58.84912 -27.48091,-78.33127 -41.37128,-96.7137 -16.93141,-22.40677 -33.44643,-32.83035 -58.06919,-36.6507 -30.65083,-4.75567 -60.23634,7.99658 -83.53637,36.0066 -12.02584,14.45685 -24.83716,43.8312 -42.04956,96.41318 -19.27191,58.8735 -25.30903,73.81042 -37.36423,92.4459 -19.45358,30.07215 -41.73404,45.55327 -67.28367,46.75057 -10.8109,0.50663 -16.32505,-0.2052 -23.26218,-3.00307 z"
     id="path9" />
</svg>
