<?xml version="1.0" encoding="UTF-8" standalone="no"?>
<svg
   version="1.0"
   width="152.32964pt"
   height="154.48648pt"
   viewBox="0 0 152.32964 154.48648"
   preserveAspectRatio="xMidYMid"
   id="svg8"
   sodipodi:docname="toothfructure.svg"
   inkscape:version="1.4 (e7c3feb1, 2024-10-09)"
   xmlns:inkscape="http://www.inkscape.org/namespaces/inkscape"
   xmlns:sodipodi="http://sodipodi.sourceforge.net/DTD/sodipodi-0.dtd"
   xmlns="http://www.w3.org/2000/svg"
   xmlns:svg="http://www.w3.org/2000/svg">
  <defs
     id="defs8" />
  <sodipodi:namedview
     id="namedview8"
     pagecolor="#ffffff"
     bordercolor="#000000"
     borderopacity="0.25"
     inkscape:showpageshadow="2"
     inkscape:pageopacity="0.0"
     inkscape:pagecheckerboard="0"
     inkscape:deskcolor="#d1d1d1"
     inkscape:document-units="pt"
     showgrid="false"
     inkscape:zoom="2.0669492"
     inkscape:cx="102.08282"
     inkscape:cy="106.67896"
     inkscape:window-width="1200"
     inkscape:window-height="990"
     inkscape:window-x="0"
     inkscape:window-y="25"
     inkscape:window-maximized="0"
     inkscape:current-layer="svg8" />
  <path
     fill="#0b0b0b"
     stroke="none"
     d="m 38.227212,153.27649 c -6.371202,-1.75507 -11.004803,-6.43527 -14.480005,-15.21064 -1.1584,-2.3401 -3.475201,-11.11547 -5.212802,-19.30582 -2.3168,-7.60534 -5.792001,-18.7208 -7.529602,-23.400995 C 1.1584,65.522775 0,60.257555 0,45.631925 0,36.856555 0,34.516455 1.1584,31.006313 4.633601,18.135768 11.004803,9.360397 22.009607,4.095173 28.960009,1.17005 33.593611,0 44.019212,0 c 9.8464,0 12.74241,0.585025 23.74721,3.510148 7.52959,2.3401 9.84639,2.3401 19.1136,-0.585024 C 96.147222,0.585025 101.36002,0 110.04802,0 c 8.68801,0.585025 14.48001,1.755075 20.85121,4.680198 5.792,2.925124 13.3216,11.115471 16.7968,17.550744 4.0544,8.190346 4.0544,11.115463 4.0544,23.986013 0,13.45557 -0.57919,18.13576 -6.3712,34.51646 -6.9504,21.645915 -9.8464,29.836265 -12.7424,40.951735 -1.7376,5.85025 -3.4752,13.45556 -4.6336,15.79566 -4.0544,11.7005 -11.584,17.55075 -22.0096,16.96572 -4.0544,-0.58502 -6.950408,-2.3401 -10.425608,-5.26522 -3.4752,-4.09517 -4.6336,-7.60533 -7.5296,-19.30582 -2.896,-11.11546 -2.896,-12.28552 -5.21281,-15.21064 -4.05439,-5.85025 -9.84639,-5.26522 -14.47999,0.58502 -1.7376,2.3401 -2.31681,5.26522 -5.79201,18.13576 -2.31679,10.53046 -5.79199,16.96572 -10.4256,19.30583 -3.4752,1.75507 -9.8464,1.75507 -13.9008,0.58503 z m 9.2672,-7.02029 c 4.05441,-1.75508 6.3712,-5.85025 9.26721,-18.7208 2.3168,-10.53045 3.4752,-14.62562 6.3712,-18.13577 6.3712,-7.60532 17.376,-8.77537 23.7472,-1.75507 3.4752,3.51014 5.792,8.77537 8.688,21.06089 3.4752,14.04059 5.212808,16.96572 11.584008,18.13577 4.0544,0 7.5296,-1.17005 9.8464,-5.26523 2.3168,-2.92512 4.6336,-9.94542 9.2672,-26.32611 1.7376,-6.43527 4.6336,-15.795675 6.3712,-21.645915 11.0048,-31.00632 11.584,-33.34641 11.0048,-47.97204 0,-11.11547 0,-11.70049 -1.1584,-15.795662 -3.4752,-8.775371 -8.1088,-14.625619 -15.6384,-18.135768 -10.4256,-5.265223 -20.8512,-5.265223 -37.068808,-1.170049 -4.6336,1.170049 -11.0048,2.340099 -13.32161,2.925124 -4.05439,0.585025 -4.05439,0.585025 -8.10879,9.360397 -2.31681,4.680197 -4.0544,8.775371 -4.0544,9.360395 0,0.585023 4.0544,4.095173 8.688,8.190343 12.1632,10.53045 14.48,12.87054 14.48,14.62562 0,1.75508 -10.4256,21.06089 -15.0592,27.49617 -1.7376,2.34009 -3.4752,2.92511 -5.2128,1.17004 -2.31681,-1.75507 -1.15841,-4.09517 5.2128,-15.79566 3.4752,-6.43528 6.3712,-11.7005 6.3712,-12.28553 0,0 -3.47521,-3.51014 -7.52961,-7.02029 -9.26719,-8.19035 -15.0592,-13.45557 -15.0592,-14.62562 0,0 1.73761,-5.265221 4.05441,-10.530444 2.31679,-5.850248 4.0544,-11.115471 4.0544,-11.700496 V 10.530446 L 60.816012,9.945421 C 53.286412,7.605322 39.385612,7.020297 33.01441,8.775372 22.009607,11.11547 13.321604,19.305817 9.267203,30.421288 c -1.1584,3.510147 -1.1584,4.680197 -1.1584,14.625617 0,13.45557 0.579199,16.38069 7.529602,39.19666 3.475201,9.94542 7.529602,21.645915 8.688002,26.911135 6.371202,24.57105 8.108803,28.66622 11.004803,32.17637 1.158401,1.17005 2.896002,2.3401 4.054402,2.92512 1.7376,0.58502 5.792,0.58502 8.1088,1e-5 z"
     id="path1"
     style="stroke-width:0.582105" />
  <path
     fill="#2a2a2a"
     stroke="none"
     d="m 41.123212,153.86151 v -0.58502 l -2.3168,-0.58503 c -1.737601,0 -2.896001,0 -3.475202,0 h -0.579199 v -0.58502 l 0.579199,-0.58502 -1.737599,-0.58503 c -0.579201,-0.58503 -1.737601,-0.58503 -1.737601,-0.58503 h -0.5792 v -0.58501 l 0.5792,-0.58503 -1.158401,-0.58503 c -0.579199,-0.58502 -1.1584,-1.17005 -1.1584,-1.17005 h -0.5792 v -0.58502 c 0,0 -0.5792,-0.58502 -1.158401,-1.75508 l -0.579199,-1.75507 -0.579201,0.58503 h -0.5792 v -0.58503 c 0,0 0,-1.17005 0,-1.75508 l -0.5792,-1.17004 h -0.579201 -0.5792 v -0.58503 c 0,-0.58503 0,-2.3401 -0.5792,-4.09517 l -1.1584,-3.51015 h -0.5792 v 0 l -0.579201,-1.75508 v -1.75507 l -0.579199,-0.58503 h -0.579201 l 0.579201,-1.17004 v -1.17005 h -0.579201 -0.5792 v -0.58503 c 0.5792,0 0,-2.92513 -0.5792,-5.26522 l -1.1584,-5.26523 h -0.579201 -0.5792 l 0.5792,-1.17005 v -1.17004 h -0.5792 -0.5792 l 0.5792,-1.17006 v -1.17004 h -0.5792 v 0 l -0.5792,-1.75508 c 0,-1.17004 0,-2.3401 -0.579201,-2.3401 l -0.579199,-0.58502 v -0.58502 l 0.579199,-0.58503 h -0.579199 -0.579201 v -1.75508 -1.75507 l -0.5792,-0.58503 h -0.5792 v -0.585025 c 0.5792,-0.58502 -1.1584,-5.85024 -2.316801,-7.0203 l -0.5792,-1.17005 v -0.58502 l 0.5792,-0.58502 h -0.5792 -0.5792 v -0.58503 c 0.5792,0 0,-1.17005 0,-2.3401 L 8.688002,85.413605 H 8.108803 7.529602 l 0.579201,-0.58502 v -1.17005 h -0.579201 -0.5792 v -0.58503 c 0.5792,-0.58501 -2.316801,-9.36039 -2.896001,-9.94541 0,0 -0.5792,-1.17005 -0.5792,-1.75507 v -1.75508 l -0.5792,-0.58502 h -0.5792 l 0.5792,-1.17005 v -1.17005 h -0.5792 -0.5792 v -0.58503 c 0.5792,0 0,-2.34009 0,-4.6802 L 1.1584,57.332425 H 0.579201 v 0 -2.92512 -3.51015 H 0 v 0 -5.85025 -6.43527 0 h 0.579201 v -2.3401 L 0,33.931435 H 0.579201 L 1.1584,33.346405 v -1.755067 l 0.579201,-2.340099 v 0.585024 0 l 1.1584,-2.925123 c 0.5792,-1.755075 1.1584,-3.510149 0.5792,-3.510149 v 0 l 1.1584,-1.170049 c 0.579201,-0.585025 1.1584,-1.755075 0.579201,-2.3401 v -0.585025 h 0.579199 v 0.585025 l 1.737601,-2.925124 c 1.1584,-1.170049 1.737601,-2.925123 1.737601,-2.925123 V 13.45557 h 0.5792 l 0.5792,0.585025 1.7376,-1.755075 1.737601,-2.340099 v 0 l -0.5792,-0.585024 h 0.5792 v 0.585024 l 1.737601,-1.170049 c 3.475201,-2.3401 6.950402,-4.680199 10.425603,-5.265224 L 28.960009,2.340099 V 1.755075 1.17005 h 1.158401 c 0.579199,0 1.7376,0 2.896,0 h 1.737601 V 0.585025 h -0.579201 4.054402 3.4752 V 0 0 h 2.3168 c 1.7376,0 2.896,0 3.4752,0 0.5792,0.585025 2.3168,0.585025 4.05441,0.585025 h 2.89599 v 0 0.585025 l 4.0544,0.585025 c 2.3168,0.585024 4.63361,0.585024 5.2128,0.585024 h 1.1584 v 0.585025 0.585024 h 0.57921 l 1.1584,-0.585024 v 0.585024 l 0.5792,0.585025 h 1.7376 1.7376 v 0.585025 0.585025 h 1.1584 l 1.1584,-0.585025 v 0.585025 0.585025 l 2.896,-0.585025 h 3.4752 v 0 0 h 1.7376 c 1.1584,-0.585025 2.3168,-0.585025 2.896,-1.17005 0,0 1.1584,-0.585025 1.7376,-0.585025 h 1.7376 l 0.5792,-0.585024 V 2.340099 l 1.15839,0.585025 h 1.15841 V 2.340099 1.755075 l 1.1584,0.585024 h 1.1584 V 1.755075 1.17005 l 1.7376,0.585025 h 1.1584 V 1.17005 0.585025 l 2.3168,0.585025 h 1.7376 v -0.585025 0 h 8.688008 c 8.688,0.585025 14.47999,1.17005 19.1136,2.925123 1.1584,0.585025 2.3168,1.17005 2.3168,0.585025 h 0.5792 v 0.585025 0.585025 h 0.5792 l 0.5792,-0.585025 v 0.585025 0.585025 h 0.5792 V 5.265223 l 2.3168,1.755074 c 2.896,2.925124 9.2672,8.775372 9.2672,8.775372 0,0 0,0.585025 0.5792,1.170049 v 1.17005 l 0.57921,-0.585025 h 0.57919 v 0.585025 c 0,0 0,1.170049 0,1.755074 l 0.57921,1.17005 0.57919,-0.585025 h 0.57921 v 0.585025 l -0.57921,0.585025 0.57921,0.585025 1.1584,1.170049 h -0.57921 v 0.585024 l 0.57921,1.17005 c 0.57919,1.17005 1.1584,1.755075 1.1584,1.755075 h 0.5792 l -0.5792,1.170049 v 0.585025 h 0.5792 0.5792 v 2.340099 1.755072 l 0.5792,0.58502 h 0.57919 l -0.57919,2.92513 v 2.3401 h 0.57919 l 0.57921,-0.58503 v 7.60532 7.02031 h -0.57921 -0.57919 v 2.92511 l 0.57919,2.92513 h -0.57919 -0.5792 v 1.75508 l 0.5792,1.75507 h -0.5792 -0.5792 v 1.75508 l 0.5792,1.17004 h -0.5792 -0.5792 v 1.17005 l 0.5792,1.17005 h -0.5792 -0.57921 v 1.17005 l 0.57921,1.17005 h -0.57921 l -0.57919,0.58502 v 1.75508 1.75507 h -0.57921 -0.57919 v 1.17006 l 0.57919,0.58502 h -0.57919 -0.57921 l -0.57919,2.92512 c -0.57921,1.75507 -1.1584,3.51015 -0.57921,3.51015 v 0.58503 h -0.57919 -0.57921 v 1.17004 l 0.57921,0.58503 h -0.57921 -0.5792 l -0.5792,1.75507 c 0,1.17005 -0.5792,2.3401 0,2.3401 v 0.58502 h -0.5792 -0.57919 l 0.57919,0.58503 v 0.58503 l -0.57919,1.17004 -1.1584,1.17005 v 0.58503 l 0.57919,0.58503 h -0.57919 -0.57921 v 1.17004 c 0,1.17005 -4.6336,16.380685 -5.2128,16.965715 l -0.5792,0.58503 0.5792,0.58502 v 1.17005 h -0.5792 l -0.5792,0.58502 0.5792,1.17006 v 0.58502 h -0.5792 -0.5792 l -0.5792,2.92512 c -0.5792,1.17005 -0.5792,2.92512 0,2.92512 v 0.58503 h -0.5792 -0.5792 v 1.17005 l 0.5792,1.17005 h -0.5792 -0.5792 v 1.17005 l 0.5792,1.17005 h -0.5792 l -0.5792,0.58502 v 1.75508 c 0,0.58502 -0.5792,1.75507 -0.5792,1.75507 -0.5792,0.58503 -3.4752,8.77538 -2.896,9.3604 v 0.58502 h -0.5792 -0.5792 l 0.5792,0.58503 v 0.58502 h -0.5792 -0.5792 v 0.58503 h 0.5792 l -2.3168,2.3401 -1.7376,1.75507 0.5792,0.58503 v 0.58502 l -1.1584,0.58503 -1.1584,1.17004 v -0.58501 h -0.5792 l -1.1584,1.17004 -1.7376,1.75507 v -0.58502 h -0.5792 v 0.58502 0.58503 h -0.57921 c -0.57919,0 -1.73759,0 -2.3168,0 h -1.73759 v 0.58502 l 0.57919,0.58503 -4.63359,-0.58503 c -2.31681,-0.58502 -4.63361,-0.58502 -4.63361,0 h -0.57919 v -0.58502 l 0.57919,-0.58503 -1.73759,-0.58502 c -0.57921,0 -1.737608,0 -1.737608,0 h -0.5792 v 0 l 0.5792,-0.58502 -2.3168,-2.3401 c -1.7376,-1.75508 -5.792,-8.19035 -5.792,-9.94543 v -0.58502 h -0.5792 -0.5792 v -0.58502 c 0.5792,0 0,-1.75508 0,-3.51015 l -0.57921,-2.92513 h -0.57919 -0.5792 l 0.5792,-1.17005 v -1.75507 h -0.5792 -0.5792 l 0.5792,-1.17005 v -1.17005 h -0.5792 -0.5792 l 0.5792,-1.17005 v -1.17005 h -0.5792 -0.5792 v -0.58502 l 0.5792,-1.17006 -0.5792,-0.58501 h -0.5792 v -1.17006 l 0.5792,-1.17005 -0.5792,-0.58502 c -0.5792,-0.58502 -1.1584,-1.17005 -0.5792,-1.75508 v -1.17004 h -0.5792 -1.1584 l 0.5792,-0.58503 v -1.17005 h -0.5792 c -0.57921,0 -1.73761,-0.58503 -5.2128,-3.51015 -0.57921,-0.58502 -4.05441,-0.58502 -5.2128,0 -0.5792,0.58502 -1.73761,1.75508 -2.896,2.92512 -1.1584,1.17005 -2.896,2.34011 -2.896,2.34011 h -0.5792 v 0.58502 c 0,1.75508 -0.57921,3.51015 -0.57921,5.26523 l -0.57919,1.75507 h -0.57921 -0.57919 l 0.57919,1.17004 v 1.17006 h -0.57919 -0.57921 v 1.75507 l 0.57921,1.17005 h -0.57921 -0.57919 v 1.75507 l 0.57919,1.17005 h -0.57919 -0.57921 l -1.15839,4.6802 c -0.57921,2.3401 -0.57921,4.6802 -0.57921,5.26522 0,0 -0.57919,0.58503 -0.57919,0.58503 -1.1584,1.17005 -2.3168,3.51015 -1.73761,4.09518 v 1.17004 -0.58502 l -0.57919,-0.58502 -1.73761,1.75507 c -1.1584,1.17005 -1.7376,2.34009 -1.7376,2.92512 v 0.58503 l -0.5792,-0.58503 h -1.15839 v 0.58503 1.17004 h -0.57921 l -0.57919,-0.58502 v 0.58502 0.58503 l -1.15841,-0.58503 h -1.1584 v 0.58503 l 0.5792,0.58502 -1.7376,-0.58502 h -1.7376 v 0.58502 0.58503 h -2.3168 -2.896 z m 79.929618,-5.26522 1.1584,-0.58502 -1.1584,0.58502 c -0.57921,0.58502 -1.1584,0.58502 -1.1584,1.17005 v 0 0 c 0.57919,0 0.57919,-0.58502 1.1584,-1.17005 z m -73.558418,-2.3401 c 2.896,-1.17005 4.6336,-4.09517 6.3712,-7.60533 0.5792,-1.75506 1.1584,-3.51015 1.1584,-3.51015 0.5792,-0.58501 0.5792,-1.17005 0,-1.75508 v -0.58501 h 0.5792 l 0.5792,-0.58503 -0.5792,-1.17005 v -0.58503 h 0.5792 0.57921 v -1.17003 l -0.57921,-1.75508 h 0.57921 0.57919 v -1.17005 l -0.57919,-1.75508 h 0.57919 0.57921 v -1.17004 l -0.57921,-1.17006 h 0.57921 0.57919 v -1.17004 l -0.57919,-1.17005 h 0.57919 0.57921 l 0.57919,-2.34011 c 0.57921,-1.75506 1.1584,-3.51015 1.73761,-4.09518 0,-0.58501 0.5792,-1.17004 0,-1.75506 v -0.58503 h 0.5792 1.1584 v -0.58502 c 0,-0.58502 0,-1.17005 0,-1.17005 v -0.58502 h 0.57919 v 0.58502 l 1.73761,-1.17005 1.1584,-1.17004 -0.57921,-0.58503 v -0.58503 h 0.57921 c 0,0 0.5792,0 1.1584,0 h 0.5792 l -0.5792,-0.58502 v -0.58502 0 c 0.5792,0 1.7376,0 3.47519,-0.58503 3.47521,-0.58503 6.95041,-0.58503 9.84641,0 1.1584,0.58503 2.3168,1.17005 2.3168,0.58503 h 0.5792 v 0.58502 l -0.5792,0.58502 h 0.5792 c 0.5792,0 1.1584,0 1.7376,0 h 0.5792 l -0.5792,0.58503 h -0.5792 l 1.7376,2.3401 c 1.1584,1.17005 2.31679,1.75507 2.31679,1.75507 h 0.57921 v 0.58502 c -0.57921,0 0,1.17006 0.5792,2.92513 0.5792,1.17005 1.7376,2.92512 1.7376,4.09518 l 0.5792,2.34009 h 0.5792 0.5792 v 0.58503 c -0.5792,0 0,1.75506 0,3.51014 l 0.5792,2.92513 h 0.5792 0.5792 v 0.58501 l -0.5792,1.17007 0.5792,0.58501 h 0.5792 v 1.17005 l -0.5792,1.17005 0.5792,0.58503 h 0.5792 v 0.58501 c 0,1.17007 0,1.75508 2.3168,6.43529 0.5792,1.75506 1.158398,3.51015 1.158398,3.51015 l -0.579198,0.58502 2.316808,0.58502 c 0.57919,0.58502 1.73759,1.75508 1.73759,1.75508 v 0.58502 h 1.1584 l 1.15841,-0.58502 v 0.58502 0.58502 h 2.3168 2.3168 v -0.58502 -0.58502 l 1.7376,-0.58503 c 0.57919,0 1.73759,0 2.3168,0 0,0 1.1584,-0.58502 1.7376,-1.17005 l 1.1584,-1.17005 -0.5792,-0.58503 c 0,-0.58501 0.5792,-1.75506 1.1584,-2.34009 0.5792,-0.58502 1.1584,-1.75508 1.7376,-1.75508 0,-1.75506 2.89599,-11.70049 3.4752,-11.70049 l 0.5792,-0.58502 -0.5792,-0.58502 v -1.17006 h 0.5792 0.5792 v -1.17004 l -0.5792,-1.17006 h 0.5792 0.5792 v -1.17004 l -0.5792,-1.17005 h 0.5792 0.5792 v -1.17005 l -0.5792,-1.17006 h 0.5792 0.5792 v -1.17005 l -0.5792,-1.17005 h 0.5792 0.5792 l 0.5792,-2.92512 c 0.5792,-1.17006 0.5792,-2.3401 0.5792,-2.92512 l -0.5792,-0.58502 h 0.5792 l 0.5792,-0.58503 v -1.75507 c 0,-0.58503 0.5792,-1.75507 0.5792,-1.75507 0.5792,-0.58503 5.2128,-14.625625 4.6336,-15.210655 v -0.58503 h 0.5792 0.5792 l 0.5792,-1.75507 c 0,-1.17005 0.5792,-2.3401 0,-2.3401 v -0.58502 h 0.5792 0.5792 l 0.5792,-1.17006 c 0,-0.58501 0,-1.75507 0,-2.34009 0.5792,-2.3401 4.0544,-13.45557 4.63361,-14.04059 l 0.57919,-0.58503 -0.57919,-0.58502 v -1.17006 h 0.57919 0.5792 v -1.17004 l -0.5792,-1.75508 h 0.5792 0.5792 l -0.5792,-1.17004 v -1.75508 h 0.5792 0.5792 v -1.75507 c -0.5792,-1.17006 -0.5792,-2.3401 0,-2.3401 0.57921,-0.58503 0,-16.3807 -0.5792,-17.55075 0,-0.58502 0,-1.75507 0,-1.75507 0.5792,-0.58503 0.5792,-1.17005 0,-1.75508 0,0 -1.1584,-1.755067 -1.73759,-4.095166 -1.1584,-4.095174 -3.47521,-7.605322 -5.21281,-9.945422 l -1.1584,-1.170049 v -0.585025 l 0.5792,-0.585025 -0.5792,-0.585024 -1.1584,-0.585025 v 0.585025 h -0.5792 l -1.7376,-1.755074 c -2.3168,-1.17005 -9.26721,-5.265223 -11.0048,-5.265223 h -0.57921 V 8.775372 8.190347 l -1.15839,0.585025 h -1.7376 V 8.190347 7.605322 l -1.7376,0.585025 h -1.73761 V 7.605322 7.020297 h -5.2128 c -2.89599,0 -5.2128,0 -5.792,0.585025 v 0.585025 h -2.31679 l -1.737608,-0.585025 -0.5792,0.585025 c 0,0.585025 -0.5792,0.585025 -1.1584,0.585025 -0.5792,0 -1.1584,0 -1.7376,0 -2.3168,1.170049 -5.2128,1.755074 -6.37121,1.170049 h -0.57919 v 0.585025 0.585024 h -1.7376 -1.7376 l -0.5792,0.585025 v 0.585025 l -1.1584,-0.585025 h -1.1584 v 0.585025 0.585025 l -1.1584,-0.585025 h -1.7376 v 0.585025 0.585025 l -2.89601,-0.585025 c -2.89599,0 -3.47519,0 -4.63359,1.755075 -0.57921,1.170049 -1.1584,2.340098 -1.7376,2.340098 0,0.585025 0,1.755075 0,2.340099 l -0.5792,1.17005 h -0.5792 c -0.5792,0 -1.7376,2.925124 -1.7376,3.510148 l 0.5792,0.585025 -1.1584,1.17005 c -0.57921,0.585025 -1.1584,1.755074 -1.1584,1.755074 -1.1584,5.265221 -1.1584,7.020291 -0.57921,7.605321 0.57921,0.58502 1.73761,0.58502 2.31681,0.58502 0,0.58503 1.1584,1.17005 1.1584,1.75508 0.5792,0.58502 1.1584,1.17005 1.7376,1.17005 1.15839,0 1.7376,1.17005 2.3168,1.75507 0.5792,1.17005 1.1584,1.75507 1.73759,1.75507 0.57921,0 1.73761,1.17005 1.73761,1.75508 0.57919,0.58502 1.1584,1.75507 2.3168,1.75507 0.5792,0 1.1584,0 1.1584,1.17006 0.5792,0.58501 1.7376,1.75507 3.47519,2.92511 l 2.31681,2.34011 -1.1584,-1.17005 -0.5792,-1.17006 1.7376,1.17006 c 1.7376,1.75508 2.3168,4.68019 1.1584,7.0203 -1.1584,1.17004 -1.7376,2.3401 -1.7376,4.09517 v 0.58502 h -0.5792 -1.15841 v 1.17006 c 0,0 0,0.58501 0,1.17004 -0.57919,0.58503 -0.57919,0.58503 -0.57919,1.17005 v 0.58503 h -0.57921 -1.15839 v 1.17005 c 0,0.58502 0,1.75507 -0.5792,1.75507 v 1.17005 h -1.1584 -0.5792 v 1.17005 c 0,0.58502 0,1.17005 0,1.17005 v 0.58502 h -0.57921 c -1.1584,0 -2.3168,2.92513 -1.73759,3.51015 v 0.58502 h -0.57921 c -1.1584,0 -3.47519,4.09518 -2.89599,4.68021 v 0.58501 l -1.15841,0.58503 h -1.15839 l 0.5792,0.58503 v 0.58502 l -1.7376,-0.58502 c -2.3168,-1.17006 -2.89601,-2.92513 -1.7376,-5.85025 0.5792,-0.58503 0.5792,-1.75507 0.5792,-1.75507 0,-0.58503 1.1584,-1.17005 1.7376,-2.3401 0.5792,-0.58503 1.1584,-1.75508 1.1584,-2.3401 v -1.75508 h 0.57919 c 1.15841,0 2.31681,-2.92512 1.73761,-3.51014 v -0.58503 h 0.5792 1.1584 l 0.57919,-1.17005 c 0,-1.75507 0.57921,-1.75507 0.57921,-3.51015 v -0.58502 h 1.1584 0.57919 v -1.17005 c 0,-0.58503 0,-1.75507 0.57921,-2.3401 0.5792,-1.75508 -0.57921,-4.68019 -2.3168,-4.68019 -0.57921,0 -1.1584,-1.17006 -1.73761,-1.75508 -0.57919,-1.75507 -2.896,-3.51016 -3.47519,-2.92513 v 0 l -0.5792,-1.17004 c -0.5792,-0.58503 -1.1584,-1.75508 -1.7376,-1.75508 h -1.1584 l -0.5792,-1.17005 c -0.57921,-1.17005 -2.89601,-2.92513 -3.4752,-2.3401 v 0 -0.58503 c 0,0 -1.1584,-1.75507 -2.896,-2.92512 -1.1584,-1.17005 -2.89601,-2.92512 -3.4752,-3.51015 l -0.57921,-1.75507 h 0.57921 0.57919 l 1.1584,-2.925122 c 0.57921,-1.755074 0.57921,-3.510148 0.57921,-3.510148 0,-0.585025 0.57919,-1.17005 1.1584,-1.755075 0.57919,-0.585025 0.57919,-1.170049 0.57919,-1.755073 -0.57919,0 0,-1.17005 0.57921,-1.755075 0.5792,0 0.5792,-1.17005 0.5792,-1.755075 0.57919,-0.585024 0.57919,-1.170049 1.1584,-1.755074 0,-0.585025 0.57919,-1.170049 0.57919,-1.755074 0,-0.585025 0,-1.755074 0.57921,-2.925124 v -2.340099 h -0.57921 -1.1584 V 9.945421 l -0.57919,-0.585024 h -1.7376 -1.73761 V 8.775372 8.190347 h -1.1584 l -1.7376,0.585025 V 8.190347 7.605322 h -1.1584 c -0.5792,0.585025 -5.2128,0 -9.2672,0 -5.2128,0 -8.688001,0 -9.267201,0 0,0.585025 -1.1584,0.585025 -1.737601,0.585025 l -1.1584,-0.585025 v 0.585025 0.585025 h -1.7376 c -1.1584,0 -2.316801,0 -2.896001,0.585025 0,0.585024 -1.1584,1.170049 -1.1584,1.170049 -1.737601,-0.585025 -11.584004,7.605322 -13.900805,11.700496 -0.5792,1.170049 -1.7376,2.340098 -2.316801,2.925123 l -1.1584,1.17005 0.5792,0.585025 v 0.585024 l -1.1584,1.17005 c -0.579201,0.585025 -0.579201,1.755074 -0.579201,2.925124 v 1.755067 H 8.108803 7.529602 v 1.75508 c 0.579201,1.17005 0.579201,2.3401 0,2.3401 -0.5792,0.58502 0,13.45557 0.579201,14.04059 0,0.58503 0,1.75507 0,3.51015 l -0.579201,2.3401 h 0.579201 0.579199 v 1.75507 l -0.579199,1.75508 h 0.579199 0.579201 l -0.579201,1.75507 v 1.17006 h 0.579201 0.5792 v 1.17004 l -0.5792,1.17005 h 0.5792 0.5792 v 1.17005 l -0.5792,0.58503 0.5792,0.58502 c 0.5792,0.58503 3.475201,9.36039 4.054402,11.70049 0,0.58503 0,2.34011 0.579199,2.92512 l 0.579201,2.3401 h 0.5792 0.5792 l -0.5792,1.17006 v 1.17005 h 0.5792 l 0.5792,-0.58503 -0.5792,1.17005 v 1.17005 h 0.5792 l 0.579201,-0.58503 -0.579201,1.17006 v 1.17004 h 0.579201 l 0.579199,-0.58502 -0.579199,1.17005 v 1.17005 h 0.579199 l 0.579201,-0.58503 -0.579201,0.58503 v 1.17005 h 0.579201 0.5792 l -0.5792,1.17005 v 1.17005 h 0.5792 l 0.5792,-0.58503 -0.5792,1.17005 v 1.17005 h 0.5792 l 0.579201,-0.58502 v 0.58502 c -0.579201,0 -0.579201,1.755075 0,2.925135 l 0.579199,2.34009 h 0.579201 0.5792 v 0.58503 c -0.5792,0 0,2.3401 0.5792,4.09517 l 0.5792,3.51015 h 0.5792 0.5792 l -0.5792,1.17005 v 1.17005 h 0.5792 0.579201 l -0.579201,1.17005 v 1.17005 h 0.579201 0.5792 l -0.5792,1.17005 v 1.17005 h 0.5792 0.5792 l -0.5792,1.17005 v 1.17005 h 0.5792 0.579201 l -0.579201,1.17004 v 1.17006 h 0.579201 0.579199 v 1.17004 l -0.579199,0.58503 0.579199,0.58503 c 0.579201,0 0.579201,1.17005 0.579201,1.75507 0.5792,0.58502 0.5792,1.75508 0.5792,2.3401 0,0 1.158401,1.75507 1.7376,3.51014 0,1.75508 1.158401,4.68021 2.316801,5.85025 1.1584,2.92513 5.212802,7.02031 6.950402,7.02031 h 0.5792 v 0.58502 0.58502 h 2.3168 c 1.1584,0 2.896,-0.58502 4.6336,-1.17005 z"
     id="path2"
     style="stroke-width:0.582105" />
  <path
     fill="#4b524c"
     stroke="none"
     d="m 35.910411,143.91609 c -0.579201,0 -1.1584,-0.58502 -1.1584,-1.17006 v 0 l 1.1584,1.17006 c 0.5792,0 1.1584,0.58502 1.1584,1.17005 v 0 0 c -0.5792,0 -1.1584,-0.58502 -1.1584,-1.17005 z m 33.014411,-29.83627 c 0,-0.58503 0.5792,-0.58503 1.1584,-1.17005 l 1.15839,-0.58502 -1.15839,0.58502 c -0.5792,0.58502 -0.5792,1.17005 -1.1584,1.17005 z M 6.950402,53.237245 v -0.58501 l 0.5792,-0.58503 0.579201,-0.58503 v 1.17006 1.17004 0 c -0.579201,0 -0.579201,0 -1.158401,-0.58503 z m 137.270428,-8.19034 v -4.6802 l 0.57921,0.58502 c 0.57919,0 0.57919,6.43527 0,7.60533 l -0.57921,1.17004 z m -137.270428,0 v -1.75508 l 0.5792,0.58503 c 0,0.58502 0,1.75507 0,2.3401 l -0.5792,1.17004 z m 129.161628,-25.741088 -0.5792,-1.170049 h 0.5792 0.5792 v 1.170049 l 0.5792,0.585025 v 0 c -0.5792,0 -0.5792,-0.585025 -1.1584,-0.585025 z M 15.638405,18.135768 c 0.5792,-0.585025 1.7376,-1.755074 2.316801,-2.340099 l 1.7376,-0.585025 -2.316801,1.755074 c -1.1584,1.17005 -2.316801,2.340099 -2.316801,2.340099 v 0 z M 64.291222,12.28552 v -1.755074 h 0.57919 0.57921 v 1.170049 c 0,0.585025 -0.57921,1.17005 -0.57921,1.755075 l -1.1584,0.585025 z m -13.32161,-4.680198 0.57921,-0.585025 0.57919,0.585025 0.57921,0.585025 h -1.1584 -1.15841 z m -7.5296,-0.585025 c 0.5792,0 1.7376,0 2.3168,0 l 1.7376,0.585025 h -2.896 -2.3168 z"
     id="path3"
     style="stroke-width:0.582105" />
  <path
     fill="#ff0000"
     stroke="none"
     d=""
     id="path4"
     style="stroke-width:0.582105" />
  <path
     fill="#ffff00"
     stroke="none"
     d=""
     id="path5"
     style="stroke-width:0.582105" />
  <path
     fill="#ff00ff"
     stroke="none"
     d=""
     id="path6"
     style="stroke-width:0.582105" />
  <path
     fill="#fdfcfd"
     stroke="none"
     d=""
     id="path7"
     style="stroke-width:0.582105" />
  <path
     fill="#ffffff"
     stroke="none"
     d=""
     id="path8"
     style="stroke-width:0.582105" />
  <path
     style="fill:#fff6d5;fill-opacity:1;stroke-width:0.211219"
     d="m 40.748032,146.33857 c -1.84099,-0.4036 -2.853424,-1.06518 -4.786084,-3.12743 -2.131332,-2.27425 -3.603682,-4.8277 -4.618629,-8.00998 -0.316513,-0.99239 -0.78572,-2.37752 -1.042678,-3.07803 -0.401214,-1.09379 -1.663466,-5.44003 -2.743455,-9.4464 -0.356849,-1.32378 -0.746889,-2.73145 -1.251063,-4.51515 -0.190414,-0.67365 -0.292494,-1.3662 -0.226844,-1.53901 0.06565,-0.17279 0.0314,-0.31418 -0.0761,-0.31418 -0.2675,0 -0.666786,-1.57194 -0.506471,-1.99391 0.07128,-0.18764 0.02856,-0.34114 -0.09494,-0.34114 -0.27991,0 -0.731011,-1.6245 -0.538479,-1.93916 0.07778,-0.1271 0.04996,-0.29207 -0.06183,-0.36658 -0.26537,-0.17688 -2.16779,-6.96525 -2.164752,-7.72443 0.0013,-0.32106 -0.08442,-0.58375 -0.190453,-0.58375 -0.342369,0 -1.691308,-4.502735 -1.55259,-5.182515 0.10235,-0.50157 0.06437,-0.59456 -0.200838,-0.49176 -0.380452,0.14746 -0.670673,-0.69446 -0.465007,-1.34897 0.086,-0.2737 0.02756,-0.40651 -0.178892,-0.40651 -0.365522,0 -0.595897,-0.77986 -0.42517,-1.43928 0.08365,-0.32308 0.02836,-0.47122 -0.175852,-0.47122 -0.397059,0 -1.247942,-2.37685 -0.995221,-2.78004 0.281248,-0.4487 0.230747,-0.67638 -0.11988,-0.54049 -0.382581,0.14829 -0.634198,-0.6758 -0.417195,-1.36639 0.116106,-0.3695 0.07878,-0.44503 -0.171916,-0.34787 -0.40028,0.15514 -0.637601,-0.66303 -0.432998,-1.49277 0.126654,-0.51364 0.104159,-0.55068 -0.187257,-0.30828 -0.285854,0.23778 -0.350095,0.18862 -0.469181,-0.35903 -0.07589,-0.349 -0.03378,-0.83119 0.09357,-1.07154 0.196259,-0.3704 0.170246,-0.43701 -0.170677,-0.43701 -0.456268,0 -0.617831,-0.3498 -1.372652,-2.97189 -0.835092,-2.90095 -1.959067,-6.69167 -2.863861,-9.65867 -1.140343,-3.7394 -2.623224,-9.68256 -3.124977,-12.52443 -0.790426,-4.47686 -0.94296,-7.13081 -0.93944,-16.34543 0.0032,-8.31434 0.03341,-9.04762 0.448195,-10.87178 2.013243,-8.853844 9.311103,-17.831958 17.713201,-21.791475 5.285086,-2.490614 11.21779,-3.501608 19.004316,-3.238529 3.67641,0.124213 8.05111,0.541078 10.40316,0.991318 2.24222,0.429217 5.99415,1.315467 6.35464,1.501043 0.20071,0.103327 0.74452,0.187868 1.20844,0.187868 0.78146,0 0.84352,0.04323 0.84352,0.587734 0,0.769723 -2.16307,7.160114 -3.78892,11.193715 -1.13203,2.808445 -3.4934,8.901776 -3.8459,9.924013 -0.0704,0.204313 -0.20554,0.371483 -0.30019,0.371483 -0.0947,0 -0.18687,0.37384 -0.20491,0.83076 -0.0289,0.73312 0.1223,1.01436 1.28692,2.39301 0.72585,0.85924 1.64261,1.83291 2.03725,2.1637 0.39464,0.33079 1.37955,1.2394 2.18869,2.01912 0.80913,0.77972 2.32231,2.17446 3.36263,3.09943 1.04032,0.92496 2.17521,1.93604 2.52198,2.24684 0.34677,0.3108 1.95454,1.74047 3.5728,3.17705 1.61827,1.43657 3.86431,3.48284 4.99121,4.54729 2.58044,2.43742 2.63266,2.7004 1.10176,5.54983 -0.55777,1.03816 -1.0929,1.91941 -1.18919,1.95833 -0.0963,0.0389 -0.17507,0.18961 -0.17507,0.33487 0,0.40155 -2.52902,5.00748 -2.7495,5.00748 -0.10604,0 -0.1928,0.15532 -0.1928,0.34517 0,0.53297 -1.75285,3.68766 -2.04911,3.68791 -0.14449,1.1e-4 -0.26271,0.19175 -0.26271,0.42586 0,0.23411 -0.84797,2.0953 -1.88439,4.13595 -2.07364,4.08294 -2.86096,6.28565 -2.65091,7.41658 0.27754,1.49425 1.63436,2.54779 3.51702,2.73087 1.04314,0.10145 1.20116,0.0665 1.29245,-0.28616 0.0572,-0.22095 0.4445,-0.60464 0.86067,-0.85265 0.41615,-0.24801 0.75664,-0.5535 0.75664,-0.67888 0,-0.40126 3.03715,-5.01146 3.3101,-5.02451 0.14449,-0.007 0.26271,-0.17133 0.26271,-0.36539 0,-0.44487 1.86517,-3.68046 2.12162,-3.68046 0.10461,0 0.19019,-0.14473 0.19019,-0.32163 0,-0.42913 1.24975,-2.65027 1.49122,-2.65027 0.10455,0 0.19181,-0.16717 0.1939,-0.37148 0.005,-0.47616 1.83614,-3.6618 2.105,-3.6618 0.11166,0 0.20148,-0.16717 0.1996,-0.37149 -0.005,-0.5578 1.75015,-3.86867 2.05252,-3.87156 0.14448,-8.8e-4 0.2627,-0.21575 0.2627,-0.47636 0,-0.26062 0.55779,-1.62184 1.23954,-3.02496 1.58157,-3.25507 1.85835,-4.16017 1.50905,-4.93454 -0.59338,-1.3154 -1.99751,-3.24598 -2.71562,-3.73379 -0.4227,-0.28713 -1.57243,-1.2622 -2.55494,-2.16684 -0.98252,-0.90463 -4.57615,-4.09153 -7.98584,-7.08201 -3.4097,-2.99048 -6.94033,-6.14994 -7.84586,-7.02103 l -1.64641,-1.58379 0.13709,-0.963546 c 0.14305,-1.005426 2.23315,-6.02309 2.75157,-6.605636 0.16403,-0.184322 0.29824,-0.441239 0.29824,-0.570927 0,-0.432733 3.72498,-7.996557 4.38508,-8.904199 0.35782,-0.492011 0.93481,-1.043023 1.28219,-1.224467 0.92741,-0.484409 3.96748,-1.017693 4.99859,-0.876851 0.69857,0.09542 0.8932,0.05439 0.8932,-0.188306 0,-0.50018 1.77522,-0.803739 2.57452,-0.440239 0.26204,0.119164 0.36779,0.07402 0.36779,-0.157002 0,-0.381298 1.04888,-0.666883 1.69203,-0.460701 0.27344,0.08766 0.53426,0.02627 0.68776,-0.161872 0.27807,-0.340833 2.1125,-0.796814 3.20561,-0.796814 0.39576,0 0.71955,-0.08234 0.71955,-0.182973 0,-0.100635 0.49651,-0.287506 1.10337,-0.415267 0.60685,-0.127763 2.33283,-0.513833 3.8355,-0.857932 2.88984,-0.661747 6.609658,-1.30895 10.087918,-1.755177 2.54125,-0.326019 9.84933,-0.346548 10.23801,-0.02876 0.14863,0.121517 0.97301,0.259557 1.83196,0.306756 0.96579,0.05307 1.59401,0.183593 1.6463,0.342053 0.0494,0.149691 0.47917,0.256238 1.03357,0.256238 0.52195,0 1.24702,0.129103 1.61125,0.286895 0.36425,0.157792 1.13514,0.396033 1.71309,0.529424 1.26669,0.292353 8.41025,3.8786 9.75829,4.898916 1.88259,1.424895 3.95547,3.410195 4.21085,4.032919 0.14272,0.348034 0.48031,0.778931 0.7502,0.957548 1.29918,0.859817 3.84804,5.364945 5.11239,9.036186 0.46239,1.342661 1.05042,3.014353 1.30672,3.714872 0.44499,1.216272 0.47472,1.728072 0.6598,11.356892 0.19106,9.94109 0.16549,10.81801 -0.4637,15.90265 -0.10711,0.86563 -0.30721,1.64407 -0.44465,1.72988 -0.13746,0.0858 -0.19055,0.31225 -0.11799,0.50323 0.16692,0.43938 -0.25051,2.45524 -0.50841,2.45524 -0.10601,0 -0.19276,0.38565 -0.19276,0.85699 0,0.48094 -0.54567,2.50691 -1.24356,4.61705 -0.68396,2.06804 -1.97199,6.03335 -2.86229,8.81182 -0.89029,2.77846 -1.7493,5.18366 -1.90891,5.34486 -0.1596,0.16122 -0.29018,0.49575 -0.29018,0.74343 0,0.859 -1.29824,4.25014 -1.6271,4.25014 -0.21967,0 -0.27716,0.14002 -0.19221,0.46811 0.0695,0.26848 -0.15781,1.28205 -0.53304,2.37675 -0.35983,1.04974 -1.38704,4.30188 -2.28271,7.22697 -0.89567,2.925105 -1.77589,5.748215 -1.95606,6.273605 -0.18016,0.52539 -0.44103,1.50451 -0.57969,2.17586 -0.19653,0.95152 -0.33736,1.22059 -0.63886,1.22059 -0.43494,0 -0.49852,0.22676 -0.15957,0.56911 0.26969,0.27242 -1.25114,6.01151 -1.59303,6.01151 -0.11572,0 -0.2104,0.43757 -0.2104,0.97237 0,0.61247 -0.11667,1.06425 -0.31525,1.22059 -0.18137,0.14282 -0.33424,0.65266 -0.35996,1.20056 -0.0246,0.52378 -0.16991,1.04917 -0.32289,1.16753 -0.15301,0.11838 -0.24327,0.38707 -0.20061,0.59712 0.0427,0.21005 -0.0699,0.83096 -0.2502,1.37981 -0.18029,0.54885 -0.94924,3.04198 -1.7088,5.54029 -2.42264,7.9686 -3.74616,11.29743 -5.62125,14.13811 -1.55523,2.35611 -3.36218,3.95102 -4.77667,4.21613 -0.40457,0.0759 -1.0193,0.29449 -1.36607,0.48593 -0.78513,0.43342 -4.22412,0.66879 -4.57616,0.31319 -0.13014,-0.13145 -0.46,-0.23899 -0.73302,-0.23899 -0.85779,0 -2.68976,-1.02623 -3.79677,-2.12688 -1.03376,-1.02782 -1.69061,-2.19728 -3.086478,-5.49521 -0.71068,-1.67908 -2.41404,-7.52966 -2.41404,-8.29156 0,-0.30754 -0.103,-0.66319 -0.22889,-0.79035 -0.12589,-0.12715 -0.25281,-0.60001 -0.28205,-1.05078 -0.0293,-0.45077 -0.15859,-1.05839 -0.28748,-1.35027 -0.41644,-0.94303 -1.57268,-5.60735 -1.5392,-6.20914 0.0178,-0.32108 -0.0521,-0.58377 -0.15547,-0.58377 -0.10338,0 -0.53692,-1.0269 -0.96342,-2.28199 -0.42651,-1.25509 -1.24189,-3.27341 -1.81195,-4.48513 -0.57006,-1.21172 -1.03648,-2.42966 -1.03648,-2.70655 0,-0.28642 -0.12498,-0.50341 -0.28993,-0.50341 -0.15946,0 -0.6477,-0.45374 -1.08499,-1.00832 -0.43729,-0.55457 -1.21434,-1.45077 -1.7268,-1.99153 -0.57749,-0.6094 -0.84416,-1.03787 -0.70141,-1.12698 0.45828,-0.28608 0.21455,-0.5433 -0.5148,-0.5433 -0.49098,0 -0.90819,-0.1629 -1.22317,-0.47763 -0.51169,-0.51124 -1.02451,-0.74424 -3.49599,-1.58836 -3.13596,-1.07105 -7.38523,-0.87752 -10.71212,0.48791 -0.69241,0.28418 -1.54453,0.5167 -1.8936,0.5167 -0.4826,0 -0.63467,0.0963 -0.63467,0.40184 0,0.44056 -0.38949,0.65954 -1.17309,0.65954 -0.35439,0 -0.50823,0.11888 -0.50823,0.39273 0,0.39735 -2.29718,2.57917 -2.71554,2.57917 -0.12472,0 -0.22676,0.14201 -0.22676,0.31558 0,0.4417 -1.10022,2.00167 -1.41862,2.01142 -0.14448,0.004 -0.2627,0.18566 -0.2627,0.40273 0,0.21707 -0.32496,1.10504 -0.72211,1.97329 -0.39717,0.86825 -1.04983,2.6728 -1.45037,4.01012 -0.49448,1.65092 -0.83589,2.45346 -1.06352,2.49996 -0.26335,0.0538 -0.28843,0.15687 -0.1169,0.4806 0.28067,0.5297 0.0336,1.89212 -0.34312,1.89212 -0.20557,0 -0.2514,0.17784 -0.16206,0.62902 0.16751,0.84593 -0.0687,1.70604 -0.46847,1.70604 -0.24336,0 -0.28625,0.12043 -0.17014,0.47763 0.29938,0.92089 0.0248,2.28199 -0.46035,2.28199 -0.23986,0 -0.2877,0.12557 -0.18196,0.47762 0.19968,0.66483 0.19829,0.59357 0.031,1.59209 -0.10176,0.60755 -0.25746,0.90218 -0.47675,0.90218 -0.26507,0 -0.30021,0.17137 -0.1889,0.92112 0.1034,0.69642 0.0552,1.0034 -0.19728,1.2585 -0.18373,0.18557 -0.33405,0.62587 -0.33405,0.97844 0,1.65927 -2.15015,7.10885 -3.6329,9.20765 -1.79944,2.54703 -3.15138,3.41632 -5.84341,3.75727 -2.21789,0.28089 -3.11681,0.2615 -4.78008,-0.10316 z"
     id="path9" />
</svg>
